%TF.GenerationSoftware,KiCad,Pcbnew,7.0.1*%
%TF.CreationDate,2023-12-13T14:51:24+00:00*%
%TF.ProjectId,UoB Amptek,556f4220-416d-4707-9465-6b2e6b696361,1*%
%TF.SameCoordinates,Original*%
%TF.FileFunction,Copper,L3,Inr*%
%TF.FilePolarity,Positive*%
%FSLAX46Y46*%
G04 Gerber Fmt 4.6, Leading zero omitted, Abs format (unit mm)*
G04 Created by KiCad (PCBNEW 7.0.1) date 2023-12-13 14:51:24*
%MOMM*%
%LPD*%
G01*
G04 APERTURE LIST*
%TA.AperFunction,ComponentPad*%
%ADD10R,3.000000X2.000000*%
%TD*%
%TA.AperFunction,ComponentPad*%
%ADD11O,3.000000X2.000000*%
%TD*%
%TA.AperFunction,ComponentPad*%
%ADD12C,0.600000*%
%TD*%
%TA.AperFunction,ComponentPad*%
%ADD13R,2.000000X3.000000*%
%TD*%
%TA.AperFunction,ComponentPad*%
%ADD14O,2.000000X3.000000*%
%TD*%
%TA.AperFunction,ComponentPad*%
%ADD15C,1.000000*%
%TD*%
%TA.AperFunction,ComponentPad*%
%ADD16R,1.600000X2.400000*%
%TD*%
%TA.AperFunction,ComponentPad*%
%ADD17O,1.600000X2.400000*%
%TD*%
%TA.AperFunction,ComponentPad*%
%ADD18R,1.850000X1.850000*%
%TD*%
%TA.AperFunction,ComponentPad*%
%ADD19C,1.850000*%
%TD*%
%TA.AperFunction,ViaPad*%
%ADD20C,1.800000*%
%TD*%
%TA.AperFunction,ViaPad*%
%ADD21C,0.800000*%
%TD*%
%TA.AperFunction,Conductor*%
%ADD22C,0.250000*%
%TD*%
%TA.AperFunction,Conductor*%
%ADD23C,0.200000*%
%TD*%
%TA.AperFunction,Conductor*%
%ADD24C,0.800000*%
%TD*%
G04 APERTURE END LIST*
D10*
%TO.N,/+9V*%
%TO.C,J1*%
X95678000Y-71221600D03*
X90678000Y-71221600D03*
D11*
%TO.N,GND*%
X95678000Y-73761600D03*
X90678000Y-73761600D03*
%TO.N,/-9V*%
X95678000Y-76301600D03*
X90678000Y-76301600D03*
%TD*%
D12*
%TO.N,GND*%
%TO.C,U4*%
X112316400Y-76037600D03*
X112316400Y-77327600D03*
X113286400Y-76037600D03*
X113286400Y-77327600D03*
%TD*%
D13*
%TO.N,/Vo-*%
%TO.C,J4*%
X155625800Y-66649600D03*
X155625800Y-61649600D03*
D14*
X153085800Y-66649600D03*
X153085800Y-61649600D03*
%TO.N,/Vo+*%
X150545800Y-66649600D03*
X150545800Y-61649600D03*
X148005800Y-66649600D03*
X148005800Y-61649600D03*
%TO.N,GND*%
X145465800Y-66649600D03*
X145465800Y-61649600D03*
%TO.N,/Vocm*%
X142925800Y-66649600D03*
X142925800Y-61649600D03*
%TD*%
D15*
%TO.N,unconnected-(TP2-Pad1)*%
%TO.C,IAC*%
X103100604Y-60971500D03*
%TO.N,N/C*%
X103608604Y-62139900D03*
X104065804Y-63333700D03*
%TD*%
D16*
%TO.N,Net-(U3-IN)*%
%TO.C,U3*%
X105105200Y-92303600D03*
D17*
%TO.N,GND*%
X107645200Y-92303600D03*
X110185200Y-92303600D03*
X112725200Y-92303600D03*
X115265200Y-92303600D03*
X117805200Y-92303600D03*
X120345200Y-92303600D03*
%TO.N,Net-(R4-Pad2)*%
X120345200Y-84683600D03*
%TO.N,GND*%
X117805200Y-84683600D03*
X115265200Y-84683600D03*
%TO.N,/+6V*%
X112725200Y-84683600D03*
%TO.N,Net-(U3-TMG-)*%
X110185200Y-84683600D03*
%TO.N,GND*%
X107645200Y-84683600D03*
%TO.N,unconnected-(U3-COMP-Pad14)*%
X105105200Y-84683600D03*
%TD*%
D18*
%TO.N,GND*%
%TO.C,PS1*%
X155702000Y-77800000D03*
D19*
%TO.N,/+1-5V HiVip*%
X151892000Y-77800000D03*
%TO.N,Net-(PS1-+HV)*%
X155702000Y-87198000D03*
%TO.N,GND*%
X145542000Y-87198000D03*
%TO.N,N/C*%
X148082000Y-77800000D03*
%TD*%
D20*
%TO.N,/+6V*%
X130124200Y-78003400D03*
D21*
X108837600Y-74498200D03*
D20*
X115366800Y-56997600D03*
X117652800Y-56997600D03*
D21*
X108331000Y-70129400D03*
X109270800Y-70129400D03*
X127152400Y-85166200D03*
%TO.N,/-6V*%
X115848000Y-70129400D03*
D20*
X133934200Y-56946800D03*
D21*
X127152400Y-84023200D03*
D20*
X131699000Y-56946800D03*
D21*
X116789200Y-70129400D03*
D20*
X126060200Y-77978000D03*
D21*
X116813200Y-74498200D03*
%TO.N,/Vo-*%
X113314800Y-82296000D03*
X152340800Y-69291200D03*
%TO.N,/Vo+*%
X151290800Y-69291200D03*
X112264800Y-82296000D03*
%TO.N,/Vocm*%
X110006000Y-74523600D03*
X144703800Y-72415400D03*
D20*
%TO.N,Net-(C20-Pad2)*%
X124104400Y-88392000D03*
X101193600Y-89890600D03*
%TD*%
D22*
%TO.N,/Vocm*%
X144602200Y-72517000D02*
X144703800Y-72415400D01*
X112012600Y-72517000D02*
X144602200Y-72517000D01*
X110006000Y-74523600D02*
X112012600Y-72517000D01*
D23*
%TO.N,/Vo+*%
X151640800Y-69641200D02*
X151290800Y-69291200D01*
X151640800Y-71341196D02*
X151640800Y-69641200D01*
X151469853Y-71512143D02*
X151640800Y-71341196D01*
%TO.N,/Vo-*%
X152040800Y-69591200D02*
X152340800Y-69291200D01*
X147599796Y-76018600D02*
X152040800Y-71577596D01*
X118304800Y-76018600D02*
X147599796Y-76018600D01*
X113014801Y-81308599D02*
X118304800Y-76018600D01*
X152040800Y-71577596D02*
X152040800Y-69591200D01*
X113014801Y-81996001D02*
X113014801Y-81308599D01*
X113314800Y-82296000D02*
X113014801Y-81996001D01*
%TO.N,/Vo+*%
X151290800Y-69291200D02*
X151590800Y-69591200D01*
X118118400Y-75568600D02*
X147413396Y-75568600D01*
X147413396Y-75568600D02*
X151469853Y-71512143D01*
X112564799Y-81122201D02*
X118118400Y-75568600D01*
X112564799Y-81996001D02*
X112564799Y-81122201D01*
X112264800Y-82296000D02*
X112564799Y-81996001D01*
D24*
%TO.N,GND*%
X145465800Y-66649600D02*
X145465800Y-61649600D01*
D23*
%TO.N,/Vo-*%
X155625800Y-61649600D02*
X153085800Y-61649600D01*
X153085800Y-66649600D02*
X155625800Y-66649600D01*
X155625800Y-66649600D02*
X155625800Y-61649600D01*
%TO.N,/Vo+*%
X148005800Y-66649600D02*
X150545800Y-66649600D01*
X148005800Y-61649600D02*
X148005800Y-66649600D01*
X150545800Y-61649600D02*
X148005800Y-61649600D01*
%TD*%
%TA.AperFunction,Conductor*%
%TO.N,/-6V*%
G36*
X114264743Y-55893053D02*
G01*
X114308463Y-55929466D01*
X114331319Y-55981570D01*
X114328498Y-56038397D01*
X114300594Y-56087982D01*
X114257822Y-56134444D01*
X114130876Y-56328750D01*
X114037644Y-56541296D01*
X114037642Y-56541300D01*
X114037643Y-56541300D01*
X114022187Y-56602336D01*
X113980665Y-56766300D01*
X113961499Y-56997599D01*
X113980665Y-57228899D01*
X113980665Y-57228901D01*
X113980666Y-57228905D01*
X114037643Y-57453900D01*
X114037644Y-57453903D01*
X114052676Y-57488172D01*
X114130876Y-57666449D01*
X114257821Y-57860753D01*
X114415016Y-58031513D01*
X114598174Y-58174070D01*
X114802297Y-58284536D01*
X114912058Y-58322217D01*
X115021815Y-58359897D01*
X115021817Y-58359897D01*
X115021819Y-58359898D01*
X115250751Y-58398100D01*
X115482848Y-58398100D01*
X115482849Y-58398100D01*
X115711781Y-58359898D01*
X115931303Y-58284536D01*
X116135426Y-58174070D01*
X116318584Y-58031513D01*
X116418571Y-57922896D01*
X116476059Y-57887560D01*
X116543541Y-57887560D01*
X116601028Y-57922896D01*
X116701016Y-58031513D01*
X116884174Y-58174070D01*
X117088297Y-58284536D01*
X117198058Y-58322217D01*
X117307815Y-58359897D01*
X117307817Y-58359897D01*
X117307819Y-58359898D01*
X117536751Y-58398100D01*
X117768848Y-58398100D01*
X117768849Y-58398100D01*
X117997781Y-58359898D01*
X118217303Y-58284536D01*
X118421426Y-58174070D01*
X118604584Y-58031513D01*
X118691222Y-57937399D01*
X159654940Y-57937399D01*
X159675536Y-58172807D01*
X159705474Y-58284536D01*
X159736697Y-58401063D01*
X159836565Y-58615229D01*
X159972105Y-58808801D01*
X160139199Y-58975895D01*
X160332771Y-59111435D01*
X160546937Y-59211303D01*
X160775192Y-59272463D01*
X160951632Y-59287900D01*
X160951634Y-59287900D01*
X161069566Y-59287900D01*
X161069568Y-59287900D01*
X161187193Y-59277608D01*
X161246008Y-59272463D01*
X161474263Y-59211303D01*
X161688429Y-59111435D01*
X161882001Y-58975895D01*
X162049095Y-58808801D01*
X162184635Y-58615230D01*
X162284503Y-58401063D01*
X162345663Y-58172808D01*
X162366259Y-57937400D01*
X162361898Y-57887560D01*
X162345663Y-57701992D01*
X162336139Y-57666449D01*
X162284503Y-57473737D01*
X162184635Y-57259571D01*
X162049095Y-57065999D01*
X161882001Y-56898905D01*
X161688429Y-56763365D01*
X161474263Y-56663497D01*
X161474262Y-56663496D01*
X161246007Y-56602336D01*
X161069568Y-56586900D01*
X161069566Y-56586900D01*
X160951634Y-56586900D01*
X160951632Y-56586900D01*
X160775192Y-56602336D01*
X160546936Y-56663497D01*
X160332770Y-56763365D01*
X160139198Y-56898905D01*
X159972108Y-57065995D01*
X159836564Y-57259572D01*
X159736697Y-57473737D01*
X159675536Y-57701992D01*
X159654940Y-57937399D01*
X118691222Y-57937399D01*
X118761779Y-57860753D01*
X118888724Y-57666449D01*
X118981957Y-57453900D01*
X119038934Y-57228905D01*
X119058100Y-56997600D01*
X119038934Y-56766295D01*
X118981957Y-56541300D01*
X118888724Y-56328751D01*
X118761779Y-56134447D01*
X118761778Y-56134446D01*
X118761777Y-56134444D01*
X118719006Y-56087982D01*
X118691102Y-56038397D01*
X118688281Y-55981570D01*
X118711137Y-55929466D01*
X118754857Y-55893053D01*
X118810236Y-55880000D01*
X162944000Y-55880000D01*
X163006000Y-55896613D01*
X163051387Y-55942000D01*
X163068000Y-56004000D01*
X163068000Y-94110000D01*
X163051387Y-94172000D01*
X163006000Y-94217387D01*
X162944000Y-94234000D01*
X120600292Y-94234000D01*
X120543035Y-94219989D01*
X120498717Y-94181123D01*
X120477353Y-94126185D01*
X120483770Y-94067590D01*
X120516519Y-94018578D01*
X120568198Y-93990225D01*
X120616306Y-93977334D01*
X120791696Y-93930339D01*
X120997934Y-93834168D01*
X121184339Y-93703647D01*
X121345247Y-93542739D01*
X121475768Y-93356334D01*
X121571939Y-93150096D01*
X121630835Y-92930292D01*
X121645700Y-92760384D01*
X121645700Y-91947999D01*
X159680340Y-91947999D01*
X159700936Y-92183407D01*
X159762097Y-92411662D01*
X159762097Y-92411663D01*
X159861965Y-92625829D01*
X159997505Y-92819401D01*
X160164599Y-92986495D01*
X160358171Y-93122035D01*
X160572337Y-93221903D01*
X160800592Y-93283063D01*
X160977032Y-93298500D01*
X160977034Y-93298500D01*
X161094966Y-93298500D01*
X161094968Y-93298500D01*
X161212593Y-93288208D01*
X161271408Y-93283063D01*
X161499663Y-93221903D01*
X161713829Y-93122035D01*
X161907401Y-92986495D01*
X162074495Y-92819401D01*
X162210035Y-92625830D01*
X162309903Y-92411663D01*
X162371063Y-92183408D01*
X162391659Y-91948000D01*
X162371063Y-91712592D01*
X162309903Y-91484337D01*
X162210035Y-91270171D01*
X162074495Y-91076599D01*
X161907401Y-90909505D01*
X161713829Y-90773965D01*
X161499663Y-90674097D01*
X161271407Y-90612936D01*
X161094968Y-90597500D01*
X161094966Y-90597500D01*
X160977034Y-90597500D01*
X160977032Y-90597500D01*
X160800592Y-90612936D01*
X160572336Y-90674097D01*
X160358170Y-90773965D01*
X160164598Y-90909505D01*
X159997508Y-91076595D01*
X159997505Y-91076598D01*
X159997505Y-91076599D01*
X159875484Y-91250864D01*
X159861964Y-91270172D01*
X159762097Y-91484337D01*
X159700936Y-91712592D01*
X159680340Y-91947999D01*
X121645700Y-91947999D01*
X121645700Y-91846816D01*
X121630835Y-91676908D01*
X121571939Y-91457104D01*
X121475768Y-91250866D01*
X121424422Y-91177536D01*
X121345246Y-91064459D01*
X121184340Y-90903553D01*
X120997935Y-90773032D01*
X120791697Y-90676861D01*
X120571889Y-90617964D01*
X120345200Y-90598131D01*
X120118510Y-90617964D01*
X119898702Y-90676861D01*
X119692464Y-90773032D01*
X119506059Y-90903553D01*
X119345153Y-91064459D01*
X119214633Y-91250863D01*
X119187582Y-91308875D01*
X119141825Y-91361050D01*
X119075200Y-91380469D01*
X119008575Y-91361050D01*
X118962818Y-91308875D01*
X118935768Y-91250866D01*
X118849877Y-91128200D01*
X118805246Y-91064459D01*
X118644340Y-90903553D01*
X118457935Y-90773032D01*
X118251697Y-90676861D01*
X118031889Y-90617964D01*
X117805200Y-90598131D01*
X117578510Y-90617964D01*
X117358702Y-90676861D01*
X117152464Y-90773032D01*
X116966059Y-90903553D01*
X116805153Y-91064459D01*
X116674633Y-91250863D01*
X116647582Y-91308875D01*
X116601825Y-91361050D01*
X116535200Y-91380469D01*
X116468575Y-91361050D01*
X116422818Y-91308875D01*
X116395768Y-91250866D01*
X116309877Y-91128200D01*
X116265246Y-91064459D01*
X116104340Y-90903553D01*
X115917935Y-90773032D01*
X115711697Y-90676861D01*
X115491889Y-90617964D01*
X115265200Y-90598131D01*
X115038510Y-90617964D01*
X114818702Y-90676861D01*
X114612464Y-90773032D01*
X114426059Y-90903553D01*
X114265153Y-91064459D01*
X114134633Y-91250863D01*
X114107582Y-91308875D01*
X114061825Y-91361050D01*
X113995200Y-91380469D01*
X113928575Y-91361050D01*
X113882818Y-91308875D01*
X113855768Y-91250866D01*
X113769877Y-91128200D01*
X113725246Y-91064459D01*
X113564340Y-90903553D01*
X113377935Y-90773032D01*
X113171697Y-90676861D01*
X112951889Y-90617964D01*
X112725200Y-90598131D01*
X112498510Y-90617964D01*
X112278702Y-90676861D01*
X112072464Y-90773032D01*
X111886059Y-90903553D01*
X111725153Y-91064459D01*
X111594633Y-91250863D01*
X111567582Y-91308875D01*
X111521825Y-91361050D01*
X111455200Y-91380469D01*
X111388575Y-91361050D01*
X111342818Y-91308875D01*
X111315768Y-91250866D01*
X111229877Y-91128200D01*
X111185246Y-91064459D01*
X111024340Y-90903553D01*
X110837935Y-90773032D01*
X110631697Y-90676861D01*
X110411889Y-90617964D01*
X110185200Y-90598131D01*
X109958510Y-90617964D01*
X109738702Y-90676861D01*
X109532464Y-90773032D01*
X109346059Y-90903553D01*
X109185153Y-91064459D01*
X109054633Y-91250863D01*
X109027582Y-91308875D01*
X108981825Y-91361050D01*
X108915200Y-91380469D01*
X108848575Y-91361050D01*
X108802818Y-91308875D01*
X108775768Y-91250866D01*
X108689877Y-91128200D01*
X108645246Y-91064459D01*
X108484340Y-90903553D01*
X108297935Y-90773032D01*
X108091697Y-90676861D01*
X107871889Y-90617964D01*
X107645200Y-90598131D01*
X107418510Y-90617964D01*
X107198702Y-90676861D01*
X106992464Y-90773032D01*
X106806059Y-90903553D01*
X106645151Y-91064461D01*
X106627925Y-91089063D01*
X106583082Y-91128200D01*
X106525169Y-91141933D01*
X106467528Y-91127099D01*
X106423439Y-91087114D01*
X106403061Y-91031192D01*
X106399291Y-90996117D01*
X106348996Y-90861269D01*
X106262746Y-90746054D01*
X106147531Y-90659804D01*
X106012683Y-90609509D01*
X105953073Y-90603100D01*
X105953069Y-90603100D01*
X104257330Y-90603100D01*
X104197715Y-90609509D01*
X104062869Y-90659804D01*
X103947654Y-90746054D01*
X103861404Y-90861268D01*
X103811109Y-90996116D01*
X103804700Y-91055730D01*
X103804700Y-93551469D01*
X103811109Y-93611083D01*
X103861404Y-93745931D01*
X103947654Y-93861146D01*
X104062869Y-93947396D01*
X104175045Y-93989235D01*
X104187333Y-93993818D01*
X104242195Y-94034280D01*
X104267380Y-94097626D01*
X104255276Y-94164711D01*
X104209542Y-94215262D01*
X104143999Y-94234000D01*
X84960000Y-94234000D01*
X84898000Y-94217387D01*
X84852613Y-94172000D01*
X84836000Y-94110000D01*
X84836000Y-91947999D01*
X85766340Y-91947999D01*
X85786936Y-92183407D01*
X85848097Y-92411662D01*
X85848097Y-92411663D01*
X85947965Y-92625829D01*
X86083505Y-92819401D01*
X86250599Y-92986495D01*
X86444171Y-93122035D01*
X86658337Y-93221903D01*
X86886592Y-93283063D01*
X87063032Y-93298500D01*
X87063034Y-93298500D01*
X87180966Y-93298500D01*
X87180968Y-93298500D01*
X87298593Y-93288208D01*
X87357408Y-93283063D01*
X87585663Y-93221903D01*
X87799829Y-93122035D01*
X87993401Y-92986495D01*
X88160495Y-92819401D01*
X88296035Y-92625830D01*
X88395903Y-92411663D01*
X88457063Y-92183408D01*
X88477659Y-91948000D01*
X88457063Y-91712592D01*
X88395903Y-91484337D01*
X88296035Y-91270171D01*
X88160495Y-91076599D01*
X87993401Y-90909505D01*
X87799829Y-90773965D01*
X87585663Y-90674097D01*
X87357407Y-90612936D01*
X87180968Y-90597500D01*
X87180966Y-90597500D01*
X87063034Y-90597500D01*
X87063032Y-90597500D01*
X86886592Y-90612936D01*
X86658336Y-90674097D01*
X86444170Y-90773965D01*
X86250598Y-90909505D01*
X86083508Y-91076595D01*
X86083505Y-91076598D01*
X86083505Y-91076599D01*
X85961484Y-91250864D01*
X85947964Y-91270172D01*
X85848097Y-91484337D01*
X85786936Y-91712592D01*
X85766340Y-91947999D01*
X84836000Y-91947999D01*
X84836000Y-89890600D01*
X99788299Y-89890600D01*
X99807465Y-90121899D01*
X99807465Y-90121901D01*
X99807466Y-90121905D01*
X99864443Y-90346900D01*
X99957676Y-90559449D01*
X100084621Y-90753753D01*
X100241816Y-90924513D01*
X100424974Y-91067070D01*
X100629097Y-91177536D01*
X100738857Y-91215216D01*
X100848615Y-91252897D01*
X100848617Y-91252897D01*
X100848619Y-91252898D01*
X101077551Y-91291100D01*
X101309648Y-91291100D01*
X101309649Y-91291100D01*
X101538581Y-91252898D01*
X101758103Y-91177536D01*
X101962226Y-91067070D01*
X102145384Y-90924513D01*
X102302579Y-90753753D01*
X102429524Y-90559449D01*
X102522757Y-90346900D01*
X102579734Y-90121905D01*
X102598900Y-89890600D01*
X102579734Y-89659295D01*
X102522757Y-89434300D01*
X102429524Y-89221751D01*
X102302579Y-89027447D01*
X102145384Y-88856687D01*
X101962226Y-88714130D01*
X101758103Y-88603664D01*
X101758099Y-88603662D01*
X101758098Y-88603662D01*
X101538584Y-88528302D01*
X101366882Y-88499650D01*
X101309649Y-88490100D01*
X101077551Y-88490100D01*
X101031764Y-88497740D01*
X100848615Y-88528302D01*
X100629101Y-88603662D01*
X100629097Y-88603663D01*
X100629097Y-88603664D01*
X100493015Y-88677307D01*
X100424972Y-88714131D01*
X100241815Y-88856687D01*
X100084620Y-89027448D01*
X99957676Y-89221750D01*
X99864444Y-89434296D01*
X99807465Y-89659300D01*
X99788299Y-89890600D01*
X84836000Y-89890600D01*
X84836000Y-89340099D01*
X85359500Y-89340099D01*
X85359617Y-89340383D01*
X85359808Y-89340461D01*
X85359999Y-89340541D01*
X85360000Y-89340541D01*
X85360001Y-89340541D01*
X85360127Y-89340488D01*
X85360383Y-89340383D01*
X85360500Y-89340099D01*
X85360500Y-87580000D01*
X85964340Y-87580000D01*
X85984936Y-87815407D01*
X86046096Y-88043662D01*
X86046097Y-88043663D01*
X86145965Y-88257829D01*
X86281505Y-88451401D01*
X86448599Y-88618495D01*
X86642171Y-88754035D01*
X86856337Y-88853903D01*
X87084591Y-88915062D01*
X87084592Y-88915063D01*
X87261032Y-88930500D01*
X87261034Y-88930500D01*
X87378966Y-88930500D01*
X87378968Y-88930500D01*
X87496593Y-88920208D01*
X87555408Y-88915063D01*
X87783663Y-88853903D01*
X87997829Y-88754035D01*
X88191401Y-88618495D01*
X88358495Y-88451401D01*
X88494035Y-88257830D01*
X88593903Y-88043663D01*
X88655063Y-87815408D01*
X88675659Y-87580000D01*
X91044340Y-87580000D01*
X91064936Y-87815407D01*
X91126096Y-88043662D01*
X91126097Y-88043663D01*
X91225965Y-88257829D01*
X91361505Y-88451401D01*
X91528599Y-88618495D01*
X91722171Y-88754035D01*
X91936337Y-88853903D01*
X92164591Y-88915062D01*
X92164592Y-88915063D01*
X92341032Y-88930500D01*
X92341034Y-88930500D01*
X92458966Y-88930500D01*
X92458968Y-88930500D01*
X92576593Y-88920208D01*
X92635408Y-88915063D01*
X92863663Y-88853903D01*
X93077829Y-88754035D01*
X93271401Y-88618495D01*
X93438495Y-88451401D01*
X93480089Y-88391999D01*
X122699099Y-88391999D01*
X122718265Y-88623299D01*
X122718265Y-88623301D01*
X122718266Y-88623305D01*
X122751372Y-88754035D01*
X122775244Y-88848303D01*
X122778922Y-88856687D01*
X122868476Y-89060849D01*
X122995421Y-89255153D01*
X123152616Y-89425913D01*
X123335774Y-89568470D01*
X123539897Y-89678936D01*
X123649657Y-89716616D01*
X123759415Y-89754297D01*
X123759417Y-89754297D01*
X123759419Y-89754298D01*
X123988351Y-89792500D01*
X124220448Y-89792500D01*
X124220449Y-89792500D01*
X124449381Y-89754298D01*
X124668903Y-89678936D01*
X124873026Y-89568470D01*
X125056184Y-89425913D01*
X125213379Y-89255153D01*
X125340324Y-89060849D01*
X125433557Y-88848300D01*
X125490534Y-88623305D01*
X125509700Y-88392000D01*
X125490534Y-88160695D01*
X125433557Y-87935700D01*
X125340324Y-87723151D01*
X125213379Y-87528847D01*
X125056184Y-87358087D01*
X124873026Y-87215530D01*
X124840633Y-87198000D01*
X144111614Y-87198000D01*
X144131123Y-87433429D01*
X144131123Y-87433432D01*
X144131124Y-87433434D01*
X144168239Y-87580000D01*
X144189118Y-87662447D01*
X144284013Y-87878788D01*
X144413226Y-88076563D01*
X144573223Y-88250365D01*
X144573227Y-88250368D01*
X144759654Y-88395470D01*
X144967421Y-88507908D01*
X145026826Y-88528302D01*
X145190857Y-88584615D01*
X145190859Y-88584615D01*
X145190861Y-88584616D01*
X145423880Y-88623500D01*
X145660119Y-88623500D01*
X145660120Y-88623500D01*
X145893139Y-88584616D01*
X146116579Y-88507908D01*
X146324346Y-88395470D01*
X146510773Y-88250368D01*
X146670775Y-88076561D01*
X146799986Y-87878788D01*
X146894883Y-87662445D01*
X146952876Y-87433434D01*
X146972385Y-87198000D01*
X154271614Y-87198000D01*
X154291123Y-87433429D01*
X154291123Y-87433432D01*
X154291124Y-87433434D01*
X154328239Y-87580000D01*
X154349118Y-87662447D01*
X154444013Y-87878788D01*
X154573226Y-88076563D01*
X154733223Y-88250365D01*
X154733227Y-88250368D01*
X154919654Y-88395470D01*
X155127421Y-88507908D01*
X155186826Y-88528302D01*
X155350857Y-88584615D01*
X155350859Y-88584615D01*
X155350861Y-88584616D01*
X155583880Y-88623500D01*
X155820119Y-88623500D01*
X155820120Y-88623500D01*
X156053139Y-88584616D01*
X156276579Y-88507908D01*
X156484346Y-88395470D01*
X156670773Y-88250368D01*
X156830775Y-88076561D01*
X156959986Y-87878788D01*
X157054883Y-87662445D01*
X157112876Y-87433434D01*
X157132385Y-87198000D01*
X157112876Y-86962566D01*
X157054883Y-86733555D01*
X156959986Y-86517212D01*
X156959986Y-86517211D01*
X156830773Y-86319436D01*
X156670776Y-86145634D01*
X156555312Y-86055765D01*
X156484346Y-86000530D01*
X156276579Y-85888092D01*
X156276575Y-85888090D01*
X156276574Y-85888090D01*
X156053142Y-85811384D01*
X155878374Y-85782220D01*
X155820120Y-85772500D01*
X155583880Y-85772500D01*
X155537276Y-85780276D01*
X155350857Y-85811384D01*
X155127425Y-85888090D01*
X155127421Y-85888091D01*
X155127421Y-85888092D01*
X155063399Y-85922739D01*
X154919652Y-86000531D01*
X154733223Y-86145634D01*
X154573226Y-86319436D01*
X154444013Y-86517211D01*
X154349118Y-86733552D01*
X154291123Y-86962570D01*
X154271614Y-87198000D01*
X146972385Y-87198000D01*
X146952876Y-86962566D01*
X146894883Y-86733555D01*
X146799986Y-86517212D01*
X146799986Y-86517211D01*
X146670773Y-86319436D01*
X146510776Y-86145634D01*
X146395312Y-86055765D01*
X146324346Y-86000530D01*
X146116579Y-85888092D01*
X146116575Y-85888090D01*
X146116574Y-85888090D01*
X145893142Y-85811384D01*
X145718374Y-85782220D01*
X145660120Y-85772500D01*
X145423880Y-85772500D01*
X145377276Y-85780276D01*
X145190857Y-85811384D01*
X144967425Y-85888090D01*
X144967421Y-85888091D01*
X144967421Y-85888092D01*
X144903399Y-85922739D01*
X144759652Y-86000531D01*
X144573223Y-86145634D01*
X144413226Y-86319436D01*
X144284013Y-86517211D01*
X144189118Y-86733552D01*
X144131123Y-86962570D01*
X144111614Y-87198000D01*
X124840633Y-87198000D01*
X124668903Y-87105064D01*
X124668899Y-87105062D01*
X124668898Y-87105062D01*
X124449384Y-87029702D01*
X124277681Y-87001050D01*
X124220449Y-86991500D01*
X123988351Y-86991500D01*
X123942564Y-86999140D01*
X123759415Y-87029702D01*
X123539901Y-87105062D01*
X123539897Y-87105063D01*
X123539897Y-87105064D01*
X123403815Y-87178707D01*
X123335772Y-87215531D01*
X123152615Y-87358087D01*
X122995420Y-87528848D01*
X122868476Y-87723150D01*
X122775244Y-87935696D01*
X122718265Y-88160700D01*
X122699099Y-88391999D01*
X93480089Y-88391999D01*
X93574035Y-88257830D01*
X93673903Y-88043663D01*
X93735063Y-87815408D01*
X93755659Y-87580000D01*
X93735063Y-87344592D01*
X93673903Y-87116337D01*
X93574035Y-86902171D01*
X93438495Y-86708599D01*
X93271401Y-86541505D01*
X93077829Y-86405965D01*
X92863663Y-86306097D01*
X92635407Y-86244936D01*
X92458968Y-86229500D01*
X92458966Y-86229500D01*
X92341034Y-86229500D01*
X92341032Y-86229500D01*
X92164592Y-86244936D01*
X91936336Y-86306097D01*
X91722170Y-86405965D01*
X91528598Y-86541505D01*
X91361508Y-86708595D01*
X91225964Y-86902172D01*
X91126097Y-87116337D01*
X91064936Y-87344592D01*
X91044340Y-87580000D01*
X88675659Y-87580000D01*
X88655063Y-87344592D01*
X88593903Y-87116337D01*
X88494035Y-86902171D01*
X88358495Y-86708599D01*
X88191401Y-86541505D01*
X87997829Y-86405965D01*
X87783663Y-86306097D01*
X87555407Y-86244936D01*
X87378968Y-86229500D01*
X87378966Y-86229500D01*
X87261034Y-86229500D01*
X87261032Y-86229500D01*
X87084592Y-86244936D01*
X86856336Y-86306097D01*
X86642170Y-86405965D01*
X86448598Y-86541505D01*
X86281508Y-86708595D01*
X86145964Y-86902172D01*
X86046097Y-87116337D01*
X85984936Y-87344592D01*
X85964340Y-87580000D01*
X85360500Y-87580000D01*
X85360500Y-85096328D01*
X88605709Y-85096328D01*
X88635925Y-85319388D01*
X88704388Y-85530096D01*
X88705483Y-85533464D01*
X88812148Y-85731681D01*
X88912032Y-85856931D01*
X88936880Y-85888090D01*
X88952492Y-85907666D01*
X89122004Y-86055765D01*
X89122006Y-86055766D01*
X89315237Y-86171216D01*
X89433214Y-86215493D01*
X89525976Y-86250307D01*
X89747453Y-86290500D01*
X89916153Y-86290500D01*
X89916155Y-86290500D01*
X90084188Y-86275377D01*
X90301170Y-86215493D01*
X90503973Y-86117829D01*
X90686078Y-85985522D01*
X90841632Y-85822825D01*
X90965635Y-85634968D01*
X91054103Y-85427988D01*
X91104191Y-85208537D01*
X91107252Y-85140386D01*
X103804700Y-85140386D01*
X103819564Y-85310289D01*
X103878461Y-85530097D01*
X103974632Y-85736335D01*
X104105153Y-85922740D01*
X104266059Y-86083646D01*
X104452464Y-86214167D01*
X104452465Y-86214167D01*
X104452466Y-86214168D01*
X104658704Y-86310339D01*
X104878508Y-86369235D01*
X105105200Y-86389068D01*
X105331892Y-86369235D01*
X105551696Y-86310339D01*
X105757934Y-86214168D01*
X105944339Y-86083647D01*
X106105247Y-85922739D01*
X106235768Y-85736334D01*
X106262818Y-85678324D01*
X106308575Y-85626149D01*
X106375200Y-85606729D01*
X106441825Y-85626149D01*
X106487582Y-85678325D01*
X106514631Y-85736333D01*
X106645153Y-85922740D01*
X106806059Y-86083646D01*
X106992464Y-86214167D01*
X106992465Y-86214167D01*
X106992466Y-86214168D01*
X107198704Y-86310339D01*
X107418508Y-86369235D01*
X107645200Y-86389068D01*
X107871892Y-86369235D01*
X108091696Y-86310339D01*
X108297934Y-86214168D01*
X108484339Y-86083647D01*
X108645247Y-85922739D01*
X108775768Y-85736334D01*
X108802818Y-85678324D01*
X108848575Y-85626149D01*
X108915200Y-85606729D01*
X108981825Y-85626149D01*
X109027582Y-85678325D01*
X109054631Y-85736333D01*
X109185153Y-85922740D01*
X109346059Y-86083646D01*
X109532464Y-86214167D01*
X109532465Y-86214167D01*
X109532466Y-86214168D01*
X109738704Y-86310339D01*
X109958508Y-86369235D01*
X110185200Y-86389068D01*
X110411892Y-86369235D01*
X110631696Y-86310339D01*
X110837934Y-86214168D01*
X111024339Y-86083647D01*
X111185247Y-85922739D01*
X111315768Y-85736334D01*
X111342818Y-85678324D01*
X111388575Y-85626149D01*
X111455200Y-85606729D01*
X111521825Y-85626149D01*
X111567582Y-85678325D01*
X111594631Y-85736333D01*
X111725153Y-85922740D01*
X111886059Y-86083646D01*
X112072464Y-86214167D01*
X112072465Y-86214167D01*
X112072466Y-86214168D01*
X112278704Y-86310339D01*
X112498508Y-86369235D01*
X112725200Y-86389068D01*
X112951892Y-86369235D01*
X113171696Y-86310339D01*
X113377934Y-86214168D01*
X113564339Y-86083647D01*
X113725247Y-85922739D01*
X113855768Y-85736334D01*
X113882818Y-85678324D01*
X113928575Y-85626149D01*
X113995200Y-85606729D01*
X114061825Y-85626149D01*
X114107582Y-85678325D01*
X114134631Y-85736333D01*
X114265153Y-85922740D01*
X114426059Y-86083646D01*
X114612464Y-86214167D01*
X114612465Y-86214167D01*
X114612466Y-86214168D01*
X114818704Y-86310339D01*
X115038508Y-86369235D01*
X115265200Y-86389068D01*
X115491892Y-86369235D01*
X115711696Y-86310339D01*
X115917934Y-86214168D01*
X116104339Y-86083647D01*
X116265247Y-85922739D01*
X116395768Y-85736334D01*
X116422818Y-85678324D01*
X116468575Y-85626149D01*
X116535200Y-85606729D01*
X116601825Y-85626149D01*
X116647582Y-85678325D01*
X116674631Y-85736333D01*
X116805153Y-85922740D01*
X116966059Y-86083646D01*
X117152464Y-86214167D01*
X117152465Y-86214167D01*
X117152466Y-86214168D01*
X117358704Y-86310339D01*
X117578508Y-86369235D01*
X117805200Y-86389068D01*
X118031892Y-86369235D01*
X118251696Y-86310339D01*
X118457934Y-86214168D01*
X118644339Y-86083647D01*
X118805247Y-85922739D01*
X118935768Y-85736334D01*
X118962818Y-85678324D01*
X119008575Y-85626149D01*
X119075200Y-85606729D01*
X119141825Y-85626149D01*
X119187582Y-85678325D01*
X119214631Y-85736333D01*
X119345153Y-85922740D01*
X119506059Y-86083646D01*
X119692464Y-86214167D01*
X119692465Y-86214167D01*
X119692466Y-86214168D01*
X119898704Y-86310339D01*
X120118508Y-86369235D01*
X120345200Y-86389068D01*
X120571892Y-86369235D01*
X120791696Y-86310339D01*
X120997934Y-86214168D01*
X121184339Y-86083647D01*
X121345247Y-85922739D01*
X121475768Y-85736334D01*
X121571939Y-85530096D01*
X121630835Y-85310292D01*
X121639754Y-85208347D01*
X121643442Y-85166199D01*
X126246940Y-85166199D01*
X126266726Y-85354457D01*
X126325220Y-85534484D01*
X126419866Y-85698416D01*
X126546529Y-85839089D01*
X126699669Y-85950351D01*
X126872597Y-86027344D01*
X127057752Y-86066700D01*
X127057754Y-86066700D01*
X127247046Y-86066700D01*
X127247048Y-86066700D01*
X127370483Y-86040462D01*
X127432203Y-86027344D01*
X127605130Y-85950351D01*
X127605130Y-85950350D01*
X127758270Y-85839089D01*
X127884933Y-85698416D01*
X127979579Y-85534484D01*
X127981005Y-85530096D01*
X128038074Y-85354456D01*
X128057860Y-85166200D01*
X128038074Y-84977944D01*
X127979579Y-84797916D01*
X127979579Y-84797915D01*
X127884933Y-84633983D01*
X127758270Y-84493310D01*
X127605130Y-84382048D01*
X127432202Y-84305055D01*
X127247048Y-84265700D01*
X127247046Y-84265700D01*
X127057754Y-84265700D01*
X127057752Y-84265700D01*
X126872597Y-84305055D01*
X126699669Y-84382048D01*
X126546529Y-84493310D01*
X126419866Y-84633983D01*
X126325220Y-84797915D01*
X126266726Y-84977942D01*
X126246940Y-85166199D01*
X121643442Y-85166199D01*
X121645700Y-85140386D01*
X121645700Y-84226814D01*
X121630835Y-84056910D01*
X121630835Y-84056908D01*
X121571939Y-83837104D01*
X121475768Y-83630866D01*
X121345247Y-83444461D01*
X121345246Y-83444459D01*
X121184340Y-83283553D01*
X120997935Y-83153032D01*
X120791697Y-83056861D01*
X120571889Y-82997964D01*
X120345200Y-82978131D01*
X120118510Y-82997964D01*
X119898702Y-83056861D01*
X119692464Y-83153032D01*
X119506059Y-83283553D01*
X119345153Y-83444459D01*
X119214633Y-83630863D01*
X119187582Y-83688875D01*
X119141825Y-83741050D01*
X119075200Y-83760469D01*
X119008575Y-83741050D01*
X118962818Y-83688875D01*
X118955898Y-83674035D01*
X118935768Y-83630866D01*
X118805247Y-83444461D01*
X118805246Y-83444459D01*
X118644340Y-83283553D01*
X118457935Y-83153032D01*
X118251697Y-83056861D01*
X118031889Y-82997964D01*
X117805200Y-82978131D01*
X117578510Y-82997964D01*
X117358702Y-83056861D01*
X117152464Y-83153032D01*
X116966059Y-83283553D01*
X116805153Y-83444459D01*
X116674633Y-83630863D01*
X116647582Y-83688875D01*
X116601825Y-83741050D01*
X116535200Y-83760469D01*
X116468575Y-83741050D01*
X116422818Y-83688875D01*
X116415898Y-83674035D01*
X116395768Y-83630866D01*
X116265247Y-83444461D01*
X116265246Y-83444459D01*
X116104340Y-83283553D01*
X115917935Y-83153032D01*
X115711697Y-83056861D01*
X115491889Y-82997964D01*
X115265200Y-82978131D01*
X115038510Y-82997964D01*
X114818702Y-83056861D01*
X114612464Y-83153032D01*
X114426059Y-83283553D01*
X114265153Y-83444459D01*
X114134633Y-83630863D01*
X114107582Y-83688875D01*
X114061825Y-83741050D01*
X113995200Y-83760469D01*
X113928575Y-83741050D01*
X113882818Y-83688875D01*
X113875898Y-83674035D01*
X113855768Y-83630866D01*
X113725247Y-83444461D01*
X113725246Y-83444459D01*
X113613773Y-83332986D01*
X113583032Y-83282076D01*
X113579530Y-83222708D01*
X113604075Y-83168537D01*
X113651016Y-83132026D01*
X113767530Y-83080151D01*
X113767530Y-83080150D01*
X113767532Y-83080150D01*
X113920670Y-82968889D01*
X113925377Y-82963662D01*
X114047333Y-82828216D01*
X114141979Y-82664284D01*
X114200474Y-82484256D01*
X114220260Y-82296000D01*
X114200474Y-82107744D01*
X114141979Y-81927716D01*
X114141979Y-81927715D01*
X114047333Y-81763783D01*
X113920671Y-81623112D01*
X113823161Y-81552266D01*
X113787857Y-81512537D01*
X113772429Y-81461677D01*
X113779711Y-81409029D01*
X113808364Y-81364269D01*
X118517215Y-76655419D01*
X118557444Y-76628539D01*
X118604897Y-76619100D01*
X129261395Y-76619100D01*
X129320413Y-76634045D01*
X129365204Y-76675279D01*
X129384971Y-76732860D01*
X129374951Y-76792911D01*
X129337558Y-76840951D01*
X129253464Y-76906405D01*
X129172415Y-76969487D01*
X129015220Y-77140248D01*
X128888276Y-77334550D01*
X128795044Y-77547096D01*
X128795042Y-77547100D01*
X128795043Y-77547100D01*
X128762117Y-77677123D01*
X128738065Y-77772100D01*
X128718899Y-78003400D01*
X128738065Y-78234699D01*
X128738065Y-78234701D01*
X128738066Y-78234705D01*
X128795043Y-78459700D01*
X128888276Y-78672249D01*
X129015221Y-78866553D01*
X129172416Y-79037313D01*
X129355574Y-79179870D01*
X129559697Y-79290336D01*
X129669458Y-79328017D01*
X129779215Y-79365697D01*
X129779217Y-79365697D01*
X129779219Y-79365698D01*
X130008151Y-79403900D01*
X130240248Y-79403900D01*
X130240249Y-79403900D01*
X130469181Y-79365698D01*
X130688703Y-79290336D01*
X130892826Y-79179870D01*
X131075984Y-79037313D01*
X131233179Y-78866553D01*
X131360124Y-78672249D01*
X131453357Y-78459700D01*
X131510334Y-78234705D01*
X131529500Y-78003400D01*
X131510334Y-77772095D01*
X131453357Y-77547100D01*
X131360124Y-77334551D01*
X131233179Y-77140247D01*
X131075984Y-76969487D01*
X130910841Y-76840951D01*
X130873449Y-76792911D01*
X130863429Y-76732860D01*
X130883196Y-76675279D01*
X130927987Y-76634045D01*
X130987005Y-76619100D01*
X146948856Y-76619100D01*
X147004236Y-76632154D01*
X147047955Y-76668566D01*
X147070811Y-76720671D01*
X147067989Y-76777498D01*
X147040085Y-76827083D01*
X146953226Y-76921435D01*
X146824013Y-77119211D01*
X146729118Y-77335552D01*
X146671123Y-77564570D01*
X146651614Y-77800000D01*
X146671123Y-78035429D01*
X146671123Y-78035432D01*
X146671124Y-78035434D01*
X146721584Y-78234699D01*
X146729118Y-78264447D01*
X146824013Y-78480788D01*
X146953226Y-78678563D01*
X147113223Y-78852365D01*
X147113227Y-78852368D01*
X147299654Y-78997470D01*
X147507421Y-79109908D01*
X147619141Y-79148262D01*
X147730857Y-79186615D01*
X147730859Y-79186615D01*
X147730861Y-79186616D01*
X147963880Y-79225500D01*
X148200119Y-79225500D01*
X148200120Y-79225500D01*
X148433139Y-79186616D01*
X148656579Y-79109908D01*
X148864346Y-78997470D01*
X149050773Y-78852368D01*
X149210775Y-78678561D01*
X149339986Y-78480788D01*
X149434883Y-78264445D01*
X149492876Y-78035434D01*
X149512385Y-77800000D01*
X150461614Y-77800000D01*
X150481123Y-78035429D01*
X150481123Y-78035432D01*
X150481124Y-78035434D01*
X150531584Y-78234699D01*
X150539118Y-78264447D01*
X150634013Y-78480788D01*
X150763226Y-78678563D01*
X150923223Y-78852365D01*
X150923227Y-78852368D01*
X151109654Y-78997470D01*
X151317421Y-79109908D01*
X151429141Y-79148262D01*
X151540857Y-79186615D01*
X151540859Y-79186615D01*
X151540861Y-79186616D01*
X151773880Y-79225500D01*
X152010119Y-79225500D01*
X152010120Y-79225500D01*
X152243139Y-79186616D01*
X152466579Y-79109908D01*
X152674346Y-78997470D01*
X152860773Y-78852368D01*
X152933958Y-78772869D01*
X154276500Y-78772869D01*
X154282909Y-78832484D01*
X154295616Y-78866553D01*
X154333204Y-78967331D01*
X154419454Y-79082546D01*
X154534669Y-79168796D01*
X154669517Y-79219091D01*
X154729127Y-79225500D01*
X156674872Y-79225499D01*
X156734483Y-79219091D01*
X156869331Y-79168796D01*
X156984546Y-79082546D01*
X157070796Y-78967331D01*
X157121091Y-78832483D01*
X157127500Y-78772873D01*
X157127499Y-76827128D01*
X157121091Y-76767517D01*
X157070796Y-76632669D01*
X156984546Y-76517454D01*
X156869331Y-76431204D01*
X156734483Y-76380909D01*
X156674873Y-76374500D01*
X156674869Y-76374500D01*
X154729130Y-76374500D01*
X154669515Y-76380909D01*
X154534669Y-76431204D01*
X154419454Y-76517454D01*
X154333204Y-76632668D01*
X154282909Y-76767515D01*
X154282909Y-76767517D01*
X154276522Y-76826930D01*
X154276500Y-76827130D01*
X154276500Y-78772869D01*
X152933958Y-78772869D01*
X153020775Y-78678561D01*
X153149986Y-78480788D01*
X153244883Y-78264445D01*
X153302876Y-78035434D01*
X153322385Y-77800000D01*
X153302876Y-77564566D01*
X153244883Y-77335555D01*
X153187061Y-77203734D01*
X153149986Y-77119211D01*
X153020773Y-76921436D01*
X152860776Y-76747634D01*
X152714836Y-76634045D01*
X152674346Y-76602530D01*
X152466579Y-76490092D01*
X152466575Y-76490090D01*
X152466574Y-76490090D01*
X152243142Y-76413384D01*
X152048527Y-76380909D01*
X152010120Y-76374500D01*
X151773880Y-76374500D01*
X151735473Y-76380909D01*
X151540857Y-76413384D01*
X151317425Y-76490090D01*
X151317421Y-76490091D01*
X151317421Y-76490092D01*
X151178909Y-76565050D01*
X151109652Y-76602531D01*
X150923223Y-76747634D01*
X150763226Y-76921436D01*
X150634013Y-77119211D01*
X150539118Y-77335552D01*
X150481123Y-77564570D01*
X150461614Y-77800000D01*
X149512385Y-77800000D01*
X149492876Y-77564566D01*
X149434883Y-77335555D01*
X149377061Y-77203734D01*
X149339986Y-77119211D01*
X149210773Y-76921436D01*
X149050776Y-76747634D01*
X148904836Y-76634045D01*
X148864346Y-76602530D01*
X148656579Y-76490092D01*
X148656575Y-76490090D01*
X148656574Y-76490090D01*
X148433141Y-76413383D01*
X148346042Y-76398850D01*
X148285337Y-76370330D01*
X148248363Y-76314371D01*
X148245937Y-76247345D01*
X148278768Y-76188862D01*
X152431843Y-72035786D01*
X152444023Y-72025105D01*
X152469082Y-72005878D01*
X152565336Y-71880437D01*
X152625844Y-71734358D01*
X152641300Y-71616957D01*
X152646482Y-71577596D01*
X152642360Y-71546293D01*
X152641300Y-71530109D01*
X152641300Y-70223655D01*
X152650329Y-70177204D01*
X152676102Y-70137517D01*
X152714863Y-70110375D01*
X152793530Y-70075351D01*
X152793530Y-70075350D01*
X152793532Y-70075350D01*
X152946670Y-69964089D01*
X153073333Y-69823416D01*
X153167979Y-69659484D01*
X153167979Y-69659483D01*
X153226474Y-69479456D01*
X153246260Y-69291200D01*
X153226474Y-69102944D01*
X153167979Y-68922916D01*
X153167979Y-68922915D01*
X153117431Y-68835364D01*
X153100924Y-68778488D01*
X153112678Y-68720444D01*
X153150012Y-68674470D01*
X153204409Y-68651055D01*
X153210132Y-68650100D01*
X153210135Y-68650100D01*
X153455414Y-68609171D01*
X153690610Y-68528428D01*
X153909309Y-68410074D01*
X153992589Y-68345253D01*
X154045012Y-68321402D01*
X154102561Y-68323808D01*
X154152814Y-68351956D01*
X154170492Y-68378277D01*
X154171320Y-68377658D01*
X154182003Y-68391928D01*
X154182004Y-68391931D01*
X154268254Y-68507146D01*
X154383469Y-68593396D01*
X154518317Y-68643691D01*
X154577927Y-68650100D01*
X156673672Y-68650099D01*
X156733283Y-68643691D01*
X156868131Y-68593396D01*
X156983346Y-68507146D01*
X157069596Y-68391931D01*
X157119891Y-68257083D01*
X157126300Y-68197473D01*
X157126299Y-65101728D01*
X157119891Y-65042117D01*
X157069596Y-64907269D01*
X156983346Y-64792054D01*
X156868131Y-64705804D01*
X156733283Y-64655509D01*
X156673673Y-64649100D01*
X156673669Y-64649100D01*
X156350300Y-64649100D01*
X156288300Y-64632487D01*
X156242913Y-64587100D01*
X156226300Y-64525100D01*
X156226300Y-63774099D01*
X156242913Y-63712099D01*
X156288300Y-63666712D01*
X156350300Y-63650099D01*
X156673670Y-63650099D01*
X156673672Y-63650099D01*
X156733283Y-63643691D01*
X156868131Y-63593396D01*
X156983346Y-63507146D01*
X157069596Y-63391931D01*
X157119891Y-63257083D01*
X157126300Y-63197473D01*
X157126299Y-60101728D01*
X157119891Y-60042117D01*
X157069596Y-59907269D01*
X156983346Y-59792054D01*
X156868131Y-59705804D01*
X156733283Y-59655509D01*
X156673673Y-59649100D01*
X156673669Y-59649100D01*
X154577930Y-59649100D01*
X154518315Y-59655509D01*
X154383469Y-59705803D01*
X154383469Y-59705804D01*
X154268254Y-59792054D01*
X154182004Y-59907269D01*
X154182003Y-59907270D01*
X154171320Y-59921542D01*
X154170491Y-59920922D01*
X154152811Y-59947246D01*
X154102559Y-59975391D01*
X154045012Y-59977797D01*
X153992586Y-59953943D01*
X153909309Y-59889126D01*
X153690610Y-59770772D01*
X153690606Y-59770770D01*
X153690605Y-59770770D01*
X153455415Y-59690029D01*
X153210135Y-59649100D01*
X152961465Y-59649100D01*
X152716184Y-59690029D01*
X152480994Y-59770770D01*
X152262285Y-59889129D01*
X152066059Y-60041859D01*
X152066056Y-60041861D01*
X152066056Y-60041862D01*
X152010944Y-60101730D01*
X151907030Y-60214610D01*
X151849541Y-60249948D01*
X151782059Y-60249948D01*
X151724570Y-60214610D01*
X151688853Y-60175812D01*
X151565544Y-60041862D01*
X151543412Y-60024636D01*
X151369314Y-59889129D01*
X151369310Y-59889126D01*
X151369309Y-59889126D01*
X151150610Y-59770772D01*
X151150606Y-59770770D01*
X151150605Y-59770770D01*
X150915415Y-59690029D01*
X150670135Y-59649100D01*
X150421465Y-59649100D01*
X150176184Y-59690029D01*
X149940994Y-59770770D01*
X149722285Y-59889129D01*
X149526059Y-60041859D01*
X149526056Y-60041861D01*
X149526056Y-60041862D01*
X149470944Y-60101730D01*
X149367030Y-60214610D01*
X149309541Y-60249948D01*
X149242059Y-60249948D01*
X149184570Y-60214610D01*
X149148853Y-60175812D01*
X149025544Y-60041862D01*
X149003412Y-60024636D01*
X148829314Y-59889129D01*
X148829310Y-59889126D01*
X148829309Y-59889126D01*
X148610610Y-59770772D01*
X148610606Y-59770770D01*
X148610605Y-59770770D01*
X148375415Y-59690029D01*
X148130135Y-59649100D01*
X147881465Y-59649100D01*
X147636184Y-59690029D01*
X147400994Y-59770770D01*
X147182285Y-59889129D01*
X146986059Y-60041859D01*
X146986056Y-60041861D01*
X146986056Y-60041862D01*
X146930944Y-60101730D01*
X146827030Y-60214610D01*
X146769541Y-60249948D01*
X146702059Y-60249948D01*
X146644570Y-60214610D01*
X146608853Y-60175812D01*
X146485544Y-60041862D01*
X146463412Y-60024636D01*
X146289314Y-59889129D01*
X146289310Y-59889126D01*
X146289309Y-59889126D01*
X146070610Y-59770772D01*
X146070606Y-59770770D01*
X146070605Y-59770770D01*
X145835415Y-59690029D01*
X145590135Y-59649100D01*
X145341465Y-59649100D01*
X145096184Y-59690029D01*
X144860994Y-59770770D01*
X144642285Y-59889129D01*
X144446059Y-60041859D01*
X144446056Y-60041861D01*
X144446056Y-60041862D01*
X144390944Y-60101730D01*
X144287030Y-60214610D01*
X144229541Y-60249948D01*
X144162059Y-60249948D01*
X144104570Y-60214610D01*
X144068853Y-60175812D01*
X143945544Y-60041862D01*
X143923412Y-60024636D01*
X143749314Y-59889129D01*
X143749310Y-59889126D01*
X143749309Y-59889126D01*
X143530610Y-59770772D01*
X143530606Y-59770770D01*
X143530605Y-59770770D01*
X143295415Y-59690029D01*
X143050135Y-59649100D01*
X142801465Y-59649100D01*
X142556184Y-59690029D01*
X142320994Y-59770770D01*
X142102285Y-59889129D01*
X141906059Y-60041859D01*
X141906056Y-60041861D01*
X141906056Y-60041862D01*
X141737636Y-60224815D01*
X141692299Y-60294207D01*
X141601625Y-60432995D01*
X141511580Y-60638278D01*
X141501737Y-60660719D01*
X141472704Y-60775368D01*
X141440691Y-60901783D01*
X141425300Y-61087527D01*
X141425300Y-62211673D01*
X141440691Y-62397416D01*
X141440691Y-62397419D01*
X141440692Y-62397421D01*
X141501737Y-62638481D01*
X141528036Y-62698436D01*
X141601625Y-62866204D01*
X141601627Y-62866207D01*
X141737636Y-63074385D01*
X141906056Y-63257338D01*
X141906059Y-63257340D01*
X142102285Y-63410070D01*
X142102287Y-63410071D01*
X142102291Y-63410074D01*
X142320990Y-63528428D01*
X142556186Y-63609171D01*
X142801465Y-63650100D01*
X143050135Y-63650100D01*
X143295414Y-63609171D01*
X143530610Y-63528428D01*
X143749309Y-63410074D01*
X143945544Y-63257338D01*
X144104571Y-63084588D01*
X144162059Y-63049251D01*
X144229541Y-63049251D01*
X144287028Y-63084588D01*
X144446056Y-63257338D01*
X144446059Y-63257340D01*
X144517462Y-63312916D01*
X144552700Y-63356309D01*
X144565300Y-63410769D01*
X144565300Y-64888431D01*
X144552700Y-64942891D01*
X144517462Y-64986284D01*
X144446059Y-65041859D01*
X144446056Y-65041861D01*
X144446056Y-65041862D01*
X144390944Y-65101730D01*
X144287030Y-65214610D01*
X144229541Y-65249948D01*
X144162059Y-65249948D01*
X144104570Y-65214610D01*
X144000656Y-65101730D01*
X143945544Y-65041862D01*
X143923412Y-65024636D01*
X143749314Y-64889129D01*
X143749310Y-64889126D01*
X143749309Y-64889126D01*
X143530610Y-64770772D01*
X143530606Y-64770770D01*
X143530605Y-64770770D01*
X143295415Y-64690029D01*
X143050135Y-64649100D01*
X142801465Y-64649100D01*
X142556184Y-64690029D01*
X142320994Y-64770770D01*
X142102285Y-64889129D01*
X141906059Y-65041859D01*
X141906056Y-65041861D01*
X141906056Y-65041862D01*
X141850944Y-65101730D01*
X141737637Y-65224814D01*
X141601625Y-65432995D01*
X141501738Y-65660717D01*
X141440691Y-65901783D01*
X141425300Y-66087527D01*
X141425300Y-67211673D01*
X141440691Y-67397416D01*
X141440691Y-67397419D01*
X141440692Y-67397421D01*
X141501737Y-67638481D01*
X141546760Y-67741123D01*
X141601625Y-67866204D01*
X141601627Y-67866207D01*
X141737636Y-68074385D01*
X141906056Y-68257338D01*
X141906059Y-68257340D01*
X142102285Y-68410070D01*
X142102287Y-68410071D01*
X142102291Y-68410074D01*
X142320990Y-68528428D01*
X142556186Y-68609171D01*
X142801465Y-68650100D01*
X143050135Y-68650100D01*
X143295414Y-68609171D01*
X143530610Y-68528428D01*
X143749309Y-68410074D01*
X143945544Y-68257338D01*
X144104571Y-68084588D01*
X144162059Y-68049251D01*
X144229541Y-68049251D01*
X144287028Y-68084588D01*
X144446056Y-68257338D01*
X144446059Y-68257340D01*
X144642285Y-68410070D01*
X144642287Y-68410071D01*
X144642291Y-68410074D01*
X144860990Y-68528428D01*
X145096186Y-68609171D01*
X145341465Y-68650100D01*
X145590135Y-68650100D01*
X145835414Y-68609171D01*
X146070610Y-68528428D01*
X146289309Y-68410074D01*
X146485544Y-68257338D01*
X146644571Y-68084588D01*
X146702059Y-68049251D01*
X146769541Y-68049251D01*
X146827028Y-68084588D01*
X146986056Y-68257338D01*
X146986059Y-68257340D01*
X147182285Y-68410070D01*
X147182287Y-68410071D01*
X147182291Y-68410074D01*
X147400990Y-68528428D01*
X147636186Y-68609171D01*
X147881465Y-68650100D01*
X148130135Y-68650100D01*
X148375414Y-68609171D01*
X148610610Y-68528428D01*
X148829309Y-68410074D01*
X149025544Y-68257338D01*
X149184571Y-68084588D01*
X149242059Y-68049251D01*
X149309541Y-68049251D01*
X149367028Y-68084588D01*
X149526056Y-68257338D01*
X149526059Y-68257340D01*
X149722285Y-68410070D01*
X149722287Y-68410071D01*
X149722291Y-68410074D01*
X149940990Y-68528428D01*
X150176186Y-68609171D01*
X150421465Y-68650100D01*
X150421467Y-68650100D01*
X150427190Y-68651055D01*
X150481587Y-68674470D01*
X150518921Y-68720443D01*
X150530675Y-68778488D01*
X150514168Y-68835363D01*
X150463621Y-68922913D01*
X150405126Y-69102942D01*
X150385340Y-69291199D01*
X150405126Y-69479457D01*
X150463620Y-69659484D01*
X150558266Y-69823416D01*
X150684929Y-69964089D01*
X150838065Y-70075349D01*
X150878542Y-70093370D01*
X150966737Y-70132638D01*
X151005498Y-70159779D01*
X151031271Y-70199466D01*
X151040300Y-70245917D01*
X151040300Y-71041099D01*
X151030861Y-71088552D01*
X151003981Y-71128780D01*
X147200980Y-74931781D01*
X147160752Y-74958661D01*
X147113299Y-74968100D01*
X118165887Y-74968100D01*
X118149702Y-74967039D01*
X118145776Y-74966522D01*
X118118399Y-74962917D01*
X118083141Y-74967559D01*
X118079039Y-74968100D01*
X117961637Y-74983556D01*
X117815559Y-75044063D01*
X117690116Y-75140318D01*
X117670894Y-75165370D01*
X117660200Y-75177564D01*
X112173764Y-80663999D01*
X112161572Y-80674692D01*
X112136517Y-80693918D01*
X112112349Y-80725416D01*
X112112347Y-80725417D01*
X112040262Y-80819360D01*
X111979755Y-80965438D01*
X111959116Y-81122200D01*
X111963238Y-81153502D01*
X111964299Y-81169688D01*
X111964299Y-81363545D01*
X111955270Y-81409996D01*
X111929498Y-81449682D01*
X111890736Y-81476824D01*
X111812068Y-81511850D01*
X111658929Y-81623111D01*
X111532266Y-81763783D01*
X111437620Y-81927715D01*
X111379126Y-82107742D01*
X111359340Y-82295999D01*
X111379126Y-82484257D01*
X111437620Y-82664284D01*
X111532266Y-82828216D01*
X111658929Y-82968889D01*
X111812069Y-83080151D01*
X111839184Y-83092224D01*
X111886128Y-83128736D01*
X111910672Y-83182906D01*
X111907170Y-83242274D01*
X111876429Y-83293184D01*
X111725153Y-83444459D01*
X111594633Y-83630863D01*
X111567582Y-83688875D01*
X111521825Y-83741050D01*
X111455200Y-83760469D01*
X111388575Y-83741050D01*
X111342818Y-83688875D01*
X111335898Y-83674035D01*
X111315768Y-83630866D01*
X111185247Y-83444461D01*
X111185246Y-83444459D01*
X111024340Y-83283553D01*
X110837935Y-83153032D01*
X110631697Y-83056861D01*
X110411889Y-82997964D01*
X110185200Y-82978131D01*
X109958510Y-82997964D01*
X109738702Y-83056861D01*
X109532464Y-83153032D01*
X109346059Y-83283553D01*
X109185153Y-83444459D01*
X109054633Y-83630863D01*
X109027582Y-83688875D01*
X108981825Y-83741050D01*
X108915200Y-83760469D01*
X108848575Y-83741050D01*
X108802818Y-83688875D01*
X108795898Y-83674035D01*
X108775768Y-83630866D01*
X108645247Y-83444461D01*
X108645246Y-83444459D01*
X108484340Y-83283553D01*
X108297935Y-83153032D01*
X108091697Y-83056861D01*
X107871889Y-82997964D01*
X107645200Y-82978131D01*
X107418510Y-82997964D01*
X107198702Y-83056861D01*
X106992464Y-83153032D01*
X106806059Y-83283553D01*
X106645153Y-83444459D01*
X106514633Y-83630863D01*
X106487582Y-83688875D01*
X106441825Y-83741050D01*
X106375200Y-83760469D01*
X106308575Y-83741050D01*
X106262818Y-83688875D01*
X106255898Y-83674035D01*
X106235768Y-83630866D01*
X106105247Y-83444461D01*
X106105246Y-83444459D01*
X105944340Y-83283553D01*
X105757935Y-83153032D01*
X105551697Y-83056861D01*
X105331889Y-82997964D01*
X105105200Y-82978131D01*
X104878510Y-82997964D01*
X104658702Y-83056861D01*
X104452464Y-83153032D01*
X104266059Y-83283553D01*
X104105153Y-83444459D01*
X103974632Y-83630864D01*
X103878461Y-83837102D01*
X103819564Y-84056910D01*
X103804700Y-84226814D01*
X103804700Y-85140386D01*
X91107252Y-85140386D01*
X91114290Y-84983670D01*
X91084075Y-84760613D01*
X91014517Y-84546536D01*
X90907852Y-84348319D01*
X90767508Y-84172334D01*
X90597996Y-84024235D01*
X90597993Y-84024233D01*
X90404762Y-83908783D01*
X90194025Y-83829693D01*
X89972547Y-83789500D01*
X89803845Y-83789500D01*
X89736631Y-83795549D01*
X89635809Y-83804623D01*
X89418828Y-83864507D01*
X89216027Y-83962170D01*
X89033925Y-84094475D01*
X88878365Y-84257178D01*
X88754365Y-84445031D01*
X88665896Y-84652012D01*
X88615809Y-84871462D01*
X88605709Y-85096328D01*
X85360500Y-85096328D01*
X85360500Y-82500000D01*
X85964340Y-82500000D01*
X85984936Y-82735407D01*
X86046096Y-82963662D01*
X86046097Y-82963663D01*
X86145965Y-83177829D01*
X86281505Y-83371401D01*
X86448599Y-83538495D01*
X86642171Y-83674035D01*
X86856337Y-83773903D01*
X87064551Y-83829693D01*
X87084592Y-83835063D01*
X87261032Y-83850500D01*
X87261034Y-83850500D01*
X87378966Y-83850500D01*
X87378968Y-83850500D01*
X87496593Y-83840208D01*
X87555408Y-83835063D01*
X87783663Y-83773903D01*
X87997829Y-83674035D01*
X88191401Y-83538495D01*
X88358495Y-83371401D01*
X88494035Y-83177830D01*
X88593903Y-82963663D01*
X88655063Y-82735408D01*
X88675659Y-82500000D01*
X91044340Y-82500000D01*
X91064936Y-82735407D01*
X91126096Y-82963662D01*
X91126097Y-82963663D01*
X91225965Y-83177829D01*
X91361505Y-83371401D01*
X91528599Y-83538495D01*
X91722171Y-83674035D01*
X91936337Y-83773903D01*
X92144551Y-83829693D01*
X92164592Y-83835063D01*
X92341032Y-83850500D01*
X92341034Y-83850500D01*
X92458966Y-83850500D01*
X92458968Y-83850500D01*
X92576593Y-83840208D01*
X92635408Y-83835063D01*
X92863663Y-83773903D01*
X93077829Y-83674035D01*
X93271401Y-83538495D01*
X93438495Y-83371401D01*
X93574035Y-83177830D01*
X93673903Y-82963663D01*
X93735063Y-82735408D01*
X93755659Y-82500000D01*
X93735063Y-82264592D01*
X93673903Y-82036337D01*
X93574035Y-81822171D01*
X93438495Y-81628599D01*
X93271401Y-81461505D01*
X93077829Y-81325965D01*
X92863663Y-81226097D01*
X92635407Y-81164936D01*
X92458968Y-81149500D01*
X92458966Y-81149500D01*
X92341034Y-81149500D01*
X92341032Y-81149500D01*
X92164592Y-81164936D01*
X91936336Y-81226097D01*
X91722170Y-81325965D01*
X91528598Y-81461505D01*
X91361508Y-81628595D01*
X91361505Y-81628598D01*
X91361505Y-81628599D01*
X91266848Y-81763784D01*
X91225964Y-81822172D01*
X91126097Y-82036337D01*
X91064936Y-82264592D01*
X91044340Y-82500000D01*
X88675659Y-82500000D01*
X88655063Y-82264592D01*
X88593903Y-82036337D01*
X88494035Y-81822171D01*
X88358495Y-81628599D01*
X88191401Y-81461505D01*
X87997829Y-81325965D01*
X87783663Y-81226097D01*
X87555407Y-81164936D01*
X87378968Y-81149500D01*
X87378966Y-81149500D01*
X87261034Y-81149500D01*
X87261032Y-81149500D01*
X87084592Y-81164936D01*
X86856336Y-81226097D01*
X86642170Y-81325965D01*
X86448598Y-81461505D01*
X86281508Y-81628595D01*
X86281505Y-81628598D01*
X86281505Y-81628599D01*
X86186848Y-81763784D01*
X86145964Y-81822172D01*
X86046097Y-82036337D01*
X85984936Y-82264592D01*
X85964340Y-82500000D01*
X85360500Y-82500000D01*
X85360500Y-80739901D01*
X85360383Y-80739617D01*
X85360381Y-80739616D01*
X85360001Y-80739459D01*
X85359999Y-80739459D01*
X85359618Y-80739616D01*
X85359616Y-80739618D01*
X85359500Y-80739900D01*
X85359500Y-80739901D01*
X85359500Y-89340099D01*
X84836000Y-89340099D01*
X84836000Y-76425935D01*
X88677500Y-76425935D01*
X88718429Y-76671215D01*
X88771339Y-76825335D01*
X88799172Y-76906410D01*
X88833308Y-76969487D01*
X88917529Y-77125114D01*
X89053036Y-77299212D01*
X89070262Y-77321344D01*
X89253215Y-77489764D01*
X89461393Y-77625773D01*
X89689119Y-77725663D01*
X89930179Y-77786708D01*
X90004480Y-77792864D01*
X90115927Y-77802100D01*
X90115933Y-77802100D01*
X91240067Y-77802100D01*
X91240073Y-77802100D01*
X91341387Y-77793704D01*
X91425821Y-77786708D01*
X91666881Y-77725663D01*
X91894607Y-77625773D01*
X92102785Y-77489764D01*
X92285738Y-77321344D01*
X92438474Y-77125109D01*
X92556828Y-76906410D01*
X92637571Y-76671214D01*
X92678500Y-76425935D01*
X93677500Y-76425935D01*
X93718429Y-76671215D01*
X93771339Y-76825335D01*
X93799172Y-76906410D01*
X93833308Y-76969487D01*
X93917529Y-77125114D01*
X94053036Y-77299212D01*
X94070262Y-77321344D01*
X94253215Y-77489764D01*
X94461393Y-77625773D01*
X94689119Y-77725663D01*
X94930179Y-77786708D01*
X95004480Y-77792864D01*
X95115927Y-77802100D01*
X95115933Y-77802100D01*
X96240067Y-77802100D01*
X96240073Y-77802100D01*
X96341387Y-77793704D01*
X96425821Y-77786708D01*
X96666881Y-77725663D01*
X96894607Y-77625773D01*
X97102785Y-77489764D01*
X97278942Y-77327600D01*
X111510834Y-77327600D01*
X111531031Y-77506851D01*
X111531031Y-77506853D01*
X111531032Y-77506855D01*
X111590611Y-77677122D01*
X111647379Y-77767467D01*
X111686585Y-77829864D01*
X111814135Y-77957414D01*
X111814137Y-77957415D01*
X111814138Y-77957416D01*
X111966878Y-78053389D01*
X112137145Y-78112968D01*
X112316400Y-78133165D01*
X112495655Y-78112968D01*
X112665922Y-78053389D01*
X112735430Y-78009713D01*
X112801398Y-77990708D01*
X112867370Y-78009714D01*
X112936878Y-78053389D01*
X113107145Y-78112968D01*
X113286400Y-78133165D01*
X113465655Y-78112968D01*
X113635922Y-78053389D01*
X113788662Y-77957416D01*
X113916216Y-77829862D01*
X114012189Y-77677122D01*
X114071768Y-77506855D01*
X114091965Y-77327600D01*
X114071768Y-77148345D01*
X114012189Y-76978078D01*
X113916216Y-76825338D01*
X113916215Y-76825337D01*
X113916214Y-76825335D01*
X113861160Y-76770281D01*
X113829066Y-76714694D01*
X113829066Y-76650506D01*
X113861160Y-76594919D01*
X113916214Y-76539864D01*
X113916216Y-76539862D01*
X114012189Y-76387122D01*
X114071768Y-76216855D01*
X114091965Y-76037600D01*
X114071768Y-75858345D01*
X114012189Y-75688078D01*
X113916216Y-75535338D01*
X113916215Y-75535337D01*
X113916214Y-75535335D01*
X113788664Y-75407785D01*
X113635925Y-75311813D01*
X113635922Y-75311811D01*
X113465655Y-75252232D01*
X113465653Y-75252231D01*
X113465651Y-75252231D01*
X113286400Y-75232034D01*
X113107148Y-75252231D01*
X113107145Y-75252231D01*
X113107145Y-75252232D01*
X112936878Y-75311811D01*
X112936877Y-75311811D01*
X112936873Y-75311813D01*
X112867371Y-75355484D01*
X112801400Y-75374490D01*
X112735429Y-75355484D01*
X112665926Y-75311813D01*
X112665924Y-75311812D01*
X112665922Y-75311811D01*
X112495655Y-75252232D01*
X112495653Y-75252231D01*
X112495651Y-75252231D01*
X112316400Y-75232034D01*
X112137148Y-75252231D01*
X112137145Y-75252231D01*
X112137145Y-75252232D01*
X111966878Y-75311811D01*
X111966876Y-75311811D01*
X111966876Y-75311812D01*
X111814135Y-75407785D01*
X111686585Y-75535335D01*
X111590612Y-75688076D01*
X111531031Y-75858348D01*
X111510834Y-76037600D01*
X111531031Y-76216851D01*
X111531031Y-76216853D01*
X111531032Y-76216855D01*
X111590611Y-76387122D01*
X111607112Y-76413383D01*
X111686585Y-76539864D01*
X111741640Y-76594919D01*
X111773734Y-76650506D01*
X111773734Y-76714694D01*
X111741640Y-76770281D01*
X111686585Y-76825335D01*
X111596009Y-76969487D01*
X111590611Y-76978078D01*
X111541226Y-77119212D01*
X111531031Y-77148348D01*
X111510834Y-77327600D01*
X97278942Y-77327600D01*
X97285738Y-77321344D01*
X97438474Y-77125109D01*
X97556828Y-76906410D01*
X97637571Y-76671214D01*
X97678500Y-76425935D01*
X97678500Y-76177265D01*
X97637571Y-75931986D01*
X97556828Y-75696790D01*
X97438474Y-75478091D01*
X97438471Y-75478087D01*
X97438470Y-75478085D01*
X97285740Y-75281859D01*
X97285738Y-75281856D01*
X97112988Y-75122828D01*
X97077651Y-75065341D01*
X97077651Y-74997859D01*
X97112988Y-74940371D01*
X97285738Y-74781344D01*
X97438474Y-74585109D01*
X97485507Y-74498199D01*
X107932140Y-74498199D01*
X107951926Y-74686457D01*
X108010420Y-74866484D01*
X108105066Y-75030416D01*
X108231729Y-75171089D01*
X108384869Y-75282351D01*
X108557797Y-75359344D01*
X108742952Y-75398700D01*
X108742954Y-75398700D01*
X108932246Y-75398700D01*
X108932248Y-75398700D01*
X109055683Y-75372462D01*
X109117403Y-75359344D01*
X109290330Y-75282351D01*
X109331436Y-75252485D01*
X109378537Y-75231514D01*
X109430100Y-75231514D01*
X109477202Y-75252484D01*
X109517629Y-75281856D01*
X109553272Y-75307753D01*
X109726197Y-75384744D01*
X109911352Y-75424100D01*
X109911354Y-75424100D01*
X110100646Y-75424100D01*
X110100648Y-75424100D01*
X110228439Y-75396937D01*
X110285803Y-75384744D01*
X110458730Y-75307751D01*
X110493690Y-75282351D01*
X110611870Y-75196489D01*
X110738533Y-75055816D01*
X110833179Y-74891884D01*
X110841432Y-74866484D01*
X110891674Y-74711856D01*
X110909322Y-74543941D01*
X110920720Y-74503527D01*
X110944957Y-74469232D01*
X112235371Y-73178819D01*
X112275600Y-73151939D01*
X112323053Y-73142500D01*
X144132256Y-73142500D01*
X144170575Y-73148569D01*
X144205140Y-73166181D01*
X144222535Y-73178819D01*
X144251072Y-73199553D01*
X144423997Y-73276544D01*
X144609152Y-73315900D01*
X144609154Y-73315900D01*
X144798446Y-73315900D01*
X144798448Y-73315900D01*
X144921884Y-73289662D01*
X144983603Y-73276544D01*
X145156530Y-73199551D01*
X145309671Y-73088288D01*
X145436333Y-72947616D01*
X145530979Y-72783684D01*
X145589474Y-72603656D01*
X145609260Y-72415400D01*
X145589474Y-72227144D01*
X145545257Y-72091058D01*
X145530979Y-72047115D01*
X145436333Y-71883183D01*
X145309670Y-71742510D01*
X145156530Y-71631248D01*
X144983602Y-71554255D01*
X144798448Y-71514900D01*
X144798446Y-71514900D01*
X144609154Y-71514900D01*
X144609152Y-71514900D01*
X144423997Y-71554255D01*
X144251069Y-71631248D01*
X144097929Y-71742510D01*
X144000721Y-71850472D01*
X143959006Y-71880780D01*
X143908571Y-71891500D01*
X112095344Y-71891500D01*
X112074837Y-71889235D01*
X112004727Y-71891439D01*
X112000832Y-71891500D01*
X111973250Y-71891500D01*
X111969265Y-71892003D01*
X111957633Y-71892918D01*
X111913969Y-71894290D01*
X111894729Y-71899880D01*
X111875681Y-71903825D01*
X111855809Y-71906335D01*
X111815199Y-71922413D01*
X111804154Y-71926194D01*
X111762210Y-71938381D01*
X111744965Y-71948579D01*
X111727504Y-71957133D01*
X111708867Y-71964512D01*
X111673531Y-71990185D01*
X111663774Y-71996595D01*
X111626180Y-72018829D01*
X111612013Y-72032996D01*
X111597224Y-72045626D01*
X111581013Y-72057404D01*
X111553172Y-72091058D01*
X111545311Y-72099697D01*
X110058228Y-73586781D01*
X110018000Y-73613661D01*
X109970547Y-73623100D01*
X109911352Y-73623100D01*
X109726197Y-73662455D01*
X109553269Y-73739448D01*
X109512163Y-73769313D01*
X109465059Y-73790285D01*
X109413497Y-73790284D01*
X109366393Y-73769312D01*
X109290327Y-73714047D01*
X109117402Y-73637055D01*
X108932248Y-73597700D01*
X108932246Y-73597700D01*
X108742954Y-73597700D01*
X108742952Y-73597700D01*
X108557797Y-73637055D01*
X108384869Y-73714048D01*
X108231729Y-73825310D01*
X108105066Y-73965983D01*
X108010420Y-74129915D01*
X107951926Y-74309942D01*
X107932140Y-74498199D01*
X97485507Y-74498199D01*
X97556828Y-74366410D01*
X97637571Y-74131214D01*
X97678500Y-73885935D01*
X97678500Y-73637265D01*
X97637571Y-73391986D01*
X97556828Y-73156790D01*
X97438474Y-72938091D01*
X97373654Y-72854811D01*
X97349801Y-72802383D01*
X97352210Y-72744832D01*
X97380362Y-72694578D01*
X97406677Y-72676907D01*
X97406058Y-72676080D01*
X97420328Y-72665396D01*
X97420331Y-72665396D01*
X97535546Y-72579146D01*
X97621796Y-72463931D01*
X97672091Y-72329083D01*
X97678500Y-72269473D01*
X97678499Y-70173728D01*
X97673734Y-70129400D01*
X107425540Y-70129400D01*
X107428606Y-70158572D01*
X107445326Y-70317657D01*
X107503820Y-70497684D01*
X107598466Y-70661616D01*
X107725129Y-70802289D01*
X107878269Y-70913551D01*
X108051197Y-70990544D01*
X108236352Y-71029900D01*
X108236354Y-71029900D01*
X108425646Y-71029900D01*
X108425648Y-71029900D01*
X108549083Y-71003662D01*
X108610803Y-70990544D01*
X108750464Y-70928361D01*
X108800900Y-70917641D01*
X108851336Y-70928362D01*
X108990997Y-70990544D01*
X109176152Y-71029900D01*
X109176154Y-71029900D01*
X109365446Y-71029900D01*
X109365448Y-71029900D01*
X109488883Y-71003662D01*
X109550603Y-70990544D01*
X109723530Y-70913551D01*
X109876671Y-70802288D01*
X110003333Y-70661616D01*
X110097979Y-70497684D01*
X110156474Y-70317656D01*
X110176260Y-70129400D01*
X110156474Y-69941144D01*
X110118222Y-69823416D01*
X110097979Y-69761115D01*
X110003333Y-69597183D01*
X109876670Y-69456510D01*
X109723530Y-69345248D01*
X109550602Y-69268255D01*
X109365448Y-69228900D01*
X109365446Y-69228900D01*
X109176154Y-69228900D01*
X109176152Y-69228900D01*
X108990997Y-69268255D01*
X108851336Y-69330437D01*
X108800900Y-69341158D01*
X108750464Y-69330437D01*
X108610802Y-69268255D01*
X108425648Y-69228900D01*
X108425646Y-69228900D01*
X108236354Y-69228900D01*
X108236352Y-69228900D01*
X108051197Y-69268255D01*
X107878269Y-69345248D01*
X107725129Y-69456510D01*
X107598466Y-69597183D01*
X107503820Y-69761115D01*
X107445326Y-69941142D01*
X107427146Y-70114115D01*
X107425540Y-70129400D01*
X97673734Y-70129400D01*
X97672091Y-70114117D01*
X97621796Y-69979269D01*
X97535546Y-69864054D01*
X97420331Y-69777804D01*
X97285483Y-69727509D01*
X97225873Y-69721100D01*
X97225869Y-69721100D01*
X94130130Y-69721100D01*
X94070515Y-69727509D01*
X93935669Y-69777804D01*
X93820454Y-69864054D01*
X93734204Y-69979268D01*
X93683909Y-70114115D01*
X93683909Y-70114117D01*
X93679130Y-70158572D01*
X93677500Y-70173730D01*
X93677500Y-72269469D01*
X93683909Y-72329083D01*
X93734204Y-72463931D01*
X93820454Y-72579146D01*
X93935669Y-72665396D01*
X93935671Y-72665396D01*
X93949942Y-72676080D01*
X93949322Y-72676907D01*
X93975639Y-72694581D01*
X94003790Y-72744834D01*
X94006198Y-72802384D01*
X93982344Y-72854813D01*
X93917527Y-72938089D01*
X93917525Y-72938091D01*
X93917526Y-72938091D01*
X93806906Y-73142500D01*
X93799170Y-73156794D01*
X93718429Y-73391984D01*
X93677500Y-73637265D01*
X93677500Y-73885935D01*
X93690857Y-73965984D01*
X93718429Y-74131214D01*
X93799172Y-74366410D01*
X93917526Y-74585109D01*
X93917529Y-74585114D01*
X93996408Y-74686457D01*
X94070262Y-74781344D01*
X94162749Y-74866484D01*
X94243010Y-74940370D01*
X94278348Y-74997859D01*
X94278348Y-75065341D01*
X94243010Y-75122830D01*
X94070259Y-75281859D01*
X93917529Y-75478085D01*
X93799170Y-75696794D01*
X93718429Y-75931984D01*
X93677500Y-76177265D01*
X93677500Y-76425935D01*
X92678500Y-76425935D01*
X92678500Y-76177265D01*
X92637571Y-75931986D01*
X92556828Y-75696790D01*
X92438474Y-75478091D01*
X92438471Y-75478087D01*
X92438470Y-75478085D01*
X92285740Y-75281859D01*
X92285738Y-75281856D01*
X92112988Y-75122828D01*
X92077651Y-75065341D01*
X92077651Y-74997859D01*
X92112988Y-74940371D01*
X92285738Y-74781344D01*
X92438474Y-74585109D01*
X92556828Y-74366410D01*
X92637571Y-74131214D01*
X92678500Y-73885935D01*
X92678500Y-73637265D01*
X92637571Y-73391986D01*
X92556828Y-73156790D01*
X92438474Y-72938091D01*
X92373654Y-72854811D01*
X92349801Y-72802383D01*
X92352210Y-72744832D01*
X92380362Y-72694578D01*
X92406677Y-72676907D01*
X92406058Y-72676080D01*
X92420328Y-72665396D01*
X92420331Y-72665396D01*
X92535546Y-72579146D01*
X92621796Y-72463931D01*
X92672091Y-72329083D01*
X92678500Y-72269473D01*
X92678499Y-70173728D01*
X92672091Y-70114117D01*
X92621796Y-69979269D01*
X92535546Y-69864054D01*
X92420331Y-69777804D01*
X92285483Y-69727509D01*
X92225873Y-69721100D01*
X92225869Y-69721100D01*
X89130130Y-69721100D01*
X89070515Y-69727509D01*
X88935669Y-69777804D01*
X88820454Y-69864054D01*
X88734204Y-69979268D01*
X88683909Y-70114115D01*
X88683909Y-70114117D01*
X88679130Y-70158572D01*
X88677500Y-70173730D01*
X88677500Y-72269469D01*
X88683909Y-72329083D01*
X88734204Y-72463931D01*
X88820454Y-72579146D01*
X88935669Y-72665396D01*
X88935671Y-72665396D01*
X88949942Y-72676080D01*
X88949322Y-72676907D01*
X88975639Y-72694581D01*
X89003790Y-72744834D01*
X89006198Y-72802384D01*
X88982344Y-72854813D01*
X88917527Y-72938089D01*
X88917525Y-72938091D01*
X88917526Y-72938091D01*
X88806906Y-73142500D01*
X88799170Y-73156794D01*
X88718429Y-73391984D01*
X88677500Y-73637265D01*
X88677500Y-73885935D01*
X88690857Y-73965984D01*
X88718429Y-74131214D01*
X88799172Y-74366410D01*
X88917526Y-74585109D01*
X88917529Y-74585114D01*
X88996408Y-74686457D01*
X89070262Y-74781344D01*
X89162749Y-74866484D01*
X89243010Y-74940370D01*
X89278348Y-74997859D01*
X89278348Y-75065341D01*
X89243010Y-75122830D01*
X89070259Y-75281859D01*
X88917529Y-75478085D01*
X88799170Y-75696794D01*
X88718429Y-75931984D01*
X88677500Y-76177265D01*
X88677500Y-76425935D01*
X84836000Y-76425935D01*
X84836000Y-60971499D01*
X102095263Y-60971499D01*
X102114580Y-61167633D01*
X102171789Y-61356226D01*
X102171790Y-61356227D01*
X102264694Y-61530038D01*
X102389721Y-61682383D01*
X102478415Y-61755173D01*
X102542064Y-61807409D01*
X102542066Y-61807410D01*
X102558241Y-61816055D01*
X102595640Y-61846747D01*
X102618447Y-61889417D01*
X102623190Y-61937566D01*
X102603262Y-62139899D01*
X102622580Y-62336033D01*
X102679789Y-62524626D01*
X102679790Y-62524627D01*
X102772694Y-62698438D01*
X102897721Y-62850783D01*
X103049099Y-62975016D01*
X103079791Y-63012415D01*
X103093836Y-63058713D01*
X103089094Y-63106862D01*
X103079780Y-63137567D01*
X103060463Y-63333700D01*
X103079780Y-63529833D01*
X103136989Y-63718426D01*
X103136990Y-63718427D01*
X103229894Y-63892238D01*
X103354921Y-64044583D01*
X103507266Y-64169610D01*
X103681077Y-64262514D01*
X103869672Y-64319724D01*
X104065804Y-64339041D01*
X104261936Y-64319724D01*
X104450531Y-64262514D01*
X104624342Y-64169610D01*
X104776687Y-64044583D01*
X104901714Y-63892238D01*
X104994618Y-63718427D01*
X105051828Y-63529832D01*
X105071145Y-63333700D01*
X105051828Y-63137568D01*
X104994618Y-62948973D01*
X104901714Y-62775162D01*
X104776687Y-62622817D01*
X104625307Y-62498582D01*
X104594615Y-62461183D01*
X104580571Y-62414883D01*
X104585313Y-62366736D01*
X104594628Y-62336032D01*
X104613945Y-62139900D01*
X104594628Y-61943768D01*
X104537418Y-61755173D01*
X104444514Y-61581362D01*
X104319487Y-61429017D01*
X104167142Y-61303990D01*
X104150967Y-61295344D01*
X104113567Y-61264651D01*
X104090759Y-61221981D01*
X104086017Y-61173832D01*
X104086628Y-61167632D01*
X104105945Y-60971500D01*
X104086628Y-60775368D01*
X104029418Y-60586773D01*
X103936514Y-60412962D01*
X103811487Y-60260617D01*
X103659142Y-60135590D01*
X103636695Y-60123592D01*
X103485330Y-60042685D01*
X103296737Y-59985476D01*
X103100604Y-59966159D01*
X102904470Y-59985476D01*
X102715877Y-60042685D01*
X102542067Y-60135589D01*
X102389721Y-60260617D01*
X102264693Y-60412963D01*
X102171789Y-60586773D01*
X102114580Y-60775366D01*
X102095263Y-60971499D01*
X84836000Y-60971499D01*
X84836000Y-58166000D01*
X85766340Y-58166000D01*
X85786936Y-58401407D01*
X85844229Y-58615227D01*
X85848097Y-58629663D01*
X85947965Y-58843829D01*
X86083505Y-59037401D01*
X86250599Y-59204495D01*
X86444171Y-59340035D01*
X86658337Y-59439903D01*
X86886591Y-59501062D01*
X86886592Y-59501063D01*
X87063032Y-59516500D01*
X87063034Y-59516500D01*
X87180966Y-59516500D01*
X87180968Y-59516500D01*
X87298593Y-59506208D01*
X87357408Y-59501063D01*
X87585663Y-59439903D01*
X87799829Y-59340035D01*
X87993401Y-59204495D01*
X88160495Y-59037401D01*
X88296035Y-58843830D01*
X88395903Y-58629663D01*
X88457063Y-58401408D01*
X88477659Y-58166000D01*
X88457063Y-57930592D01*
X88395903Y-57702337D01*
X88296035Y-57488171D01*
X88160495Y-57294599D01*
X87993401Y-57127505D01*
X87799829Y-56991965D01*
X87585663Y-56892097D01*
X87357407Y-56830936D01*
X87180968Y-56815500D01*
X87180966Y-56815500D01*
X87063034Y-56815500D01*
X87063032Y-56815500D01*
X86886592Y-56830936D01*
X86658336Y-56892097D01*
X86444170Y-56991965D01*
X86250598Y-57127505D01*
X86083508Y-57294595D01*
X85947964Y-57488172D01*
X85848097Y-57702337D01*
X85786936Y-57930592D01*
X85766340Y-58166000D01*
X84836000Y-58166000D01*
X84836000Y-56004000D01*
X84852613Y-55942000D01*
X84898000Y-55896613D01*
X84960000Y-55880000D01*
X114209364Y-55880000D01*
X114264743Y-55893053D01*
G37*
%TD.AperFunction*%
%TD*%
M02*
