%TF.GenerationSoftware,KiCad,Pcbnew,7.0.1*%
%TF.CreationDate,2023-12-13T14:51:25+00:00*%
%TF.ProjectId,UoB Amptek,556f4220-416d-4707-9465-6b2e6b696361,1*%
%TF.SameCoordinates,Original*%
%TF.FileFunction,Soldermask,Top*%
%TF.FilePolarity,Negative*%
%FSLAX46Y46*%
G04 Gerber Fmt 4.6, Leading zero omitted, Abs format (unit mm)*
G04 Created by KiCad (PCBNEW 7.0.1) date 2023-12-13 14:51:25*
%MOMM*%
%LPD*%
G01*
G04 APERTURE LIST*
G04 Aperture macros list*
%AMRoundRect*
0 Rectangle with rounded corners*
0 $1 Rounding radius*
0 $2 $3 $4 $5 $6 $7 $8 $9 X,Y pos of 4 corners*
0 Add a 4 corners polygon primitive as box body*
4,1,4,$2,$3,$4,$5,$6,$7,$8,$9,$2,$3,0*
0 Add four circle primitives for the rounded corners*
1,1,$1+$1,$2,$3*
1,1,$1+$1,$4,$5*
1,1,$1+$1,$6,$7*
1,1,$1+$1,$8,$9*
0 Add four rect primitives between the rounded corners*
20,1,$1+$1,$2,$3,$4,$5,0*
20,1,$1+$1,$4,$5,$6,$7,0*
20,1,$1+$1,$6,$7,$8,$9,0*
20,1,$1+$1,$8,$9,$2,$3,0*%
G04 Aperture macros list end*
%ADD10RoundRect,0.250000X-1.100000X0.325000X-1.100000X-0.325000X1.100000X-0.325000X1.100000X0.325000X0*%
%ADD11R,3.000000X2.000000*%
%ADD12O,3.000000X2.000000*%
%ADD13RoundRect,0.250000X0.450000X-0.262500X0.450000X0.262500X-0.450000X0.262500X-0.450000X-0.262500X0*%
%ADD14R,1.300000X2.000000*%
%ADD15R,2.000000X2.000000*%
%ADD16C,2.200000*%
%ADD17RoundRect,0.100000X-0.625000X-0.100000X0.625000X-0.100000X0.625000X0.100000X-0.625000X0.100000X0*%
%ADD18R,1.650000X2.850000*%
%ADD19RoundRect,0.250000X0.262500X0.450000X-0.262500X0.450000X-0.262500X-0.450000X0.262500X-0.450000X0*%
%ADD20C,1.000000*%
%ADD21RoundRect,0.200100X0.949900X-0.949900X0.949900X0.949900X-0.949900X0.949900X-0.949900X-0.949900X0*%
%ADD22C,2.500000*%
%ADD23RoundRect,0.250000X0.650000X2.450000X-0.650000X2.450000X-0.650000X-2.450000X0.650000X-2.450000X0*%
%ADD24RoundRect,0.250000X1.100000X-0.325000X1.100000X0.325000X-1.100000X0.325000X-1.100000X-0.325000X0*%
%ADD25RoundRect,0.250000X-0.325000X-0.650000X0.325000X-0.650000X0.325000X0.650000X-0.325000X0.650000X0*%
%ADD26RoundRect,0.250000X-0.250000X-0.475000X0.250000X-0.475000X0.250000X0.475000X-0.250000X0.475000X0*%
%ADD27RoundRect,0.125000X-0.600000X-0.125000X0.600000X-0.125000X0.600000X0.125000X-0.600000X0.125000X0*%
%ADD28R,1.570000X1.890000*%
%ADD29RoundRect,0.250000X0.325000X0.650000X-0.325000X0.650000X-0.325000X-0.650000X0.325000X-0.650000X0*%
%ADD30R,2.000000X3.000000*%
%ADD31O,2.000000X3.000000*%
%ADD32RoundRect,0.250000X-0.262500X-0.450000X0.262500X-0.450000X0.262500X0.450000X-0.262500X0.450000X0*%
%ADD33RoundRect,0.250000X-0.450000X0.262500X-0.450000X-0.262500X0.450000X-0.262500X0.450000X0.262500X0*%
%ADD34RoundRect,0.250000X0.362500X1.075000X-0.362500X1.075000X-0.362500X-1.075000X0.362500X-1.075000X0*%
%ADD35RoundRect,0.250000X-0.362500X-1.075000X0.362500X-1.075000X0.362500X1.075000X-0.362500X1.075000X0*%
%ADD36RoundRect,0.250000X-0.475000X0.250000X-0.475000X-0.250000X0.475000X-0.250000X0.475000X0.250000X0*%
%ADD37R,1.600000X2.400000*%
%ADD38O,1.600000X2.400000*%
%ADD39RoundRect,0.250000X-0.650000X-2.450000X0.650000X-2.450000X0.650000X2.450000X-0.650000X2.450000X0*%
%ADD40R,1.850000X1.850000*%
%ADD41C,1.850000*%
%ADD42R,2.540000X2.540000*%
G04 APERTURE END LIST*
D10*
%TO.C,C23*%
X135966200Y-69519800D03*
X135966200Y-72469800D03*
%TD*%
D11*
%TO.C,J1*%
X95678000Y-71221600D03*
X90678000Y-71221600D03*
D12*
X95678000Y-73761600D03*
X90678000Y-73761600D03*
X95678000Y-76301600D03*
X90678000Y-76301600D03*
%TD*%
D13*
%TO.C,R4*%
X114959000Y-73353300D03*
X114959000Y-71528300D03*
%TD*%
D14*
%TO.C,RV1*%
X137110000Y-75462000D03*
D15*
X135960000Y-79462000D03*
D14*
X134810000Y-75462000D03*
%TD*%
D16*
%TO.C,H2*%
X87122000Y-91948000D03*
%TD*%
D17*
%TO.C,U2*%
X127970600Y-58495600D03*
X127970600Y-59145600D03*
X127970600Y-59795600D03*
X127970600Y-60445600D03*
X127970600Y-61095600D03*
X127970600Y-61745600D03*
X132270600Y-61745600D03*
X132270600Y-61095600D03*
X132270600Y-60445600D03*
X132270600Y-59795600D03*
X132270600Y-59145600D03*
X132270600Y-58495600D03*
D18*
X130120600Y-60120600D03*
%TD*%
D19*
%TO.C,R10*%
X132334000Y-85191600D03*
X130509000Y-85191600D03*
%TD*%
D13*
%TO.C,R7*%
X110641000Y-81938500D03*
X110641000Y-80113500D03*
%TD*%
D20*
%TO.C,SPK1*%
X182880000Y-50800000D03*
%TD*%
D15*
%TO.C,TP1*%
X122961400Y-76530200D03*
%TD*%
D21*
%TO.C,J2*%
X89860000Y-85040000D03*
D22*
X87320000Y-87580000D03*
X92400000Y-87580000D03*
X87320000Y-82500000D03*
X92400000Y-82500000D03*
%TD*%
D23*
%TO.C,C20*%
X132334000Y-90500000D03*
X127234000Y-90500000D03*
%TD*%
D24*
%TO.C,C6*%
X124196000Y-61446000D03*
X124196000Y-58496000D03*
%TD*%
D13*
%TO.C,R3*%
X117686400Y-77544300D03*
X117686400Y-75719300D03*
%TD*%
D24*
%TO.C,C5*%
X135890000Y-61420800D03*
X135890000Y-58470800D03*
%TD*%
D13*
%TO.C,R5*%
X114959000Y-81962600D03*
X114959000Y-80137600D03*
%TD*%
D25*
%TO.C,C4*%
X128651000Y-64871600D03*
X131601000Y-64871600D03*
%TD*%
D13*
%TO.C,R6*%
X110666400Y-73327900D03*
X110666400Y-71502900D03*
%TD*%
D26*
%TO.C,C15*%
X140995400Y-72440800D03*
X142895400Y-72440800D03*
%TD*%
D27*
%TO.C,U4*%
X110651400Y-75707600D03*
X110651400Y-76357600D03*
X110651400Y-77007600D03*
X110651400Y-77657600D03*
X114951400Y-77657600D03*
X114951400Y-77007600D03*
X114951400Y-76357600D03*
X114951400Y-75707600D03*
D28*
X112801400Y-76682600D03*
%TD*%
D20*
%TO.C,J3*%
X182880000Y-45720000D03*
%TD*%
D17*
%TO.C,U5*%
X127939800Y-69530200D03*
X127939800Y-70180200D03*
X127939800Y-70830200D03*
X127939800Y-71480200D03*
X127939800Y-72130200D03*
X127939800Y-72780200D03*
X132239800Y-72780200D03*
X132239800Y-72130200D03*
X132239800Y-71480200D03*
X132239800Y-70830200D03*
X132239800Y-70180200D03*
X132239800Y-69530200D03*
D18*
X130089800Y-71155200D03*
%TD*%
D29*
%TO.C,C2*%
X115214400Y-64490600D03*
X112264400Y-64490600D03*
%TD*%
D10*
%TO.C,C3*%
X119634000Y-58496200D03*
X119634000Y-61446200D03*
%TD*%
D30*
%TO.C,J4*%
X155625800Y-66649600D03*
X155625800Y-61649600D03*
D31*
X153085800Y-66649600D03*
X153085800Y-61649600D03*
X150545800Y-66649600D03*
X150545800Y-61649600D03*
X148005800Y-66649600D03*
X148005800Y-61649600D03*
X145465800Y-66649600D03*
X145465800Y-61649600D03*
X142925800Y-66649600D03*
X142925800Y-61649600D03*
%TD*%
D16*
%TO.C,H3*%
X161010600Y-57937400D03*
%TD*%
D32*
%TO.C,R11*%
X153773500Y-91900000D03*
X155598500Y-91900000D03*
%TD*%
D20*
%TO.C,IAC*%
X103100604Y-60971500D03*
X103608604Y-62139900D03*
X104065804Y-63333700D03*
%TD*%
D23*
%TO.C,C12*%
X101701600Y-85090000D03*
X96601600Y-85090000D03*
%TD*%
D33*
%TO.C,R2*%
X134391400Y-63474600D03*
X134391400Y-65299600D03*
%TD*%
D29*
%TO.C,C22*%
X131575600Y-75844400D03*
X128625600Y-75844400D03*
%TD*%
D17*
%TO.C,U1*%
X111587600Y-58495600D03*
X111587600Y-59145600D03*
X111587600Y-59795600D03*
X111587600Y-60445600D03*
X111587600Y-61095600D03*
X111587600Y-61745600D03*
X115887600Y-61745600D03*
X115887600Y-61095600D03*
X115887600Y-60445600D03*
X115887600Y-59795600D03*
X115887600Y-59145600D03*
X115887600Y-58495600D03*
D18*
X113737600Y-60120600D03*
%TD*%
D34*
%TO.C,R12*%
X140716000Y-84700000D03*
X136091000Y-84700000D03*
%TD*%
D13*
%TO.C,R1*%
X118973600Y-64871600D03*
X118973600Y-63046600D03*
%TD*%
D35*
%TO.C,R8*%
X96595100Y-92379800D03*
X101220100Y-92379800D03*
%TD*%
D16*
%TO.C,H4*%
X161036000Y-91948000D03*
%TD*%
D36*
%TO.C,C11*%
X120286400Y-75717400D03*
X120286400Y-77617400D03*
%TD*%
D16*
%TO.C,H1*%
X87122000Y-58166000D03*
%TD*%
D10*
%TO.C,C21*%
X124155200Y-69545200D03*
X124155200Y-72495200D03*
%TD*%
%TO.C,C1*%
X107543600Y-58470800D03*
X107543600Y-61420800D03*
%TD*%
D36*
%TO.C,C14*%
X105054400Y-75666600D03*
X105054400Y-77566600D03*
%TD*%
D15*
%TO.C,TP3*%
X105029000Y-81178400D03*
%TD*%
D37*
%TO.C,U3*%
X105105200Y-92303600D03*
D38*
X107645200Y-92303600D03*
X110185200Y-92303600D03*
X112725200Y-92303600D03*
X115265200Y-92303600D03*
X117805200Y-92303600D03*
X120345200Y-92303600D03*
X120345200Y-84683600D03*
X117805200Y-84683600D03*
X115265200Y-84683600D03*
X112725200Y-84683600D03*
X110185200Y-84683600D03*
X107645200Y-84683600D03*
X105105200Y-84683600D03*
%TD*%
D13*
%TO.C,R9*%
X107986400Y-77518900D03*
X107986400Y-75693900D03*
%TD*%
D39*
%TO.C,C24*%
X136388000Y-90500000D03*
X141488000Y-90500000D03*
%TD*%
D40*
%TO.C,PS1*%
X155702000Y-77800000D03*
D41*
X151892000Y-77800000D03*
X155702000Y-87198000D03*
X145542000Y-87198000D03*
D42*
X160274000Y-77800000D03*
D41*
X148082000Y-77800000D03*
%TD*%
M02*
