%TF.GenerationSoftware,KiCad,Pcbnew,8.0.1*%
%TF.CreationDate,2024-05-07T10:30:01+01:00*%
%TF.ProjectId,UoB TICSP,556f4220-5449-4435-9350-2e6b69636164,1*%
%TF.SameCoordinates,Original*%
%TF.FileFunction,Legend,Top*%
%TF.FilePolarity,Positive*%
%FSLAX46Y46*%
G04 Gerber Fmt 4.6, Leading zero omitted, Abs format (unit mm)*
G04 Created by KiCad (PCBNEW 8.0.1) date 2024-05-07 10:30:01*
%MOMM*%
%LPD*%
G01*
G04 APERTURE LIST*
G04 Aperture macros list*
%AMRoundRect*
0 Rectangle with rounded corners*
0 $1 Rounding radius*
0 $2 $3 $4 $5 $6 $7 $8 $9 X,Y pos of 4 corners*
0 Add a 4 corners polygon primitive as box body*
4,1,4,$2,$3,$4,$5,$6,$7,$8,$9,$2,$3,0*
0 Add four circle primitives for the rounded corners*
1,1,$1+$1,$2,$3*
1,1,$1+$1,$4,$5*
1,1,$1+$1,$6,$7*
1,1,$1+$1,$8,$9*
0 Add four rect primitives between the rounded corners*
20,1,$1+$1,$2,$3,$4,$5,0*
20,1,$1+$1,$4,$5,$6,$7,0*
20,1,$1+$1,$6,$7,$8,$9,0*
20,1,$1+$1,$8,$9,$2,$3,0*%
G04 Aperture macros list end*
%ADD10C,0.150000*%
%ADD11C,0.120000*%
%ADD12C,0.100000*%
%ADD13RoundRect,0.237500X0.237500X-0.250000X0.237500X0.250000X-0.237500X0.250000X-0.237500X-0.250000X0*%
%ADD14R,3.000000X2.000000*%
%ADD15O,3.000000X2.000000*%
%ADD16RoundRect,0.237500X-0.250000X-0.237500X0.250000X-0.237500X0.250000X0.237500X-0.250000X0.237500X0*%
%ADD17RoundRect,0.150000X0.587500X0.150000X-0.587500X0.150000X-0.587500X-0.150000X0.587500X-0.150000X0*%
%ADD18RoundRect,0.150000X-0.587500X-0.150000X0.587500X-0.150000X0.587500X0.150000X-0.587500X0.150000X0*%
%ADD19RoundRect,0.237500X0.250000X0.237500X-0.250000X0.237500X-0.250000X-0.237500X0.250000X-0.237500X0*%
%ADD20RoundRect,0.375000X-0.625000X-0.375000X0.625000X-0.375000X0.625000X0.375000X-0.625000X0.375000X0*%
%ADD21RoundRect,0.500000X-0.500000X-1.400000X0.500000X-1.400000X0.500000X1.400000X-0.500000X1.400000X0*%
%ADD22RoundRect,0.237500X-0.237500X0.250000X-0.237500X-0.250000X0.237500X-0.250000X0.237500X0.250000X0*%
%ADD23RoundRect,0.250000X0.250000X0.475000X-0.250000X0.475000X-0.250000X-0.475000X0.250000X-0.475000X0*%
%ADD24RoundRect,0.250000X0.325000X1.100000X-0.325000X1.100000X-0.325000X-1.100000X0.325000X-1.100000X0*%
%ADD25RoundRect,0.250000X-0.325000X-1.100000X0.325000X-1.100000X0.325000X1.100000X-0.325000X1.100000X0*%
%ADD26RoundRect,0.250000X0.475000X-0.250000X0.475000X0.250000X-0.475000X0.250000X-0.475000X-0.250000X0*%
%ADD27RoundRect,0.250000X-1.100000X0.325000X-1.100000X-0.325000X1.100000X-0.325000X1.100000X0.325000X0*%
%ADD28RoundRect,0.250000X-0.250000X-0.475000X0.250000X-0.475000X0.250000X0.475000X-0.250000X0.475000X0*%
%ADD29C,2.700000*%
%ADD30RoundRect,0.250002X1.699998X-1.699998X1.699998X1.699998X-1.699998X1.699998X-1.699998X-1.699998X0*%
%ADD31RoundRect,0.237500X-0.237500X0.300000X-0.237500X-0.300000X0.237500X-0.300000X0.237500X0.300000X0*%
%ADD32RoundRect,0.250002X-1.699998X-1.699998X1.699998X-1.699998X1.699998X1.699998X-1.699998X1.699998X0*%
%ADD33RoundRect,0.249999X0.737501X2.450001X-0.737501X2.450001X-0.737501X-2.450001X0.737501X-2.450001X0*%
%ADD34RoundRect,0.250000X-0.475000X0.250000X-0.475000X-0.250000X0.475000X-0.250000X0.475000X0.250000X0*%
%ADD35RoundRect,0.150000X0.650000X0.150000X-0.650000X0.150000X-0.650000X-0.150000X0.650000X-0.150000X0*%
%ADD36RoundRect,0.250000X1.100000X-0.325000X1.100000X0.325000X-1.100000X0.325000X-1.100000X-0.325000X0*%
%ADD37C,2.050000*%
%ADD38C,2.250000*%
%ADD39RoundRect,0.237500X0.300000X0.237500X-0.300000X0.237500X-0.300000X-0.237500X0.300000X-0.237500X0*%
%ADD40RoundRect,0.250000X-0.450000X0.262500X-0.450000X-0.262500X0.450000X-0.262500X0.450000X0.262500X0*%
%ADD41RoundRect,0.150000X-0.650000X-0.150000X0.650000X-0.150000X0.650000X0.150000X-0.650000X0.150000X0*%
%ADD42RoundRect,0.249999X1.425001X-0.450001X1.425001X0.450001X-1.425001X0.450001X-1.425001X-0.450001X0*%
G04 APERTURE END LIST*
D10*
X98936779Y-69688866D02*
X99698684Y-69688866D01*
X100222493Y-70069819D02*
X100412969Y-70069819D01*
X100412969Y-70069819D02*
X100508207Y-70022200D01*
X100508207Y-70022200D02*
X100555826Y-69974580D01*
X100555826Y-69974580D02*
X100651064Y-69831723D01*
X100651064Y-69831723D02*
X100698683Y-69641247D01*
X100698683Y-69641247D02*
X100698683Y-69260295D01*
X100698683Y-69260295D02*
X100651064Y-69165057D01*
X100651064Y-69165057D02*
X100603445Y-69117438D01*
X100603445Y-69117438D02*
X100508207Y-69069819D01*
X100508207Y-69069819D02*
X100317731Y-69069819D01*
X100317731Y-69069819D02*
X100222493Y-69117438D01*
X100222493Y-69117438D02*
X100174874Y-69165057D01*
X100174874Y-69165057D02*
X100127255Y-69260295D01*
X100127255Y-69260295D02*
X100127255Y-69498390D01*
X100127255Y-69498390D02*
X100174874Y-69593628D01*
X100174874Y-69593628D02*
X100222493Y-69641247D01*
X100222493Y-69641247D02*
X100317731Y-69688866D01*
X100317731Y-69688866D02*
X100508207Y-69688866D01*
X100508207Y-69688866D02*
X100603445Y-69641247D01*
X100603445Y-69641247D02*
X100651064Y-69593628D01*
X100651064Y-69593628D02*
X100698683Y-69498390D01*
X100984398Y-69069819D02*
X101317731Y-70069819D01*
X101317731Y-70069819D02*
X101651064Y-69069819D01*
X143670112Y-65136065D02*
X143812969Y-65183684D01*
X143812969Y-65183684D02*
X143860588Y-65231303D01*
X143860588Y-65231303D02*
X143908207Y-65326541D01*
X143908207Y-65326541D02*
X143908207Y-65469398D01*
X143908207Y-65469398D02*
X143860588Y-65564636D01*
X143860588Y-65564636D02*
X143812969Y-65612256D01*
X143812969Y-65612256D02*
X143717731Y-65659875D01*
X143717731Y-65659875D02*
X143336779Y-65659875D01*
X143336779Y-65659875D02*
X143336779Y-64659875D01*
X143336779Y-64659875D02*
X143670112Y-64659875D01*
X143670112Y-64659875D02*
X143765350Y-64707494D01*
X143765350Y-64707494D02*
X143812969Y-64755113D01*
X143812969Y-64755113D02*
X143860588Y-64850351D01*
X143860588Y-64850351D02*
X143860588Y-64945589D01*
X143860588Y-64945589D02*
X143812969Y-65040827D01*
X143812969Y-65040827D02*
X143765350Y-65088446D01*
X143765350Y-65088446D02*
X143670112Y-65136065D01*
X143670112Y-65136065D02*
X143336779Y-65136065D01*
X144336779Y-65659875D02*
X144336779Y-64993208D01*
X144336779Y-64659875D02*
X144289160Y-64707494D01*
X144289160Y-64707494D02*
X144336779Y-64755113D01*
X144336779Y-64755113D02*
X144384398Y-64707494D01*
X144384398Y-64707494D02*
X144336779Y-64659875D01*
X144336779Y-64659875D02*
X144336779Y-64755113D01*
X145241540Y-65659875D02*
X145241540Y-65136065D01*
X145241540Y-65136065D02*
X145193921Y-65040827D01*
X145193921Y-65040827D02*
X145098683Y-64993208D01*
X145098683Y-64993208D02*
X144908207Y-64993208D01*
X144908207Y-64993208D02*
X144812969Y-65040827D01*
X145241540Y-65612256D02*
X145146302Y-65659875D01*
X145146302Y-65659875D02*
X144908207Y-65659875D01*
X144908207Y-65659875D02*
X144812969Y-65612256D01*
X144812969Y-65612256D02*
X144765350Y-65517017D01*
X144765350Y-65517017D02*
X144765350Y-65421779D01*
X144765350Y-65421779D02*
X144812969Y-65326541D01*
X144812969Y-65326541D02*
X144908207Y-65278922D01*
X144908207Y-65278922D02*
X145146302Y-65278922D01*
X145146302Y-65278922D02*
X145241540Y-65231303D01*
X145670112Y-65612256D02*
X145765350Y-65659875D01*
X145765350Y-65659875D02*
X145955826Y-65659875D01*
X145955826Y-65659875D02*
X146051064Y-65612256D01*
X146051064Y-65612256D02*
X146098683Y-65517017D01*
X146098683Y-65517017D02*
X146098683Y-65469398D01*
X146098683Y-65469398D02*
X146051064Y-65374160D01*
X146051064Y-65374160D02*
X145955826Y-65326541D01*
X145955826Y-65326541D02*
X145812969Y-65326541D01*
X145812969Y-65326541D02*
X145717731Y-65278922D01*
X145717731Y-65278922D02*
X145670112Y-65183684D01*
X145670112Y-65183684D02*
X145670112Y-65136065D01*
X145670112Y-65136065D02*
X145717731Y-65040827D01*
X145717731Y-65040827D02*
X145812969Y-64993208D01*
X145812969Y-64993208D02*
X145955826Y-64993208D01*
X145955826Y-64993208D02*
X146051064Y-65040827D01*
X143908207Y-67269819D02*
X143574874Y-66793628D01*
X143336779Y-67269819D02*
X143336779Y-66269819D01*
X143336779Y-66269819D02*
X143717731Y-66269819D01*
X143717731Y-66269819D02*
X143812969Y-66317438D01*
X143812969Y-66317438D02*
X143860588Y-66365057D01*
X143860588Y-66365057D02*
X143908207Y-66460295D01*
X143908207Y-66460295D02*
X143908207Y-66603152D01*
X143908207Y-66603152D02*
X143860588Y-66698390D01*
X143860588Y-66698390D02*
X143812969Y-66746009D01*
X143812969Y-66746009D02*
X143717731Y-66793628D01*
X143717731Y-66793628D02*
X143336779Y-66793628D01*
X144717731Y-67222200D02*
X144622493Y-67269819D01*
X144622493Y-67269819D02*
X144432017Y-67269819D01*
X144432017Y-67269819D02*
X144336779Y-67222200D01*
X144336779Y-67222200D02*
X144289160Y-67126961D01*
X144289160Y-67126961D02*
X144289160Y-66746009D01*
X144289160Y-66746009D02*
X144336779Y-66650771D01*
X144336779Y-66650771D02*
X144432017Y-66603152D01*
X144432017Y-66603152D02*
X144622493Y-66603152D01*
X144622493Y-66603152D02*
X144717731Y-66650771D01*
X144717731Y-66650771D02*
X144765350Y-66746009D01*
X144765350Y-66746009D02*
X144765350Y-66841247D01*
X144765350Y-66841247D02*
X144289160Y-66936485D01*
X145051065Y-66603152D02*
X145432017Y-66603152D01*
X145193922Y-66269819D02*
X145193922Y-67126961D01*
X145193922Y-67126961D02*
X145241541Y-67222200D01*
X145241541Y-67222200D02*
X145336779Y-67269819D01*
X145336779Y-67269819D02*
X145432017Y-67269819D01*
X146193922Y-66603152D02*
X146193922Y-67269819D01*
X145765351Y-66603152D02*
X145765351Y-67126961D01*
X145765351Y-67126961D02*
X145812970Y-67222200D01*
X145812970Y-67222200D02*
X145908208Y-67269819D01*
X145908208Y-67269819D02*
X146051065Y-67269819D01*
X146051065Y-67269819D02*
X146146303Y-67222200D01*
X146146303Y-67222200D02*
X146193922Y-67174580D01*
X146670113Y-67269819D02*
X146670113Y-66603152D01*
X146670113Y-66793628D02*
X146717732Y-66698390D01*
X146717732Y-66698390D02*
X146765351Y-66650771D01*
X146765351Y-66650771D02*
X146860589Y-66603152D01*
X146860589Y-66603152D02*
X146955827Y-66603152D01*
X147289161Y-66603152D02*
X147289161Y-67269819D01*
X147289161Y-66698390D02*
X147336780Y-66650771D01*
X147336780Y-66650771D02*
X147432018Y-66603152D01*
X147432018Y-66603152D02*
X147574875Y-66603152D01*
X147574875Y-66603152D02*
X147670113Y-66650771D01*
X147670113Y-66650771D02*
X147717732Y-66746009D01*
X147717732Y-66746009D02*
X147717732Y-67269819D01*
X87989160Y-85774160D02*
X88465350Y-85774160D01*
X87893922Y-86059875D02*
X88227255Y-85059875D01*
X88227255Y-85059875D02*
X88560588Y-86059875D01*
X88893922Y-86059875D02*
X88893922Y-85393208D01*
X88893922Y-85488446D02*
X88941541Y-85440827D01*
X88941541Y-85440827D02*
X89036779Y-85393208D01*
X89036779Y-85393208D02*
X89179636Y-85393208D01*
X89179636Y-85393208D02*
X89274874Y-85440827D01*
X89274874Y-85440827D02*
X89322493Y-85536065D01*
X89322493Y-85536065D02*
X89322493Y-86059875D01*
X89322493Y-85536065D02*
X89370112Y-85440827D01*
X89370112Y-85440827D02*
X89465350Y-85393208D01*
X89465350Y-85393208D02*
X89608207Y-85393208D01*
X89608207Y-85393208D02*
X89703446Y-85440827D01*
X89703446Y-85440827D02*
X89751065Y-85536065D01*
X89751065Y-85536065D02*
X89751065Y-86059875D01*
X90227255Y-85393208D02*
X90227255Y-86393208D01*
X90227255Y-85440827D02*
X90322493Y-85393208D01*
X90322493Y-85393208D02*
X90512969Y-85393208D01*
X90512969Y-85393208D02*
X90608207Y-85440827D01*
X90608207Y-85440827D02*
X90655826Y-85488446D01*
X90655826Y-85488446D02*
X90703445Y-85583684D01*
X90703445Y-85583684D02*
X90703445Y-85869398D01*
X90703445Y-85869398D02*
X90655826Y-85964636D01*
X90655826Y-85964636D02*
X90608207Y-86012256D01*
X90608207Y-86012256D02*
X90512969Y-86059875D01*
X90512969Y-86059875D02*
X90322493Y-86059875D01*
X90322493Y-86059875D02*
X90227255Y-86012256D01*
X88227255Y-86669819D02*
X88417731Y-86669819D01*
X88417731Y-86669819D02*
X88512969Y-86717438D01*
X88512969Y-86717438D02*
X88608207Y-86812676D01*
X88608207Y-86812676D02*
X88655826Y-87003152D01*
X88655826Y-87003152D02*
X88655826Y-87336485D01*
X88655826Y-87336485D02*
X88608207Y-87526961D01*
X88608207Y-87526961D02*
X88512969Y-87622200D01*
X88512969Y-87622200D02*
X88417731Y-87669819D01*
X88417731Y-87669819D02*
X88227255Y-87669819D01*
X88227255Y-87669819D02*
X88132017Y-87622200D01*
X88132017Y-87622200D02*
X88036779Y-87526961D01*
X88036779Y-87526961D02*
X87989160Y-87336485D01*
X87989160Y-87336485D02*
X87989160Y-87003152D01*
X87989160Y-87003152D02*
X88036779Y-86812676D01*
X88036779Y-86812676D02*
X88132017Y-86717438D01*
X88132017Y-86717438D02*
X88227255Y-86669819D01*
X89512969Y-87003152D02*
X89512969Y-87669819D01*
X89084398Y-87003152D02*
X89084398Y-87526961D01*
X89084398Y-87526961D02*
X89132017Y-87622200D01*
X89132017Y-87622200D02*
X89227255Y-87669819D01*
X89227255Y-87669819D02*
X89370112Y-87669819D01*
X89370112Y-87669819D02*
X89465350Y-87622200D01*
X89465350Y-87622200D02*
X89512969Y-87574580D01*
X89846303Y-87003152D02*
X90227255Y-87003152D01*
X89989160Y-86669819D02*
X89989160Y-87526961D01*
X89989160Y-87526961D02*
X90036779Y-87622200D01*
X90036779Y-87622200D02*
X90132017Y-87669819D01*
X90132017Y-87669819D02*
X90227255Y-87669819D01*
X99227255Y-66469819D02*
X99322493Y-66469819D01*
X99322493Y-66469819D02*
X99417731Y-66517438D01*
X99417731Y-66517438D02*
X99465350Y-66565057D01*
X99465350Y-66565057D02*
X99512969Y-66660295D01*
X99512969Y-66660295D02*
X99560588Y-66850771D01*
X99560588Y-66850771D02*
X99560588Y-67088866D01*
X99560588Y-67088866D02*
X99512969Y-67279342D01*
X99512969Y-67279342D02*
X99465350Y-67374580D01*
X99465350Y-67374580D02*
X99417731Y-67422200D01*
X99417731Y-67422200D02*
X99322493Y-67469819D01*
X99322493Y-67469819D02*
X99227255Y-67469819D01*
X99227255Y-67469819D02*
X99132017Y-67422200D01*
X99132017Y-67422200D02*
X99084398Y-67374580D01*
X99084398Y-67374580D02*
X99036779Y-67279342D01*
X99036779Y-67279342D02*
X98989160Y-67088866D01*
X98989160Y-67088866D02*
X98989160Y-66850771D01*
X98989160Y-66850771D02*
X99036779Y-66660295D01*
X99036779Y-66660295D02*
X99084398Y-66565057D01*
X99084398Y-66565057D02*
X99132017Y-66517438D01*
X99132017Y-66517438D02*
X99227255Y-66469819D01*
X99846303Y-66469819D02*
X100179636Y-67469819D01*
X100179636Y-67469819D02*
X100512969Y-66469819D01*
X99036779Y-64388866D02*
X99798684Y-64388866D01*
X99417731Y-64769819D02*
X99417731Y-64007914D01*
X100798683Y-64769819D02*
X100227255Y-64769819D01*
X100512969Y-64769819D02*
X100512969Y-63769819D01*
X100512969Y-63769819D02*
X100417731Y-63912676D01*
X100417731Y-63912676D02*
X100322493Y-64007914D01*
X100322493Y-64007914D02*
X100227255Y-64055533D01*
X101179636Y-63865057D02*
X101227255Y-63817438D01*
X101227255Y-63817438D02*
X101322493Y-63769819D01*
X101322493Y-63769819D02*
X101560588Y-63769819D01*
X101560588Y-63769819D02*
X101655826Y-63817438D01*
X101655826Y-63817438D02*
X101703445Y-63865057D01*
X101703445Y-63865057D02*
X101751064Y-63960295D01*
X101751064Y-63960295D02*
X101751064Y-64055533D01*
X101751064Y-64055533D02*
X101703445Y-64198390D01*
X101703445Y-64198390D02*
X101132017Y-64769819D01*
X101132017Y-64769819D02*
X101751064Y-64769819D01*
X102036779Y-63769819D02*
X102370112Y-64769819D01*
X102370112Y-64769819D02*
X102703445Y-63769819D01*
X140309160Y-83794160D02*
X140785350Y-83794160D01*
X140213922Y-84079875D02*
X140547255Y-83079875D01*
X140547255Y-83079875D02*
X140880588Y-84079875D01*
X141213922Y-84079875D02*
X141213922Y-83413208D01*
X141213922Y-83508446D02*
X141261541Y-83460827D01*
X141261541Y-83460827D02*
X141356779Y-83413208D01*
X141356779Y-83413208D02*
X141499636Y-83413208D01*
X141499636Y-83413208D02*
X141594874Y-83460827D01*
X141594874Y-83460827D02*
X141642493Y-83556065D01*
X141642493Y-83556065D02*
X141642493Y-84079875D01*
X141642493Y-83556065D02*
X141690112Y-83460827D01*
X141690112Y-83460827D02*
X141785350Y-83413208D01*
X141785350Y-83413208D02*
X141928207Y-83413208D01*
X141928207Y-83413208D02*
X142023446Y-83460827D01*
X142023446Y-83460827D02*
X142071065Y-83556065D01*
X142071065Y-83556065D02*
X142071065Y-84079875D01*
X142547255Y-83413208D02*
X142547255Y-84413208D01*
X142547255Y-83460827D02*
X142642493Y-83413208D01*
X142642493Y-83413208D02*
X142832969Y-83413208D01*
X142832969Y-83413208D02*
X142928207Y-83460827D01*
X142928207Y-83460827D02*
X142975826Y-83508446D01*
X142975826Y-83508446D02*
X143023445Y-83603684D01*
X143023445Y-83603684D02*
X143023445Y-83889398D01*
X143023445Y-83889398D02*
X142975826Y-83984636D01*
X142975826Y-83984636D02*
X142928207Y-84032256D01*
X142928207Y-84032256D02*
X142832969Y-84079875D01*
X142832969Y-84079875D02*
X142642493Y-84079875D01*
X142642493Y-84079875D02*
X142547255Y-84032256D01*
X140356779Y-85689819D02*
X140356779Y-84689819D01*
X140832969Y-85023152D02*
X140832969Y-85689819D01*
X140832969Y-85118390D02*
X140880588Y-85070771D01*
X140880588Y-85070771D02*
X140975826Y-85023152D01*
X140975826Y-85023152D02*
X141118683Y-85023152D01*
X141118683Y-85023152D02*
X141213921Y-85070771D01*
X141213921Y-85070771D02*
X141261540Y-85166009D01*
X141261540Y-85166009D02*
X141261540Y-85689819D01*
X152770112Y-65336065D02*
X152912969Y-65383684D01*
X152912969Y-65383684D02*
X152960588Y-65431303D01*
X152960588Y-65431303D02*
X153008207Y-65526541D01*
X153008207Y-65526541D02*
X153008207Y-65669398D01*
X153008207Y-65669398D02*
X152960588Y-65764636D01*
X152960588Y-65764636D02*
X152912969Y-65812256D01*
X152912969Y-65812256D02*
X152817731Y-65859875D01*
X152817731Y-65859875D02*
X152436779Y-65859875D01*
X152436779Y-65859875D02*
X152436779Y-64859875D01*
X152436779Y-64859875D02*
X152770112Y-64859875D01*
X152770112Y-64859875D02*
X152865350Y-64907494D01*
X152865350Y-64907494D02*
X152912969Y-64955113D01*
X152912969Y-64955113D02*
X152960588Y-65050351D01*
X152960588Y-65050351D02*
X152960588Y-65145589D01*
X152960588Y-65145589D02*
X152912969Y-65240827D01*
X152912969Y-65240827D02*
X152865350Y-65288446D01*
X152865350Y-65288446D02*
X152770112Y-65336065D01*
X152770112Y-65336065D02*
X152436779Y-65336065D01*
X153436779Y-65859875D02*
X153436779Y-65193208D01*
X153436779Y-64859875D02*
X153389160Y-64907494D01*
X153389160Y-64907494D02*
X153436779Y-64955113D01*
X153436779Y-64955113D02*
X153484398Y-64907494D01*
X153484398Y-64907494D02*
X153436779Y-64859875D01*
X153436779Y-64859875D02*
X153436779Y-64955113D01*
X154341540Y-65859875D02*
X154341540Y-65336065D01*
X154341540Y-65336065D02*
X154293921Y-65240827D01*
X154293921Y-65240827D02*
X154198683Y-65193208D01*
X154198683Y-65193208D02*
X154008207Y-65193208D01*
X154008207Y-65193208D02*
X153912969Y-65240827D01*
X154341540Y-65812256D02*
X154246302Y-65859875D01*
X154246302Y-65859875D02*
X154008207Y-65859875D01*
X154008207Y-65859875D02*
X153912969Y-65812256D01*
X153912969Y-65812256D02*
X153865350Y-65717017D01*
X153865350Y-65717017D02*
X153865350Y-65621779D01*
X153865350Y-65621779D02*
X153912969Y-65526541D01*
X153912969Y-65526541D02*
X154008207Y-65478922D01*
X154008207Y-65478922D02*
X154246302Y-65478922D01*
X154246302Y-65478922D02*
X154341540Y-65431303D01*
X154770112Y-65812256D02*
X154865350Y-65859875D01*
X154865350Y-65859875D02*
X155055826Y-65859875D01*
X155055826Y-65859875D02*
X155151064Y-65812256D01*
X155151064Y-65812256D02*
X155198683Y-65717017D01*
X155198683Y-65717017D02*
X155198683Y-65669398D01*
X155198683Y-65669398D02*
X155151064Y-65574160D01*
X155151064Y-65574160D02*
X155055826Y-65526541D01*
X155055826Y-65526541D02*
X154912969Y-65526541D01*
X154912969Y-65526541D02*
X154817731Y-65478922D01*
X154817731Y-65478922D02*
X154770112Y-65383684D01*
X154770112Y-65383684D02*
X154770112Y-65336065D01*
X154770112Y-65336065D02*
X154817731Y-65240827D01*
X154817731Y-65240827D02*
X154912969Y-65193208D01*
X154912969Y-65193208D02*
X155055826Y-65193208D01*
X155055826Y-65193208D02*
X155151064Y-65240827D01*
X152436779Y-67469819D02*
X152436779Y-66469819D01*
X152912969Y-66803152D02*
X152912969Y-67469819D01*
X152912969Y-66898390D02*
X152960588Y-66850771D01*
X152960588Y-66850771D02*
X153055826Y-66803152D01*
X153055826Y-66803152D02*
X153198683Y-66803152D01*
X153198683Y-66803152D02*
X153293921Y-66850771D01*
X153293921Y-66850771D02*
X153341540Y-66946009D01*
X153341540Y-66946009D02*
X153341540Y-67469819D01*
X155536779Y-88859875D02*
X155536779Y-87859875D01*
X155536779Y-87859875D02*
X155774874Y-87859875D01*
X155774874Y-87859875D02*
X155917731Y-87907494D01*
X155917731Y-87907494D02*
X156012969Y-88002732D01*
X156012969Y-88002732D02*
X156060588Y-88097970D01*
X156060588Y-88097970D02*
X156108207Y-88288446D01*
X156108207Y-88288446D02*
X156108207Y-88431303D01*
X156108207Y-88431303D02*
X156060588Y-88621779D01*
X156060588Y-88621779D02*
X156012969Y-88717017D01*
X156012969Y-88717017D02*
X155917731Y-88812256D01*
X155917731Y-88812256D02*
X155774874Y-88859875D01*
X155774874Y-88859875D02*
X155536779Y-88859875D01*
X156917731Y-88812256D02*
X156822493Y-88859875D01*
X156822493Y-88859875D02*
X156632017Y-88859875D01*
X156632017Y-88859875D02*
X156536779Y-88812256D01*
X156536779Y-88812256D02*
X156489160Y-88717017D01*
X156489160Y-88717017D02*
X156489160Y-88336065D01*
X156489160Y-88336065D02*
X156536779Y-88240827D01*
X156536779Y-88240827D02*
X156632017Y-88193208D01*
X156632017Y-88193208D02*
X156822493Y-88193208D01*
X156822493Y-88193208D02*
X156917731Y-88240827D01*
X156917731Y-88240827D02*
X156965350Y-88336065D01*
X156965350Y-88336065D02*
X156965350Y-88431303D01*
X156965350Y-88431303D02*
X156489160Y-88526541D01*
X157251065Y-88193208D02*
X157632017Y-88193208D01*
X157393922Y-87859875D02*
X157393922Y-88717017D01*
X157393922Y-88717017D02*
X157441541Y-88812256D01*
X157441541Y-88812256D02*
X157536779Y-88859875D01*
X157536779Y-88859875D02*
X157632017Y-88859875D01*
X158346303Y-88812256D02*
X158251065Y-88859875D01*
X158251065Y-88859875D02*
X158060589Y-88859875D01*
X158060589Y-88859875D02*
X157965351Y-88812256D01*
X157965351Y-88812256D02*
X157917732Y-88717017D01*
X157917732Y-88717017D02*
X157917732Y-88336065D01*
X157917732Y-88336065D02*
X157965351Y-88240827D01*
X157965351Y-88240827D02*
X158060589Y-88193208D01*
X158060589Y-88193208D02*
X158251065Y-88193208D01*
X158251065Y-88193208D02*
X158346303Y-88240827D01*
X158346303Y-88240827D02*
X158393922Y-88336065D01*
X158393922Y-88336065D02*
X158393922Y-88431303D01*
X158393922Y-88431303D02*
X157917732Y-88526541D01*
X159251065Y-88812256D02*
X159155827Y-88859875D01*
X159155827Y-88859875D02*
X158965351Y-88859875D01*
X158965351Y-88859875D02*
X158870113Y-88812256D01*
X158870113Y-88812256D02*
X158822494Y-88764636D01*
X158822494Y-88764636D02*
X158774875Y-88669398D01*
X158774875Y-88669398D02*
X158774875Y-88383684D01*
X158774875Y-88383684D02*
X158822494Y-88288446D01*
X158822494Y-88288446D02*
X158870113Y-88240827D01*
X158870113Y-88240827D02*
X158965351Y-88193208D01*
X158965351Y-88193208D02*
X159155827Y-88193208D01*
X159155827Y-88193208D02*
X159251065Y-88240827D01*
X159536780Y-88193208D02*
X159917732Y-88193208D01*
X159679637Y-87859875D02*
X159679637Y-88717017D01*
X159679637Y-88717017D02*
X159727256Y-88812256D01*
X159727256Y-88812256D02*
X159822494Y-88859875D01*
X159822494Y-88859875D02*
X159917732Y-88859875D01*
X160393923Y-88859875D02*
X160298685Y-88812256D01*
X160298685Y-88812256D02*
X160251066Y-88764636D01*
X160251066Y-88764636D02*
X160203447Y-88669398D01*
X160203447Y-88669398D02*
X160203447Y-88383684D01*
X160203447Y-88383684D02*
X160251066Y-88288446D01*
X160251066Y-88288446D02*
X160298685Y-88240827D01*
X160298685Y-88240827D02*
X160393923Y-88193208D01*
X160393923Y-88193208D02*
X160536780Y-88193208D01*
X160536780Y-88193208D02*
X160632018Y-88240827D01*
X160632018Y-88240827D02*
X160679637Y-88288446D01*
X160679637Y-88288446D02*
X160727256Y-88383684D01*
X160727256Y-88383684D02*
X160727256Y-88669398D01*
X160727256Y-88669398D02*
X160679637Y-88764636D01*
X160679637Y-88764636D02*
X160632018Y-88812256D01*
X160632018Y-88812256D02*
X160536780Y-88859875D01*
X160536780Y-88859875D02*
X160393923Y-88859875D01*
X161155828Y-88859875D02*
X161155828Y-88193208D01*
X161155828Y-88383684D02*
X161203447Y-88288446D01*
X161203447Y-88288446D02*
X161251066Y-88240827D01*
X161251066Y-88240827D02*
X161346304Y-88193208D01*
X161346304Y-88193208D02*
X161441542Y-88193208D01*
X155870112Y-89946009D02*
X156012969Y-89993628D01*
X156012969Y-89993628D02*
X156060588Y-90041247D01*
X156060588Y-90041247D02*
X156108207Y-90136485D01*
X156108207Y-90136485D02*
X156108207Y-90279342D01*
X156108207Y-90279342D02*
X156060588Y-90374580D01*
X156060588Y-90374580D02*
X156012969Y-90422200D01*
X156012969Y-90422200D02*
X155917731Y-90469819D01*
X155917731Y-90469819D02*
X155536779Y-90469819D01*
X155536779Y-90469819D02*
X155536779Y-89469819D01*
X155536779Y-89469819D02*
X155870112Y-89469819D01*
X155870112Y-89469819D02*
X155965350Y-89517438D01*
X155965350Y-89517438D02*
X156012969Y-89565057D01*
X156012969Y-89565057D02*
X156060588Y-89660295D01*
X156060588Y-89660295D02*
X156060588Y-89755533D01*
X156060588Y-89755533D02*
X156012969Y-89850771D01*
X156012969Y-89850771D02*
X155965350Y-89898390D01*
X155965350Y-89898390D02*
X155870112Y-89946009D01*
X155870112Y-89946009D02*
X155536779Y-89946009D01*
X156536779Y-90469819D02*
X156536779Y-89803152D01*
X156536779Y-89469819D02*
X156489160Y-89517438D01*
X156489160Y-89517438D02*
X156536779Y-89565057D01*
X156536779Y-89565057D02*
X156584398Y-89517438D01*
X156584398Y-89517438D02*
X156536779Y-89469819D01*
X156536779Y-89469819D02*
X156536779Y-89565057D01*
X157441540Y-90469819D02*
X157441540Y-89946009D01*
X157441540Y-89946009D02*
X157393921Y-89850771D01*
X157393921Y-89850771D02*
X157298683Y-89803152D01*
X157298683Y-89803152D02*
X157108207Y-89803152D01*
X157108207Y-89803152D02*
X157012969Y-89850771D01*
X157441540Y-90422200D02*
X157346302Y-90469819D01*
X157346302Y-90469819D02*
X157108207Y-90469819D01*
X157108207Y-90469819D02*
X157012969Y-90422200D01*
X157012969Y-90422200D02*
X156965350Y-90326961D01*
X156965350Y-90326961D02*
X156965350Y-90231723D01*
X156965350Y-90231723D02*
X157012969Y-90136485D01*
X157012969Y-90136485D02*
X157108207Y-90088866D01*
X157108207Y-90088866D02*
X157346302Y-90088866D01*
X157346302Y-90088866D02*
X157441540Y-90041247D01*
X157870112Y-90422200D02*
X157965350Y-90469819D01*
X157965350Y-90469819D02*
X158155826Y-90469819D01*
X158155826Y-90469819D02*
X158251064Y-90422200D01*
X158251064Y-90422200D02*
X158298683Y-90326961D01*
X158298683Y-90326961D02*
X158298683Y-90279342D01*
X158298683Y-90279342D02*
X158251064Y-90184104D01*
X158251064Y-90184104D02*
X158155826Y-90136485D01*
X158155826Y-90136485D02*
X158012969Y-90136485D01*
X158012969Y-90136485D02*
X157917731Y-90088866D01*
X157917731Y-90088866D02*
X157870112Y-89993628D01*
X157870112Y-89993628D02*
X157870112Y-89946009D01*
X157870112Y-89946009D02*
X157917731Y-89850771D01*
X157917731Y-89850771D02*
X158012969Y-89803152D01*
X158012969Y-89803152D02*
X158155826Y-89803152D01*
X158155826Y-89803152D02*
X158251064Y-89850771D01*
X140831207Y-74222636D02*
X140783588Y-74270256D01*
X140783588Y-74270256D02*
X140640731Y-74317875D01*
X140640731Y-74317875D02*
X140545493Y-74317875D01*
X140545493Y-74317875D02*
X140402636Y-74270256D01*
X140402636Y-74270256D02*
X140307398Y-74175017D01*
X140307398Y-74175017D02*
X140259779Y-74079779D01*
X140259779Y-74079779D02*
X140212160Y-73889303D01*
X140212160Y-73889303D02*
X140212160Y-73746446D01*
X140212160Y-73746446D02*
X140259779Y-73555970D01*
X140259779Y-73555970D02*
X140307398Y-73460732D01*
X140307398Y-73460732D02*
X140402636Y-73365494D01*
X140402636Y-73365494D02*
X140545493Y-73317875D01*
X140545493Y-73317875D02*
X140640731Y-73317875D01*
X140640731Y-73317875D02*
X140783588Y-73365494D01*
X140783588Y-73365494D02*
X140831207Y-73413113D01*
X141259779Y-74317875D02*
X141259779Y-73317875D01*
X141688350Y-74317875D02*
X141688350Y-73794065D01*
X141688350Y-73794065D02*
X141640731Y-73698827D01*
X141640731Y-73698827D02*
X141545493Y-73651208D01*
X141545493Y-73651208D02*
X141402636Y-73651208D01*
X141402636Y-73651208D02*
X141307398Y-73698827D01*
X141307398Y-73698827D02*
X141259779Y-73746446D01*
X142593112Y-74317875D02*
X142593112Y-73794065D01*
X142593112Y-73794065D02*
X142545493Y-73698827D01*
X142545493Y-73698827D02*
X142450255Y-73651208D01*
X142450255Y-73651208D02*
X142259779Y-73651208D01*
X142259779Y-73651208D02*
X142164541Y-73698827D01*
X142593112Y-74270256D02*
X142497874Y-74317875D01*
X142497874Y-74317875D02*
X142259779Y-74317875D01*
X142259779Y-74317875D02*
X142164541Y-74270256D01*
X142164541Y-74270256D02*
X142116922Y-74175017D01*
X142116922Y-74175017D02*
X142116922Y-74079779D01*
X142116922Y-74079779D02*
X142164541Y-73984541D01*
X142164541Y-73984541D02*
X142259779Y-73936922D01*
X142259779Y-73936922D02*
X142497874Y-73936922D01*
X142497874Y-73936922D02*
X142593112Y-73889303D01*
X143069303Y-74317875D02*
X143069303Y-73651208D01*
X143069303Y-73841684D02*
X143116922Y-73746446D01*
X143116922Y-73746446D02*
X143164541Y-73698827D01*
X143164541Y-73698827D02*
X143259779Y-73651208D01*
X143259779Y-73651208D02*
X143355017Y-73651208D01*
X144116922Y-73651208D02*
X144116922Y-74460732D01*
X144116922Y-74460732D02*
X144069303Y-74555970D01*
X144069303Y-74555970D02*
X144021684Y-74603589D01*
X144021684Y-74603589D02*
X143926446Y-74651208D01*
X143926446Y-74651208D02*
X143783589Y-74651208D01*
X143783589Y-74651208D02*
X143688351Y-74603589D01*
X144116922Y-74270256D02*
X144021684Y-74317875D01*
X144021684Y-74317875D02*
X143831208Y-74317875D01*
X143831208Y-74317875D02*
X143735970Y-74270256D01*
X143735970Y-74270256D02*
X143688351Y-74222636D01*
X143688351Y-74222636D02*
X143640732Y-74127398D01*
X143640732Y-74127398D02*
X143640732Y-73841684D01*
X143640732Y-73841684D02*
X143688351Y-73746446D01*
X143688351Y-73746446D02*
X143735970Y-73698827D01*
X143735970Y-73698827D02*
X143831208Y-73651208D01*
X143831208Y-73651208D02*
X144021684Y-73651208D01*
X144021684Y-73651208D02*
X144116922Y-73698827D01*
X144974065Y-74270256D02*
X144878827Y-74317875D01*
X144878827Y-74317875D02*
X144688351Y-74317875D01*
X144688351Y-74317875D02*
X144593113Y-74270256D01*
X144593113Y-74270256D02*
X144545494Y-74175017D01*
X144545494Y-74175017D02*
X144545494Y-73794065D01*
X144545494Y-73794065D02*
X144593113Y-73698827D01*
X144593113Y-73698827D02*
X144688351Y-73651208D01*
X144688351Y-73651208D02*
X144878827Y-73651208D01*
X144878827Y-73651208D02*
X144974065Y-73698827D01*
X144974065Y-73698827D02*
X145021684Y-73794065D01*
X145021684Y-73794065D02*
X145021684Y-73889303D01*
X145021684Y-73889303D02*
X144545494Y-73984541D01*
X140259779Y-75927819D02*
X140259779Y-74927819D01*
X140735969Y-75261152D02*
X140735969Y-75927819D01*
X140735969Y-75356390D02*
X140783588Y-75308771D01*
X140783588Y-75308771D02*
X140878826Y-75261152D01*
X140878826Y-75261152D02*
X141021683Y-75261152D01*
X141021683Y-75261152D02*
X141116921Y-75308771D01*
X141116921Y-75308771D02*
X141164540Y-75404009D01*
X141164540Y-75404009D02*
X141164540Y-75927819D01*
X141640731Y-75261152D02*
X141640731Y-76118295D01*
X141640731Y-76118295D02*
X141593112Y-76213533D01*
X141593112Y-76213533D02*
X141497874Y-76261152D01*
X141497874Y-76261152D02*
X141450255Y-76261152D01*
X141640731Y-74927819D02*
X141593112Y-74975438D01*
X141593112Y-74975438D02*
X141640731Y-75023057D01*
X141640731Y-75023057D02*
X141688350Y-74975438D01*
X141688350Y-74975438D02*
X141640731Y-74927819D01*
X141640731Y-74927819D02*
X141640731Y-75023057D01*
X142497873Y-75880200D02*
X142402635Y-75927819D01*
X142402635Y-75927819D02*
X142212159Y-75927819D01*
X142212159Y-75927819D02*
X142116921Y-75880200D01*
X142116921Y-75880200D02*
X142069302Y-75784961D01*
X142069302Y-75784961D02*
X142069302Y-75404009D01*
X142069302Y-75404009D02*
X142116921Y-75308771D01*
X142116921Y-75308771D02*
X142212159Y-75261152D01*
X142212159Y-75261152D02*
X142402635Y-75261152D01*
X142402635Y-75261152D02*
X142497873Y-75308771D01*
X142497873Y-75308771D02*
X142545492Y-75404009D01*
X142545492Y-75404009D02*
X142545492Y-75499247D01*
X142545492Y-75499247D02*
X142069302Y-75594485D01*
X143402635Y-75880200D02*
X143307397Y-75927819D01*
X143307397Y-75927819D02*
X143116921Y-75927819D01*
X143116921Y-75927819D02*
X143021683Y-75880200D01*
X143021683Y-75880200D02*
X142974064Y-75832580D01*
X142974064Y-75832580D02*
X142926445Y-75737342D01*
X142926445Y-75737342D02*
X142926445Y-75451628D01*
X142926445Y-75451628D02*
X142974064Y-75356390D01*
X142974064Y-75356390D02*
X143021683Y-75308771D01*
X143021683Y-75308771D02*
X143116921Y-75261152D01*
X143116921Y-75261152D02*
X143307397Y-75261152D01*
X143307397Y-75261152D02*
X143402635Y-75308771D01*
X143688350Y-75261152D02*
X144069302Y-75261152D01*
X143831207Y-74927819D02*
X143831207Y-75784961D01*
X143831207Y-75784961D02*
X143878826Y-75880200D01*
X143878826Y-75880200D02*
X143974064Y-75927819D01*
X143974064Y-75927819D02*
X144069302Y-75927819D01*
X144511950Y-93773619D02*
X144511950Y-92773619D01*
X144511950Y-92773619D02*
X144678617Y-92773619D01*
X144678617Y-92773619D02*
X144778617Y-92821238D01*
X144778617Y-92821238D02*
X144845284Y-92916476D01*
X144845284Y-92916476D02*
X144878617Y-93011714D01*
X144878617Y-93011714D02*
X144911950Y-93202190D01*
X144911950Y-93202190D02*
X144911950Y-93345047D01*
X144911950Y-93345047D02*
X144878617Y-93535523D01*
X144878617Y-93535523D02*
X144845284Y-93630761D01*
X144845284Y-93630761D02*
X144778617Y-93726000D01*
X144778617Y-93726000D02*
X144678617Y-93773619D01*
X144678617Y-93773619D02*
X144511950Y-93773619D01*
X145178617Y-93487904D02*
X145511950Y-93487904D01*
X145111950Y-93773619D02*
X145345284Y-92773619D01*
X145345284Y-92773619D02*
X145578617Y-93773619D01*
X145811950Y-93773619D02*
X145811950Y-92773619D01*
X145811950Y-92773619D02*
X146211950Y-93773619D01*
X146211950Y-93773619D02*
X146211950Y-92773619D01*
X146911950Y-92821238D02*
X146845283Y-92773619D01*
X146845283Y-92773619D02*
X146745283Y-92773619D01*
X146745283Y-92773619D02*
X146645283Y-92821238D01*
X146645283Y-92821238D02*
X146578617Y-92916476D01*
X146578617Y-92916476D02*
X146545283Y-93011714D01*
X146545283Y-93011714D02*
X146511950Y-93202190D01*
X146511950Y-93202190D02*
X146511950Y-93345047D01*
X146511950Y-93345047D02*
X146545283Y-93535523D01*
X146545283Y-93535523D02*
X146578617Y-93630761D01*
X146578617Y-93630761D02*
X146645283Y-93726000D01*
X146645283Y-93726000D02*
X146745283Y-93773619D01*
X146745283Y-93773619D02*
X146811950Y-93773619D01*
X146811950Y-93773619D02*
X146911950Y-93726000D01*
X146911950Y-93726000D02*
X146945283Y-93678380D01*
X146945283Y-93678380D02*
X146945283Y-93345047D01*
X146945283Y-93345047D02*
X146811950Y-93345047D01*
X147245283Y-93249809D02*
X147478617Y-93249809D01*
X147578617Y-93773619D02*
X147245283Y-93773619D01*
X147245283Y-93773619D02*
X147245283Y-92773619D01*
X147245283Y-92773619D02*
X147578617Y-92773619D01*
X148278616Y-93773619D02*
X148045283Y-93297428D01*
X147878616Y-93773619D02*
X147878616Y-92773619D01*
X147878616Y-92773619D02*
X148145283Y-92773619D01*
X148145283Y-92773619D02*
X148211950Y-92821238D01*
X148211950Y-92821238D02*
X148245283Y-92868857D01*
X148245283Y-92868857D02*
X148278616Y-92964095D01*
X148278616Y-92964095D02*
X148278616Y-93106952D01*
X148278616Y-93106952D02*
X148245283Y-93202190D01*
X148245283Y-93202190D02*
X148211950Y-93249809D01*
X148211950Y-93249809D02*
X148145283Y-93297428D01*
X148145283Y-93297428D02*
X147878616Y-93297428D01*
X149111949Y-93773619D02*
X149111949Y-92773619D01*
X149111949Y-93249809D02*
X149511949Y-93249809D01*
X149511949Y-93773619D02*
X149511949Y-92773619D01*
X149845282Y-93773619D02*
X149845282Y-93106952D01*
X149845282Y-92773619D02*
X149811949Y-92821238D01*
X149811949Y-92821238D02*
X149845282Y-92868857D01*
X149845282Y-92868857D02*
X149878616Y-92821238D01*
X149878616Y-92821238D02*
X149845282Y-92773619D01*
X149845282Y-92773619D02*
X149845282Y-92868857D01*
X150611948Y-92773619D02*
X150845282Y-93773619D01*
X150845282Y-93773619D02*
X151078615Y-92773619D01*
X151411948Y-93773619D02*
X151345282Y-93726000D01*
X151345282Y-93726000D02*
X151311948Y-93678380D01*
X151311948Y-93678380D02*
X151278615Y-93583142D01*
X151278615Y-93583142D02*
X151278615Y-93297428D01*
X151278615Y-93297428D02*
X151311948Y-93202190D01*
X151311948Y-93202190D02*
X151345282Y-93154571D01*
X151345282Y-93154571D02*
X151411948Y-93106952D01*
X151411948Y-93106952D02*
X151511948Y-93106952D01*
X151511948Y-93106952D02*
X151578615Y-93154571D01*
X151578615Y-93154571D02*
X151611948Y-93202190D01*
X151611948Y-93202190D02*
X151645282Y-93297428D01*
X151645282Y-93297428D02*
X151645282Y-93583142D01*
X151645282Y-93583142D02*
X151611948Y-93678380D01*
X151611948Y-93678380D02*
X151578615Y-93726000D01*
X151578615Y-93726000D02*
X151511948Y-93773619D01*
X151511948Y-93773619D02*
X151411948Y-93773619D01*
X152045281Y-93773619D02*
X151978615Y-93726000D01*
X151978615Y-93726000D02*
X151945281Y-93630761D01*
X151945281Y-93630761D02*
X151945281Y-92773619D01*
X152211948Y-93106952D02*
X152478615Y-93106952D01*
X152311948Y-92773619D02*
X152311948Y-93630761D01*
X152311948Y-93630761D02*
X152345282Y-93726000D01*
X152345282Y-93726000D02*
X152411948Y-93773619D01*
X152411948Y-93773619D02*
X152478615Y-93773619D01*
X152678615Y-93726000D02*
X152745282Y-93773619D01*
X152745282Y-93773619D02*
X152878615Y-93773619D01*
X152878615Y-93773619D02*
X152945282Y-93726000D01*
X152945282Y-93726000D02*
X152978615Y-93630761D01*
X152978615Y-93630761D02*
X152978615Y-93583142D01*
X152978615Y-93583142D02*
X152945282Y-93487904D01*
X152945282Y-93487904D02*
X152878615Y-93440285D01*
X152878615Y-93440285D02*
X152778615Y-93440285D01*
X152778615Y-93440285D02*
X152711948Y-93392666D01*
X152711948Y-93392666D02*
X152678615Y-93297428D01*
X152678615Y-93297428D02*
X152678615Y-93249809D01*
X152678615Y-93249809D02*
X152711948Y-93154571D01*
X152711948Y-93154571D02*
X152778615Y-93106952D01*
X152778615Y-93106952D02*
X152878615Y-93106952D01*
X152878615Y-93106952D02*
X152945282Y-93154571D01*
X90436779Y-89759875D02*
X90436779Y-90569398D01*
X90436779Y-90569398D02*
X90484398Y-90664636D01*
X90484398Y-90664636D02*
X90532017Y-90712256D01*
X90532017Y-90712256D02*
X90627255Y-90759875D01*
X90627255Y-90759875D02*
X90817731Y-90759875D01*
X90817731Y-90759875D02*
X90912969Y-90712256D01*
X90912969Y-90712256D02*
X90960588Y-90664636D01*
X90960588Y-90664636D02*
X91008207Y-90569398D01*
X91008207Y-90569398D02*
X91008207Y-89759875D01*
X91484398Y-90093208D02*
X91484398Y-90759875D01*
X91484398Y-90188446D02*
X91532017Y-90140827D01*
X91532017Y-90140827D02*
X91627255Y-90093208D01*
X91627255Y-90093208D02*
X91770112Y-90093208D01*
X91770112Y-90093208D02*
X91865350Y-90140827D01*
X91865350Y-90140827D02*
X91912969Y-90236065D01*
X91912969Y-90236065D02*
X91912969Y-90759875D01*
X92389160Y-90759875D02*
X92389160Y-90093208D01*
X92389160Y-89759875D02*
X92341541Y-89807494D01*
X92341541Y-89807494D02*
X92389160Y-89855113D01*
X92389160Y-89855113D02*
X92436779Y-89807494D01*
X92436779Y-89807494D02*
X92389160Y-89759875D01*
X92389160Y-89759875D02*
X92389160Y-89855113D01*
X92770112Y-90093208D02*
X93008207Y-90759875D01*
X93008207Y-90759875D02*
X93246302Y-90093208D01*
X94008207Y-90712256D02*
X93912969Y-90759875D01*
X93912969Y-90759875D02*
X93722493Y-90759875D01*
X93722493Y-90759875D02*
X93627255Y-90712256D01*
X93627255Y-90712256D02*
X93579636Y-90617017D01*
X93579636Y-90617017D02*
X93579636Y-90236065D01*
X93579636Y-90236065D02*
X93627255Y-90140827D01*
X93627255Y-90140827D02*
X93722493Y-90093208D01*
X93722493Y-90093208D02*
X93912969Y-90093208D01*
X93912969Y-90093208D02*
X94008207Y-90140827D01*
X94008207Y-90140827D02*
X94055826Y-90236065D01*
X94055826Y-90236065D02*
X94055826Y-90331303D01*
X94055826Y-90331303D02*
X93579636Y-90426541D01*
X94484398Y-90759875D02*
X94484398Y-90093208D01*
X94484398Y-90283684D02*
X94532017Y-90188446D01*
X94532017Y-90188446D02*
X94579636Y-90140827D01*
X94579636Y-90140827D02*
X94674874Y-90093208D01*
X94674874Y-90093208D02*
X94770112Y-90093208D01*
X95055827Y-90712256D02*
X95151065Y-90759875D01*
X95151065Y-90759875D02*
X95341541Y-90759875D01*
X95341541Y-90759875D02*
X95436779Y-90712256D01*
X95436779Y-90712256D02*
X95484398Y-90617017D01*
X95484398Y-90617017D02*
X95484398Y-90569398D01*
X95484398Y-90569398D02*
X95436779Y-90474160D01*
X95436779Y-90474160D02*
X95341541Y-90426541D01*
X95341541Y-90426541D02*
X95198684Y-90426541D01*
X95198684Y-90426541D02*
X95103446Y-90378922D01*
X95103446Y-90378922D02*
X95055827Y-90283684D01*
X95055827Y-90283684D02*
X95055827Y-90236065D01*
X95055827Y-90236065D02*
X95103446Y-90140827D01*
X95103446Y-90140827D02*
X95198684Y-90093208D01*
X95198684Y-90093208D02*
X95341541Y-90093208D01*
X95341541Y-90093208D02*
X95436779Y-90140827D01*
X95912970Y-90759875D02*
X95912970Y-90093208D01*
X95912970Y-89759875D02*
X95865351Y-89807494D01*
X95865351Y-89807494D02*
X95912970Y-89855113D01*
X95912970Y-89855113D02*
X95960589Y-89807494D01*
X95960589Y-89807494D02*
X95912970Y-89759875D01*
X95912970Y-89759875D02*
X95912970Y-89855113D01*
X96246303Y-90093208D02*
X96627255Y-90093208D01*
X96389160Y-89759875D02*
X96389160Y-90617017D01*
X96389160Y-90617017D02*
X96436779Y-90712256D01*
X96436779Y-90712256D02*
X96532017Y-90759875D01*
X96532017Y-90759875D02*
X96627255Y-90759875D01*
X96865351Y-90093208D02*
X97103446Y-90759875D01*
X97341541Y-90093208D02*
X97103446Y-90759875D01*
X97103446Y-90759875D02*
X97008208Y-90997970D01*
X97008208Y-90997970D02*
X96960589Y-91045589D01*
X96960589Y-91045589D02*
X96865351Y-91093208D01*
X98627256Y-90759875D02*
X98532018Y-90712256D01*
X98532018Y-90712256D02*
X98484399Y-90664636D01*
X98484399Y-90664636D02*
X98436780Y-90569398D01*
X98436780Y-90569398D02*
X98436780Y-90283684D01*
X98436780Y-90283684D02*
X98484399Y-90188446D01*
X98484399Y-90188446D02*
X98532018Y-90140827D01*
X98532018Y-90140827D02*
X98627256Y-90093208D01*
X98627256Y-90093208D02*
X98770113Y-90093208D01*
X98770113Y-90093208D02*
X98865351Y-90140827D01*
X98865351Y-90140827D02*
X98912970Y-90188446D01*
X98912970Y-90188446D02*
X98960589Y-90283684D01*
X98960589Y-90283684D02*
X98960589Y-90569398D01*
X98960589Y-90569398D02*
X98912970Y-90664636D01*
X98912970Y-90664636D02*
X98865351Y-90712256D01*
X98865351Y-90712256D02*
X98770113Y-90759875D01*
X98770113Y-90759875D02*
X98627256Y-90759875D01*
X99246304Y-90093208D02*
X99627256Y-90093208D01*
X99389161Y-90759875D02*
X99389161Y-89902732D01*
X99389161Y-89902732D02*
X99436780Y-89807494D01*
X99436780Y-89807494D02*
X99532018Y-89759875D01*
X99532018Y-89759875D02*
X99627256Y-89759875D01*
X101055828Y-90236065D02*
X101198685Y-90283684D01*
X101198685Y-90283684D02*
X101246304Y-90331303D01*
X101246304Y-90331303D02*
X101293923Y-90426541D01*
X101293923Y-90426541D02*
X101293923Y-90569398D01*
X101293923Y-90569398D02*
X101246304Y-90664636D01*
X101246304Y-90664636D02*
X101198685Y-90712256D01*
X101198685Y-90712256D02*
X101103447Y-90759875D01*
X101103447Y-90759875D02*
X100722495Y-90759875D01*
X100722495Y-90759875D02*
X100722495Y-89759875D01*
X100722495Y-89759875D02*
X101055828Y-89759875D01*
X101055828Y-89759875D02*
X101151066Y-89807494D01*
X101151066Y-89807494D02*
X101198685Y-89855113D01*
X101198685Y-89855113D02*
X101246304Y-89950351D01*
X101246304Y-89950351D02*
X101246304Y-90045589D01*
X101246304Y-90045589D02*
X101198685Y-90140827D01*
X101198685Y-90140827D02*
X101151066Y-90188446D01*
X101151066Y-90188446D02*
X101055828Y-90236065D01*
X101055828Y-90236065D02*
X100722495Y-90236065D01*
X101722495Y-90759875D02*
X101722495Y-90093208D01*
X101722495Y-90283684D02*
X101770114Y-90188446D01*
X101770114Y-90188446D02*
X101817733Y-90140827D01*
X101817733Y-90140827D02*
X101912971Y-90093208D01*
X101912971Y-90093208D02*
X102008209Y-90093208D01*
X102341543Y-90759875D02*
X102341543Y-90093208D01*
X102341543Y-89759875D02*
X102293924Y-89807494D01*
X102293924Y-89807494D02*
X102341543Y-89855113D01*
X102341543Y-89855113D02*
X102389162Y-89807494D01*
X102389162Y-89807494D02*
X102341543Y-89759875D01*
X102341543Y-89759875D02*
X102341543Y-89855113D01*
X102770114Y-90712256D02*
X102865352Y-90759875D01*
X102865352Y-90759875D02*
X103055828Y-90759875D01*
X103055828Y-90759875D02*
X103151066Y-90712256D01*
X103151066Y-90712256D02*
X103198685Y-90617017D01*
X103198685Y-90617017D02*
X103198685Y-90569398D01*
X103198685Y-90569398D02*
X103151066Y-90474160D01*
X103151066Y-90474160D02*
X103055828Y-90426541D01*
X103055828Y-90426541D02*
X102912971Y-90426541D01*
X102912971Y-90426541D02*
X102817733Y-90378922D01*
X102817733Y-90378922D02*
X102770114Y-90283684D01*
X102770114Y-90283684D02*
X102770114Y-90236065D01*
X102770114Y-90236065D02*
X102817733Y-90140827D01*
X102817733Y-90140827D02*
X102912971Y-90093208D01*
X102912971Y-90093208D02*
X103055828Y-90093208D01*
X103055828Y-90093208D02*
X103151066Y-90140827D01*
X103484400Y-90093208D02*
X103865352Y-90093208D01*
X103627257Y-89759875D02*
X103627257Y-90617017D01*
X103627257Y-90617017D02*
X103674876Y-90712256D01*
X103674876Y-90712256D02*
X103770114Y-90759875D01*
X103770114Y-90759875D02*
X103865352Y-90759875D01*
X104341543Y-90759875D02*
X104246305Y-90712256D01*
X104246305Y-90712256D02*
X104198686Y-90664636D01*
X104198686Y-90664636D02*
X104151067Y-90569398D01*
X104151067Y-90569398D02*
X104151067Y-90283684D01*
X104151067Y-90283684D02*
X104198686Y-90188446D01*
X104198686Y-90188446D02*
X104246305Y-90140827D01*
X104246305Y-90140827D02*
X104341543Y-90093208D01*
X104341543Y-90093208D02*
X104484400Y-90093208D01*
X104484400Y-90093208D02*
X104579638Y-90140827D01*
X104579638Y-90140827D02*
X104627257Y-90188446D01*
X104627257Y-90188446D02*
X104674876Y-90283684D01*
X104674876Y-90283684D02*
X104674876Y-90569398D01*
X104674876Y-90569398D02*
X104627257Y-90664636D01*
X104627257Y-90664636D02*
X104579638Y-90712256D01*
X104579638Y-90712256D02*
X104484400Y-90759875D01*
X104484400Y-90759875D02*
X104341543Y-90759875D01*
X105246305Y-90759875D02*
X105151067Y-90712256D01*
X105151067Y-90712256D02*
X105103448Y-90617017D01*
X105103448Y-90617017D02*
X105103448Y-89759875D01*
X90436779Y-91703152D02*
X90436779Y-92703152D01*
X90436779Y-91750771D02*
X90532017Y-91703152D01*
X90532017Y-91703152D02*
X90722493Y-91703152D01*
X90722493Y-91703152D02*
X90817731Y-91750771D01*
X90817731Y-91750771D02*
X90865350Y-91798390D01*
X90865350Y-91798390D02*
X90912969Y-91893628D01*
X90912969Y-91893628D02*
X90912969Y-92179342D01*
X90912969Y-92179342D02*
X90865350Y-92274580D01*
X90865350Y-92274580D02*
X90817731Y-92322200D01*
X90817731Y-92322200D02*
X90722493Y-92369819D01*
X90722493Y-92369819D02*
X90532017Y-92369819D01*
X90532017Y-92369819D02*
X90436779Y-92322200D01*
X91770112Y-92322200D02*
X91674874Y-92369819D01*
X91674874Y-92369819D02*
X91484398Y-92369819D01*
X91484398Y-92369819D02*
X91389160Y-92322200D01*
X91389160Y-92322200D02*
X91341541Y-92274580D01*
X91341541Y-92274580D02*
X91293922Y-92179342D01*
X91293922Y-92179342D02*
X91293922Y-91893628D01*
X91293922Y-91893628D02*
X91341541Y-91798390D01*
X91341541Y-91798390D02*
X91389160Y-91750771D01*
X91389160Y-91750771D02*
X91484398Y-91703152D01*
X91484398Y-91703152D02*
X91674874Y-91703152D01*
X91674874Y-91703152D02*
X91770112Y-91750771D01*
X92389160Y-91369819D02*
X92484398Y-91369819D01*
X92484398Y-91369819D02*
X92579636Y-91417438D01*
X92579636Y-91417438D02*
X92627255Y-91465057D01*
X92627255Y-91465057D02*
X92674874Y-91560295D01*
X92674874Y-91560295D02*
X92722493Y-91750771D01*
X92722493Y-91750771D02*
X92722493Y-91988866D01*
X92722493Y-91988866D02*
X92674874Y-92179342D01*
X92674874Y-92179342D02*
X92627255Y-92274580D01*
X92627255Y-92274580D02*
X92579636Y-92322200D01*
X92579636Y-92322200D02*
X92484398Y-92369819D01*
X92484398Y-92369819D02*
X92389160Y-92369819D01*
X92389160Y-92369819D02*
X92293922Y-92322200D01*
X92293922Y-92322200D02*
X92246303Y-92274580D01*
X92246303Y-92274580D02*
X92198684Y-92179342D01*
X92198684Y-92179342D02*
X92151065Y-91988866D01*
X92151065Y-91988866D02*
X92151065Y-91750771D01*
X92151065Y-91750771D02*
X92198684Y-91560295D01*
X92198684Y-91560295D02*
X92246303Y-91465057D01*
X92246303Y-91465057D02*
X92293922Y-91417438D01*
X92293922Y-91417438D02*
X92389160Y-91369819D01*
X93055827Y-91369819D02*
X93722493Y-91369819D01*
X93722493Y-91369819D02*
X93293922Y-92369819D01*
X94532017Y-91703152D02*
X94532017Y-92369819D01*
X94293922Y-91322200D02*
X94055827Y-92036485D01*
X94055827Y-92036485D02*
X94674874Y-92036485D01*
X95484398Y-92369819D02*
X95484398Y-91846009D01*
X95484398Y-91846009D02*
X95436779Y-91750771D01*
X95436779Y-91750771D02*
X95341541Y-91703152D01*
X95341541Y-91703152D02*
X95151065Y-91703152D01*
X95151065Y-91703152D02*
X95055827Y-91750771D01*
X95484398Y-92322200D02*
X95389160Y-92369819D01*
X95389160Y-92369819D02*
X95151065Y-92369819D01*
X95151065Y-92369819D02*
X95055827Y-92322200D01*
X95055827Y-92322200D02*
X95008208Y-92226961D01*
X95008208Y-92226961D02*
X95008208Y-92131723D01*
X95008208Y-92131723D02*
X95055827Y-92036485D01*
X95055827Y-92036485D02*
X95151065Y-91988866D01*
X95151065Y-91988866D02*
X95389160Y-91988866D01*
X95389160Y-91988866D02*
X95484398Y-91941247D01*
X149736779Y-59169819D02*
X149736779Y-58169819D01*
X149736779Y-58169819D02*
X149974874Y-58169819D01*
X149974874Y-58169819D02*
X150117731Y-58217438D01*
X150117731Y-58217438D02*
X150212969Y-58312676D01*
X150212969Y-58312676D02*
X150260588Y-58407914D01*
X150260588Y-58407914D02*
X150308207Y-58598390D01*
X150308207Y-58598390D02*
X150308207Y-58741247D01*
X150308207Y-58741247D02*
X150260588Y-58931723D01*
X150260588Y-58931723D02*
X150212969Y-59026961D01*
X150212969Y-59026961D02*
X150117731Y-59122200D01*
X150117731Y-59122200D02*
X149974874Y-59169819D01*
X149974874Y-59169819D02*
X149736779Y-59169819D01*
X150689160Y-58884104D02*
X151165350Y-58884104D01*
X150593922Y-59169819D02*
X150927255Y-58169819D01*
X150927255Y-58169819D02*
X151260588Y-59169819D01*
X151593922Y-59169819D02*
X151593922Y-58169819D01*
X151593922Y-58169819D02*
X152165350Y-59169819D01*
X152165350Y-59169819D02*
X152165350Y-58169819D01*
X153165350Y-58217438D02*
X153070112Y-58169819D01*
X153070112Y-58169819D02*
X152927255Y-58169819D01*
X152927255Y-58169819D02*
X152784398Y-58217438D01*
X152784398Y-58217438D02*
X152689160Y-58312676D01*
X152689160Y-58312676D02*
X152641541Y-58407914D01*
X152641541Y-58407914D02*
X152593922Y-58598390D01*
X152593922Y-58598390D02*
X152593922Y-58741247D01*
X152593922Y-58741247D02*
X152641541Y-58931723D01*
X152641541Y-58931723D02*
X152689160Y-59026961D01*
X152689160Y-59026961D02*
X152784398Y-59122200D01*
X152784398Y-59122200D02*
X152927255Y-59169819D01*
X152927255Y-59169819D02*
X153022493Y-59169819D01*
X153022493Y-59169819D02*
X153165350Y-59122200D01*
X153165350Y-59122200D02*
X153212969Y-59074580D01*
X153212969Y-59074580D02*
X153212969Y-58741247D01*
X153212969Y-58741247D02*
X153022493Y-58741247D01*
X153641541Y-58646009D02*
X153974874Y-58646009D01*
X154117731Y-59169819D02*
X153641541Y-59169819D01*
X153641541Y-59169819D02*
X153641541Y-58169819D01*
X153641541Y-58169819D02*
X154117731Y-58169819D01*
X155117731Y-59169819D02*
X154784398Y-58693628D01*
X154546303Y-59169819D02*
X154546303Y-58169819D01*
X154546303Y-58169819D02*
X154927255Y-58169819D01*
X154927255Y-58169819D02*
X155022493Y-58217438D01*
X155022493Y-58217438D02*
X155070112Y-58265057D01*
X155070112Y-58265057D02*
X155117731Y-58360295D01*
X155117731Y-58360295D02*
X155117731Y-58503152D01*
X155117731Y-58503152D02*
X155070112Y-58598390D01*
X155070112Y-58598390D02*
X155022493Y-58646009D01*
X155022493Y-58646009D02*
X154927255Y-58693628D01*
X154927255Y-58693628D02*
X154546303Y-58693628D01*
X156308208Y-59169819D02*
X156308208Y-58169819D01*
X156308208Y-58646009D02*
X156879636Y-58646009D01*
X156879636Y-59169819D02*
X156879636Y-58169819D01*
X157355827Y-59169819D02*
X157355827Y-58503152D01*
X157355827Y-58169819D02*
X157308208Y-58217438D01*
X157308208Y-58217438D02*
X157355827Y-58265057D01*
X157355827Y-58265057D02*
X157403446Y-58217438D01*
X157403446Y-58217438D02*
X157355827Y-58169819D01*
X157355827Y-58169819D02*
X157355827Y-58265057D01*
X152093922Y-60169819D02*
X152427255Y-61169819D01*
X152427255Y-61169819D02*
X152760588Y-60169819D01*
X153236779Y-61169819D02*
X153141541Y-61122200D01*
X153141541Y-61122200D02*
X153093922Y-61074580D01*
X153093922Y-61074580D02*
X153046303Y-60979342D01*
X153046303Y-60979342D02*
X153046303Y-60693628D01*
X153046303Y-60693628D02*
X153093922Y-60598390D01*
X153093922Y-60598390D02*
X153141541Y-60550771D01*
X153141541Y-60550771D02*
X153236779Y-60503152D01*
X153236779Y-60503152D02*
X153379636Y-60503152D01*
X153379636Y-60503152D02*
X153474874Y-60550771D01*
X153474874Y-60550771D02*
X153522493Y-60598390D01*
X153522493Y-60598390D02*
X153570112Y-60693628D01*
X153570112Y-60693628D02*
X153570112Y-60979342D01*
X153570112Y-60979342D02*
X153522493Y-61074580D01*
X153522493Y-61074580D02*
X153474874Y-61122200D01*
X153474874Y-61122200D02*
X153379636Y-61169819D01*
X153379636Y-61169819D02*
X153236779Y-61169819D01*
X154141541Y-61169819D02*
X154046303Y-61122200D01*
X154046303Y-61122200D02*
X153998684Y-61026961D01*
X153998684Y-61026961D02*
X153998684Y-60169819D01*
X154379637Y-60503152D02*
X154760589Y-60503152D01*
X154522494Y-60169819D02*
X154522494Y-61026961D01*
X154522494Y-61026961D02*
X154570113Y-61122200D01*
X154570113Y-61122200D02*
X154665351Y-61169819D01*
X154665351Y-61169819D02*
X154760589Y-61169819D01*
X155046304Y-61122200D02*
X155141542Y-61169819D01*
X155141542Y-61169819D02*
X155332018Y-61169819D01*
X155332018Y-61169819D02*
X155427256Y-61122200D01*
X155427256Y-61122200D02*
X155474875Y-61026961D01*
X155474875Y-61026961D02*
X155474875Y-60979342D01*
X155474875Y-60979342D02*
X155427256Y-60884104D01*
X155427256Y-60884104D02*
X155332018Y-60836485D01*
X155332018Y-60836485D02*
X155189161Y-60836485D01*
X155189161Y-60836485D02*
X155093923Y-60788866D01*
X155093923Y-60788866D02*
X155046304Y-60693628D01*
X155046304Y-60693628D02*
X155046304Y-60646009D01*
X155046304Y-60646009D02*
X155093923Y-60550771D01*
X155093923Y-60550771D02*
X155189161Y-60503152D01*
X155189161Y-60503152D02*
X155332018Y-60503152D01*
X155332018Y-60503152D02*
X155427256Y-60550771D01*
X140502819Y-68000666D02*
X140026628Y-68333999D01*
X140502819Y-68572094D02*
X139502819Y-68572094D01*
X139502819Y-68572094D02*
X139502819Y-68191142D01*
X139502819Y-68191142D02*
X139550438Y-68095904D01*
X139550438Y-68095904D02*
X139598057Y-68048285D01*
X139598057Y-68048285D02*
X139693295Y-68000666D01*
X139693295Y-68000666D02*
X139836152Y-68000666D01*
X139836152Y-68000666D02*
X139931390Y-68048285D01*
X139931390Y-68048285D02*
X139979009Y-68095904D01*
X139979009Y-68095904D02*
X140026628Y-68191142D01*
X140026628Y-68191142D02*
X140026628Y-68572094D01*
X139502819Y-67095904D02*
X139502819Y-67572094D01*
X139502819Y-67572094D02*
X139979009Y-67619713D01*
X139979009Y-67619713D02*
X139931390Y-67572094D01*
X139931390Y-67572094D02*
X139883771Y-67476856D01*
X139883771Y-67476856D02*
X139883771Y-67238761D01*
X139883771Y-67238761D02*
X139931390Y-67143523D01*
X139931390Y-67143523D02*
X139979009Y-67095904D01*
X139979009Y-67095904D02*
X140074247Y-67048285D01*
X140074247Y-67048285D02*
X140312342Y-67048285D01*
X140312342Y-67048285D02*
X140407580Y-67095904D01*
X140407580Y-67095904D02*
X140455200Y-67143523D01*
X140455200Y-67143523D02*
X140502819Y-67238761D01*
X140502819Y-67238761D02*
X140502819Y-67476856D01*
X140502819Y-67476856D02*
X140455200Y-67572094D01*
X140455200Y-67572094D02*
X140407580Y-67619713D01*
X92766666Y-59854819D02*
X92766666Y-60569104D01*
X92766666Y-60569104D02*
X92719047Y-60711961D01*
X92719047Y-60711961D02*
X92623809Y-60807200D01*
X92623809Y-60807200D02*
X92480952Y-60854819D01*
X92480952Y-60854819D02*
X92385714Y-60854819D01*
X93766666Y-60854819D02*
X93195238Y-60854819D01*
X93480952Y-60854819D02*
X93480952Y-59854819D01*
X93480952Y-59854819D02*
X93385714Y-59997676D01*
X93385714Y-59997676D02*
X93290476Y-60092914D01*
X93290476Y-60092914D02*
X93195238Y-60140533D01*
X141443333Y-80144819D02*
X141110000Y-79668628D01*
X140871905Y-80144819D02*
X140871905Y-79144819D01*
X140871905Y-79144819D02*
X141252857Y-79144819D01*
X141252857Y-79144819D02*
X141348095Y-79192438D01*
X141348095Y-79192438D02*
X141395714Y-79240057D01*
X141395714Y-79240057D02*
X141443333Y-79335295D01*
X141443333Y-79335295D02*
X141443333Y-79478152D01*
X141443333Y-79478152D02*
X141395714Y-79573390D01*
X141395714Y-79573390D02*
X141348095Y-79621009D01*
X141348095Y-79621009D02*
X141252857Y-79668628D01*
X141252857Y-79668628D02*
X140871905Y-79668628D01*
X142300476Y-79144819D02*
X142110000Y-79144819D01*
X142110000Y-79144819D02*
X142014762Y-79192438D01*
X142014762Y-79192438D02*
X141967143Y-79240057D01*
X141967143Y-79240057D02*
X141871905Y-79382914D01*
X141871905Y-79382914D02*
X141824286Y-79573390D01*
X141824286Y-79573390D02*
X141824286Y-79954342D01*
X141824286Y-79954342D02*
X141871905Y-80049580D01*
X141871905Y-80049580D02*
X141919524Y-80097200D01*
X141919524Y-80097200D02*
X142014762Y-80144819D01*
X142014762Y-80144819D02*
X142205238Y-80144819D01*
X142205238Y-80144819D02*
X142300476Y-80097200D01*
X142300476Y-80097200D02*
X142348095Y-80049580D01*
X142348095Y-80049580D02*
X142395714Y-79954342D01*
X142395714Y-79954342D02*
X142395714Y-79716247D01*
X142395714Y-79716247D02*
X142348095Y-79621009D01*
X142348095Y-79621009D02*
X142300476Y-79573390D01*
X142300476Y-79573390D02*
X142205238Y-79525771D01*
X142205238Y-79525771D02*
X142014762Y-79525771D01*
X142014762Y-79525771D02*
X141919524Y-79573390D01*
X141919524Y-79573390D02*
X141871905Y-79621009D01*
X141871905Y-79621009D02*
X141824286Y-79716247D01*
X132954761Y-83037557D02*
X132859523Y-82989938D01*
X132859523Y-82989938D02*
X132764285Y-82894700D01*
X132764285Y-82894700D02*
X132621428Y-82751842D01*
X132621428Y-82751842D02*
X132526190Y-82704223D01*
X132526190Y-82704223D02*
X132430952Y-82704223D01*
X132478571Y-82942319D02*
X132383333Y-82894700D01*
X132383333Y-82894700D02*
X132288095Y-82799461D01*
X132288095Y-82799461D02*
X132240476Y-82608985D01*
X132240476Y-82608985D02*
X132240476Y-82275652D01*
X132240476Y-82275652D02*
X132288095Y-82085176D01*
X132288095Y-82085176D02*
X132383333Y-81989938D01*
X132383333Y-81989938D02*
X132478571Y-81942319D01*
X132478571Y-81942319D02*
X132669047Y-81942319D01*
X132669047Y-81942319D02*
X132764285Y-81989938D01*
X132764285Y-81989938D02*
X132859523Y-82085176D01*
X132859523Y-82085176D02*
X132907142Y-82275652D01*
X132907142Y-82275652D02*
X132907142Y-82608985D01*
X132907142Y-82608985D02*
X132859523Y-82799461D01*
X132859523Y-82799461D02*
X132764285Y-82894700D01*
X132764285Y-82894700D02*
X132669047Y-82942319D01*
X132669047Y-82942319D02*
X132478571Y-82942319D01*
X133288095Y-82037557D02*
X133335714Y-81989938D01*
X133335714Y-81989938D02*
X133430952Y-81942319D01*
X133430952Y-81942319D02*
X133669047Y-81942319D01*
X133669047Y-81942319D02*
X133764285Y-81989938D01*
X133764285Y-81989938D02*
X133811904Y-82037557D01*
X133811904Y-82037557D02*
X133859523Y-82132795D01*
X133859523Y-82132795D02*
X133859523Y-82228033D01*
X133859523Y-82228033D02*
X133811904Y-82370890D01*
X133811904Y-82370890D02*
X133240476Y-82942319D01*
X133240476Y-82942319D02*
X133859523Y-82942319D01*
X125933333Y-62634819D02*
X125600000Y-62158628D01*
X125361905Y-62634819D02*
X125361905Y-61634819D01*
X125361905Y-61634819D02*
X125742857Y-61634819D01*
X125742857Y-61634819D02*
X125838095Y-61682438D01*
X125838095Y-61682438D02*
X125885714Y-61730057D01*
X125885714Y-61730057D02*
X125933333Y-61825295D01*
X125933333Y-61825295D02*
X125933333Y-61968152D01*
X125933333Y-61968152D02*
X125885714Y-62063390D01*
X125885714Y-62063390D02*
X125838095Y-62111009D01*
X125838095Y-62111009D02*
X125742857Y-62158628D01*
X125742857Y-62158628D02*
X125361905Y-62158628D01*
X126790476Y-61968152D02*
X126790476Y-62634819D01*
X126552381Y-61587200D02*
X126314286Y-62301485D01*
X126314286Y-62301485D02*
X126933333Y-62301485D01*
X107203333Y-62214819D02*
X106870000Y-61738628D01*
X106631905Y-62214819D02*
X106631905Y-61214819D01*
X106631905Y-61214819D02*
X107012857Y-61214819D01*
X107012857Y-61214819D02*
X107108095Y-61262438D01*
X107108095Y-61262438D02*
X107155714Y-61310057D01*
X107155714Y-61310057D02*
X107203333Y-61405295D01*
X107203333Y-61405295D02*
X107203333Y-61548152D01*
X107203333Y-61548152D02*
X107155714Y-61643390D01*
X107155714Y-61643390D02*
X107108095Y-61691009D01*
X107108095Y-61691009D02*
X107012857Y-61738628D01*
X107012857Y-61738628D02*
X106631905Y-61738628D01*
X107536667Y-61214819D02*
X108155714Y-61214819D01*
X108155714Y-61214819D02*
X107822381Y-61595771D01*
X107822381Y-61595771D02*
X107965238Y-61595771D01*
X107965238Y-61595771D02*
X108060476Y-61643390D01*
X108060476Y-61643390D02*
X108108095Y-61691009D01*
X108108095Y-61691009D02*
X108155714Y-61786247D01*
X108155714Y-61786247D02*
X108155714Y-62024342D01*
X108155714Y-62024342D02*
X108108095Y-62119580D01*
X108108095Y-62119580D02*
X108060476Y-62167200D01*
X108060476Y-62167200D02*
X107965238Y-62214819D01*
X107965238Y-62214819D02*
X107679524Y-62214819D01*
X107679524Y-62214819D02*
X107584286Y-62167200D01*
X107584286Y-62167200D02*
X107536667Y-62119580D01*
X138488095Y-59644819D02*
X138488095Y-60454342D01*
X138488095Y-60454342D02*
X138535714Y-60549580D01*
X138535714Y-60549580D02*
X138583333Y-60597200D01*
X138583333Y-60597200D02*
X138678571Y-60644819D01*
X138678571Y-60644819D02*
X138869047Y-60644819D01*
X138869047Y-60644819D02*
X138964285Y-60597200D01*
X138964285Y-60597200D02*
X139011904Y-60549580D01*
X139011904Y-60549580D02*
X139059523Y-60454342D01*
X139059523Y-60454342D02*
X139059523Y-59644819D01*
X139440476Y-59644819D02*
X140107142Y-59644819D01*
X140107142Y-59644819D02*
X139678571Y-60644819D01*
X113028095Y-64394819D02*
X113028095Y-65204342D01*
X113028095Y-65204342D02*
X113075714Y-65299580D01*
X113075714Y-65299580D02*
X113123333Y-65347200D01*
X113123333Y-65347200D02*
X113218571Y-65394819D01*
X113218571Y-65394819D02*
X113409047Y-65394819D01*
X113409047Y-65394819D02*
X113504285Y-65347200D01*
X113504285Y-65347200D02*
X113551904Y-65299580D01*
X113551904Y-65299580D02*
X113599523Y-65204342D01*
X113599523Y-65204342D02*
X113599523Y-64394819D01*
X114504285Y-64394819D02*
X114313809Y-64394819D01*
X114313809Y-64394819D02*
X114218571Y-64442438D01*
X114218571Y-64442438D02*
X114170952Y-64490057D01*
X114170952Y-64490057D02*
X114075714Y-64632914D01*
X114075714Y-64632914D02*
X114028095Y-64823390D01*
X114028095Y-64823390D02*
X114028095Y-65204342D01*
X114028095Y-65204342D02*
X114075714Y-65299580D01*
X114075714Y-65299580D02*
X114123333Y-65347200D01*
X114123333Y-65347200D02*
X114218571Y-65394819D01*
X114218571Y-65394819D02*
X114409047Y-65394819D01*
X114409047Y-65394819D02*
X114504285Y-65347200D01*
X114504285Y-65347200D02*
X114551904Y-65299580D01*
X114551904Y-65299580D02*
X114599523Y-65204342D01*
X114599523Y-65204342D02*
X114599523Y-64966247D01*
X114599523Y-64966247D02*
X114551904Y-64871009D01*
X114551904Y-64871009D02*
X114504285Y-64823390D01*
X114504285Y-64823390D02*
X114409047Y-64775771D01*
X114409047Y-64775771D02*
X114218571Y-64775771D01*
X114218571Y-64775771D02*
X114123333Y-64823390D01*
X114123333Y-64823390D02*
X114075714Y-64871009D01*
X114075714Y-64871009D02*
X114028095Y-64966247D01*
X140384819Y-92402857D02*
X139908628Y-92736190D01*
X140384819Y-92974285D02*
X139384819Y-92974285D01*
X139384819Y-92974285D02*
X139384819Y-92593333D01*
X139384819Y-92593333D02*
X139432438Y-92498095D01*
X139432438Y-92498095D02*
X139480057Y-92450476D01*
X139480057Y-92450476D02*
X139575295Y-92402857D01*
X139575295Y-92402857D02*
X139718152Y-92402857D01*
X139718152Y-92402857D02*
X139813390Y-92450476D01*
X139813390Y-92450476D02*
X139861009Y-92498095D01*
X139861009Y-92498095D02*
X139908628Y-92593333D01*
X139908628Y-92593333D02*
X139908628Y-92974285D01*
X139480057Y-92021904D02*
X139432438Y-91974285D01*
X139432438Y-91974285D02*
X139384819Y-91879047D01*
X139384819Y-91879047D02*
X139384819Y-91640952D01*
X139384819Y-91640952D02*
X139432438Y-91545714D01*
X139432438Y-91545714D02*
X139480057Y-91498095D01*
X139480057Y-91498095D02*
X139575295Y-91450476D01*
X139575295Y-91450476D02*
X139670533Y-91450476D01*
X139670533Y-91450476D02*
X139813390Y-91498095D01*
X139813390Y-91498095D02*
X140384819Y-92069523D01*
X140384819Y-92069523D02*
X140384819Y-91450476D01*
X139384819Y-90831428D02*
X139384819Y-90736190D01*
X139384819Y-90736190D02*
X139432438Y-90640952D01*
X139432438Y-90640952D02*
X139480057Y-90593333D01*
X139480057Y-90593333D02*
X139575295Y-90545714D01*
X139575295Y-90545714D02*
X139765771Y-90498095D01*
X139765771Y-90498095D02*
X140003866Y-90498095D01*
X140003866Y-90498095D02*
X140194342Y-90545714D01*
X140194342Y-90545714D02*
X140289580Y-90593333D01*
X140289580Y-90593333D02*
X140337200Y-90640952D01*
X140337200Y-90640952D02*
X140384819Y-90736190D01*
X140384819Y-90736190D02*
X140384819Y-90831428D01*
X140384819Y-90831428D02*
X140337200Y-90926666D01*
X140337200Y-90926666D02*
X140289580Y-90974285D01*
X140289580Y-90974285D02*
X140194342Y-91021904D01*
X140194342Y-91021904D02*
X140003866Y-91069523D01*
X140003866Y-91069523D02*
X139765771Y-91069523D01*
X139765771Y-91069523D02*
X139575295Y-91021904D01*
X139575295Y-91021904D02*
X139480057Y-90974285D01*
X139480057Y-90974285D02*
X139432438Y-90926666D01*
X139432438Y-90926666D02*
X139384819Y-90831428D01*
X142904819Y-92442857D02*
X142428628Y-92776190D01*
X142904819Y-93014285D02*
X141904819Y-93014285D01*
X141904819Y-93014285D02*
X141904819Y-92633333D01*
X141904819Y-92633333D02*
X141952438Y-92538095D01*
X141952438Y-92538095D02*
X142000057Y-92490476D01*
X142000057Y-92490476D02*
X142095295Y-92442857D01*
X142095295Y-92442857D02*
X142238152Y-92442857D01*
X142238152Y-92442857D02*
X142333390Y-92490476D01*
X142333390Y-92490476D02*
X142381009Y-92538095D01*
X142381009Y-92538095D02*
X142428628Y-92633333D01*
X142428628Y-92633333D02*
X142428628Y-93014285D01*
X142904819Y-91490476D02*
X142904819Y-92061904D01*
X142904819Y-91776190D02*
X141904819Y-91776190D01*
X141904819Y-91776190D02*
X142047676Y-91871428D01*
X142047676Y-91871428D02*
X142142914Y-91966666D01*
X142142914Y-91966666D02*
X142190533Y-92061904D01*
X142904819Y-91014285D02*
X142904819Y-90823809D01*
X142904819Y-90823809D02*
X142857200Y-90728571D01*
X142857200Y-90728571D02*
X142809580Y-90680952D01*
X142809580Y-90680952D02*
X142666723Y-90585714D01*
X142666723Y-90585714D02*
X142476247Y-90538095D01*
X142476247Y-90538095D02*
X142095295Y-90538095D01*
X142095295Y-90538095D02*
X142000057Y-90585714D01*
X142000057Y-90585714D02*
X141952438Y-90633333D01*
X141952438Y-90633333D02*
X141904819Y-90728571D01*
X141904819Y-90728571D02*
X141904819Y-90919047D01*
X141904819Y-90919047D02*
X141952438Y-91014285D01*
X141952438Y-91014285D02*
X142000057Y-91061904D01*
X142000057Y-91061904D02*
X142095295Y-91109523D01*
X142095295Y-91109523D02*
X142333390Y-91109523D01*
X142333390Y-91109523D02*
X142428628Y-91061904D01*
X142428628Y-91061904D02*
X142476247Y-91014285D01*
X142476247Y-91014285D02*
X142523866Y-90919047D01*
X142523866Y-90919047D02*
X142523866Y-90728571D01*
X142523866Y-90728571D02*
X142476247Y-90633333D01*
X142476247Y-90633333D02*
X142428628Y-90585714D01*
X142428628Y-90585714D02*
X142333390Y-90538095D01*
X109054819Y-58082857D02*
X108578628Y-58416190D01*
X109054819Y-58654285D02*
X108054819Y-58654285D01*
X108054819Y-58654285D02*
X108054819Y-58273333D01*
X108054819Y-58273333D02*
X108102438Y-58178095D01*
X108102438Y-58178095D02*
X108150057Y-58130476D01*
X108150057Y-58130476D02*
X108245295Y-58082857D01*
X108245295Y-58082857D02*
X108388152Y-58082857D01*
X108388152Y-58082857D02*
X108483390Y-58130476D01*
X108483390Y-58130476D02*
X108531009Y-58178095D01*
X108531009Y-58178095D02*
X108578628Y-58273333D01*
X108578628Y-58273333D02*
X108578628Y-58654285D01*
X109054819Y-57130476D02*
X109054819Y-57701904D01*
X109054819Y-57416190D02*
X108054819Y-57416190D01*
X108054819Y-57416190D02*
X108197676Y-57511428D01*
X108197676Y-57511428D02*
X108292914Y-57606666D01*
X108292914Y-57606666D02*
X108340533Y-57701904D01*
X108054819Y-56797142D02*
X108054819Y-56130476D01*
X108054819Y-56130476D02*
X109054819Y-56559047D01*
X111407142Y-88104819D02*
X111073809Y-87628628D01*
X110835714Y-88104819D02*
X110835714Y-87104819D01*
X110835714Y-87104819D02*
X111216666Y-87104819D01*
X111216666Y-87104819D02*
X111311904Y-87152438D01*
X111311904Y-87152438D02*
X111359523Y-87200057D01*
X111359523Y-87200057D02*
X111407142Y-87295295D01*
X111407142Y-87295295D02*
X111407142Y-87438152D01*
X111407142Y-87438152D02*
X111359523Y-87533390D01*
X111359523Y-87533390D02*
X111311904Y-87581009D01*
X111311904Y-87581009D02*
X111216666Y-87628628D01*
X111216666Y-87628628D02*
X110835714Y-87628628D01*
X112359523Y-88104819D02*
X111788095Y-88104819D01*
X112073809Y-88104819D02*
X112073809Y-87104819D01*
X112073809Y-87104819D02*
X111978571Y-87247676D01*
X111978571Y-87247676D02*
X111883333Y-87342914D01*
X111883333Y-87342914D02*
X111788095Y-87390533D01*
X113311904Y-88104819D02*
X112740476Y-88104819D01*
X113026190Y-88104819D02*
X113026190Y-87104819D01*
X113026190Y-87104819D02*
X112930952Y-87247676D01*
X112930952Y-87247676D02*
X112835714Y-87342914D01*
X112835714Y-87342914D02*
X112740476Y-87390533D01*
X114394642Y-85124819D02*
X114061309Y-84648628D01*
X113823214Y-85124819D02*
X113823214Y-84124819D01*
X113823214Y-84124819D02*
X114204166Y-84124819D01*
X114204166Y-84124819D02*
X114299404Y-84172438D01*
X114299404Y-84172438D02*
X114347023Y-84220057D01*
X114347023Y-84220057D02*
X114394642Y-84315295D01*
X114394642Y-84315295D02*
X114394642Y-84458152D01*
X114394642Y-84458152D02*
X114347023Y-84553390D01*
X114347023Y-84553390D02*
X114299404Y-84601009D01*
X114299404Y-84601009D02*
X114204166Y-84648628D01*
X114204166Y-84648628D02*
X113823214Y-84648628D01*
X115347023Y-85124819D02*
X114775595Y-85124819D01*
X115061309Y-85124819D02*
X115061309Y-84124819D01*
X115061309Y-84124819D02*
X114966071Y-84267676D01*
X114966071Y-84267676D02*
X114870833Y-84362914D01*
X114870833Y-84362914D02*
X114775595Y-84410533D01*
X115966071Y-84124819D02*
X116061309Y-84124819D01*
X116061309Y-84124819D02*
X116156547Y-84172438D01*
X116156547Y-84172438D02*
X116204166Y-84220057D01*
X116204166Y-84220057D02*
X116251785Y-84315295D01*
X116251785Y-84315295D02*
X116299404Y-84505771D01*
X116299404Y-84505771D02*
X116299404Y-84743866D01*
X116299404Y-84743866D02*
X116251785Y-84934342D01*
X116251785Y-84934342D02*
X116204166Y-85029580D01*
X116204166Y-85029580D02*
X116156547Y-85077200D01*
X116156547Y-85077200D02*
X116061309Y-85124819D01*
X116061309Y-85124819D02*
X115966071Y-85124819D01*
X115966071Y-85124819D02*
X115870833Y-85077200D01*
X115870833Y-85077200D02*
X115823214Y-85029580D01*
X115823214Y-85029580D02*
X115775595Y-84934342D01*
X115775595Y-84934342D02*
X115727976Y-84743866D01*
X115727976Y-84743866D02*
X115727976Y-84505771D01*
X115727976Y-84505771D02*
X115775595Y-84315295D01*
X115775595Y-84315295D02*
X115823214Y-84220057D01*
X115823214Y-84220057D02*
X115870833Y-84172438D01*
X115870833Y-84172438D02*
X115966071Y-84124819D01*
X141654819Y-92386666D02*
X141178628Y-92719999D01*
X141654819Y-92958094D02*
X140654819Y-92958094D01*
X140654819Y-92958094D02*
X140654819Y-92577142D01*
X140654819Y-92577142D02*
X140702438Y-92481904D01*
X140702438Y-92481904D02*
X140750057Y-92434285D01*
X140750057Y-92434285D02*
X140845295Y-92386666D01*
X140845295Y-92386666D02*
X140988152Y-92386666D01*
X140988152Y-92386666D02*
X141083390Y-92434285D01*
X141083390Y-92434285D02*
X141131009Y-92481904D01*
X141131009Y-92481904D02*
X141178628Y-92577142D01*
X141178628Y-92577142D02*
X141178628Y-92958094D01*
X140654819Y-92053332D02*
X140654819Y-91386666D01*
X140654819Y-91386666D02*
X141654819Y-91815237D01*
X137107142Y-92219580D02*
X137059523Y-92267200D01*
X137059523Y-92267200D02*
X136916666Y-92314819D01*
X136916666Y-92314819D02*
X136821428Y-92314819D01*
X136821428Y-92314819D02*
X136678571Y-92267200D01*
X136678571Y-92267200D02*
X136583333Y-92171961D01*
X136583333Y-92171961D02*
X136535714Y-92076723D01*
X136535714Y-92076723D02*
X136488095Y-91886247D01*
X136488095Y-91886247D02*
X136488095Y-91743390D01*
X136488095Y-91743390D02*
X136535714Y-91552914D01*
X136535714Y-91552914D02*
X136583333Y-91457676D01*
X136583333Y-91457676D02*
X136678571Y-91362438D01*
X136678571Y-91362438D02*
X136821428Y-91314819D01*
X136821428Y-91314819D02*
X136916666Y-91314819D01*
X136916666Y-91314819D02*
X137059523Y-91362438D01*
X137059523Y-91362438D02*
X137107142Y-91410057D01*
X137440476Y-91314819D02*
X138059523Y-91314819D01*
X138059523Y-91314819D02*
X137726190Y-91695771D01*
X137726190Y-91695771D02*
X137869047Y-91695771D01*
X137869047Y-91695771D02*
X137964285Y-91743390D01*
X137964285Y-91743390D02*
X138011904Y-91791009D01*
X138011904Y-91791009D02*
X138059523Y-91886247D01*
X138059523Y-91886247D02*
X138059523Y-92124342D01*
X138059523Y-92124342D02*
X138011904Y-92219580D01*
X138011904Y-92219580D02*
X137964285Y-92267200D01*
X137964285Y-92267200D02*
X137869047Y-92314819D01*
X137869047Y-92314819D02*
X137583333Y-92314819D01*
X137583333Y-92314819D02*
X137488095Y-92267200D01*
X137488095Y-92267200D02*
X137440476Y-92219580D01*
X139011904Y-92314819D02*
X138440476Y-92314819D01*
X138726190Y-92314819D02*
X138726190Y-91314819D01*
X138726190Y-91314819D02*
X138630952Y-91457676D01*
X138630952Y-91457676D02*
X138535714Y-91552914D01*
X138535714Y-91552914D02*
X138440476Y-91600533D01*
X100333333Y-58559580D02*
X100285714Y-58607200D01*
X100285714Y-58607200D02*
X100142857Y-58654819D01*
X100142857Y-58654819D02*
X100047619Y-58654819D01*
X100047619Y-58654819D02*
X99904762Y-58607200D01*
X99904762Y-58607200D02*
X99809524Y-58511961D01*
X99809524Y-58511961D02*
X99761905Y-58416723D01*
X99761905Y-58416723D02*
X99714286Y-58226247D01*
X99714286Y-58226247D02*
X99714286Y-58083390D01*
X99714286Y-58083390D02*
X99761905Y-57892914D01*
X99761905Y-57892914D02*
X99809524Y-57797676D01*
X99809524Y-57797676D02*
X99904762Y-57702438D01*
X99904762Y-57702438D02*
X100047619Y-57654819D01*
X100047619Y-57654819D02*
X100142857Y-57654819D01*
X100142857Y-57654819D02*
X100285714Y-57702438D01*
X100285714Y-57702438D02*
X100333333Y-57750057D01*
X101190476Y-57654819D02*
X101000000Y-57654819D01*
X101000000Y-57654819D02*
X100904762Y-57702438D01*
X100904762Y-57702438D02*
X100857143Y-57750057D01*
X100857143Y-57750057D02*
X100761905Y-57892914D01*
X100761905Y-57892914D02*
X100714286Y-58083390D01*
X100714286Y-58083390D02*
X100714286Y-58464342D01*
X100714286Y-58464342D02*
X100761905Y-58559580D01*
X100761905Y-58559580D02*
X100809524Y-58607200D01*
X100809524Y-58607200D02*
X100904762Y-58654819D01*
X100904762Y-58654819D02*
X101095238Y-58654819D01*
X101095238Y-58654819D02*
X101190476Y-58607200D01*
X101190476Y-58607200D02*
X101238095Y-58559580D01*
X101238095Y-58559580D02*
X101285714Y-58464342D01*
X101285714Y-58464342D02*
X101285714Y-58226247D01*
X101285714Y-58226247D02*
X101238095Y-58131009D01*
X101238095Y-58131009D02*
X101190476Y-58083390D01*
X101190476Y-58083390D02*
X101095238Y-58035771D01*
X101095238Y-58035771D02*
X100904762Y-58035771D01*
X100904762Y-58035771D02*
X100809524Y-58083390D01*
X100809524Y-58083390D02*
X100761905Y-58131009D01*
X100761905Y-58131009D02*
X100714286Y-58226247D01*
X121703333Y-57009580D02*
X121655714Y-57057200D01*
X121655714Y-57057200D02*
X121512857Y-57104819D01*
X121512857Y-57104819D02*
X121417619Y-57104819D01*
X121417619Y-57104819D02*
X121274762Y-57057200D01*
X121274762Y-57057200D02*
X121179524Y-56961961D01*
X121179524Y-56961961D02*
X121131905Y-56866723D01*
X121131905Y-56866723D02*
X121084286Y-56676247D01*
X121084286Y-56676247D02*
X121084286Y-56533390D01*
X121084286Y-56533390D02*
X121131905Y-56342914D01*
X121131905Y-56342914D02*
X121179524Y-56247676D01*
X121179524Y-56247676D02*
X121274762Y-56152438D01*
X121274762Y-56152438D02*
X121417619Y-56104819D01*
X121417619Y-56104819D02*
X121512857Y-56104819D01*
X121512857Y-56104819D02*
X121655714Y-56152438D01*
X121655714Y-56152438D02*
X121703333Y-56200057D01*
X122608095Y-56104819D02*
X122131905Y-56104819D01*
X122131905Y-56104819D02*
X122084286Y-56581009D01*
X122084286Y-56581009D02*
X122131905Y-56533390D01*
X122131905Y-56533390D02*
X122227143Y-56485771D01*
X122227143Y-56485771D02*
X122465238Y-56485771D01*
X122465238Y-56485771D02*
X122560476Y-56533390D01*
X122560476Y-56533390D02*
X122608095Y-56581009D01*
X122608095Y-56581009D02*
X122655714Y-56676247D01*
X122655714Y-56676247D02*
X122655714Y-56914342D01*
X122655714Y-56914342D02*
X122608095Y-57009580D01*
X122608095Y-57009580D02*
X122560476Y-57057200D01*
X122560476Y-57057200D02*
X122465238Y-57104819D01*
X122465238Y-57104819D02*
X122227143Y-57104819D01*
X122227143Y-57104819D02*
X122131905Y-57057200D01*
X122131905Y-57057200D02*
X122084286Y-57009580D01*
X106179580Y-72892857D02*
X106227200Y-72940476D01*
X106227200Y-72940476D02*
X106274819Y-73083333D01*
X106274819Y-73083333D02*
X106274819Y-73178571D01*
X106274819Y-73178571D02*
X106227200Y-73321428D01*
X106227200Y-73321428D02*
X106131961Y-73416666D01*
X106131961Y-73416666D02*
X106036723Y-73464285D01*
X106036723Y-73464285D02*
X105846247Y-73511904D01*
X105846247Y-73511904D02*
X105703390Y-73511904D01*
X105703390Y-73511904D02*
X105512914Y-73464285D01*
X105512914Y-73464285D02*
X105417676Y-73416666D01*
X105417676Y-73416666D02*
X105322438Y-73321428D01*
X105322438Y-73321428D02*
X105274819Y-73178571D01*
X105274819Y-73178571D02*
X105274819Y-73083333D01*
X105274819Y-73083333D02*
X105322438Y-72940476D01*
X105322438Y-72940476D02*
X105370057Y-72892857D01*
X105370057Y-72511904D02*
X105322438Y-72464285D01*
X105322438Y-72464285D02*
X105274819Y-72369047D01*
X105274819Y-72369047D02*
X105274819Y-72130952D01*
X105274819Y-72130952D02*
X105322438Y-72035714D01*
X105322438Y-72035714D02*
X105370057Y-71988095D01*
X105370057Y-71988095D02*
X105465295Y-71940476D01*
X105465295Y-71940476D02*
X105560533Y-71940476D01*
X105560533Y-71940476D02*
X105703390Y-71988095D01*
X105703390Y-71988095D02*
X106274819Y-72559523D01*
X106274819Y-72559523D02*
X106274819Y-71940476D01*
X105274819Y-71607142D02*
X105274819Y-70988095D01*
X105274819Y-70988095D02*
X105655771Y-71321428D01*
X105655771Y-71321428D02*
X105655771Y-71178571D01*
X105655771Y-71178571D02*
X105703390Y-71083333D01*
X105703390Y-71083333D02*
X105751009Y-71035714D01*
X105751009Y-71035714D02*
X105846247Y-70988095D01*
X105846247Y-70988095D02*
X106084342Y-70988095D01*
X106084342Y-70988095D02*
X106179580Y-71035714D01*
X106179580Y-71035714D02*
X106227200Y-71083333D01*
X106227200Y-71083333D02*
X106274819Y-71178571D01*
X106274819Y-71178571D02*
X106274819Y-71464285D01*
X106274819Y-71464285D02*
X106227200Y-71559523D01*
X106227200Y-71559523D02*
X106179580Y-71607142D01*
X122959580Y-64741666D02*
X123007200Y-64789285D01*
X123007200Y-64789285D02*
X123054819Y-64932142D01*
X123054819Y-64932142D02*
X123054819Y-65027380D01*
X123054819Y-65027380D02*
X123007200Y-65170237D01*
X123007200Y-65170237D02*
X122911961Y-65265475D01*
X122911961Y-65265475D02*
X122816723Y-65313094D01*
X122816723Y-65313094D02*
X122626247Y-65360713D01*
X122626247Y-65360713D02*
X122483390Y-65360713D01*
X122483390Y-65360713D02*
X122292914Y-65313094D01*
X122292914Y-65313094D02*
X122197676Y-65265475D01*
X122197676Y-65265475D02*
X122102438Y-65170237D01*
X122102438Y-65170237D02*
X122054819Y-65027380D01*
X122054819Y-65027380D02*
X122054819Y-64932142D01*
X122054819Y-64932142D02*
X122102438Y-64789285D01*
X122102438Y-64789285D02*
X122150057Y-64741666D01*
X122054819Y-64408332D02*
X122054819Y-63741666D01*
X122054819Y-63741666D02*
X123054819Y-64170237D01*
X111297142Y-89839580D02*
X111249523Y-89887200D01*
X111249523Y-89887200D02*
X111106666Y-89934819D01*
X111106666Y-89934819D02*
X111011428Y-89934819D01*
X111011428Y-89934819D02*
X110868571Y-89887200D01*
X110868571Y-89887200D02*
X110773333Y-89791961D01*
X110773333Y-89791961D02*
X110725714Y-89696723D01*
X110725714Y-89696723D02*
X110678095Y-89506247D01*
X110678095Y-89506247D02*
X110678095Y-89363390D01*
X110678095Y-89363390D02*
X110725714Y-89172914D01*
X110725714Y-89172914D02*
X110773333Y-89077676D01*
X110773333Y-89077676D02*
X110868571Y-88982438D01*
X110868571Y-88982438D02*
X111011428Y-88934819D01*
X111011428Y-88934819D02*
X111106666Y-88934819D01*
X111106666Y-88934819D02*
X111249523Y-88982438D01*
X111249523Y-88982438D02*
X111297142Y-89030057D01*
X112249523Y-89934819D02*
X111678095Y-89934819D01*
X111963809Y-89934819D02*
X111963809Y-88934819D01*
X111963809Y-88934819D02*
X111868571Y-89077676D01*
X111868571Y-89077676D02*
X111773333Y-89172914D01*
X111773333Y-89172914D02*
X111678095Y-89220533D01*
X112582857Y-88934819D02*
X113201904Y-88934819D01*
X113201904Y-88934819D02*
X112868571Y-89315771D01*
X112868571Y-89315771D02*
X113011428Y-89315771D01*
X113011428Y-89315771D02*
X113106666Y-89363390D01*
X113106666Y-89363390D02*
X113154285Y-89411009D01*
X113154285Y-89411009D02*
X113201904Y-89506247D01*
X113201904Y-89506247D02*
X113201904Y-89744342D01*
X113201904Y-89744342D02*
X113154285Y-89839580D01*
X113154285Y-89839580D02*
X113106666Y-89887200D01*
X113106666Y-89887200D02*
X113011428Y-89934819D01*
X113011428Y-89934819D02*
X112725714Y-89934819D01*
X112725714Y-89934819D02*
X112630476Y-89887200D01*
X112630476Y-89887200D02*
X112582857Y-89839580D01*
X86360095Y-89754819D02*
X86360095Y-88754819D01*
X86360095Y-89231009D02*
X86931523Y-89231009D01*
X86931523Y-89754819D02*
X86931523Y-88754819D01*
X87360095Y-88850057D02*
X87407714Y-88802438D01*
X87407714Y-88802438D02*
X87502952Y-88754819D01*
X87502952Y-88754819D02*
X87741047Y-88754819D01*
X87741047Y-88754819D02*
X87836285Y-88802438D01*
X87836285Y-88802438D02*
X87883904Y-88850057D01*
X87883904Y-88850057D02*
X87931523Y-88945295D01*
X87931523Y-88945295D02*
X87931523Y-89040533D01*
X87931523Y-89040533D02*
X87883904Y-89183390D01*
X87883904Y-89183390D02*
X87312476Y-89754819D01*
X87312476Y-89754819D02*
X87931523Y-89754819D01*
X110454642Y-77464819D02*
X110121309Y-76988628D01*
X109883214Y-77464819D02*
X109883214Y-76464819D01*
X109883214Y-76464819D02*
X110264166Y-76464819D01*
X110264166Y-76464819D02*
X110359404Y-76512438D01*
X110359404Y-76512438D02*
X110407023Y-76560057D01*
X110407023Y-76560057D02*
X110454642Y-76655295D01*
X110454642Y-76655295D02*
X110454642Y-76798152D01*
X110454642Y-76798152D02*
X110407023Y-76893390D01*
X110407023Y-76893390D02*
X110359404Y-76941009D01*
X110359404Y-76941009D02*
X110264166Y-76988628D01*
X110264166Y-76988628D02*
X109883214Y-76988628D01*
X111407023Y-77464819D02*
X110835595Y-77464819D01*
X111121309Y-77464819D02*
X111121309Y-76464819D01*
X111121309Y-76464819D02*
X111026071Y-76607676D01*
X111026071Y-76607676D02*
X110930833Y-76702914D01*
X110930833Y-76702914D02*
X110835595Y-76750533D01*
X112311785Y-76464819D02*
X111835595Y-76464819D01*
X111835595Y-76464819D02*
X111787976Y-76941009D01*
X111787976Y-76941009D02*
X111835595Y-76893390D01*
X111835595Y-76893390D02*
X111930833Y-76845771D01*
X111930833Y-76845771D02*
X112168928Y-76845771D01*
X112168928Y-76845771D02*
X112264166Y-76893390D01*
X112264166Y-76893390D02*
X112311785Y-76941009D01*
X112311785Y-76941009D02*
X112359404Y-77036247D01*
X112359404Y-77036247D02*
X112359404Y-77274342D01*
X112359404Y-77274342D02*
X112311785Y-77369580D01*
X112311785Y-77369580D02*
X112264166Y-77417200D01*
X112264166Y-77417200D02*
X112168928Y-77464819D01*
X112168928Y-77464819D02*
X111930833Y-77464819D01*
X111930833Y-77464819D02*
X111835595Y-77417200D01*
X111835595Y-77417200D02*
X111787976Y-77369580D01*
X111947142Y-82689580D02*
X111899523Y-82737200D01*
X111899523Y-82737200D02*
X111756666Y-82784819D01*
X111756666Y-82784819D02*
X111661428Y-82784819D01*
X111661428Y-82784819D02*
X111518571Y-82737200D01*
X111518571Y-82737200D02*
X111423333Y-82641961D01*
X111423333Y-82641961D02*
X111375714Y-82546723D01*
X111375714Y-82546723D02*
X111328095Y-82356247D01*
X111328095Y-82356247D02*
X111328095Y-82213390D01*
X111328095Y-82213390D02*
X111375714Y-82022914D01*
X111375714Y-82022914D02*
X111423333Y-81927676D01*
X111423333Y-81927676D02*
X111518571Y-81832438D01*
X111518571Y-81832438D02*
X111661428Y-81784819D01*
X111661428Y-81784819D02*
X111756666Y-81784819D01*
X111756666Y-81784819D02*
X111899523Y-81832438D01*
X111899523Y-81832438D02*
X111947142Y-81880057D01*
X112328095Y-81880057D02*
X112375714Y-81832438D01*
X112375714Y-81832438D02*
X112470952Y-81784819D01*
X112470952Y-81784819D02*
X112709047Y-81784819D01*
X112709047Y-81784819D02*
X112804285Y-81832438D01*
X112804285Y-81832438D02*
X112851904Y-81880057D01*
X112851904Y-81880057D02*
X112899523Y-81975295D01*
X112899523Y-81975295D02*
X112899523Y-82070533D01*
X112899523Y-82070533D02*
X112851904Y-82213390D01*
X112851904Y-82213390D02*
X112280476Y-82784819D01*
X112280476Y-82784819D02*
X112899523Y-82784819D01*
X113470952Y-82213390D02*
X113375714Y-82165771D01*
X113375714Y-82165771D02*
X113328095Y-82118152D01*
X113328095Y-82118152D02*
X113280476Y-82022914D01*
X113280476Y-82022914D02*
X113280476Y-81975295D01*
X113280476Y-81975295D02*
X113328095Y-81880057D01*
X113328095Y-81880057D02*
X113375714Y-81832438D01*
X113375714Y-81832438D02*
X113470952Y-81784819D01*
X113470952Y-81784819D02*
X113661428Y-81784819D01*
X113661428Y-81784819D02*
X113756666Y-81832438D01*
X113756666Y-81832438D02*
X113804285Y-81880057D01*
X113804285Y-81880057D02*
X113851904Y-81975295D01*
X113851904Y-81975295D02*
X113851904Y-82022914D01*
X113851904Y-82022914D02*
X113804285Y-82118152D01*
X113804285Y-82118152D02*
X113756666Y-82165771D01*
X113756666Y-82165771D02*
X113661428Y-82213390D01*
X113661428Y-82213390D02*
X113470952Y-82213390D01*
X113470952Y-82213390D02*
X113375714Y-82261009D01*
X113375714Y-82261009D02*
X113328095Y-82308628D01*
X113328095Y-82308628D02*
X113280476Y-82403866D01*
X113280476Y-82403866D02*
X113280476Y-82594342D01*
X113280476Y-82594342D02*
X113328095Y-82689580D01*
X113328095Y-82689580D02*
X113375714Y-82737200D01*
X113375714Y-82737200D02*
X113470952Y-82784819D01*
X113470952Y-82784819D02*
X113661428Y-82784819D01*
X113661428Y-82784819D02*
X113756666Y-82737200D01*
X113756666Y-82737200D02*
X113804285Y-82689580D01*
X113804285Y-82689580D02*
X113851904Y-82594342D01*
X113851904Y-82594342D02*
X113851904Y-82403866D01*
X113851904Y-82403866D02*
X113804285Y-82308628D01*
X113804285Y-82308628D02*
X113756666Y-82261009D01*
X113756666Y-82261009D02*
X113661428Y-82213390D01*
X149212819Y-89487333D02*
X149927104Y-89487333D01*
X149927104Y-89487333D02*
X150069961Y-89534952D01*
X150069961Y-89534952D02*
X150165200Y-89630190D01*
X150165200Y-89630190D02*
X150212819Y-89773047D01*
X150212819Y-89773047D02*
X150212819Y-89868285D01*
X149308057Y-89058761D02*
X149260438Y-89011142D01*
X149260438Y-89011142D02*
X149212819Y-88915904D01*
X149212819Y-88915904D02*
X149212819Y-88677809D01*
X149212819Y-88677809D02*
X149260438Y-88582571D01*
X149260438Y-88582571D02*
X149308057Y-88534952D01*
X149308057Y-88534952D02*
X149403295Y-88487333D01*
X149403295Y-88487333D02*
X149498533Y-88487333D01*
X149498533Y-88487333D02*
X149641390Y-88534952D01*
X149641390Y-88534952D02*
X150212819Y-89106380D01*
X150212819Y-89106380D02*
X150212819Y-88487333D01*
X127007142Y-72979580D02*
X126959523Y-73027200D01*
X126959523Y-73027200D02*
X126816666Y-73074819D01*
X126816666Y-73074819D02*
X126721428Y-73074819D01*
X126721428Y-73074819D02*
X126578571Y-73027200D01*
X126578571Y-73027200D02*
X126483333Y-72931961D01*
X126483333Y-72931961D02*
X126435714Y-72836723D01*
X126435714Y-72836723D02*
X126388095Y-72646247D01*
X126388095Y-72646247D02*
X126388095Y-72503390D01*
X126388095Y-72503390D02*
X126435714Y-72312914D01*
X126435714Y-72312914D02*
X126483333Y-72217676D01*
X126483333Y-72217676D02*
X126578571Y-72122438D01*
X126578571Y-72122438D02*
X126721428Y-72074819D01*
X126721428Y-72074819D02*
X126816666Y-72074819D01*
X126816666Y-72074819D02*
X126959523Y-72122438D01*
X126959523Y-72122438D02*
X127007142Y-72170057D01*
X127388095Y-72170057D02*
X127435714Y-72122438D01*
X127435714Y-72122438D02*
X127530952Y-72074819D01*
X127530952Y-72074819D02*
X127769047Y-72074819D01*
X127769047Y-72074819D02*
X127864285Y-72122438D01*
X127864285Y-72122438D02*
X127911904Y-72170057D01*
X127911904Y-72170057D02*
X127959523Y-72265295D01*
X127959523Y-72265295D02*
X127959523Y-72360533D01*
X127959523Y-72360533D02*
X127911904Y-72503390D01*
X127911904Y-72503390D02*
X127340476Y-73074819D01*
X127340476Y-73074819D02*
X127959523Y-73074819D01*
X128578571Y-72074819D02*
X128673809Y-72074819D01*
X128673809Y-72074819D02*
X128769047Y-72122438D01*
X128769047Y-72122438D02*
X128816666Y-72170057D01*
X128816666Y-72170057D02*
X128864285Y-72265295D01*
X128864285Y-72265295D02*
X128911904Y-72455771D01*
X128911904Y-72455771D02*
X128911904Y-72693866D01*
X128911904Y-72693866D02*
X128864285Y-72884342D01*
X128864285Y-72884342D02*
X128816666Y-72979580D01*
X128816666Y-72979580D02*
X128769047Y-73027200D01*
X128769047Y-73027200D02*
X128673809Y-73074819D01*
X128673809Y-73074819D02*
X128578571Y-73074819D01*
X128578571Y-73074819D02*
X128483333Y-73027200D01*
X128483333Y-73027200D02*
X128435714Y-72979580D01*
X128435714Y-72979580D02*
X128388095Y-72884342D01*
X128388095Y-72884342D02*
X128340476Y-72693866D01*
X128340476Y-72693866D02*
X128340476Y-72455771D01*
X128340476Y-72455771D02*
X128388095Y-72265295D01*
X128388095Y-72265295D02*
X128435714Y-72170057D01*
X128435714Y-72170057D02*
X128483333Y-72122438D01*
X128483333Y-72122438D02*
X128578571Y-72074819D01*
X135519580Y-80826666D02*
X135567200Y-80874285D01*
X135567200Y-80874285D02*
X135614819Y-81017142D01*
X135614819Y-81017142D02*
X135614819Y-81112380D01*
X135614819Y-81112380D02*
X135567200Y-81255237D01*
X135567200Y-81255237D02*
X135471961Y-81350475D01*
X135471961Y-81350475D02*
X135376723Y-81398094D01*
X135376723Y-81398094D02*
X135186247Y-81445713D01*
X135186247Y-81445713D02*
X135043390Y-81445713D01*
X135043390Y-81445713D02*
X134852914Y-81398094D01*
X134852914Y-81398094D02*
X134757676Y-81350475D01*
X134757676Y-81350475D02*
X134662438Y-81255237D01*
X134662438Y-81255237D02*
X134614819Y-81112380D01*
X134614819Y-81112380D02*
X134614819Y-81017142D01*
X134614819Y-81017142D02*
X134662438Y-80874285D01*
X134662438Y-80874285D02*
X134710057Y-80826666D01*
X135614819Y-80350475D02*
X135614819Y-80159999D01*
X135614819Y-80159999D02*
X135567200Y-80064761D01*
X135567200Y-80064761D02*
X135519580Y-80017142D01*
X135519580Y-80017142D02*
X135376723Y-79921904D01*
X135376723Y-79921904D02*
X135186247Y-79874285D01*
X135186247Y-79874285D02*
X134805295Y-79874285D01*
X134805295Y-79874285D02*
X134710057Y-79921904D01*
X134710057Y-79921904D02*
X134662438Y-79969523D01*
X134662438Y-79969523D02*
X134614819Y-80064761D01*
X134614819Y-80064761D02*
X134614819Y-80255237D01*
X134614819Y-80255237D02*
X134662438Y-80350475D01*
X134662438Y-80350475D02*
X134710057Y-80398094D01*
X134710057Y-80398094D02*
X134805295Y-80445713D01*
X134805295Y-80445713D02*
X135043390Y-80445713D01*
X135043390Y-80445713D02*
X135138628Y-80398094D01*
X135138628Y-80398094D02*
X135186247Y-80350475D01*
X135186247Y-80350475D02*
X135233866Y-80255237D01*
X135233866Y-80255237D02*
X135233866Y-80064761D01*
X135233866Y-80064761D02*
X135186247Y-79969523D01*
X135186247Y-79969523D02*
X135138628Y-79921904D01*
X135138628Y-79921904D02*
X135043390Y-79874285D01*
X126824819Y-80155357D02*
X126348628Y-80488690D01*
X126824819Y-80726785D02*
X125824819Y-80726785D01*
X125824819Y-80726785D02*
X125824819Y-80345833D01*
X125824819Y-80345833D02*
X125872438Y-80250595D01*
X125872438Y-80250595D02*
X125920057Y-80202976D01*
X125920057Y-80202976D02*
X126015295Y-80155357D01*
X126015295Y-80155357D02*
X126158152Y-80155357D01*
X126158152Y-80155357D02*
X126253390Y-80202976D01*
X126253390Y-80202976D02*
X126301009Y-80250595D01*
X126301009Y-80250595D02*
X126348628Y-80345833D01*
X126348628Y-80345833D02*
X126348628Y-80726785D01*
X126824819Y-79202976D02*
X126824819Y-79774404D01*
X126824819Y-79488690D02*
X125824819Y-79488690D01*
X125824819Y-79488690D02*
X125967676Y-79583928D01*
X125967676Y-79583928D02*
X126062914Y-79679166D01*
X126062914Y-79679166D02*
X126110533Y-79774404D01*
X125824819Y-78869642D02*
X125824819Y-78250595D01*
X125824819Y-78250595D02*
X126205771Y-78583928D01*
X126205771Y-78583928D02*
X126205771Y-78441071D01*
X126205771Y-78441071D02*
X126253390Y-78345833D01*
X126253390Y-78345833D02*
X126301009Y-78298214D01*
X126301009Y-78298214D02*
X126396247Y-78250595D01*
X126396247Y-78250595D02*
X126634342Y-78250595D01*
X126634342Y-78250595D02*
X126729580Y-78298214D01*
X126729580Y-78298214D02*
X126777200Y-78345833D01*
X126777200Y-78345833D02*
X126824819Y-78441071D01*
X126824819Y-78441071D02*
X126824819Y-78726785D01*
X126824819Y-78726785D02*
X126777200Y-78822023D01*
X126777200Y-78822023D02*
X126729580Y-78869642D01*
X143766666Y-58444819D02*
X143766666Y-59159104D01*
X143766666Y-59159104D02*
X143719047Y-59301961D01*
X143719047Y-59301961D02*
X143623809Y-59397200D01*
X143623809Y-59397200D02*
X143480952Y-59444819D01*
X143480952Y-59444819D02*
X143385714Y-59444819D01*
X144671428Y-58778152D02*
X144671428Y-59444819D01*
X144433333Y-58397200D02*
X144195238Y-59111485D01*
X144195238Y-59111485D02*
X144814285Y-59111485D01*
X149595833Y-76907580D02*
X149548214Y-76955200D01*
X149548214Y-76955200D02*
X149405357Y-77002819D01*
X149405357Y-77002819D02*
X149310119Y-77002819D01*
X149310119Y-77002819D02*
X149167262Y-76955200D01*
X149167262Y-76955200D02*
X149072024Y-76859961D01*
X149072024Y-76859961D02*
X149024405Y-76764723D01*
X149024405Y-76764723D02*
X148976786Y-76574247D01*
X148976786Y-76574247D02*
X148976786Y-76431390D01*
X148976786Y-76431390D02*
X149024405Y-76240914D01*
X149024405Y-76240914D02*
X149072024Y-76145676D01*
X149072024Y-76145676D02*
X149167262Y-76050438D01*
X149167262Y-76050438D02*
X149310119Y-76002819D01*
X149310119Y-76002819D02*
X149405357Y-76002819D01*
X149405357Y-76002819D02*
X149548214Y-76050438D01*
X149548214Y-76050438D02*
X149595833Y-76098057D01*
X150452976Y-76336152D02*
X150452976Y-77002819D01*
X150214881Y-75955200D02*
X149976786Y-76669485D01*
X149976786Y-76669485D02*
X150595833Y-76669485D01*
X96159580Y-82542857D02*
X96207200Y-82590476D01*
X96207200Y-82590476D02*
X96254819Y-82733333D01*
X96254819Y-82733333D02*
X96254819Y-82828571D01*
X96254819Y-82828571D02*
X96207200Y-82971428D01*
X96207200Y-82971428D02*
X96111961Y-83066666D01*
X96111961Y-83066666D02*
X96016723Y-83114285D01*
X96016723Y-83114285D02*
X95826247Y-83161904D01*
X95826247Y-83161904D02*
X95683390Y-83161904D01*
X95683390Y-83161904D02*
X95492914Y-83114285D01*
X95492914Y-83114285D02*
X95397676Y-83066666D01*
X95397676Y-83066666D02*
X95302438Y-82971428D01*
X95302438Y-82971428D02*
X95254819Y-82828571D01*
X95254819Y-82828571D02*
X95254819Y-82733333D01*
X95254819Y-82733333D02*
X95302438Y-82590476D01*
X95302438Y-82590476D02*
X95350057Y-82542857D01*
X95350057Y-82161904D02*
X95302438Y-82114285D01*
X95302438Y-82114285D02*
X95254819Y-82019047D01*
X95254819Y-82019047D02*
X95254819Y-81780952D01*
X95254819Y-81780952D02*
X95302438Y-81685714D01*
X95302438Y-81685714D02*
X95350057Y-81638095D01*
X95350057Y-81638095D02*
X95445295Y-81590476D01*
X95445295Y-81590476D02*
X95540533Y-81590476D01*
X95540533Y-81590476D02*
X95683390Y-81638095D01*
X95683390Y-81638095D02*
X96254819Y-82209523D01*
X96254819Y-82209523D02*
X96254819Y-81590476D01*
X96254819Y-81114285D02*
X96254819Y-80923809D01*
X96254819Y-80923809D02*
X96207200Y-80828571D01*
X96207200Y-80828571D02*
X96159580Y-80780952D01*
X96159580Y-80780952D02*
X96016723Y-80685714D01*
X96016723Y-80685714D02*
X95826247Y-80638095D01*
X95826247Y-80638095D02*
X95445295Y-80638095D01*
X95445295Y-80638095D02*
X95350057Y-80685714D01*
X95350057Y-80685714D02*
X95302438Y-80733333D01*
X95302438Y-80733333D02*
X95254819Y-80828571D01*
X95254819Y-80828571D02*
X95254819Y-81019047D01*
X95254819Y-81019047D02*
X95302438Y-81114285D01*
X95302438Y-81114285D02*
X95350057Y-81161904D01*
X95350057Y-81161904D02*
X95445295Y-81209523D01*
X95445295Y-81209523D02*
X95683390Y-81209523D01*
X95683390Y-81209523D02*
X95778628Y-81161904D01*
X95778628Y-81161904D02*
X95826247Y-81114285D01*
X95826247Y-81114285D02*
X95873866Y-81019047D01*
X95873866Y-81019047D02*
X95873866Y-80828571D01*
X95873866Y-80828571D02*
X95826247Y-80733333D01*
X95826247Y-80733333D02*
X95778628Y-80685714D01*
X95778628Y-80685714D02*
X95683390Y-80638095D01*
X128858333Y-64559580D02*
X128810714Y-64607200D01*
X128810714Y-64607200D02*
X128667857Y-64654819D01*
X128667857Y-64654819D02*
X128572619Y-64654819D01*
X128572619Y-64654819D02*
X128429762Y-64607200D01*
X128429762Y-64607200D02*
X128334524Y-64511961D01*
X128334524Y-64511961D02*
X128286905Y-64416723D01*
X128286905Y-64416723D02*
X128239286Y-64226247D01*
X128239286Y-64226247D02*
X128239286Y-64083390D01*
X128239286Y-64083390D02*
X128286905Y-63892914D01*
X128286905Y-63892914D02*
X128334524Y-63797676D01*
X128334524Y-63797676D02*
X128429762Y-63702438D01*
X128429762Y-63702438D02*
X128572619Y-63654819D01*
X128572619Y-63654819D02*
X128667857Y-63654819D01*
X128667857Y-63654819D02*
X128810714Y-63702438D01*
X128810714Y-63702438D02*
X128858333Y-63750057D01*
X129429762Y-64083390D02*
X129334524Y-64035771D01*
X129334524Y-64035771D02*
X129286905Y-63988152D01*
X129286905Y-63988152D02*
X129239286Y-63892914D01*
X129239286Y-63892914D02*
X129239286Y-63845295D01*
X129239286Y-63845295D02*
X129286905Y-63750057D01*
X129286905Y-63750057D02*
X129334524Y-63702438D01*
X129334524Y-63702438D02*
X129429762Y-63654819D01*
X129429762Y-63654819D02*
X129620238Y-63654819D01*
X129620238Y-63654819D02*
X129715476Y-63702438D01*
X129715476Y-63702438D02*
X129763095Y-63750057D01*
X129763095Y-63750057D02*
X129810714Y-63845295D01*
X129810714Y-63845295D02*
X129810714Y-63892914D01*
X129810714Y-63892914D02*
X129763095Y-63988152D01*
X129763095Y-63988152D02*
X129715476Y-64035771D01*
X129715476Y-64035771D02*
X129620238Y-64083390D01*
X129620238Y-64083390D02*
X129429762Y-64083390D01*
X129429762Y-64083390D02*
X129334524Y-64131009D01*
X129334524Y-64131009D02*
X129286905Y-64178628D01*
X129286905Y-64178628D02*
X129239286Y-64273866D01*
X129239286Y-64273866D02*
X129239286Y-64464342D01*
X129239286Y-64464342D02*
X129286905Y-64559580D01*
X129286905Y-64559580D02*
X129334524Y-64607200D01*
X129334524Y-64607200D02*
X129429762Y-64654819D01*
X129429762Y-64654819D02*
X129620238Y-64654819D01*
X129620238Y-64654819D02*
X129715476Y-64607200D01*
X129715476Y-64607200D02*
X129763095Y-64559580D01*
X129763095Y-64559580D02*
X129810714Y-64464342D01*
X129810714Y-64464342D02*
X129810714Y-64273866D01*
X129810714Y-64273866D02*
X129763095Y-64178628D01*
X129763095Y-64178628D02*
X129715476Y-64131009D01*
X129715476Y-64131009D02*
X129620238Y-64083390D01*
X129609580Y-83162857D02*
X129657200Y-83210476D01*
X129657200Y-83210476D02*
X129704819Y-83353333D01*
X129704819Y-83353333D02*
X129704819Y-83448571D01*
X129704819Y-83448571D02*
X129657200Y-83591428D01*
X129657200Y-83591428D02*
X129561961Y-83686666D01*
X129561961Y-83686666D02*
X129466723Y-83734285D01*
X129466723Y-83734285D02*
X129276247Y-83781904D01*
X129276247Y-83781904D02*
X129133390Y-83781904D01*
X129133390Y-83781904D02*
X128942914Y-83734285D01*
X128942914Y-83734285D02*
X128847676Y-83686666D01*
X128847676Y-83686666D02*
X128752438Y-83591428D01*
X128752438Y-83591428D02*
X128704819Y-83448571D01*
X128704819Y-83448571D02*
X128704819Y-83353333D01*
X128704819Y-83353333D02*
X128752438Y-83210476D01*
X128752438Y-83210476D02*
X128800057Y-83162857D01*
X129704819Y-82210476D02*
X129704819Y-82781904D01*
X129704819Y-82496190D02*
X128704819Y-82496190D01*
X128704819Y-82496190D02*
X128847676Y-82591428D01*
X128847676Y-82591428D02*
X128942914Y-82686666D01*
X128942914Y-82686666D02*
X128990533Y-82781904D01*
X128704819Y-81305714D02*
X128704819Y-81781904D01*
X128704819Y-81781904D02*
X129181009Y-81829523D01*
X129181009Y-81829523D02*
X129133390Y-81781904D01*
X129133390Y-81781904D02*
X129085771Y-81686666D01*
X129085771Y-81686666D02*
X129085771Y-81448571D01*
X129085771Y-81448571D02*
X129133390Y-81353333D01*
X129133390Y-81353333D02*
X129181009Y-81305714D01*
X129181009Y-81305714D02*
X129276247Y-81258095D01*
X129276247Y-81258095D02*
X129514342Y-81258095D01*
X129514342Y-81258095D02*
X129609580Y-81305714D01*
X129609580Y-81305714D02*
X129657200Y-81353333D01*
X129657200Y-81353333D02*
X129704819Y-81448571D01*
X129704819Y-81448571D02*
X129704819Y-81686666D01*
X129704819Y-81686666D02*
X129657200Y-81781904D01*
X129657200Y-81781904D02*
X129609580Y-81829523D01*
X120438095Y-81209819D02*
X120438095Y-82019342D01*
X120438095Y-82019342D02*
X120485714Y-82114580D01*
X120485714Y-82114580D02*
X120533333Y-82162200D01*
X120533333Y-82162200D02*
X120628571Y-82209819D01*
X120628571Y-82209819D02*
X120819047Y-82209819D01*
X120819047Y-82209819D02*
X120914285Y-82162200D01*
X120914285Y-82162200D02*
X120961904Y-82114580D01*
X120961904Y-82114580D02*
X121009523Y-82019342D01*
X121009523Y-82019342D02*
X121009523Y-81209819D01*
X121914285Y-81543152D02*
X121914285Y-82209819D01*
X121676190Y-81162200D02*
X121438095Y-81876485D01*
X121438095Y-81876485D02*
X122057142Y-81876485D01*
X103038095Y-79949819D02*
X103038095Y-80759342D01*
X103038095Y-80759342D02*
X103085714Y-80854580D01*
X103085714Y-80854580D02*
X103133333Y-80902200D01*
X103133333Y-80902200D02*
X103228571Y-80949819D01*
X103228571Y-80949819D02*
X103419047Y-80949819D01*
X103419047Y-80949819D02*
X103514285Y-80902200D01*
X103514285Y-80902200D02*
X103561904Y-80854580D01*
X103561904Y-80854580D02*
X103609523Y-80759342D01*
X103609523Y-80759342D02*
X103609523Y-79949819D01*
X104561904Y-79949819D02*
X104085714Y-79949819D01*
X104085714Y-79949819D02*
X104038095Y-80426009D01*
X104038095Y-80426009D02*
X104085714Y-80378390D01*
X104085714Y-80378390D02*
X104180952Y-80330771D01*
X104180952Y-80330771D02*
X104419047Y-80330771D01*
X104419047Y-80330771D02*
X104514285Y-80378390D01*
X104514285Y-80378390D02*
X104561904Y-80426009D01*
X104561904Y-80426009D02*
X104609523Y-80521247D01*
X104609523Y-80521247D02*
X104609523Y-80759342D01*
X104609523Y-80759342D02*
X104561904Y-80854580D01*
X104561904Y-80854580D02*
X104514285Y-80902200D01*
X104514285Y-80902200D02*
X104419047Y-80949819D01*
X104419047Y-80949819D02*
X104180952Y-80949819D01*
X104180952Y-80949819D02*
X104085714Y-80902200D01*
X104085714Y-80902200D02*
X104038095Y-80854580D01*
X137226666Y-87244819D02*
X137226666Y-87959104D01*
X137226666Y-87959104D02*
X137179047Y-88101961D01*
X137179047Y-88101961D02*
X137083809Y-88197200D01*
X137083809Y-88197200D02*
X136940952Y-88244819D01*
X136940952Y-88244819D02*
X136845714Y-88244819D01*
X138179047Y-87244819D02*
X137702857Y-87244819D01*
X137702857Y-87244819D02*
X137655238Y-87721009D01*
X137655238Y-87721009D02*
X137702857Y-87673390D01*
X137702857Y-87673390D02*
X137798095Y-87625771D01*
X137798095Y-87625771D02*
X138036190Y-87625771D01*
X138036190Y-87625771D02*
X138131428Y-87673390D01*
X138131428Y-87673390D02*
X138179047Y-87721009D01*
X138179047Y-87721009D02*
X138226666Y-87816247D01*
X138226666Y-87816247D02*
X138226666Y-88054342D01*
X138226666Y-88054342D02*
X138179047Y-88149580D01*
X138179047Y-88149580D02*
X138131428Y-88197200D01*
X138131428Y-88197200D02*
X138036190Y-88244819D01*
X138036190Y-88244819D02*
X137798095Y-88244819D01*
X137798095Y-88244819D02*
X137702857Y-88197200D01*
X137702857Y-88197200D02*
X137655238Y-88149580D01*
X134559580Y-67591666D02*
X134607200Y-67639285D01*
X134607200Y-67639285D02*
X134654819Y-67782142D01*
X134654819Y-67782142D02*
X134654819Y-67877380D01*
X134654819Y-67877380D02*
X134607200Y-68020237D01*
X134607200Y-68020237D02*
X134511961Y-68115475D01*
X134511961Y-68115475D02*
X134416723Y-68163094D01*
X134416723Y-68163094D02*
X134226247Y-68210713D01*
X134226247Y-68210713D02*
X134083390Y-68210713D01*
X134083390Y-68210713D02*
X133892914Y-68163094D01*
X133892914Y-68163094D02*
X133797676Y-68115475D01*
X133797676Y-68115475D02*
X133702438Y-68020237D01*
X133702438Y-68020237D02*
X133654819Y-67877380D01*
X133654819Y-67877380D02*
X133654819Y-67782142D01*
X133654819Y-67782142D02*
X133702438Y-67639285D01*
X133702438Y-67639285D02*
X133750057Y-67591666D01*
X133750057Y-67210713D02*
X133702438Y-67163094D01*
X133702438Y-67163094D02*
X133654819Y-67067856D01*
X133654819Y-67067856D02*
X133654819Y-66829761D01*
X133654819Y-66829761D02*
X133702438Y-66734523D01*
X133702438Y-66734523D02*
X133750057Y-66686904D01*
X133750057Y-66686904D02*
X133845295Y-66639285D01*
X133845295Y-66639285D02*
X133940533Y-66639285D01*
X133940533Y-66639285D02*
X134083390Y-66686904D01*
X134083390Y-66686904D02*
X134654819Y-67258332D01*
X134654819Y-67258332D02*
X134654819Y-66639285D01*
X98259580Y-83942857D02*
X98307200Y-83990476D01*
X98307200Y-83990476D02*
X98354819Y-84133333D01*
X98354819Y-84133333D02*
X98354819Y-84228571D01*
X98354819Y-84228571D02*
X98307200Y-84371428D01*
X98307200Y-84371428D02*
X98211961Y-84466666D01*
X98211961Y-84466666D02*
X98116723Y-84514285D01*
X98116723Y-84514285D02*
X97926247Y-84561904D01*
X97926247Y-84561904D02*
X97783390Y-84561904D01*
X97783390Y-84561904D02*
X97592914Y-84514285D01*
X97592914Y-84514285D02*
X97497676Y-84466666D01*
X97497676Y-84466666D02*
X97402438Y-84371428D01*
X97402438Y-84371428D02*
X97354819Y-84228571D01*
X97354819Y-84228571D02*
X97354819Y-84133333D01*
X97354819Y-84133333D02*
X97402438Y-83990476D01*
X97402438Y-83990476D02*
X97450057Y-83942857D01*
X97354819Y-83609523D02*
X97354819Y-82990476D01*
X97354819Y-82990476D02*
X97735771Y-83323809D01*
X97735771Y-83323809D02*
X97735771Y-83180952D01*
X97735771Y-83180952D02*
X97783390Y-83085714D01*
X97783390Y-83085714D02*
X97831009Y-83038095D01*
X97831009Y-83038095D02*
X97926247Y-82990476D01*
X97926247Y-82990476D02*
X98164342Y-82990476D01*
X98164342Y-82990476D02*
X98259580Y-83038095D01*
X98259580Y-83038095D02*
X98307200Y-83085714D01*
X98307200Y-83085714D02*
X98354819Y-83180952D01*
X98354819Y-83180952D02*
X98354819Y-83466666D01*
X98354819Y-83466666D02*
X98307200Y-83561904D01*
X98307200Y-83561904D02*
X98259580Y-83609523D01*
X97354819Y-82371428D02*
X97354819Y-82276190D01*
X97354819Y-82276190D02*
X97402438Y-82180952D01*
X97402438Y-82180952D02*
X97450057Y-82133333D01*
X97450057Y-82133333D02*
X97545295Y-82085714D01*
X97545295Y-82085714D02*
X97735771Y-82038095D01*
X97735771Y-82038095D02*
X97973866Y-82038095D01*
X97973866Y-82038095D02*
X98164342Y-82085714D01*
X98164342Y-82085714D02*
X98259580Y-82133333D01*
X98259580Y-82133333D02*
X98307200Y-82180952D01*
X98307200Y-82180952D02*
X98354819Y-82276190D01*
X98354819Y-82276190D02*
X98354819Y-82371428D01*
X98354819Y-82371428D02*
X98307200Y-82466666D01*
X98307200Y-82466666D02*
X98259580Y-82514285D01*
X98259580Y-82514285D02*
X98164342Y-82561904D01*
X98164342Y-82561904D02*
X97973866Y-82609523D01*
X97973866Y-82609523D02*
X97735771Y-82609523D01*
X97735771Y-82609523D02*
X97545295Y-82561904D01*
X97545295Y-82561904D02*
X97450057Y-82514285D01*
X97450057Y-82514285D02*
X97402438Y-82466666D01*
X97402438Y-82466666D02*
X97354819Y-82371428D01*
X149595833Y-86305580D02*
X149548214Y-86353200D01*
X149548214Y-86353200D02*
X149405357Y-86400819D01*
X149405357Y-86400819D02*
X149310119Y-86400819D01*
X149310119Y-86400819D02*
X149167262Y-86353200D01*
X149167262Y-86353200D02*
X149072024Y-86257961D01*
X149072024Y-86257961D02*
X149024405Y-86162723D01*
X149024405Y-86162723D02*
X148976786Y-85972247D01*
X148976786Y-85972247D02*
X148976786Y-85829390D01*
X148976786Y-85829390D02*
X149024405Y-85638914D01*
X149024405Y-85638914D02*
X149072024Y-85543676D01*
X149072024Y-85543676D02*
X149167262Y-85448438D01*
X149167262Y-85448438D02*
X149310119Y-85400819D01*
X149310119Y-85400819D02*
X149405357Y-85400819D01*
X149405357Y-85400819D02*
X149548214Y-85448438D01*
X149548214Y-85448438D02*
X149595833Y-85496057D01*
X149929167Y-85400819D02*
X150548214Y-85400819D01*
X150548214Y-85400819D02*
X150214881Y-85781771D01*
X150214881Y-85781771D02*
X150357738Y-85781771D01*
X150357738Y-85781771D02*
X150452976Y-85829390D01*
X150452976Y-85829390D02*
X150500595Y-85877009D01*
X150500595Y-85877009D02*
X150548214Y-85972247D01*
X150548214Y-85972247D02*
X150548214Y-86210342D01*
X150548214Y-86210342D02*
X150500595Y-86305580D01*
X150500595Y-86305580D02*
X150452976Y-86353200D01*
X150452976Y-86353200D02*
X150357738Y-86400819D01*
X150357738Y-86400819D02*
X150072024Y-86400819D01*
X150072024Y-86400819D02*
X149976786Y-86353200D01*
X149976786Y-86353200D02*
X149929167Y-86305580D01*
X157438095Y-57054819D02*
X157438095Y-56054819D01*
X157438095Y-56531009D02*
X158009523Y-56531009D01*
X158009523Y-57054819D02*
X158009523Y-56054819D01*
X158390476Y-56054819D02*
X159009523Y-56054819D01*
X159009523Y-56054819D02*
X158676190Y-56435771D01*
X158676190Y-56435771D02*
X158819047Y-56435771D01*
X158819047Y-56435771D02*
X158914285Y-56483390D01*
X158914285Y-56483390D02*
X158961904Y-56531009D01*
X158961904Y-56531009D02*
X159009523Y-56626247D01*
X159009523Y-56626247D02*
X159009523Y-56864342D01*
X159009523Y-56864342D02*
X158961904Y-56959580D01*
X158961904Y-56959580D02*
X158914285Y-57007200D01*
X158914285Y-57007200D02*
X158819047Y-57054819D01*
X158819047Y-57054819D02*
X158533333Y-57054819D01*
X158533333Y-57054819D02*
X158438095Y-57007200D01*
X158438095Y-57007200D02*
X158390476Y-56959580D01*
X131466666Y-74054819D02*
X131466666Y-74769104D01*
X131466666Y-74769104D02*
X131419047Y-74911961D01*
X131419047Y-74911961D02*
X131323809Y-75007200D01*
X131323809Y-75007200D02*
X131180952Y-75054819D01*
X131180952Y-75054819D02*
X131085714Y-75054819D01*
X132371428Y-74054819D02*
X132180952Y-74054819D01*
X132180952Y-74054819D02*
X132085714Y-74102438D01*
X132085714Y-74102438D02*
X132038095Y-74150057D01*
X132038095Y-74150057D02*
X131942857Y-74292914D01*
X131942857Y-74292914D02*
X131895238Y-74483390D01*
X131895238Y-74483390D02*
X131895238Y-74864342D01*
X131895238Y-74864342D02*
X131942857Y-74959580D01*
X131942857Y-74959580D02*
X131990476Y-75007200D01*
X131990476Y-75007200D02*
X132085714Y-75054819D01*
X132085714Y-75054819D02*
X132276190Y-75054819D01*
X132276190Y-75054819D02*
X132371428Y-75007200D01*
X132371428Y-75007200D02*
X132419047Y-74959580D01*
X132419047Y-74959580D02*
X132466666Y-74864342D01*
X132466666Y-74864342D02*
X132466666Y-74626247D01*
X132466666Y-74626247D02*
X132419047Y-74531009D01*
X132419047Y-74531009D02*
X132371428Y-74483390D01*
X132371428Y-74483390D02*
X132276190Y-74435771D01*
X132276190Y-74435771D02*
X132085714Y-74435771D01*
X132085714Y-74435771D02*
X131990476Y-74483390D01*
X131990476Y-74483390D02*
X131942857Y-74531009D01*
X131942857Y-74531009D02*
X131895238Y-74626247D01*
X114407142Y-93939580D02*
X114359523Y-93987200D01*
X114359523Y-93987200D02*
X114216666Y-94034819D01*
X114216666Y-94034819D02*
X114121428Y-94034819D01*
X114121428Y-94034819D02*
X113978571Y-93987200D01*
X113978571Y-93987200D02*
X113883333Y-93891961D01*
X113883333Y-93891961D02*
X113835714Y-93796723D01*
X113835714Y-93796723D02*
X113788095Y-93606247D01*
X113788095Y-93606247D02*
X113788095Y-93463390D01*
X113788095Y-93463390D02*
X113835714Y-93272914D01*
X113835714Y-93272914D02*
X113883333Y-93177676D01*
X113883333Y-93177676D02*
X113978571Y-93082438D01*
X113978571Y-93082438D02*
X114121428Y-93034819D01*
X114121428Y-93034819D02*
X114216666Y-93034819D01*
X114216666Y-93034819D02*
X114359523Y-93082438D01*
X114359523Y-93082438D02*
X114407142Y-93130057D01*
X115359523Y-94034819D02*
X114788095Y-94034819D01*
X115073809Y-94034819D02*
X115073809Y-93034819D01*
X115073809Y-93034819D02*
X114978571Y-93177676D01*
X114978571Y-93177676D02*
X114883333Y-93272914D01*
X114883333Y-93272914D02*
X114788095Y-93320533D01*
X115835714Y-94034819D02*
X116026190Y-94034819D01*
X116026190Y-94034819D02*
X116121428Y-93987200D01*
X116121428Y-93987200D02*
X116169047Y-93939580D01*
X116169047Y-93939580D02*
X116264285Y-93796723D01*
X116264285Y-93796723D02*
X116311904Y-93606247D01*
X116311904Y-93606247D02*
X116311904Y-93225295D01*
X116311904Y-93225295D02*
X116264285Y-93130057D01*
X116264285Y-93130057D02*
X116216666Y-93082438D01*
X116216666Y-93082438D02*
X116121428Y-93034819D01*
X116121428Y-93034819D02*
X115930952Y-93034819D01*
X115930952Y-93034819D02*
X115835714Y-93082438D01*
X115835714Y-93082438D02*
X115788095Y-93130057D01*
X115788095Y-93130057D02*
X115740476Y-93225295D01*
X115740476Y-93225295D02*
X115740476Y-93463390D01*
X115740476Y-93463390D02*
X115788095Y-93558628D01*
X115788095Y-93558628D02*
X115835714Y-93606247D01*
X115835714Y-93606247D02*
X115930952Y-93653866D01*
X115930952Y-93653866D02*
X116121428Y-93653866D01*
X116121428Y-93653866D02*
X116216666Y-93606247D01*
X116216666Y-93606247D02*
X116264285Y-93558628D01*
X116264285Y-93558628D02*
X116311904Y-93463390D01*
X157256666Y-62364819D02*
X157256666Y-63079104D01*
X157256666Y-63079104D02*
X157209047Y-63221961D01*
X157209047Y-63221961D02*
X157113809Y-63317200D01*
X157113809Y-63317200D02*
X156970952Y-63364819D01*
X156970952Y-63364819D02*
X156875714Y-63364819D01*
X157637619Y-62364819D02*
X158256666Y-62364819D01*
X158256666Y-62364819D02*
X157923333Y-62745771D01*
X157923333Y-62745771D02*
X158066190Y-62745771D01*
X158066190Y-62745771D02*
X158161428Y-62793390D01*
X158161428Y-62793390D02*
X158209047Y-62841009D01*
X158209047Y-62841009D02*
X158256666Y-62936247D01*
X158256666Y-62936247D02*
X158256666Y-63174342D01*
X158256666Y-63174342D02*
X158209047Y-63269580D01*
X158209047Y-63269580D02*
X158161428Y-63317200D01*
X158161428Y-63317200D02*
X158066190Y-63364819D01*
X158066190Y-63364819D02*
X157780476Y-63364819D01*
X157780476Y-63364819D02*
X157685238Y-63317200D01*
X157685238Y-63317200D02*
X157637619Y-63269580D01*
X127957142Y-94189580D02*
X127909523Y-94237200D01*
X127909523Y-94237200D02*
X127766666Y-94284819D01*
X127766666Y-94284819D02*
X127671428Y-94284819D01*
X127671428Y-94284819D02*
X127528571Y-94237200D01*
X127528571Y-94237200D02*
X127433333Y-94141961D01*
X127433333Y-94141961D02*
X127385714Y-94046723D01*
X127385714Y-94046723D02*
X127338095Y-93856247D01*
X127338095Y-93856247D02*
X127338095Y-93713390D01*
X127338095Y-93713390D02*
X127385714Y-93522914D01*
X127385714Y-93522914D02*
X127433333Y-93427676D01*
X127433333Y-93427676D02*
X127528571Y-93332438D01*
X127528571Y-93332438D02*
X127671428Y-93284819D01*
X127671428Y-93284819D02*
X127766666Y-93284819D01*
X127766666Y-93284819D02*
X127909523Y-93332438D01*
X127909523Y-93332438D02*
X127957142Y-93380057D01*
X128909523Y-94284819D02*
X128338095Y-94284819D01*
X128623809Y-94284819D02*
X128623809Y-93284819D01*
X128623809Y-93284819D02*
X128528571Y-93427676D01*
X128528571Y-93427676D02*
X128433333Y-93522914D01*
X128433333Y-93522914D02*
X128338095Y-93570533D01*
X129290476Y-93380057D02*
X129338095Y-93332438D01*
X129338095Y-93332438D02*
X129433333Y-93284819D01*
X129433333Y-93284819D02*
X129671428Y-93284819D01*
X129671428Y-93284819D02*
X129766666Y-93332438D01*
X129766666Y-93332438D02*
X129814285Y-93380057D01*
X129814285Y-93380057D02*
X129861904Y-93475295D01*
X129861904Y-93475295D02*
X129861904Y-93570533D01*
X129861904Y-93570533D02*
X129814285Y-93713390D01*
X129814285Y-93713390D02*
X129242857Y-94284819D01*
X129242857Y-94284819D02*
X129861904Y-94284819D01*
X159584819Y-72199166D02*
X159108628Y-72532499D01*
X159584819Y-72770594D02*
X158584819Y-72770594D01*
X158584819Y-72770594D02*
X158584819Y-72389642D01*
X158584819Y-72389642D02*
X158632438Y-72294404D01*
X158632438Y-72294404D02*
X158680057Y-72246785D01*
X158680057Y-72246785D02*
X158775295Y-72199166D01*
X158775295Y-72199166D02*
X158918152Y-72199166D01*
X158918152Y-72199166D02*
X159013390Y-72246785D01*
X159013390Y-72246785D02*
X159061009Y-72294404D01*
X159061009Y-72294404D02*
X159108628Y-72389642D01*
X159108628Y-72389642D02*
X159108628Y-72770594D01*
X158680057Y-71818213D02*
X158632438Y-71770594D01*
X158632438Y-71770594D02*
X158584819Y-71675356D01*
X158584819Y-71675356D02*
X158584819Y-71437261D01*
X158584819Y-71437261D02*
X158632438Y-71342023D01*
X158632438Y-71342023D02*
X158680057Y-71294404D01*
X158680057Y-71294404D02*
X158775295Y-71246785D01*
X158775295Y-71246785D02*
X158870533Y-71246785D01*
X158870533Y-71246785D02*
X159013390Y-71294404D01*
X159013390Y-71294404D02*
X159584819Y-71865832D01*
X159584819Y-71865832D02*
X159584819Y-71246785D01*
X113757142Y-76659580D02*
X113709523Y-76707200D01*
X113709523Y-76707200D02*
X113566666Y-76754819D01*
X113566666Y-76754819D02*
X113471428Y-76754819D01*
X113471428Y-76754819D02*
X113328571Y-76707200D01*
X113328571Y-76707200D02*
X113233333Y-76611961D01*
X113233333Y-76611961D02*
X113185714Y-76516723D01*
X113185714Y-76516723D02*
X113138095Y-76326247D01*
X113138095Y-76326247D02*
X113138095Y-76183390D01*
X113138095Y-76183390D02*
X113185714Y-75992914D01*
X113185714Y-75992914D02*
X113233333Y-75897676D01*
X113233333Y-75897676D02*
X113328571Y-75802438D01*
X113328571Y-75802438D02*
X113471428Y-75754819D01*
X113471428Y-75754819D02*
X113566666Y-75754819D01*
X113566666Y-75754819D02*
X113709523Y-75802438D01*
X113709523Y-75802438D02*
X113757142Y-75850057D01*
X114709523Y-76754819D02*
X114138095Y-76754819D01*
X114423809Y-76754819D02*
X114423809Y-75754819D01*
X114423809Y-75754819D02*
X114328571Y-75897676D01*
X114328571Y-75897676D02*
X114233333Y-75992914D01*
X114233333Y-75992914D02*
X114138095Y-76040533D01*
X115042857Y-75754819D02*
X115709523Y-75754819D01*
X115709523Y-75754819D02*
X115280952Y-76754819D01*
X123807142Y-82679580D02*
X123759523Y-82727200D01*
X123759523Y-82727200D02*
X123616666Y-82774819D01*
X123616666Y-82774819D02*
X123521428Y-82774819D01*
X123521428Y-82774819D02*
X123378571Y-82727200D01*
X123378571Y-82727200D02*
X123283333Y-82631961D01*
X123283333Y-82631961D02*
X123235714Y-82536723D01*
X123235714Y-82536723D02*
X123188095Y-82346247D01*
X123188095Y-82346247D02*
X123188095Y-82203390D01*
X123188095Y-82203390D02*
X123235714Y-82012914D01*
X123235714Y-82012914D02*
X123283333Y-81917676D01*
X123283333Y-81917676D02*
X123378571Y-81822438D01*
X123378571Y-81822438D02*
X123521428Y-81774819D01*
X123521428Y-81774819D02*
X123616666Y-81774819D01*
X123616666Y-81774819D02*
X123759523Y-81822438D01*
X123759523Y-81822438D02*
X123807142Y-81870057D01*
X124188095Y-81870057D02*
X124235714Y-81822438D01*
X124235714Y-81822438D02*
X124330952Y-81774819D01*
X124330952Y-81774819D02*
X124569047Y-81774819D01*
X124569047Y-81774819D02*
X124664285Y-81822438D01*
X124664285Y-81822438D02*
X124711904Y-81870057D01*
X124711904Y-81870057D02*
X124759523Y-81965295D01*
X124759523Y-81965295D02*
X124759523Y-82060533D01*
X124759523Y-82060533D02*
X124711904Y-82203390D01*
X124711904Y-82203390D02*
X124140476Y-82774819D01*
X124140476Y-82774819D02*
X124759523Y-82774819D01*
X125664285Y-81774819D02*
X125188095Y-81774819D01*
X125188095Y-81774819D02*
X125140476Y-82251009D01*
X125140476Y-82251009D02*
X125188095Y-82203390D01*
X125188095Y-82203390D02*
X125283333Y-82155771D01*
X125283333Y-82155771D02*
X125521428Y-82155771D01*
X125521428Y-82155771D02*
X125616666Y-82203390D01*
X125616666Y-82203390D02*
X125664285Y-82251009D01*
X125664285Y-82251009D02*
X125711904Y-82346247D01*
X125711904Y-82346247D02*
X125711904Y-82584342D01*
X125711904Y-82584342D02*
X125664285Y-82679580D01*
X125664285Y-82679580D02*
X125616666Y-82727200D01*
X125616666Y-82727200D02*
X125521428Y-82774819D01*
X125521428Y-82774819D02*
X125283333Y-82774819D01*
X125283333Y-82774819D02*
X125188095Y-82727200D01*
X125188095Y-82727200D02*
X125140476Y-82679580D01*
X109707142Y-71579580D02*
X109659523Y-71627200D01*
X109659523Y-71627200D02*
X109516666Y-71674819D01*
X109516666Y-71674819D02*
X109421428Y-71674819D01*
X109421428Y-71674819D02*
X109278571Y-71627200D01*
X109278571Y-71627200D02*
X109183333Y-71531961D01*
X109183333Y-71531961D02*
X109135714Y-71436723D01*
X109135714Y-71436723D02*
X109088095Y-71246247D01*
X109088095Y-71246247D02*
X109088095Y-71103390D01*
X109088095Y-71103390D02*
X109135714Y-70912914D01*
X109135714Y-70912914D02*
X109183333Y-70817676D01*
X109183333Y-70817676D02*
X109278571Y-70722438D01*
X109278571Y-70722438D02*
X109421428Y-70674819D01*
X109421428Y-70674819D02*
X109516666Y-70674819D01*
X109516666Y-70674819D02*
X109659523Y-70722438D01*
X109659523Y-70722438D02*
X109707142Y-70770057D01*
X110088095Y-70770057D02*
X110135714Y-70722438D01*
X110135714Y-70722438D02*
X110230952Y-70674819D01*
X110230952Y-70674819D02*
X110469047Y-70674819D01*
X110469047Y-70674819D02*
X110564285Y-70722438D01*
X110564285Y-70722438D02*
X110611904Y-70770057D01*
X110611904Y-70770057D02*
X110659523Y-70865295D01*
X110659523Y-70865295D02*
X110659523Y-70960533D01*
X110659523Y-70960533D02*
X110611904Y-71103390D01*
X110611904Y-71103390D02*
X110040476Y-71674819D01*
X110040476Y-71674819D02*
X110659523Y-71674819D01*
X111040476Y-70770057D02*
X111088095Y-70722438D01*
X111088095Y-70722438D02*
X111183333Y-70674819D01*
X111183333Y-70674819D02*
X111421428Y-70674819D01*
X111421428Y-70674819D02*
X111516666Y-70722438D01*
X111516666Y-70722438D02*
X111564285Y-70770057D01*
X111564285Y-70770057D02*
X111611904Y-70865295D01*
X111611904Y-70865295D02*
X111611904Y-70960533D01*
X111611904Y-70960533D02*
X111564285Y-71103390D01*
X111564285Y-71103390D02*
X110992857Y-71674819D01*
X110992857Y-71674819D02*
X111611904Y-71674819D01*
X117538095Y-84054819D02*
X117538095Y-84864342D01*
X117538095Y-84864342D02*
X117585714Y-84959580D01*
X117585714Y-84959580D02*
X117633333Y-85007200D01*
X117633333Y-85007200D02*
X117728571Y-85054819D01*
X117728571Y-85054819D02*
X117919047Y-85054819D01*
X117919047Y-85054819D02*
X118014285Y-85007200D01*
X118014285Y-85007200D02*
X118061904Y-84959580D01*
X118061904Y-84959580D02*
X118109523Y-84864342D01*
X118109523Y-84864342D02*
X118109523Y-84054819D01*
X118490476Y-84054819D02*
X119109523Y-84054819D01*
X119109523Y-84054819D02*
X118776190Y-84435771D01*
X118776190Y-84435771D02*
X118919047Y-84435771D01*
X118919047Y-84435771D02*
X119014285Y-84483390D01*
X119014285Y-84483390D02*
X119061904Y-84531009D01*
X119061904Y-84531009D02*
X119109523Y-84626247D01*
X119109523Y-84626247D02*
X119109523Y-84864342D01*
X119109523Y-84864342D02*
X119061904Y-84959580D01*
X119061904Y-84959580D02*
X119014285Y-85007200D01*
X119014285Y-85007200D02*
X118919047Y-85054819D01*
X118919047Y-85054819D02*
X118633333Y-85054819D01*
X118633333Y-85054819D02*
X118538095Y-85007200D01*
X118538095Y-85007200D02*
X118490476Y-84959580D01*
X130904819Y-83892857D02*
X130428628Y-84226190D01*
X130904819Y-84464285D02*
X129904819Y-84464285D01*
X129904819Y-84464285D02*
X129904819Y-84083333D01*
X129904819Y-84083333D02*
X129952438Y-83988095D01*
X129952438Y-83988095D02*
X130000057Y-83940476D01*
X130000057Y-83940476D02*
X130095295Y-83892857D01*
X130095295Y-83892857D02*
X130238152Y-83892857D01*
X130238152Y-83892857D02*
X130333390Y-83940476D01*
X130333390Y-83940476D02*
X130381009Y-83988095D01*
X130381009Y-83988095D02*
X130428628Y-84083333D01*
X130428628Y-84083333D02*
X130428628Y-84464285D01*
X130904819Y-82940476D02*
X130904819Y-83511904D01*
X130904819Y-83226190D02*
X129904819Y-83226190D01*
X129904819Y-83226190D02*
X130047676Y-83321428D01*
X130047676Y-83321428D02*
X130142914Y-83416666D01*
X130142914Y-83416666D02*
X130190533Y-83511904D01*
X130000057Y-82559523D02*
X129952438Y-82511904D01*
X129952438Y-82511904D02*
X129904819Y-82416666D01*
X129904819Y-82416666D02*
X129904819Y-82178571D01*
X129904819Y-82178571D02*
X129952438Y-82083333D01*
X129952438Y-82083333D02*
X130000057Y-82035714D01*
X130000057Y-82035714D02*
X130095295Y-81988095D01*
X130095295Y-81988095D02*
X130190533Y-81988095D01*
X130190533Y-81988095D02*
X130333390Y-82035714D01*
X130333390Y-82035714D02*
X130904819Y-82607142D01*
X130904819Y-82607142D02*
X130904819Y-81988095D01*
X155314819Y-79416666D02*
X154838628Y-79749999D01*
X155314819Y-79988094D02*
X154314819Y-79988094D01*
X154314819Y-79988094D02*
X154314819Y-79607142D01*
X154314819Y-79607142D02*
X154362438Y-79511904D01*
X154362438Y-79511904D02*
X154410057Y-79464285D01*
X154410057Y-79464285D02*
X154505295Y-79416666D01*
X154505295Y-79416666D02*
X154648152Y-79416666D01*
X154648152Y-79416666D02*
X154743390Y-79464285D01*
X154743390Y-79464285D02*
X154791009Y-79511904D01*
X154791009Y-79511904D02*
X154838628Y-79607142D01*
X154838628Y-79607142D02*
X154838628Y-79988094D01*
X155314819Y-78464285D02*
X155314819Y-79035713D01*
X155314819Y-78749999D02*
X154314819Y-78749999D01*
X154314819Y-78749999D02*
X154457676Y-78845237D01*
X154457676Y-78845237D02*
X154552914Y-78940475D01*
X154552914Y-78940475D02*
X154600533Y-79035713D01*
X122957142Y-93359580D02*
X122909523Y-93407200D01*
X122909523Y-93407200D02*
X122766666Y-93454819D01*
X122766666Y-93454819D02*
X122671428Y-93454819D01*
X122671428Y-93454819D02*
X122528571Y-93407200D01*
X122528571Y-93407200D02*
X122433333Y-93311961D01*
X122433333Y-93311961D02*
X122385714Y-93216723D01*
X122385714Y-93216723D02*
X122338095Y-93026247D01*
X122338095Y-93026247D02*
X122338095Y-92883390D01*
X122338095Y-92883390D02*
X122385714Y-92692914D01*
X122385714Y-92692914D02*
X122433333Y-92597676D01*
X122433333Y-92597676D02*
X122528571Y-92502438D01*
X122528571Y-92502438D02*
X122671428Y-92454819D01*
X122671428Y-92454819D02*
X122766666Y-92454819D01*
X122766666Y-92454819D02*
X122909523Y-92502438D01*
X122909523Y-92502438D02*
X122957142Y-92550057D01*
X123909523Y-93454819D02*
X123338095Y-93454819D01*
X123623809Y-93454819D02*
X123623809Y-92454819D01*
X123623809Y-92454819D02*
X123528571Y-92597676D01*
X123528571Y-92597676D02*
X123433333Y-92692914D01*
X123433333Y-92692914D02*
X123338095Y-92740533D01*
X124480952Y-92883390D02*
X124385714Y-92835771D01*
X124385714Y-92835771D02*
X124338095Y-92788152D01*
X124338095Y-92788152D02*
X124290476Y-92692914D01*
X124290476Y-92692914D02*
X124290476Y-92645295D01*
X124290476Y-92645295D02*
X124338095Y-92550057D01*
X124338095Y-92550057D02*
X124385714Y-92502438D01*
X124385714Y-92502438D02*
X124480952Y-92454819D01*
X124480952Y-92454819D02*
X124671428Y-92454819D01*
X124671428Y-92454819D02*
X124766666Y-92502438D01*
X124766666Y-92502438D02*
X124814285Y-92550057D01*
X124814285Y-92550057D02*
X124861904Y-92645295D01*
X124861904Y-92645295D02*
X124861904Y-92692914D01*
X124861904Y-92692914D02*
X124814285Y-92788152D01*
X124814285Y-92788152D02*
X124766666Y-92835771D01*
X124766666Y-92835771D02*
X124671428Y-92883390D01*
X124671428Y-92883390D02*
X124480952Y-92883390D01*
X124480952Y-92883390D02*
X124385714Y-92931009D01*
X124385714Y-92931009D02*
X124338095Y-92978628D01*
X124338095Y-92978628D02*
X124290476Y-93073866D01*
X124290476Y-93073866D02*
X124290476Y-93264342D01*
X124290476Y-93264342D02*
X124338095Y-93359580D01*
X124338095Y-93359580D02*
X124385714Y-93407200D01*
X124385714Y-93407200D02*
X124480952Y-93454819D01*
X124480952Y-93454819D02*
X124671428Y-93454819D01*
X124671428Y-93454819D02*
X124766666Y-93407200D01*
X124766666Y-93407200D02*
X124814285Y-93359580D01*
X124814285Y-93359580D02*
X124861904Y-93264342D01*
X124861904Y-93264342D02*
X124861904Y-93073866D01*
X124861904Y-93073866D02*
X124814285Y-92978628D01*
X124814285Y-92978628D02*
X124766666Y-92931009D01*
X124766666Y-92931009D02*
X124671428Y-92883390D01*
X127054819Y-89166666D02*
X126578628Y-89499999D01*
X127054819Y-89738094D02*
X126054819Y-89738094D01*
X126054819Y-89738094D02*
X126054819Y-89357142D01*
X126054819Y-89357142D02*
X126102438Y-89261904D01*
X126102438Y-89261904D02*
X126150057Y-89214285D01*
X126150057Y-89214285D02*
X126245295Y-89166666D01*
X126245295Y-89166666D02*
X126388152Y-89166666D01*
X126388152Y-89166666D02*
X126483390Y-89214285D01*
X126483390Y-89214285D02*
X126531009Y-89261904D01*
X126531009Y-89261904D02*
X126578628Y-89357142D01*
X126578628Y-89357142D02*
X126578628Y-89738094D01*
X126483390Y-88595237D02*
X126435771Y-88690475D01*
X126435771Y-88690475D02*
X126388152Y-88738094D01*
X126388152Y-88738094D02*
X126292914Y-88785713D01*
X126292914Y-88785713D02*
X126245295Y-88785713D01*
X126245295Y-88785713D02*
X126150057Y-88738094D01*
X126150057Y-88738094D02*
X126102438Y-88690475D01*
X126102438Y-88690475D02*
X126054819Y-88595237D01*
X126054819Y-88595237D02*
X126054819Y-88404761D01*
X126054819Y-88404761D02*
X126102438Y-88309523D01*
X126102438Y-88309523D02*
X126150057Y-88261904D01*
X126150057Y-88261904D02*
X126245295Y-88214285D01*
X126245295Y-88214285D02*
X126292914Y-88214285D01*
X126292914Y-88214285D02*
X126388152Y-88261904D01*
X126388152Y-88261904D02*
X126435771Y-88309523D01*
X126435771Y-88309523D02*
X126483390Y-88404761D01*
X126483390Y-88404761D02*
X126483390Y-88595237D01*
X126483390Y-88595237D02*
X126531009Y-88690475D01*
X126531009Y-88690475D02*
X126578628Y-88738094D01*
X126578628Y-88738094D02*
X126673866Y-88785713D01*
X126673866Y-88785713D02*
X126864342Y-88785713D01*
X126864342Y-88785713D02*
X126959580Y-88738094D01*
X126959580Y-88738094D02*
X127007200Y-88690475D01*
X127007200Y-88690475D02*
X127054819Y-88595237D01*
X127054819Y-88595237D02*
X127054819Y-88404761D01*
X127054819Y-88404761D02*
X127007200Y-88309523D01*
X127007200Y-88309523D02*
X126959580Y-88261904D01*
X126959580Y-88261904D02*
X126864342Y-88214285D01*
X126864342Y-88214285D02*
X126673866Y-88214285D01*
X126673866Y-88214285D02*
X126578628Y-88261904D01*
X126578628Y-88261904D02*
X126531009Y-88309523D01*
X126531009Y-88309523D02*
X126483390Y-88404761D01*
X157438095Y-94054819D02*
X157438095Y-93054819D01*
X157438095Y-93531009D02*
X158009523Y-93531009D01*
X158009523Y-94054819D02*
X158009523Y-93054819D01*
X158914285Y-93388152D02*
X158914285Y-94054819D01*
X158676190Y-93007200D02*
X158438095Y-93721485D01*
X158438095Y-93721485D02*
X159057142Y-93721485D01*
X89338095Y-58454819D02*
X89338095Y-57454819D01*
X89338095Y-57931009D02*
X89909523Y-57931009D01*
X89909523Y-58454819D02*
X89909523Y-57454819D01*
X90909523Y-58454819D02*
X90338095Y-58454819D01*
X90623809Y-58454819D02*
X90623809Y-57454819D01*
X90623809Y-57454819D02*
X90528571Y-57597676D01*
X90528571Y-57597676D02*
X90433333Y-57692914D01*
X90433333Y-57692914D02*
X90338095Y-57740533D01*
X118257142Y-82859580D02*
X118209523Y-82907200D01*
X118209523Y-82907200D02*
X118066666Y-82954819D01*
X118066666Y-82954819D02*
X117971428Y-82954819D01*
X117971428Y-82954819D02*
X117828571Y-82907200D01*
X117828571Y-82907200D02*
X117733333Y-82811961D01*
X117733333Y-82811961D02*
X117685714Y-82716723D01*
X117685714Y-82716723D02*
X117638095Y-82526247D01*
X117638095Y-82526247D02*
X117638095Y-82383390D01*
X117638095Y-82383390D02*
X117685714Y-82192914D01*
X117685714Y-82192914D02*
X117733333Y-82097676D01*
X117733333Y-82097676D02*
X117828571Y-82002438D01*
X117828571Y-82002438D02*
X117971428Y-81954819D01*
X117971428Y-81954819D02*
X118066666Y-81954819D01*
X118066666Y-81954819D02*
X118209523Y-82002438D01*
X118209523Y-82002438D02*
X118257142Y-82050057D01*
X118638095Y-82050057D02*
X118685714Y-82002438D01*
X118685714Y-82002438D02*
X118780952Y-81954819D01*
X118780952Y-81954819D02*
X119019047Y-81954819D01*
X119019047Y-81954819D02*
X119114285Y-82002438D01*
X119114285Y-82002438D02*
X119161904Y-82050057D01*
X119161904Y-82050057D02*
X119209523Y-82145295D01*
X119209523Y-82145295D02*
X119209523Y-82240533D01*
X119209523Y-82240533D02*
X119161904Y-82383390D01*
X119161904Y-82383390D02*
X118590476Y-82954819D01*
X118590476Y-82954819D02*
X119209523Y-82954819D01*
X120066666Y-81954819D02*
X119876190Y-81954819D01*
X119876190Y-81954819D02*
X119780952Y-82002438D01*
X119780952Y-82002438D02*
X119733333Y-82050057D01*
X119733333Y-82050057D02*
X119638095Y-82192914D01*
X119638095Y-82192914D02*
X119590476Y-82383390D01*
X119590476Y-82383390D02*
X119590476Y-82764342D01*
X119590476Y-82764342D02*
X119638095Y-82859580D01*
X119638095Y-82859580D02*
X119685714Y-82907200D01*
X119685714Y-82907200D02*
X119780952Y-82954819D01*
X119780952Y-82954819D02*
X119971428Y-82954819D01*
X119971428Y-82954819D02*
X120066666Y-82907200D01*
X120066666Y-82907200D02*
X120114285Y-82859580D01*
X120114285Y-82859580D02*
X120161904Y-82764342D01*
X120161904Y-82764342D02*
X120161904Y-82526247D01*
X120161904Y-82526247D02*
X120114285Y-82431009D01*
X120114285Y-82431009D02*
X120066666Y-82383390D01*
X120066666Y-82383390D02*
X119971428Y-82335771D01*
X119971428Y-82335771D02*
X119780952Y-82335771D01*
X119780952Y-82335771D02*
X119685714Y-82383390D01*
X119685714Y-82383390D02*
X119638095Y-82431009D01*
X119638095Y-82431009D02*
X119590476Y-82526247D01*
X89066666Y-76104819D02*
X89066666Y-76819104D01*
X89066666Y-76819104D02*
X89019047Y-76961961D01*
X89019047Y-76961961D02*
X88923809Y-77057200D01*
X88923809Y-77057200D02*
X88780952Y-77104819D01*
X88780952Y-77104819D02*
X88685714Y-77104819D01*
X89447619Y-76104819D02*
X90114285Y-76104819D01*
X90114285Y-76104819D02*
X89685714Y-77104819D01*
X123479580Y-73992857D02*
X123527200Y-74040476D01*
X123527200Y-74040476D02*
X123574819Y-74183333D01*
X123574819Y-74183333D02*
X123574819Y-74278571D01*
X123574819Y-74278571D02*
X123527200Y-74421428D01*
X123527200Y-74421428D02*
X123431961Y-74516666D01*
X123431961Y-74516666D02*
X123336723Y-74564285D01*
X123336723Y-74564285D02*
X123146247Y-74611904D01*
X123146247Y-74611904D02*
X123003390Y-74611904D01*
X123003390Y-74611904D02*
X122812914Y-74564285D01*
X122812914Y-74564285D02*
X122717676Y-74516666D01*
X122717676Y-74516666D02*
X122622438Y-74421428D01*
X122622438Y-74421428D02*
X122574819Y-74278571D01*
X122574819Y-74278571D02*
X122574819Y-74183333D01*
X122574819Y-74183333D02*
X122622438Y-74040476D01*
X122622438Y-74040476D02*
X122670057Y-73992857D01*
X122670057Y-73611904D02*
X122622438Y-73564285D01*
X122622438Y-73564285D02*
X122574819Y-73469047D01*
X122574819Y-73469047D02*
X122574819Y-73230952D01*
X122574819Y-73230952D02*
X122622438Y-73135714D01*
X122622438Y-73135714D02*
X122670057Y-73088095D01*
X122670057Y-73088095D02*
X122765295Y-73040476D01*
X122765295Y-73040476D02*
X122860533Y-73040476D01*
X122860533Y-73040476D02*
X123003390Y-73088095D01*
X123003390Y-73088095D02*
X123574819Y-73659523D01*
X123574819Y-73659523D02*
X123574819Y-73040476D01*
X123574819Y-72088095D02*
X123574819Y-72659523D01*
X123574819Y-72373809D02*
X122574819Y-72373809D01*
X122574819Y-72373809D02*
X122717676Y-72469047D01*
X122717676Y-72469047D02*
X122812914Y-72564285D01*
X122812914Y-72564285D02*
X122860533Y-72659523D01*
X110035980Y-64617466D02*
X110083600Y-64665085D01*
X110083600Y-64665085D02*
X110131219Y-64807942D01*
X110131219Y-64807942D02*
X110131219Y-64903180D01*
X110131219Y-64903180D02*
X110083600Y-65046037D01*
X110083600Y-65046037D02*
X109988361Y-65141275D01*
X109988361Y-65141275D02*
X109893123Y-65188894D01*
X109893123Y-65188894D02*
X109702647Y-65236513D01*
X109702647Y-65236513D02*
X109559790Y-65236513D01*
X109559790Y-65236513D02*
X109369314Y-65188894D01*
X109369314Y-65188894D02*
X109274076Y-65141275D01*
X109274076Y-65141275D02*
X109178838Y-65046037D01*
X109178838Y-65046037D02*
X109131219Y-64903180D01*
X109131219Y-64903180D02*
X109131219Y-64807942D01*
X109131219Y-64807942D02*
X109178838Y-64665085D01*
X109178838Y-64665085D02*
X109226457Y-64617466D01*
X110131219Y-63665085D02*
X110131219Y-64236513D01*
X110131219Y-63950799D02*
X109131219Y-63950799D01*
X109131219Y-63950799D02*
X109274076Y-64046037D01*
X109274076Y-64046037D02*
X109369314Y-64141275D01*
X109369314Y-64141275D02*
X109416933Y-64236513D01*
X126959580Y-87342857D02*
X127007200Y-87390476D01*
X127007200Y-87390476D02*
X127054819Y-87533333D01*
X127054819Y-87533333D02*
X127054819Y-87628571D01*
X127054819Y-87628571D02*
X127007200Y-87771428D01*
X127007200Y-87771428D02*
X126911961Y-87866666D01*
X126911961Y-87866666D02*
X126816723Y-87914285D01*
X126816723Y-87914285D02*
X126626247Y-87961904D01*
X126626247Y-87961904D02*
X126483390Y-87961904D01*
X126483390Y-87961904D02*
X126292914Y-87914285D01*
X126292914Y-87914285D02*
X126197676Y-87866666D01*
X126197676Y-87866666D02*
X126102438Y-87771428D01*
X126102438Y-87771428D02*
X126054819Y-87628571D01*
X126054819Y-87628571D02*
X126054819Y-87533333D01*
X126054819Y-87533333D02*
X126102438Y-87390476D01*
X126102438Y-87390476D02*
X126150057Y-87342857D01*
X127054819Y-86390476D02*
X127054819Y-86961904D01*
X127054819Y-86676190D02*
X126054819Y-86676190D01*
X126054819Y-86676190D02*
X126197676Y-86771428D01*
X126197676Y-86771428D02*
X126292914Y-86866666D01*
X126292914Y-86866666D02*
X126340533Y-86961904D01*
X126388152Y-85533333D02*
X127054819Y-85533333D01*
X126007200Y-85771428D02*
X126721485Y-86009523D01*
X126721485Y-86009523D02*
X126721485Y-85390476D01*
X127054819Y-91166666D02*
X126578628Y-91499999D01*
X127054819Y-91738094D02*
X126054819Y-91738094D01*
X126054819Y-91738094D02*
X126054819Y-91357142D01*
X126054819Y-91357142D02*
X126102438Y-91261904D01*
X126102438Y-91261904D02*
X126150057Y-91214285D01*
X126150057Y-91214285D02*
X126245295Y-91166666D01*
X126245295Y-91166666D02*
X126388152Y-91166666D01*
X126388152Y-91166666D02*
X126483390Y-91214285D01*
X126483390Y-91214285D02*
X126531009Y-91261904D01*
X126531009Y-91261904D02*
X126578628Y-91357142D01*
X126578628Y-91357142D02*
X126578628Y-91738094D01*
X127054819Y-90690475D02*
X127054819Y-90499999D01*
X127054819Y-90499999D02*
X127007200Y-90404761D01*
X127007200Y-90404761D02*
X126959580Y-90357142D01*
X126959580Y-90357142D02*
X126816723Y-90261904D01*
X126816723Y-90261904D02*
X126626247Y-90214285D01*
X126626247Y-90214285D02*
X126245295Y-90214285D01*
X126245295Y-90214285D02*
X126150057Y-90261904D01*
X126150057Y-90261904D02*
X126102438Y-90309523D01*
X126102438Y-90309523D02*
X126054819Y-90404761D01*
X126054819Y-90404761D02*
X126054819Y-90595237D01*
X126054819Y-90595237D02*
X126102438Y-90690475D01*
X126102438Y-90690475D02*
X126150057Y-90738094D01*
X126150057Y-90738094D02*
X126245295Y-90785713D01*
X126245295Y-90785713D02*
X126483390Y-90785713D01*
X126483390Y-90785713D02*
X126578628Y-90738094D01*
X126578628Y-90738094D02*
X126626247Y-90690475D01*
X126626247Y-90690475D02*
X126673866Y-90595237D01*
X126673866Y-90595237D02*
X126673866Y-90404761D01*
X126673866Y-90404761D02*
X126626247Y-90309523D01*
X126626247Y-90309523D02*
X126578628Y-90261904D01*
X126578628Y-90261904D02*
X126483390Y-90214285D01*
X117259580Y-82942857D02*
X117307200Y-82990476D01*
X117307200Y-82990476D02*
X117354819Y-83133333D01*
X117354819Y-83133333D02*
X117354819Y-83228571D01*
X117354819Y-83228571D02*
X117307200Y-83371428D01*
X117307200Y-83371428D02*
X117211961Y-83466666D01*
X117211961Y-83466666D02*
X117116723Y-83514285D01*
X117116723Y-83514285D02*
X116926247Y-83561904D01*
X116926247Y-83561904D02*
X116783390Y-83561904D01*
X116783390Y-83561904D02*
X116592914Y-83514285D01*
X116592914Y-83514285D02*
X116497676Y-83466666D01*
X116497676Y-83466666D02*
X116402438Y-83371428D01*
X116402438Y-83371428D02*
X116354819Y-83228571D01*
X116354819Y-83228571D02*
X116354819Y-83133333D01*
X116354819Y-83133333D02*
X116402438Y-82990476D01*
X116402438Y-82990476D02*
X116450057Y-82942857D01*
X116450057Y-82561904D02*
X116402438Y-82514285D01*
X116402438Y-82514285D02*
X116354819Y-82419047D01*
X116354819Y-82419047D02*
X116354819Y-82180952D01*
X116354819Y-82180952D02*
X116402438Y-82085714D01*
X116402438Y-82085714D02*
X116450057Y-82038095D01*
X116450057Y-82038095D02*
X116545295Y-81990476D01*
X116545295Y-81990476D02*
X116640533Y-81990476D01*
X116640533Y-81990476D02*
X116783390Y-82038095D01*
X116783390Y-82038095D02*
X117354819Y-82609523D01*
X117354819Y-82609523D02*
X117354819Y-81990476D01*
X116354819Y-81657142D02*
X116354819Y-80990476D01*
X116354819Y-80990476D02*
X117354819Y-81419047D01*
D11*
%TO.C,R5*%
X140955500Y-68088724D02*
X140955500Y-67579276D01*
X142000500Y-68088724D02*
X142000500Y-67579276D01*
%TO.C,J1*%
X98318400Y-61301200D02*
X85974000Y-61301200D01*
X98318400Y-61301200D02*
X98318400Y-71861000D01*
X88945800Y-61301200D02*
X88945800Y-71753200D01*
X85974000Y-61301200D02*
X85974000Y-71861000D01*
X91300000Y-71875000D02*
X90300000Y-71875000D01*
X98318400Y-71861000D02*
X96878400Y-71861000D01*
X93820000Y-71880000D02*
X92780000Y-71880000D01*
X88820000Y-71880000D02*
X85974000Y-71861000D01*
D12*
X88646869Y-64400000D02*
G75*
G02*
X86552331Y-64400000I-1047269J0D01*
G01*
X86552331Y-64400000D02*
G75*
G02*
X88646869Y-64400000I1047269J0D01*
G01*
X88666401Y-66940000D02*
G75*
G02*
X86571863Y-66940000I-1047269J0D01*
G01*
X86571863Y-66940000D02*
G75*
G02*
X88666401Y-66940000I1047269J0D01*
G01*
X88697669Y-69454600D02*
G75*
G02*
X86603131Y-69454600I-1047269J0D01*
G01*
X86603131Y-69454600D02*
G75*
G02*
X88697669Y-69454600I1047269J0D01*
G01*
D11*
%TO.C,R6*%
X138695276Y-80252500D02*
X139204724Y-80252500D01*
X138695276Y-79207500D02*
X139204724Y-79207500D01*
%TO.C,Q1*%
X133000000Y-89910000D02*
X133650000Y-89910000D01*
X133000000Y-89910000D02*
X132350000Y-89910000D01*
X133000000Y-86790000D02*
X133650000Y-86790000D01*
X133000000Y-86790000D02*
X132350000Y-86790000D01*
X134402500Y-90190000D02*
X133922500Y-90190000D01*
X134162500Y-89860000D01*
X134402500Y-90190000D01*
G36*
X134402500Y-90190000D02*
G01*
X133922500Y-90190000D01*
X134162500Y-89860000D01*
X134402500Y-90190000D01*
G37*
%TO.C,Q2*%
X133050000Y-83327500D02*
X132400000Y-83327500D01*
X133050000Y-83327500D02*
X133700000Y-83327500D01*
X133050000Y-86447500D02*
X132400000Y-86447500D01*
X133050000Y-86447500D02*
X133700000Y-86447500D01*
X131887500Y-83377500D02*
X131647500Y-83047500D01*
X132127500Y-83047500D01*
X131887500Y-83377500D01*
G36*
X131887500Y-83377500D02*
G01*
X131647500Y-83047500D01*
X132127500Y-83047500D01*
X131887500Y-83377500D01*
G37*
%TO.C,R4*%
X125832776Y-60177500D02*
X126342224Y-60177500D01*
X125832776Y-61222500D02*
X126342224Y-61222500D01*
%TO.C,R3*%
X104867224Y-61722500D02*
X104357776Y-61722500D01*
X104867224Y-60677500D02*
X104357776Y-60677500D01*
%TO.C,U7*%
X131800000Y-56690000D02*
X135560000Y-56690000D01*
X131800000Y-63510000D02*
X135560000Y-63510000D01*
X135560000Y-56690000D02*
X135560000Y-57950000D01*
X135560000Y-63510000D02*
X135560000Y-62250000D01*
X130520000Y-56790000D02*
X130280000Y-56460000D01*
X130760000Y-56460000D01*
X130520000Y-56790000D01*
G36*
X130520000Y-56790000D02*
G01*
X130280000Y-56460000D01*
X130760000Y-56460000D01*
X130520000Y-56790000D01*
G37*
%TO.C,U6*%
X111800000Y-56790000D02*
X115560000Y-56790000D01*
X111800000Y-63610000D02*
X115560000Y-63610000D01*
X115560000Y-56790000D02*
X115560000Y-58050000D01*
X115560000Y-63610000D02*
X115560000Y-62350000D01*
X110520000Y-56890000D02*
X110280000Y-56560000D01*
X110760000Y-56560000D01*
X110520000Y-56890000D01*
G36*
X110520000Y-56890000D02*
G01*
X110280000Y-56560000D01*
X110760000Y-56560000D01*
X110520000Y-56890000D01*
G37*
%TO.C,R20*%
X131227500Y-91954724D02*
X131227500Y-91445276D01*
X132272500Y-91954724D02*
X132272500Y-91445276D01*
%TO.C,R19*%
X135272500Y-91495276D02*
X135272500Y-92004724D01*
X134227500Y-91495276D02*
X134227500Y-92004724D01*
%TO.C,R17*%
X106677500Y-59367224D02*
X106677500Y-58857776D01*
X107722500Y-59367224D02*
X107722500Y-58857776D01*
%TO.C,R11*%
X115282224Y-88122500D02*
X114772776Y-88122500D01*
X115282224Y-87077500D02*
X114772776Y-87077500D01*
%TO.C,R10*%
X114782776Y-85577500D02*
X115292224Y-85577500D01*
X114782776Y-86622500D02*
X115292224Y-86622500D01*
%TO.C,R7*%
X132727500Y-91954724D02*
X132727500Y-91445276D01*
X133772500Y-91954724D02*
X133772500Y-91445276D01*
%TO.C,C31*%
X137521252Y-90875000D02*
X136998748Y-90875000D01*
X137521252Y-89405000D02*
X136998748Y-89405000D01*
%TO.C,C6*%
X104736252Y-59360000D02*
X103313748Y-59360000D01*
X104736252Y-56640000D02*
X103313748Y-56640000D01*
%TO.C,C5*%
X124813748Y-56840000D02*
X126236252Y-56840000D01*
X124813748Y-59560000D02*
X126236252Y-59560000D01*
%TO.C,C23*%
X106765000Y-72511252D02*
X106765000Y-71988748D01*
X108235000Y-72511252D02*
X108235000Y-71988748D01*
%TO.C,C7*%
X121660000Y-63863748D02*
X121660000Y-65286252D01*
X118940000Y-63863748D02*
X118940000Y-65286252D01*
%TO.C,C13*%
X114778748Y-88645000D02*
X115301252Y-88645000D01*
X114778748Y-90115000D02*
X115301252Y-90115000D01*
%TO.C,R15*%
X111264724Y-78732500D02*
X110755276Y-78732500D01*
X111264724Y-77687500D02*
X110755276Y-77687500D01*
%TO.C,C28*%
X112851252Y-81385000D02*
X112328748Y-81385000D01*
X112851252Y-79915000D02*
X112328748Y-79915000D01*
%TO.C,C20*%
X127388748Y-73565000D02*
X127911252Y-73565000D01*
X127388748Y-75035000D02*
X127911252Y-75035000D01*
%TO.C,C9*%
X137050000Y-80433733D02*
X137050000Y-80726267D01*
X136030000Y-80433733D02*
X136030000Y-80726267D01*
%TO.C,R13*%
X127277500Y-79767224D02*
X127277500Y-79257776D01*
X128322500Y-79767224D02*
X128322500Y-79257776D01*
%TO.C,C4*%
X151178248Y-75508000D02*
X148346752Y-75508000D01*
X151178248Y-70288000D02*
X148346752Y-70288000D01*
%TO.C,C29*%
X96535000Y-78388748D02*
X96535000Y-78911252D01*
X95065000Y-78388748D02*
X95065000Y-78911252D01*
%TO.C,C8*%
X128313748Y-65140000D02*
X129736252Y-65140000D01*
X128313748Y-67860000D02*
X129736252Y-67860000D01*
%TO.C,C15*%
X127277500Y-83067224D02*
X127277500Y-82557776D01*
X128322500Y-83067224D02*
X128322500Y-82557776D01*
%TO.C,U4*%
X123947500Y-80912500D02*
X123947500Y-80630000D01*
X123947500Y-75417500D02*
X123947500Y-75700000D01*
X121200000Y-80912500D02*
X123947500Y-80912500D01*
X121200000Y-80912500D02*
X118452500Y-80912500D01*
X121200000Y-75417500D02*
X123947500Y-75417500D01*
X121200000Y-75417500D02*
X118452500Y-75417500D01*
X118452500Y-80912500D02*
X118452500Y-80630000D01*
X118452500Y-75417500D02*
X118452500Y-75700000D01*
X124958750Y-80960000D02*
X124478750Y-80960000D01*
X124718750Y-80630000D01*
X124958750Y-80960000D01*
G36*
X124958750Y-80960000D02*
G01*
X124478750Y-80960000D01*
X124718750Y-80630000D01*
X124958750Y-80960000D01*
G37*
%TO.C,U5*%
X106547500Y-79652500D02*
X106547500Y-79370000D01*
X106547500Y-74157500D02*
X106547500Y-74440000D01*
X103800000Y-79652500D02*
X106547500Y-79652500D01*
X103800000Y-79652500D02*
X101052500Y-79652500D01*
X103800000Y-74157500D02*
X106547500Y-74157500D01*
X103800000Y-74157500D02*
X101052500Y-74157500D01*
X101052500Y-79652500D02*
X101052500Y-79370000D01*
X101052500Y-74157500D02*
X101052500Y-74440000D01*
X107558750Y-79700000D02*
X107078750Y-79700000D01*
X107318750Y-79370000D01*
X107558750Y-79700000D01*
G36*
X107558750Y-79700000D02*
G01*
X107078750Y-79700000D01*
X107318750Y-79370000D01*
X107558750Y-79700000D01*
G37*
%TO.C,C2*%
X135140000Y-68136252D02*
X135140000Y-66713748D01*
X137860000Y-68136252D02*
X137860000Y-66713748D01*
%TO.C,C30*%
X98635000Y-79888748D02*
X98635000Y-80411252D01*
X97165000Y-79888748D02*
X97165000Y-80411252D01*
%TO.C,C3*%
X151178248Y-84906000D02*
X148346752Y-84906000D01*
X151178248Y-79686000D02*
X148346752Y-79686000D01*
%TO.C,J6*%
X133213000Y-73158000D02*
X133213000Y-76058000D01*
X135118000Y-71253000D02*
X138018000Y-71253000D01*
X135118000Y-77963000D02*
X138018000Y-77963000D01*
X139923000Y-73158000D02*
X139923000Y-76058000D01*
%TO.C,C19*%
X115311252Y-92635000D02*
X114788748Y-92635000D01*
X115311252Y-91165000D02*
X114788748Y-91165000D01*
%TO.C,C12*%
X128746267Y-92910000D02*
X128453733Y-92910000D01*
X128746267Y-91890000D02*
X128453733Y-91890000D01*
%TO.C,R2*%
X158215000Y-71805436D02*
X158215000Y-72259564D01*
X156745000Y-71805436D02*
X156745000Y-72259564D01*
%TO.C,C17*%
X114767224Y-78122500D02*
X114257776Y-78122500D01*
X114767224Y-77077500D02*
X114257776Y-77077500D01*
%TO.C,C25*%
X124188748Y-83265000D02*
X124711252Y-83265000D01*
X124188748Y-84735000D02*
X124711252Y-84735000D01*
%TO.C,C22*%
X110088748Y-72165000D02*
X110611252Y-72165000D01*
X110088748Y-73635000D02*
X110611252Y-73635000D01*
%TO.C,U3*%
X118652500Y-85547500D02*
X118652500Y-85830000D01*
X118652500Y-91042500D02*
X118652500Y-90760000D01*
X121400000Y-85547500D02*
X118652500Y-85547500D01*
X121400000Y-85547500D02*
X124147500Y-85547500D01*
X121400000Y-91042500D02*
X118652500Y-91042500D01*
X121400000Y-91042500D02*
X124147500Y-91042500D01*
X124147500Y-85547500D02*
X124147500Y-85830000D01*
X124147500Y-91042500D02*
X124147500Y-90760000D01*
X117881250Y-85830000D02*
X117641250Y-85500000D01*
X118121250Y-85500000D01*
X117881250Y-85830000D01*
G36*
X117881250Y-85830000D02*
G01*
X117641250Y-85500000D01*
X118121250Y-85500000D01*
X117881250Y-85830000D01*
G37*
%TO.C,R12*%
X128967224Y-85922500D02*
X128457776Y-85922500D01*
X128967224Y-84877500D02*
X128457776Y-84877500D01*
%TO.C,R1*%
X155770000Y-81427064D02*
X155770000Y-77072936D01*
X159190000Y-81427064D02*
X159190000Y-77072936D01*
%TO.C,C18*%
X120188748Y-92165000D02*
X120711252Y-92165000D01*
X120188748Y-93635000D02*
X120711252Y-93635000D01*
%TO.C,R8*%
X128942224Y-89522500D02*
X128432776Y-89522500D01*
X128942224Y-88477500D02*
X128432776Y-88477500D01*
%TO.C,C26*%
X121311252Y-84735000D02*
X120788748Y-84735000D01*
X121311252Y-83265000D02*
X120788748Y-83265000D01*
%TO.C,J7*%
X86045000Y-79950000D02*
X86045000Y-82850000D01*
X87950000Y-78045000D02*
X90850000Y-78045000D01*
X87950000Y-84755000D02*
X90850000Y-84755000D01*
X92755000Y-79950000D02*
X92755000Y-82850000D01*
%TO.C,C21*%
X124065000Y-73611252D02*
X124065000Y-73088748D01*
X125535000Y-73611252D02*
X125535000Y-73088748D01*
%TO.C,C1*%
X107236252Y-65760000D02*
X105813748Y-65760000D01*
X107236252Y-63040000D02*
X105813748Y-63040000D01*
%TO.C,C14*%
X128967224Y-87522500D02*
X128457776Y-87522500D01*
X128967224Y-86477500D02*
X128457776Y-86477500D01*
%TO.C,R9*%
X128457776Y-90277500D02*
X128967224Y-90277500D01*
X128457776Y-91322500D02*
X128967224Y-91322500D01*
%TO.C,C27*%
X116035000Y-80888748D02*
X116035000Y-81411252D01*
X114565000Y-80888748D02*
X114565000Y-81411252D01*
%TD*%
%LPC*%
D13*
%TO.C,R5*%
X141478000Y-68746500D03*
X141478000Y-66921500D03*
%TD*%
D14*
%TO.C,J1*%
X95800000Y-64400000D03*
X90800000Y-64400000D03*
D15*
X95800000Y-66940000D03*
X90800000Y-66940000D03*
X95800000Y-69480000D03*
X90800000Y-69480000D03*
%TD*%
D16*
%TO.C,R6*%
X139862500Y-79730000D03*
X138037500Y-79730000D03*
%TD*%
D17*
%TO.C,Q1*%
X133937500Y-89300000D03*
X133937500Y-87400000D03*
X132062500Y-88350000D03*
%TD*%
D18*
%TO.C,Q2*%
X132112500Y-83937500D03*
X132112500Y-85837500D03*
X133987500Y-84887500D03*
%TD*%
D16*
%TO.C,R4*%
X125175000Y-60700000D03*
X127000000Y-60700000D03*
%TD*%
D19*
%TO.C,R3*%
X105525000Y-61200000D03*
X103700000Y-61200000D03*
%TD*%
D20*
%TO.C,U7*%
X130500000Y-57800000D03*
X130500000Y-60100000D03*
D21*
X136800000Y-60100000D03*
D20*
X130500000Y-62400000D03*
%TD*%
%TO.C,U6*%
X110500000Y-57900000D03*
X110500000Y-60200000D03*
D21*
X116800000Y-60200000D03*
D20*
X110500000Y-62500000D03*
%TD*%
D13*
%TO.C,R20*%
X131750000Y-92612500D03*
X131750000Y-90787500D03*
%TD*%
D22*
%TO.C,R19*%
X134750000Y-90837500D03*
X134750000Y-92662500D03*
%TD*%
D13*
%TO.C,R17*%
X107200000Y-60025000D03*
X107200000Y-58200000D03*
%TD*%
D19*
%TO.C,R11*%
X115940000Y-87600000D03*
X114115000Y-87600000D03*
%TD*%
D16*
%TO.C,R10*%
X114125000Y-86100000D03*
X115950000Y-86100000D03*
%TD*%
D13*
%TO.C,R7*%
X133250000Y-92612500D03*
X133250000Y-90787500D03*
%TD*%
D23*
%TO.C,C31*%
X138210000Y-90140000D03*
X136310000Y-90140000D03*
%TD*%
D24*
%TO.C,C6*%
X105500000Y-58000000D03*
X102550000Y-58000000D03*
%TD*%
D25*
%TO.C,C5*%
X124050000Y-58200000D03*
X127000000Y-58200000D03*
%TD*%
D26*
%TO.C,C23*%
X107500000Y-73200000D03*
X107500000Y-71300000D03*
%TD*%
D27*
%TO.C,C7*%
X120300000Y-63100000D03*
X120300000Y-66050000D03*
%TD*%
D28*
%TO.C,C13*%
X114090000Y-89380000D03*
X115990000Y-89380000D03*
%TD*%
D29*
%TO.C,H2*%
X87122000Y-91948000D03*
%TD*%
D19*
%TO.C,R15*%
X111922500Y-78210000D03*
X110097500Y-78210000D03*
%TD*%
D23*
%TO.C,C28*%
X113540000Y-80650000D03*
X111640000Y-80650000D03*
%TD*%
D30*
%TO.C,J2*%
X152908000Y-89154000D03*
%TD*%
D28*
%TO.C,C20*%
X126700000Y-74300000D03*
X128600000Y-74300000D03*
%TD*%
D31*
%TO.C,C9*%
X136540000Y-79717500D03*
X136540000Y-81442500D03*
%TD*%
D13*
%TO.C,R13*%
X127800000Y-80425000D03*
X127800000Y-78600000D03*
%TD*%
D32*
%TO.C,J4*%
X144100000Y-62140000D03*
%TD*%
D33*
%TO.C,C4*%
X152400000Y-72898000D03*
X147125000Y-72898000D03*
%TD*%
D34*
%TO.C,C29*%
X95800000Y-77700000D03*
X95800000Y-79600000D03*
%TD*%
D25*
%TO.C,C8*%
X127550000Y-66500000D03*
X130500000Y-66500000D03*
%TD*%
D13*
%TO.C,C15*%
X127800000Y-83725000D03*
X127800000Y-81900000D03*
%TD*%
D35*
%TO.C,U4*%
X124800000Y-80070000D03*
X124800000Y-78800000D03*
X124800000Y-77530000D03*
X124800000Y-76260000D03*
X117600000Y-76260000D03*
X117600000Y-77530000D03*
X117600000Y-78800000D03*
X117600000Y-80070000D03*
%TD*%
%TO.C,U5*%
X107400000Y-78810000D03*
X107400000Y-77540000D03*
X107400000Y-76270000D03*
X107400000Y-75000000D03*
X100200000Y-75000000D03*
X100200000Y-76270000D03*
X100200000Y-77540000D03*
X100200000Y-78810000D03*
%TD*%
D32*
%TO.C,J5*%
X137710000Y-84690000D03*
%TD*%
D36*
%TO.C,C2*%
X136500000Y-68900000D03*
X136500000Y-65950000D03*
%TD*%
D34*
%TO.C,C30*%
X97900000Y-79200000D03*
X97900000Y-81100000D03*
%TD*%
D33*
%TO.C,C3*%
X152400000Y-82296000D03*
X147125000Y-82296000D03*
%TD*%
D29*
%TO.C,H3*%
X161010600Y-57937400D03*
%TD*%
D37*
%TO.C,J6*%
X136568000Y-74608000D03*
D38*
X134028000Y-72068000D03*
X134028000Y-77148000D03*
X139108000Y-72068000D03*
X139108000Y-77148000D03*
%TD*%
D23*
%TO.C,C19*%
X116000000Y-91900000D03*
X114100000Y-91900000D03*
%TD*%
D32*
%TO.C,J3*%
X157590000Y-66060000D03*
%TD*%
D39*
%TO.C,C12*%
X129462500Y-92400000D03*
X127737500Y-92400000D03*
%TD*%
D40*
%TO.C,R2*%
X157480000Y-71120000D03*
X157480000Y-72945000D03*
%TD*%
D19*
%TO.C,C17*%
X115425000Y-77600000D03*
X113600000Y-77600000D03*
%TD*%
D28*
%TO.C,C25*%
X123500000Y-84000000D03*
X125400000Y-84000000D03*
%TD*%
%TO.C,C22*%
X109400000Y-72900000D03*
X111300000Y-72900000D03*
%TD*%
D41*
%TO.C,U3*%
X117800000Y-86390000D03*
X117800000Y-87660000D03*
X117800000Y-88930000D03*
X117800000Y-90200000D03*
X125000000Y-90200000D03*
X125000000Y-88930000D03*
X125000000Y-87660000D03*
X125000000Y-86390000D03*
%TD*%
D19*
%TO.C,R12*%
X129625000Y-85400000D03*
X127800000Y-85400000D03*
%TD*%
D42*
%TO.C,R1*%
X157480000Y-82300000D03*
X157480000Y-76200000D03*
%TD*%
D28*
%TO.C,C18*%
X119500000Y-92900000D03*
X121400000Y-92900000D03*
%TD*%
D19*
%TO.C,R8*%
X129600000Y-89000000D03*
X127775000Y-89000000D03*
%TD*%
D29*
%TO.C,H4*%
X161036000Y-91948000D03*
%TD*%
%TO.C,H1*%
X87122000Y-58166000D03*
%TD*%
D23*
%TO.C,C26*%
X122000000Y-84000000D03*
X120100000Y-84000000D03*
%TD*%
D37*
%TO.C,J7*%
X89400000Y-81400000D03*
D38*
X86860000Y-78860000D03*
X86860000Y-83940000D03*
X91940000Y-78860000D03*
X91940000Y-83940000D03*
%TD*%
D26*
%TO.C,C21*%
X124800000Y-74300000D03*
X124800000Y-72400000D03*
%TD*%
D24*
%TO.C,C1*%
X108000000Y-64400000D03*
X105050000Y-64400000D03*
%TD*%
D19*
%TO.C,C14*%
X129625000Y-87000000D03*
X127800000Y-87000000D03*
%TD*%
D16*
%TO.C,R9*%
X127800000Y-90800000D03*
X129625000Y-90800000D03*
%TD*%
D34*
%TO.C,C27*%
X115300000Y-80200000D03*
X115300000Y-82100000D03*
%TD*%
%LPD*%
M02*
