%TF.GenerationSoftware,KiCad,Pcbnew,8.0.1*%
%TF.CreationDate,2024-05-07T10:30:01+01:00*%
%TF.ProjectId,UoB TICSP,556f4220-5449-4435-9350-2e6b69636164,1*%
%TF.SameCoordinates,Original*%
%TF.FileFunction,Copper,L4,Bot*%
%TF.FilePolarity,Positive*%
%FSLAX46Y46*%
G04 Gerber Fmt 4.6, Leading zero omitted, Abs format (unit mm)*
G04 Created by KiCad (PCBNEW 8.0.1) date 2024-05-07 10:30:01*
%MOMM*%
%LPD*%
G01*
G04 APERTURE LIST*
G04 Aperture macros list*
%AMRoundRect*
0 Rectangle with rounded corners*
0 $1 Rounding radius*
0 $2 $3 $4 $5 $6 $7 $8 $9 X,Y pos of 4 corners*
0 Add a 4 corners polygon primitive as box body*
4,1,4,$2,$3,$4,$5,$6,$7,$8,$9,$2,$3,0*
0 Add four circle primitives for the rounded corners*
1,1,$1+$1,$2,$3*
1,1,$1+$1,$4,$5*
1,1,$1+$1,$6,$7*
1,1,$1+$1,$8,$9*
0 Add four rect primitives between the rounded corners*
20,1,$1+$1,$2,$3,$4,$5,0*
20,1,$1+$1,$4,$5,$6,$7,0*
20,1,$1+$1,$6,$7,$8,$9,0*
20,1,$1+$1,$8,$9,$2,$3,0*%
G04 Aperture macros list end*
%ADD10C,0.300000*%
%TA.AperFunction,NonConductor*%
%ADD11C,0.300000*%
%TD*%
%TA.AperFunction,ComponentPad*%
%ADD12R,3.000000X2.000000*%
%TD*%
%TA.AperFunction,ComponentPad*%
%ADD13O,3.000000X2.000000*%
%TD*%
%TA.AperFunction,SMDPad,CuDef*%
%ADD14RoundRect,0.237500X0.250000X0.237500X-0.250000X0.237500X-0.250000X-0.237500X0.250000X-0.237500X0*%
%TD*%
%TA.AperFunction,SMDPad,CuDef*%
%ADD15RoundRect,0.237500X-0.237500X0.250000X-0.237500X-0.250000X0.237500X-0.250000X0.237500X0.250000X0*%
%TD*%
%TA.AperFunction,SMDPad,CuDef*%
%ADD16RoundRect,0.237500X-0.237500X0.287500X-0.237500X-0.287500X0.237500X-0.287500X0.237500X0.287500X0*%
%TD*%
%TA.AperFunction,ComponentPad*%
%ADD17RoundRect,0.250002X1.699998X-1.699998X1.699998X1.699998X-1.699998X1.699998X-1.699998X-1.699998X0*%
%TD*%
%TA.AperFunction,ComponentPad*%
%ADD18RoundRect,0.250002X-1.699998X-1.699998X1.699998X-1.699998X1.699998X1.699998X-1.699998X1.699998X0*%
%TD*%
%TA.AperFunction,ComponentPad*%
%ADD19C,2.050000*%
%TD*%
%TA.AperFunction,ComponentPad*%
%ADD20C,2.250000*%
%TD*%
%TA.AperFunction,SMDPad,CuDef*%
%ADD21RoundRect,0.250000X-0.250000X-0.475000X0.250000X-0.475000X0.250000X0.475000X-0.250000X0.475000X0*%
%TD*%
%TA.AperFunction,SMDPad,CuDef*%
%ADD22RoundRect,0.250000X0.250000X0.475000X-0.250000X0.475000X-0.250000X-0.475000X0.250000X-0.475000X0*%
%TD*%
%TA.AperFunction,ViaPad*%
%ADD23C,0.800000*%
%TD*%
%TA.AperFunction,ViaPad*%
%ADD24C,1.800000*%
%TD*%
%TA.AperFunction,Conductor*%
%ADD25C,0.300000*%
%TD*%
%TA.AperFunction,Conductor*%
%ADD26C,0.250000*%
%TD*%
%TA.AperFunction,Conductor*%
%ADD27C,0.800000*%
%TD*%
%TA.AperFunction,Conductor*%
%ADD28C,0.400000*%
%TD*%
G04 APERTURE END LIST*
D10*
D11*
X108983081Y-93115114D02*
X109197367Y-93186542D01*
X109197367Y-93186542D02*
X109268796Y-93257971D01*
X109268796Y-93257971D02*
X109340224Y-93400828D01*
X109340224Y-93400828D02*
X109340224Y-93615114D01*
X109340224Y-93615114D02*
X109268796Y-93757971D01*
X109268796Y-93757971D02*
X109197367Y-93829400D01*
X109197367Y-93829400D02*
X109054510Y-93900828D01*
X109054510Y-93900828D02*
X108483081Y-93900828D01*
X108483081Y-93900828D02*
X108483081Y-92400828D01*
X108483081Y-92400828D02*
X108983081Y-92400828D01*
X108983081Y-92400828D02*
X109125939Y-92472257D01*
X109125939Y-92472257D02*
X109197367Y-92543685D01*
X109197367Y-92543685D02*
X109268796Y-92686542D01*
X109268796Y-92686542D02*
X109268796Y-92829400D01*
X109268796Y-92829400D02*
X109197367Y-92972257D01*
X109197367Y-92972257D02*
X109125939Y-93043685D01*
X109125939Y-93043685D02*
X108983081Y-93115114D01*
X108983081Y-93115114D02*
X108483081Y-93115114D01*
D12*
%TO.P,J1,1,Pin_1*%
%TO.N,/+12V*%
X95800000Y-64400000D03*
X90800000Y-64400000D03*
D13*
%TO.P,J1,2,Pin_2*%
%TO.N,GND*%
X95800000Y-66940000D03*
X90800000Y-66940000D03*
%TO.P,J1,3,Pin_3*%
%TO.N,/-9V*%
X95800000Y-69480000D03*
X90800000Y-69480000D03*
%TD*%
D14*
%TO.P,R21,1*%
%TO.N,/+10V*%
X133600000Y-89150000D03*
%TO.P,R21,2*%
%TO.N,Net-(L1-Pad1)*%
X131775000Y-89150000D03*
%TD*%
D15*
%TO.P,R18,1*%
%TO.N,Net-(U7-ADJ)*%
X127700000Y-59500000D03*
%TO.P,R18,2*%
%TO.N,/V-*%
X127700000Y-61325000D03*
%TD*%
D16*
%TO.P,L1,1*%
%TO.N,Net-(L1-Pad1)*%
X129800000Y-89125000D03*
%TO.P,L1,2*%
%TO.N,Net-(C10-Pad1)*%
X129800000Y-90875000D03*
%TD*%
D17*
%TO.P,J2,1,Pin_1*%
%TO.N,/detector_bias*%
X152908000Y-89154000D03*
%TD*%
D18*
%TO.P,J4,1,Pin_1*%
%TO.N,Net-(J4-Pin_1)*%
X144100000Y-62140000D03*
%TD*%
%TO.P,J5,1,Pin_1*%
%TO.N,/qin*%
X137710000Y-84690000D03*
%TD*%
D19*
%TO.P,J6,1,In*%
%TO.N,Net-(J6-In)*%
X136568000Y-74608000D03*
D20*
%TO.P,J6,2,Ext*%
%TO.N,GND*%
X134028000Y-72068000D03*
X134028000Y-77148000D03*
X139108000Y-72068000D03*
X139108000Y-77148000D03*
%TD*%
D18*
%TO.P,J3,1,Pin_1*%
%TO.N,/bias_in*%
X157590000Y-66060000D03*
%TD*%
D19*
%TO.P,J7,1,In*%
%TO.N,/vout*%
X89400000Y-81400000D03*
D20*
%TO.P,J7,2,Ext*%
%TO.N,GND*%
X86860000Y-78860000D03*
X86860000Y-83940000D03*
X91940000Y-78860000D03*
X91940000Y-83940000D03*
%TD*%
D14*
%TO.P,C16,1*%
%TO.N,Net-(U4--)*%
X122025000Y-78800000D03*
%TO.P,C16,2*%
%TO.N,Net-(C16-Pad2)*%
X120200000Y-78800000D03*
%TD*%
%TO.P,R14,1*%
%TO.N,Net-(U4--)*%
X122025000Y-77200000D03*
%TO.P,R14,2*%
%TO.N,Net-(C16-Pad2)*%
X120200000Y-77200000D03*
%TD*%
%TO.P,R16,1*%
%TO.N,Net-(U5--)*%
X104600000Y-76000000D03*
%TO.P,R16,2*%
%TO.N,/vout*%
X102775000Y-76000000D03*
%TD*%
D21*
%TO.P,C10,2*%
%TO.N,GND*%
X136200000Y-93550000D03*
%TO.P,C10,1*%
%TO.N,Net-(C10-Pad1)*%
X134300000Y-93550000D03*
%TD*%
D22*
%TO.P,C11,1*%
%TO.N,Net-(C10-Pad1)*%
X129600000Y-93000000D03*
%TO.P,C11,2*%
%TO.N,GND*%
X127700000Y-93000000D03*
%TD*%
D14*
%TO.P,C24,1*%
%TO.N,Net-(U5--)*%
X104600000Y-77600000D03*
%TO.P,C24,2*%
%TO.N,/vout*%
X102775000Y-77600000D03*
%TD*%
D23*
%TO.N,Net-(C10-Pad1)*%
X133200000Y-93700000D03*
D24*
%TO.N,/+10V*%
X135880000Y-88010000D03*
%TO.N,GND*%
X139800000Y-89700000D03*
X139200000Y-68900000D03*
X122600000Y-66800000D03*
%TO.N,/+10V*%
X122900000Y-63500000D03*
%TO.N,GND*%
X125800000Y-66500000D03*
%TO.N,/V-*%
X132100000Y-66400000D03*
X128300000Y-63000000D03*
%TO.N,GND*%
X123500000Y-60800000D03*
X122500000Y-58200000D03*
D23*
%TO.N,Net-(U7-ADJ)*%
X128600000Y-57800000D03*
D24*
%TO.N,GND*%
X103500000Y-64400000D03*
%TO.N,/+10V*%
X118900000Y-60200000D03*
%TO.N,GND*%
X102300000Y-61200000D03*
X101100000Y-58000000D03*
%TO.N,/+10V*%
X108600000Y-60200000D03*
%TO.N,GND*%
X109300000Y-76410000D03*
X145000000Y-72800000D03*
D23*
X132000000Y-83000000D03*
D24*
X113830000Y-83200000D03*
X112500000Y-91900000D03*
D23*
X123300000Y-72400000D03*
D24*
X123100000Y-92900000D03*
X99700000Y-81100000D03*
X110020000Y-80810000D03*
X143400000Y-68800000D03*
X126000000Y-93000000D03*
X145000000Y-82400000D03*
X125400000Y-82100000D03*
X111200000Y-74500000D03*
X118400000Y-84000000D03*
D23*
X129900000Y-74300000D03*
D24*
X137650000Y-93350000D03*
X109200000Y-71000000D03*
X96000000Y-81200000D03*
D23*
%TO.N,/+10V*%
X116310000Y-78800000D03*
%TO.N,Net-(C10-Pad1)*%
X130850000Y-93490000D03*
%TO.N,/+10V*%
X112850000Y-86090000D03*
X98600000Y-77600000D03*
X123400000Y-87417400D03*
D24*
X122000000Y-82400000D03*
D23*
%TO.N,/V-*%
X126500000Y-76300000D03*
X123300000Y-74300000D03*
X108900000Y-74500000D03*
X117800000Y-91300000D03*
D24*
X119800000Y-90810000D03*
D23*
%TO.N,Net-(U4--)*%
X123400000Y-78800000D03*
%TO.N,Net-(C16-Pad2)*%
X119100000Y-77500000D03*
%TO.N,Net-(U5--)*%
X105900000Y-77600000D03*
%TO.N,/vout*%
X101700000Y-76300000D03*
X94000000Y-81400000D03*
%TO.N,Net-(J6-In)*%
X136500000Y-78450000D03*
%TD*%
D25*
%TO.N,Net-(C10-Pad1)*%
X129600000Y-93000000D02*
X130850000Y-93490000D01*
D26*
%TO.N,Net-(J6-In)*%
X136568000Y-78382000D02*
X136500000Y-78450000D01*
X136568000Y-74608000D02*
X136568000Y-78382000D01*
D27*
%TO.N,/+10V*%
X134550000Y-89150000D02*
X133600000Y-89150000D01*
X135880000Y-88010000D02*
X134550000Y-89150000D01*
D26*
%TO.N,Net-(L1-Pad1)*%
X129825000Y-89150000D02*
X129800000Y-89125000D01*
X131775000Y-89150000D02*
X129825000Y-89150000D01*
%TO.N,Net-(C10-Pad1)*%
X133350000Y-93550000D02*
X133200000Y-93700000D01*
X134300000Y-93550000D02*
X133350000Y-93550000D01*
D27*
%TO.N,GND*%
X136200000Y-93550000D02*
X137450000Y-93550000D01*
X137450000Y-93550000D02*
X137650000Y-93350000D01*
D26*
%TO.N,Net-(C10-Pad1)*%
X129800000Y-92800000D02*
X129600000Y-93000000D01*
X129800000Y-90875000D02*
X129800000Y-92800000D01*
D27*
%TO.N,GND*%
X139600000Y-89900000D02*
X139800000Y-89700000D01*
%TO.N,/V-*%
X127700000Y-62400000D02*
X128300000Y-63000000D01*
X127700000Y-61325000D02*
X127700000Y-62400000D01*
D26*
%TO.N,Net-(U7-ADJ)*%
X128600000Y-58600000D02*
X127700000Y-59500000D01*
X128600000Y-57800000D02*
X128600000Y-58600000D01*
D28*
%TO.N,GND*%
X127700000Y-93000000D02*
X126000000Y-93000000D01*
D26*
%TO.N,Net-(U4--)*%
X122025000Y-77200000D02*
X122025000Y-78800000D01*
X122025000Y-78800000D02*
X123400000Y-78800000D01*
%TO.N,Net-(C16-Pad2)*%
X120200000Y-77200000D02*
X119400000Y-77200000D01*
X119400000Y-77200000D02*
X119100000Y-77500000D01*
X120200000Y-77200000D02*
X120200000Y-78800000D01*
%TO.N,Net-(U5--)*%
X104600000Y-77600000D02*
X105900000Y-77600000D01*
X104600000Y-76000000D02*
X104600000Y-77600000D01*
%TO.N,/vout*%
X89400000Y-81400000D02*
X94000000Y-81400000D01*
X102000000Y-76000000D02*
X101700000Y-76300000D01*
X102775000Y-76000000D02*
X102000000Y-76000000D01*
X102775000Y-76000000D02*
X102775000Y-77600000D01*
%TD*%
%TA.AperFunction,Conductor*%
%TO.N,/V-*%
G36*
X148011039Y-55899685D02*
G01*
X148056794Y-55952489D01*
X148068000Y-56004000D01*
X148068000Y-84536064D01*
X148048315Y-84603103D01*
X148039735Y-84614873D01*
X147795725Y-84911287D01*
X147673544Y-85092955D01*
X147617377Y-85176468D01*
X147566251Y-85252485D01*
X147566245Y-85252495D01*
X147370771Y-85614247D01*
X147211125Y-85993174D01*
X147211120Y-85993190D01*
X147088795Y-86385744D01*
X147088792Y-86385755D01*
X147004922Y-86788303D01*
X147004921Y-86788309D01*
X146960295Y-87197047D01*
X146960294Y-87197075D01*
X146957500Y-87289545D01*
X146957500Y-91018454D01*
X146960294Y-91110924D01*
X146960295Y-91110952D01*
X147004921Y-91519690D01*
X147004922Y-91519696D01*
X147088792Y-91922244D01*
X147088795Y-91922255D01*
X147211120Y-92314809D01*
X147211125Y-92314825D01*
X147370771Y-92693752D01*
X147437429Y-92817112D01*
X147566250Y-93055514D01*
X147705324Y-93262298D01*
X147793717Y-93393727D01*
X147795728Y-93396716D01*
X148019749Y-93668848D01*
X148039735Y-93693126D01*
X148067145Y-93757395D01*
X148068000Y-93771935D01*
X148068000Y-94110000D01*
X148048315Y-94177039D01*
X147995511Y-94222794D01*
X147944000Y-94234000D01*
X138974491Y-94234000D01*
X138907452Y-94214315D01*
X138861697Y-94161511D01*
X138851753Y-94092353D01*
X138870682Y-94042178D01*
X138874870Y-94035768D01*
X138885924Y-94018849D01*
X138979157Y-93806300D01*
X139036134Y-93581305D01*
X139037166Y-93568849D01*
X139055300Y-93350006D01*
X139055300Y-93349993D01*
X139036135Y-93118702D01*
X139036133Y-93118691D01*
X138979157Y-92893699D01*
X138885924Y-92681151D01*
X138758983Y-92486852D01*
X138758980Y-92486849D01*
X138758979Y-92486847D01*
X138601784Y-92316087D01*
X138601779Y-92316083D01*
X138601777Y-92316081D01*
X138418634Y-92173535D01*
X138418628Y-92173531D01*
X138214504Y-92063064D01*
X138214495Y-92063061D01*
X137994984Y-91987702D01*
X137823282Y-91959050D01*
X137766049Y-91949500D01*
X137533951Y-91949500D01*
X137488164Y-91957140D01*
X137305015Y-91987702D01*
X137085504Y-92063061D01*
X137085495Y-92063064D01*
X136881372Y-92173531D01*
X136704180Y-92311444D01*
X136639186Y-92337086D01*
X136609572Y-92335297D01*
X136609532Y-92335689D01*
X136500010Y-92324500D01*
X135899998Y-92324500D01*
X135899980Y-92324501D01*
X135797203Y-92335000D01*
X135797200Y-92335001D01*
X135630668Y-92390185D01*
X135630663Y-92390187D01*
X135481342Y-92482289D01*
X135357285Y-92606346D01*
X135355537Y-92609182D01*
X135353829Y-92610717D01*
X135352807Y-92612011D01*
X135352585Y-92611836D01*
X135303589Y-92655905D01*
X135234626Y-92667126D01*
X135170544Y-92639282D01*
X135144463Y-92609182D01*
X135142714Y-92606346D01*
X135018657Y-92482289D01*
X135018656Y-92482288D01*
X134869334Y-92390186D01*
X134702797Y-92335001D01*
X134702795Y-92335000D01*
X134600010Y-92324500D01*
X133999998Y-92324500D01*
X133999980Y-92324501D01*
X133897203Y-92335000D01*
X133897200Y-92335001D01*
X133730668Y-92390185D01*
X133730663Y-92390187D01*
X133581342Y-92482289D01*
X133457289Y-92606342D01*
X133374481Y-92740597D01*
X133322533Y-92787321D01*
X133268942Y-92799500D01*
X133105354Y-92799500D01*
X133072897Y-92806398D01*
X132920197Y-92838855D01*
X132920192Y-92838857D01*
X132747270Y-92915848D01*
X132747265Y-92915851D01*
X132594129Y-93027111D01*
X132467466Y-93167785D01*
X132372821Y-93331715D01*
X132372818Y-93331722D01*
X132315188Y-93509090D01*
X132314326Y-93511744D01*
X132294540Y-93700000D01*
X132314326Y-93888256D01*
X132314327Y-93888259D01*
X132373925Y-94071682D01*
X132375920Y-94141523D01*
X132339840Y-94201356D01*
X132277139Y-94232184D01*
X132255994Y-94234000D01*
X131670350Y-94234000D01*
X131603311Y-94214315D01*
X131557556Y-94161511D01*
X131547612Y-94092353D01*
X131576637Y-94028797D01*
X131578201Y-94027027D01*
X131582533Y-94022216D01*
X131677179Y-93858284D01*
X131735674Y-93678256D01*
X131755460Y-93490000D01*
X131735674Y-93301744D01*
X131677179Y-93121716D01*
X131582533Y-92957784D01*
X131455871Y-92817112D01*
X131455870Y-92817111D01*
X131302734Y-92705851D01*
X131302729Y-92705848D01*
X131129807Y-92628857D01*
X131129802Y-92628855D01*
X130984001Y-92597865D01*
X130944646Y-92589500D01*
X130755354Y-92589500D01*
X130750139Y-92590608D01*
X130680473Y-92585285D01*
X130624743Y-92543143D01*
X130600852Y-92478128D01*
X130600820Y-92478132D01*
X130600806Y-92478003D01*
X130600644Y-92477560D01*
X130600529Y-92475599D01*
X130600499Y-92475010D01*
X130600499Y-92474992D01*
X130597302Y-92443700D01*
X130589999Y-92372203D01*
X130589998Y-92372200D01*
X130577899Y-92335689D01*
X130534814Y-92205666D01*
X130514993Y-92173531D01*
X130443961Y-92058368D01*
X130425500Y-91993272D01*
X130425500Y-91859481D01*
X130445185Y-91792442D01*
X130484404Y-91753942D01*
X130485295Y-91753392D01*
X130498350Y-91745340D01*
X130620340Y-91623350D01*
X130710908Y-91476516D01*
X130765174Y-91312753D01*
X130775500Y-91211677D01*
X130775499Y-90538324D01*
X130775435Y-90537702D01*
X130765174Y-90437247D01*
X130742509Y-90368849D01*
X130710908Y-90273484D01*
X130620340Y-90126650D01*
X130581371Y-90087681D01*
X130547886Y-90026358D01*
X130552870Y-89956666D01*
X130581371Y-89912319D01*
X130620340Y-89873350D01*
X130644362Y-89834404D01*
X130696310Y-89787679D01*
X130749901Y-89775500D01*
X130828019Y-89775500D01*
X130895058Y-89795185D01*
X130933558Y-89834404D01*
X130942160Y-89848350D01*
X131064150Y-89970340D01*
X131210984Y-90060908D01*
X131374747Y-90115174D01*
X131475823Y-90125500D01*
X132074176Y-90125499D01*
X132074184Y-90125498D01*
X132074187Y-90125498D01*
X132129530Y-90119844D01*
X132175253Y-90115174D01*
X132339016Y-90060908D01*
X132485850Y-89970340D01*
X132599819Y-89856371D01*
X132661142Y-89822886D01*
X132730834Y-89827870D01*
X132775181Y-89856371D01*
X132889150Y-89970340D01*
X133035984Y-90060908D01*
X133199747Y-90115174D01*
X133300823Y-90125500D01*
X133899176Y-90125499D01*
X133899184Y-90125498D01*
X133899187Y-90125498D01*
X133954530Y-90119844D01*
X134000253Y-90115174D01*
X134164016Y-90060908D01*
X134164016Y-90060907D01*
X134170872Y-90058636D01*
X134171300Y-90059928D01*
X134213826Y-90050500D01*
X134510650Y-90050500D01*
X134520160Y-90050865D01*
X134525195Y-90051252D01*
X134569365Y-90054650D01*
X134592919Y-90051820D01*
X134596541Y-90051385D01*
X134611331Y-90050500D01*
X134638691Y-90050500D01*
X134687096Y-90040871D01*
X134696464Y-90039378D01*
X134745481Y-90033490D01*
X134771499Y-90024984D01*
X134785822Y-90021232D01*
X134812666Y-90015894D01*
X134858270Y-89997003D01*
X134867152Y-89993717D01*
X134914085Y-89978377D01*
X134937935Y-89964963D01*
X134951252Y-89958489D01*
X134976547Y-89948013D01*
X135017585Y-89920591D01*
X135025691Y-89915615D01*
X135068696Y-89891431D01*
X135068695Y-89891431D01*
X135068698Y-89891430D01*
X135089476Y-89873619D01*
X135101276Y-89864669D01*
X135124035Y-89849464D01*
X135158935Y-89814562D01*
X135165891Y-89808120D01*
X135292024Y-89700006D01*
X138394700Y-89700006D01*
X138413864Y-89931297D01*
X138413866Y-89931308D01*
X138470842Y-90156300D01*
X138564075Y-90368848D01*
X138691016Y-90563147D01*
X138691019Y-90563151D01*
X138691021Y-90563153D01*
X138848216Y-90733913D01*
X138848219Y-90733915D01*
X138848222Y-90733918D01*
X139031365Y-90876464D01*
X139031371Y-90876468D01*
X139031374Y-90876470D01*
X139235497Y-90986936D01*
X139327265Y-91018440D01*
X139455015Y-91062297D01*
X139455017Y-91062297D01*
X139455019Y-91062298D01*
X139683951Y-91100500D01*
X139683952Y-91100500D01*
X139916048Y-91100500D01*
X139916049Y-91100500D01*
X140144981Y-91062298D01*
X140364503Y-90986936D01*
X140568626Y-90876470D01*
X140751784Y-90733913D01*
X140908979Y-90563153D01*
X141035924Y-90368849D01*
X141129157Y-90156300D01*
X141186134Y-89931305D01*
X141186135Y-89931297D01*
X141205300Y-89700006D01*
X141205300Y-89699993D01*
X141186135Y-89468702D01*
X141186133Y-89468691D01*
X141129157Y-89243699D01*
X141035924Y-89031151D01*
X140908983Y-88836852D01*
X140908980Y-88836849D01*
X140908979Y-88836847D01*
X140751784Y-88666087D01*
X140751779Y-88666083D01*
X140751777Y-88666081D01*
X140568634Y-88523535D01*
X140568628Y-88523531D01*
X140364504Y-88413064D01*
X140364495Y-88413061D01*
X140144984Y-88337702D01*
X139973282Y-88309050D01*
X139916049Y-88299500D01*
X139683951Y-88299500D01*
X139638164Y-88307140D01*
X139455015Y-88337702D01*
X139235504Y-88413061D01*
X139235495Y-88413064D01*
X139031371Y-88523531D01*
X139031365Y-88523535D01*
X138848222Y-88666081D01*
X138848219Y-88666084D01*
X138691016Y-88836852D01*
X138564075Y-89031151D01*
X138470842Y-89243699D01*
X138413866Y-89468691D01*
X138413864Y-89468702D01*
X138394700Y-89699993D01*
X138394700Y-89700006D01*
X135292024Y-89700006D01*
X135607672Y-89429451D01*
X135671380Y-89400770D01*
X135708778Y-89401292D01*
X135763951Y-89410500D01*
X135763956Y-89410500D01*
X135996048Y-89410500D01*
X135996049Y-89410500D01*
X136224981Y-89372298D01*
X136444503Y-89296936D01*
X136648626Y-89186470D01*
X136831784Y-89043913D01*
X136988979Y-88873153D01*
X137115924Y-88678849D01*
X137209157Y-88466300D01*
X137266134Y-88241305D01*
X137266135Y-88241297D01*
X137285300Y-88010006D01*
X137285300Y-88009993D01*
X137266135Y-87778702D01*
X137266133Y-87778691D01*
X137209157Y-87553699D01*
X137115924Y-87341152D01*
X137115924Y-87341151D01*
X137110154Y-87332319D01*
X137089967Y-87265429D01*
X137109149Y-87198244D01*
X137161608Y-87152094D01*
X137213964Y-87140499D01*
X139460000Y-87140499D01*
X139460006Y-87140499D01*
X139562796Y-87129999D01*
X139729333Y-87074814D01*
X139754176Y-87059490D01*
X139804484Y-87028461D01*
X139869580Y-87010000D01*
X139870000Y-87010000D01*
X139885763Y-86991391D01*
X139886220Y-86987618D01*
X139912456Y-86948909D01*
X140002711Y-86858655D01*
X140094814Y-86709333D01*
X140149999Y-86542796D01*
X140160500Y-86440007D01*
X140160499Y-82939994D01*
X140149999Y-82837204D01*
X140094814Y-82670667D01*
X140002711Y-82521345D01*
X139881372Y-82400006D01*
X143594700Y-82400006D01*
X143613864Y-82631297D01*
X143613866Y-82631308D01*
X143670842Y-82856300D01*
X143764075Y-83068848D01*
X143891016Y-83263147D01*
X143891019Y-83263151D01*
X143891021Y-83263153D01*
X144048216Y-83433913D01*
X144048219Y-83433915D01*
X144048222Y-83433918D01*
X144231365Y-83576464D01*
X144231371Y-83576468D01*
X144231374Y-83576470D01*
X144435497Y-83686936D01*
X144549487Y-83726068D01*
X144655015Y-83762297D01*
X144655017Y-83762297D01*
X144655019Y-83762298D01*
X144883951Y-83800500D01*
X144883952Y-83800500D01*
X145116048Y-83800500D01*
X145116049Y-83800500D01*
X145344981Y-83762298D01*
X145564503Y-83686936D01*
X145768626Y-83576470D01*
X145951784Y-83433913D01*
X146108979Y-83263153D01*
X146235924Y-83068849D01*
X146329157Y-82856300D01*
X146386134Y-82631305D01*
X146386998Y-82620877D01*
X146405300Y-82400006D01*
X146405300Y-82399993D01*
X146386135Y-82168702D01*
X146386133Y-82168691D01*
X146329157Y-81943699D01*
X146235924Y-81731151D01*
X146108983Y-81536852D01*
X146108980Y-81536849D01*
X146108979Y-81536847D01*
X145951784Y-81366087D01*
X145951779Y-81366083D01*
X145951777Y-81366081D01*
X145768634Y-81223535D01*
X145768628Y-81223531D01*
X145564504Y-81113064D01*
X145564495Y-81113061D01*
X145344984Y-81037702D01*
X145173282Y-81009050D01*
X145116049Y-80999500D01*
X144883951Y-80999500D01*
X144838164Y-81007140D01*
X144655015Y-81037702D01*
X144435504Y-81113061D01*
X144435495Y-81113064D01*
X144231371Y-81223531D01*
X144231365Y-81223535D01*
X144048222Y-81366081D01*
X144048219Y-81366084D01*
X143891016Y-81536852D01*
X143764075Y-81731151D01*
X143670842Y-81943699D01*
X143613866Y-82168691D01*
X143613864Y-82168702D01*
X143594700Y-82399993D01*
X143594700Y-82400006D01*
X139881372Y-82400006D01*
X139878655Y-82397289D01*
X139771683Y-82331308D01*
X139729335Y-82305187D01*
X139729330Y-82305185D01*
X139727861Y-82304698D01*
X139562796Y-82250001D01*
X139562794Y-82250000D01*
X139460008Y-82239500D01*
X135960000Y-82239500D01*
X135959983Y-82239501D01*
X135857204Y-82250000D01*
X135857201Y-82250001D01*
X135690669Y-82305185D01*
X135690664Y-82305187D01*
X135541343Y-82397290D01*
X135417290Y-82521343D01*
X135325187Y-82670664D01*
X135325186Y-82670667D01*
X135270001Y-82837204D01*
X135270001Y-82837205D01*
X135270000Y-82837205D01*
X135259500Y-82939985D01*
X135259500Y-84115253D01*
X135239815Y-84182292D01*
X135187011Y-84228047D01*
X135132917Y-84239226D01*
X133250001Y-84200000D01*
X133250000Y-84200000D01*
X133037179Y-84455384D01*
X132979142Y-84494282D01*
X132941922Y-84500000D01*
X130900000Y-84500000D01*
X130634486Y-84721260D01*
X130570386Y-84749055D01*
X130555106Y-84750000D01*
X128800000Y-84750000D01*
X128800000Y-87550000D01*
X129050000Y-87800000D01*
X130199998Y-87800000D01*
X130200000Y-87800000D01*
X130500000Y-87550000D01*
X130500000Y-85974000D01*
X130519685Y-85906961D01*
X130572489Y-85861206D01*
X130624000Y-85850000D01*
X130899999Y-85850000D01*
X130900000Y-85850000D01*
X131398806Y-85305848D01*
X131413141Y-85290210D01*
X131472952Y-85254093D01*
X131504548Y-85250000D01*
X132983637Y-85250000D01*
X133050676Y-85269685D01*
X133086811Y-85305217D01*
X133124865Y-85362297D01*
X133250000Y-85550000D01*
X135137148Y-85575049D01*
X135203918Y-85595622D01*
X135248968Y-85649028D01*
X135259500Y-85699038D01*
X135259500Y-86439999D01*
X135259501Y-86440016D01*
X135270000Y-86542795D01*
X135270001Y-86542798D01*
X135294893Y-86617916D01*
X135297295Y-86687744D01*
X135261563Y-86747786D01*
X135236205Y-86765975D01*
X135111371Y-86833531D01*
X135111365Y-86833535D01*
X134928222Y-86976081D01*
X134928219Y-86976084D01*
X134771016Y-87146852D01*
X134644075Y-87341151D01*
X134550842Y-87553699D01*
X134493866Y-87778691D01*
X134493864Y-87778702D01*
X134477254Y-87979168D01*
X134452101Y-88044353D01*
X134434376Y-88063076D01*
X134264095Y-88209031D01*
X134200384Y-88237714D01*
X134144394Y-88232589D01*
X134000255Y-88184826D01*
X134000251Y-88184825D01*
X133899178Y-88174500D01*
X133300830Y-88174500D01*
X133300812Y-88174501D01*
X133199747Y-88184825D01*
X133035984Y-88239092D01*
X133035981Y-88239093D01*
X132889148Y-88329661D01*
X132775181Y-88443629D01*
X132713858Y-88477114D01*
X132644166Y-88472130D01*
X132599819Y-88443629D01*
X132485851Y-88329661D01*
X132485850Y-88329660D01*
X132394629Y-88273395D01*
X132339018Y-88239093D01*
X132339013Y-88239091D01*
X132319391Y-88232589D01*
X132175253Y-88184826D01*
X132175251Y-88184825D01*
X132074178Y-88174500D01*
X131475830Y-88174500D01*
X131475812Y-88174501D01*
X131374747Y-88184825D01*
X131210984Y-88239092D01*
X131210981Y-88239093D01*
X131064148Y-88329661D01*
X130942160Y-88451649D01*
X130942159Y-88451651D01*
X130933558Y-88465596D01*
X130881610Y-88512321D01*
X130828019Y-88524500D01*
X130780741Y-88524500D01*
X130713702Y-88504815D01*
X130675202Y-88465596D01*
X130666599Y-88451649D01*
X130620340Y-88376650D01*
X130498350Y-88254660D01*
X130351516Y-88164092D01*
X130187753Y-88109826D01*
X130187751Y-88109825D01*
X130086678Y-88099500D01*
X129513330Y-88099500D01*
X129513312Y-88099501D01*
X129412247Y-88109825D01*
X129248484Y-88164092D01*
X129248481Y-88164093D01*
X129101648Y-88254661D01*
X128979661Y-88376648D01*
X128889093Y-88523481D01*
X128889091Y-88523486D01*
X128841706Y-88666485D01*
X128801933Y-88723930D01*
X128737417Y-88750753D01*
X128668641Y-88738438D01*
X128617442Y-88690895D01*
X128600000Y-88627481D01*
X128600000Y-88200000D01*
X127400000Y-88200000D01*
X127399999Y-88200000D01*
X126800000Y-88799999D01*
X126800000Y-90048638D01*
X126780315Y-90115677D01*
X126763681Y-90136319D01*
X126136319Y-90763681D01*
X126074996Y-90797166D01*
X126048638Y-90800000D01*
X123754488Y-90800000D01*
X123687449Y-90780315D01*
X123663149Y-90759864D01*
X121400000Y-88295000D01*
X116800000Y-88300000D01*
X116800000Y-89500000D01*
X118300000Y-89500000D01*
X118777827Y-89308868D01*
X118823879Y-89300000D01*
X120548638Y-89300000D01*
X120615677Y-89319685D01*
X120636319Y-89336319D01*
X122676108Y-91376108D01*
X122709593Y-91437431D01*
X122704609Y-91507123D01*
X122662737Y-91563056D01*
X122628690Y-91581070D01*
X122535504Y-91613061D01*
X122535495Y-91613064D01*
X122331371Y-91723531D01*
X122331365Y-91723535D01*
X122148222Y-91866081D01*
X122148219Y-91866084D01*
X122148216Y-91866086D01*
X122148216Y-91866087D01*
X122112848Y-91904507D01*
X121991016Y-92036852D01*
X121864075Y-92231151D01*
X121770842Y-92443699D01*
X121713866Y-92668691D01*
X121713864Y-92668702D01*
X121694700Y-92899993D01*
X121694700Y-92900006D01*
X121713864Y-93131297D01*
X121713866Y-93131308D01*
X121770842Y-93356300D01*
X121864075Y-93568848D01*
X121991016Y-93763147D01*
X121991019Y-93763151D01*
X121991021Y-93763153D01*
X122148216Y-93933913D01*
X122148219Y-93933915D01*
X122148222Y-93933918D01*
X122248730Y-94012147D01*
X122289543Y-94068857D01*
X122293218Y-94138630D01*
X122258586Y-94199313D01*
X122196645Y-94231640D01*
X122172568Y-94234000D01*
X110121449Y-94234000D01*
X110054410Y-94214315D01*
X110008655Y-94161511D01*
X109997449Y-94110000D01*
X109997449Y-91900006D01*
X111094700Y-91900006D01*
X111113864Y-92131297D01*
X111113866Y-92131308D01*
X111170842Y-92356300D01*
X111264075Y-92568848D01*
X111391016Y-92763147D01*
X111391019Y-92763151D01*
X111391021Y-92763153D01*
X111548216Y-92933913D01*
X111548219Y-92933915D01*
X111548222Y-92933918D01*
X111731365Y-93076464D01*
X111731371Y-93076468D01*
X111731374Y-93076470D01*
X111935497Y-93186936D01*
X112049487Y-93226068D01*
X112155015Y-93262297D01*
X112155017Y-93262297D01*
X112155019Y-93262298D01*
X112383951Y-93300500D01*
X112383952Y-93300500D01*
X112616048Y-93300500D01*
X112616049Y-93300500D01*
X112844981Y-93262298D01*
X113064503Y-93186936D01*
X113268626Y-93076470D01*
X113295551Y-93055514D01*
X113421114Y-92957784D01*
X113451784Y-92933913D01*
X113608979Y-92763153D01*
X113613871Y-92755666D01*
X113646416Y-92705851D01*
X113735924Y-92568849D01*
X113829157Y-92356300D01*
X113886134Y-92131305D01*
X113889616Y-92089282D01*
X113905300Y-91900006D01*
X113905300Y-91899993D01*
X113886135Y-91668702D01*
X113886133Y-91668691D01*
X113829157Y-91443699D01*
X113735924Y-91231151D01*
X113608983Y-91036852D01*
X113608980Y-91036849D01*
X113608979Y-91036847D01*
X113451784Y-90866087D01*
X113451779Y-90866083D01*
X113451777Y-90866081D01*
X113268634Y-90723535D01*
X113268628Y-90723531D01*
X113064504Y-90613064D01*
X113064495Y-90613061D01*
X112844984Y-90537702D01*
X112673282Y-90509050D01*
X112616049Y-90499500D01*
X112383951Y-90499500D01*
X112338164Y-90507140D01*
X112155015Y-90537702D01*
X111935504Y-90613061D01*
X111935495Y-90613064D01*
X111731371Y-90723531D01*
X111731365Y-90723535D01*
X111548222Y-90866081D01*
X111548219Y-90866084D01*
X111548216Y-90866086D01*
X111548216Y-90866087D01*
X111538660Y-90876468D01*
X111391016Y-91036852D01*
X111264075Y-91231151D01*
X111170842Y-91443699D01*
X111113866Y-91668691D01*
X111113864Y-91668702D01*
X111094700Y-91899993D01*
X111094700Y-91900006D01*
X109997449Y-91900006D01*
X109997449Y-91743603D01*
X107827581Y-91743603D01*
X107827581Y-91976000D01*
X107807896Y-92043039D01*
X107755092Y-92088794D01*
X107703581Y-92100000D01*
X103900000Y-92100000D01*
X103900000Y-94110000D01*
X103880315Y-94177039D01*
X103827511Y-94222794D01*
X103776000Y-94234000D01*
X84960000Y-94234000D01*
X84892961Y-94214315D01*
X84847206Y-94161511D01*
X84836000Y-94110000D01*
X84836000Y-92073962D01*
X85521500Y-92073962D01*
X85549619Y-92251494D01*
X85560910Y-92322785D01*
X85638760Y-92562383D01*
X85717413Y-92716747D01*
X85741058Y-92763153D01*
X85753132Y-92786848D01*
X85901201Y-92990649D01*
X85901205Y-92990654D01*
X86079345Y-93168794D01*
X86079350Y-93168798D01*
X86208043Y-93262298D01*
X86283155Y-93316870D01*
X86395984Y-93374359D01*
X86507616Y-93431239D01*
X86507618Y-93431239D01*
X86507621Y-93431241D01*
X86747215Y-93509090D01*
X86996038Y-93548500D01*
X86996039Y-93548500D01*
X87247961Y-93548500D01*
X87247962Y-93548500D01*
X87496785Y-93509090D01*
X87736379Y-93431241D01*
X87960845Y-93316870D01*
X88164656Y-93168793D01*
X88342793Y-92990656D01*
X88490870Y-92786845D01*
X88605241Y-92562379D01*
X88683090Y-92322785D01*
X88722500Y-92073962D01*
X88722500Y-91822038D01*
X88683090Y-91573215D01*
X88605241Y-91333621D01*
X88605239Y-91333618D01*
X88605239Y-91333616D01*
X88543111Y-91211684D01*
X88490870Y-91109155D01*
X88471952Y-91083117D01*
X88342798Y-90905350D01*
X88342794Y-90905345D01*
X88164654Y-90727205D01*
X88164649Y-90727201D01*
X87960848Y-90579132D01*
X87960847Y-90579131D01*
X87960845Y-90579130D01*
X87890747Y-90543413D01*
X87736383Y-90464760D01*
X87496785Y-90386910D01*
X87382753Y-90368849D01*
X87247962Y-90347500D01*
X86996038Y-90347500D01*
X86871626Y-90367205D01*
X86747214Y-90386910D01*
X86507616Y-90464760D01*
X86283151Y-90579132D01*
X86079350Y-90727201D01*
X86079345Y-90727205D01*
X85901205Y-90905345D01*
X85901201Y-90905350D01*
X85753132Y-91109151D01*
X85638760Y-91333616D01*
X85564211Y-91563056D01*
X85560910Y-91573215D01*
X85521500Y-91822038D01*
X85521500Y-92073962D01*
X84836000Y-92073962D01*
X84836000Y-87417400D01*
X122494540Y-87417400D01*
X122514326Y-87605656D01*
X122514327Y-87605659D01*
X122572818Y-87785677D01*
X122572821Y-87785684D01*
X122667467Y-87949616D01*
X122721843Y-88010006D01*
X122794129Y-88090288D01*
X122947265Y-88201548D01*
X122947270Y-88201551D01*
X123120192Y-88278542D01*
X123120197Y-88278544D01*
X123305354Y-88317900D01*
X123305355Y-88317900D01*
X123494644Y-88317900D01*
X123494646Y-88317900D01*
X123679803Y-88278544D01*
X123852730Y-88201551D01*
X124005871Y-88090288D01*
X124132533Y-87949616D01*
X124227179Y-87785684D01*
X124285674Y-87605656D01*
X124305460Y-87417400D01*
X124285674Y-87229144D01*
X124227179Y-87049116D01*
X124132533Y-86885184D01*
X124005871Y-86744512D01*
X124005870Y-86744511D01*
X123852734Y-86633251D01*
X123852729Y-86633248D01*
X123679807Y-86556257D01*
X123679802Y-86556255D01*
X123534001Y-86525265D01*
X123494646Y-86516900D01*
X123305354Y-86516900D01*
X123272897Y-86523798D01*
X123120197Y-86556255D01*
X123120192Y-86556257D01*
X122947270Y-86633248D01*
X122947265Y-86633251D01*
X122794129Y-86744511D01*
X122667466Y-86885185D01*
X122572821Y-87049115D01*
X122572818Y-87049122D01*
X122524366Y-87198244D01*
X122514326Y-87229144D01*
X122494540Y-87417400D01*
X84836000Y-87417400D01*
X84836000Y-86090000D01*
X111944540Y-86090000D01*
X111964326Y-86278256D01*
X111964327Y-86278259D01*
X112022818Y-86458277D01*
X112022821Y-86458284D01*
X112117467Y-86622216D01*
X112176469Y-86687744D01*
X112244129Y-86762888D01*
X112397265Y-86874148D01*
X112397270Y-86874151D01*
X112570192Y-86951142D01*
X112570197Y-86951144D01*
X112755354Y-86990500D01*
X112755355Y-86990500D01*
X112944644Y-86990500D01*
X112944646Y-86990500D01*
X113129803Y-86951144D01*
X113302730Y-86874151D01*
X113455871Y-86762888D01*
X113582533Y-86622216D01*
X113677179Y-86458284D01*
X113735674Y-86278256D01*
X113755460Y-86090000D01*
X113735674Y-85901744D01*
X113677179Y-85721716D01*
X113582533Y-85557784D01*
X113455871Y-85417112D01*
X113455870Y-85417111D01*
X113302734Y-85305851D01*
X113302729Y-85305848D01*
X113129807Y-85228857D01*
X113129802Y-85228855D01*
X112984001Y-85197865D01*
X112944646Y-85189500D01*
X112755354Y-85189500D01*
X112722897Y-85196398D01*
X112570197Y-85228855D01*
X112570192Y-85228857D01*
X112397270Y-85305848D01*
X112397265Y-85305851D01*
X112244129Y-85417111D01*
X112117466Y-85557785D01*
X112022821Y-85721715D01*
X112022818Y-85721722D01*
X111964327Y-85901740D01*
X111964326Y-85901744D01*
X111944540Y-86090000D01*
X84836000Y-86090000D01*
X84836000Y-83940000D01*
X85229474Y-83940000D01*
X85249547Y-84195064D01*
X85249547Y-84195067D01*
X85249548Y-84195070D01*
X85293099Y-84376470D01*
X85309279Y-84443864D01*
X85407188Y-84680239D01*
X85407190Y-84680242D01*
X85540875Y-84898396D01*
X85540878Y-84898401D01*
X85551884Y-84911287D01*
X85707044Y-85092956D01*
X85804820Y-85176464D01*
X85901598Y-85259121D01*
X85901600Y-85259122D01*
X85901601Y-85259123D01*
X86069966Y-85362297D01*
X86119757Y-85392809D01*
X86119760Y-85392811D01*
X86356135Y-85490720D01*
X86356140Y-85490722D01*
X86604930Y-85550452D01*
X86860000Y-85570526D01*
X87115070Y-85550452D01*
X87363860Y-85490722D01*
X87482051Y-85441765D01*
X87600239Y-85392811D01*
X87600240Y-85392810D01*
X87600243Y-85392809D01*
X87818399Y-85259123D01*
X88012956Y-85092956D01*
X88179123Y-84898399D01*
X88312809Y-84680243D01*
X88344762Y-84603103D01*
X88387468Y-84500000D01*
X88410722Y-84443860D01*
X88470452Y-84195070D01*
X88490526Y-83940000D01*
X90309474Y-83940000D01*
X90329547Y-84195064D01*
X90329547Y-84195067D01*
X90329548Y-84195070D01*
X90373099Y-84376470D01*
X90389279Y-84443864D01*
X90487188Y-84680239D01*
X90487190Y-84680242D01*
X90620875Y-84898396D01*
X90620878Y-84898401D01*
X90631884Y-84911287D01*
X90787044Y-85092956D01*
X90884820Y-85176464D01*
X90981598Y-85259121D01*
X90981600Y-85259122D01*
X90981601Y-85259123D01*
X91149966Y-85362297D01*
X91199757Y-85392809D01*
X91199760Y-85392811D01*
X91436135Y-85490720D01*
X91436140Y-85490722D01*
X91684930Y-85550452D01*
X91940000Y-85570526D01*
X92195070Y-85550452D01*
X92443860Y-85490722D01*
X92562051Y-85441765D01*
X92680239Y-85392811D01*
X92680240Y-85392810D01*
X92680243Y-85392809D01*
X92898399Y-85259123D01*
X93092956Y-85092956D01*
X93259123Y-84898399D01*
X93392809Y-84680243D01*
X93424762Y-84603103D01*
X93467468Y-84500000D01*
X93490722Y-84443860D01*
X93550452Y-84195070D01*
X93570526Y-83940000D01*
X93550452Y-83684930D01*
X93490722Y-83436140D01*
X93462615Y-83368284D01*
X93392913Y-83200006D01*
X112424700Y-83200006D01*
X112443864Y-83431297D01*
X112443866Y-83431308D01*
X112500842Y-83656300D01*
X112594075Y-83868848D01*
X112721016Y-84063147D01*
X112721019Y-84063151D01*
X112721021Y-84063153D01*
X112878216Y-84233913D01*
X112878219Y-84233915D01*
X112878222Y-84233918D01*
X113061365Y-84376464D01*
X113061371Y-84376468D01*
X113061374Y-84376470D01*
X113265497Y-84486936D01*
X113379487Y-84526068D01*
X113485015Y-84562297D01*
X113485017Y-84562297D01*
X113485019Y-84562298D01*
X113713951Y-84600500D01*
X113713952Y-84600500D01*
X113946048Y-84600500D01*
X113946049Y-84600500D01*
X114174981Y-84562298D01*
X114394503Y-84486936D01*
X114598626Y-84376470D01*
X114781784Y-84233913D01*
X114938979Y-84063153D01*
X114980235Y-84000006D01*
X116994700Y-84000006D01*
X117013864Y-84231297D01*
X117013866Y-84231308D01*
X117070842Y-84456300D01*
X117164075Y-84668848D01*
X117291016Y-84863147D01*
X117291019Y-84863151D01*
X117291021Y-84863153D01*
X117448216Y-85033913D01*
X117448219Y-85033915D01*
X117448222Y-85033918D01*
X117631365Y-85176464D01*
X117631371Y-85176468D01*
X117631374Y-85176470D01*
X117835497Y-85286936D01*
X117888748Y-85305217D01*
X118055015Y-85362297D01*
X118055017Y-85362297D01*
X118055019Y-85362298D01*
X118283951Y-85400500D01*
X118283952Y-85400500D01*
X118516048Y-85400500D01*
X118516049Y-85400500D01*
X118744981Y-85362298D01*
X118964503Y-85286936D01*
X119168626Y-85176470D01*
X119351784Y-85033913D01*
X119508979Y-84863153D01*
X119635924Y-84668849D01*
X119729157Y-84456300D01*
X119786134Y-84231305D01*
X119788728Y-84200000D01*
X119805300Y-84000006D01*
X119805300Y-83999993D01*
X119786135Y-83768702D01*
X119786133Y-83768691D01*
X119729157Y-83543699D01*
X119635924Y-83331151D01*
X119508983Y-83136852D01*
X119508980Y-83136849D01*
X119508979Y-83136847D01*
X119351784Y-82966087D01*
X119351779Y-82966083D01*
X119351777Y-82966081D01*
X119168634Y-82823535D01*
X119168628Y-82823531D01*
X118964504Y-82713064D01*
X118964495Y-82713061D01*
X118744984Y-82637702D01*
X118573282Y-82609050D01*
X118516049Y-82599500D01*
X118283951Y-82599500D01*
X118238164Y-82607140D01*
X118055015Y-82637702D01*
X117835504Y-82713061D01*
X117835495Y-82713064D01*
X117631371Y-82823531D01*
X117631365Y-82823535D01*
X117448222Y-82966081D01*
X117448219Y-82966084D01*
X117448216Y-82966086D01*
X117448216Y-82966087D01*
X117433933Y-82981603D01*
X117291016Y-83136852D01*
X117164075Y-83331151D01*
X117070842Y-83543699D01*
X117013866Y-83768691D01*
X117013864Y-83768702D01*
X116994700Y-83999993D01*
X116994700Y-84000006D01*
X114980235Y-84000006D01*
X115065924Y-83868849D01*
X115159157Y-83656300D01*
X115216134Y-83431305D01*
X115216135Y-83431297D01*
X115235300Y-83200006D01*
X115235300Y-83199993D01*
X115216135Y-82968702D01*
X115216133Y-82968691D01*
X115159157Y-82743699D01*
X115065924Y-82531151D01*
X114980243Y-82400006D01*
X120594700Y-82400006D01*
X120613864Y-82631297D01*
X120613866Y-82631308D01*
X120670842Y-82856300D01*
X120764075Y-83068848D01*
X120891016Y-83263147D01*
X120891019Y-83263151D01*
X120891021Y-83263153D01*
X121048216Y-83433913D01*
X121048219Y-83433915D01*
X121048222Y-83433918D01*
X121231365Y-83576464D01*
X121231371Y-83576468D01*
X121231374Y-83576470D01*
X121435497Y-83686936D01*
X121549487Y-83726068D01*
X121655015Y-83762297D01*
X121655017Y-83762297D01*
X121655019Y-83762298D01*
X121883951Y-83800500D01*
X121883952Y-83800500D01*
X122116048Y-83800500D01*
X122116049Y-83800500D01*
X122344981Y-83762298D01*
X122564503Y-83686936D01*
X122768626Y-83576470D01*
X122951784Y-83433913D01*
X123108979Y-83263153D01*
X123235924Y-83068849D01*
X123329157Y-82856300D01*
X123386134Y-82631305D01*
X123386998Y-82620877D01*
X123405300Y-82400006D01*
X123405300Y-82399993D01*
X123386135Y-82168702D01*
X123386133Y-82168691D01*
X123368740Y-82100006D01*
X123994700Y-82100006D01*
X124013864Y-82331297D01*
X124013866Y-82331308D01*
X124070842Y-82556300D01*
X124164075Y-82768848D01*
X124291016Y-82963147D01*
X124291019Y-82963151D01*
X124291021Y-82963153D01*
X124448216Y-83133913D01*
X124448219Y-83133915D01*
X124448222Y-83133918D01*
X124631365Y-83276464D01*
X124631371Y-83276468D01*
X124631374Y-83276470D01*
X124835497Y-83386936D01*
X124949487Y-83426068D01*
X125055015Y-83462297D01*
X125055017Y-83462297D01*
X125055019Y-83462298D01*
X125283951Y-83500500D01*
X125283952Y-83500500D01*
X125516048Y-83500500D01*
X125516049Y-83500500D01*
X125744981Y-83462298D01*
X125964503Y-83386936D01*
X126168626Y-83276470D01*
X126185744Y-83263147D01*
X126281964Y-83188256D01*
X126351784Y-83133913D01*
X126475059Y-83000000D01*
X131094540Y-83000000D01*
X131114326Y-83188256D01*
X131114327Y-83188259D01*
X131172818Y-83368277D01*
X131172821Y-83368284D01*
X131267467Y-83532216D01*
X131307312Y-83576468D01*
X131394129Y-83672888D01*
X131547265Y-83784148D01*
X131547270Y-83784151D01*
X131720192Y-83861142D01*
X131720197Y-83861144D01*
X131905354Y-83900500D01*
X131905355Y-83900500D01*
X132094644Y-83900500D01*
X132094646Y-83900500D01*
X132279803Y-83861144D01*
X132452730Y-83784151D01*
X132605871Y-83672888D01*
X132732533Y-83532216D01*
X132827179Y-83368284D01*
X132885674Y-83188256D01*
X132905460Y-83000000D01*
X132885674Y-82811744D01*
X132827179Y-82631716D01*
X132732533Y-82467784D01*
X132605871Y-82327112D01*
X132605870Y-82327111D01*
X132452734Y-82215851D01*
X132452729Y-82215848D01*
X132279807Y-82138857D01*
X132279802Y-82138855D01*
X132134001Y-82107865D01*
X132094646Y-82099500D01*
X131905354Y-82099500D01*
X131872897Y-82106398D01*
X131720197Y-82138855D01*
X131720192Y-82138857D01*
X131547270Y-82215848D01*
X131547265Y-82215851D01*
X131394129Y-82327111D01*
X131267466Y-82467785D01*
X131172821Y-82631715D01*
X131172818Y-82631722D01*
X131114327Y-82811740D01*
X131114326Y-82811744D01*
X131094540Y-83000000D01*
X126475059Y-83000000D01*
X126508979Y-82963153D01*
X126635924Y-82768849D01*
X126729157Y-82556300D01*
X126786134Y-82331305D01*
X126786280Y-82329547D01*
X126805300Y-82100006D01*
X126805300Y-82099993D01*
X126786135Y-81868702D01*
X126786133Y-81868691D01*
X126729157Y-81643699D01*
X126635924Y-81431151D01*
X126508983Y-81236852D01*
X126508980Y-81236849D01*
X126508979Y-81236847D01*
X126351784Y-81066087D01*
X126351779Y-81066083D01*
X126351777Y-81066081D01*
X126168634Y-80923535D01*
X126168628Y-80923531D01*
X125964504Y-80813064D01*
X125964495Y-80813061D01*
X125744984Y-80737702D01*
X125573282Y-80709050D01*
X125516049Y-80699500D01*
X125283951Y-80699500D01*
X125249170Y-80705304D01*
X125055015Y-80737702D01*
X124835504Y-80813061D01*
X124835495Y-80813064D01*
X124631371Y-80923531D01*
X124631365Y-80923535D01*
X124448222Y-81066081D01*
X124448219Y-81066084D01*
X124448216Y-81066086D01*
X124448216Y-81066087D01*
X124404974Y-81113061D01*
X124291016Y-81236852D01*
X124164075Y-81431151D01*
X124070842Y-81643699D01*
X124013866Y-81868691D01*
X124013864Y-81868702D01*
X123994700Y-82099993D01*
X123994700Y-82100006D01*
X123368740Y-82100006D01*
X123329157Y-81943699D01*
X123235924Y-81731151D01*
X123108983Y-81536852D01*
X123108980Y-81536849D01*
X123108979Y-81536847D01*
X122951784Y-81366087D01*
X122951779Y-81366083D01*
X122951777Y-81366081D01*
X122768634Y-81223535D01*
X122768628Y-81223531D01*
X122564504Y-81113064D01*
X122564495Y-81113061D01*
X122344984Y-81037702D01*
X122173282Y-81009050D01*
X122116049Y-80999500D01*
X121883951Y-80999500D01*
X121838164Y-81007140D01*
X121655015Y-81037702D01*
X121435504Y-81113061D01*
X121435495Y-81113064D01*
X121231371Y-81223531D01*
X121231365Y-81223535D01*
X121048222Y-81366081D01*
X121048219Y-81366084D01*
X120891016Y-81536852D01*
X120764075Y-81731151D01*
X120670842Y-81943699D01*
X120613866Y-82168691D01*
X120613864Y-82168702D01*
X120594700Y-82399993D01*
X120594700Y-82400006D01*
X114980243Y-82400006D01*
X114938983Y-82336852D01*
X114938980Y-82336849D01*
X114938979Y-82336847D01*
X114781784Y-82166087D01*
X114781779Y-82166083D01*
X114781777Y-82166081D01*
X114598634Y-82023535D01*
X114598628Y-82023531D01*
X114394504Y-81913064D01*
X114394495Y-81913061D01*
X114174984Y-81837702D01*
X114003282Y-81809050D01*
X113946049Y-81799500D01*
X113713951Y-81799500D01*
X113668164Y-81807140D01*
X113485015Y-81837702D01*
X113265504Y-81913061D01*
X113265495Y-81913064D01*
X113061371Y-82023531D01*
X113061365Y-82023535D01*
X112878222Y-82166081D01*
X112878219Y-82166084D01*
X112878216Y-82166086D01*
X112878216Y-82166087D01*
X112861590Y-82184148D01*
X112721016Y-82336852D01*
X112594075Y-82531151D01*
X112500842Y-82743699D01*
X112443866Y-82968691D01*
X112443864Y-82968702D01*
X112424700Y-83199993D01*
X112424700Y-83200006D01*
X93392913Y-83200006D01*
X93392811Y-83199760D01*
X93392809Y-83199757D01*
X93352460Y-83133913D01*
X93259123Y-82981601D01*
X93259122Y-82981600D01*
X93259121Y-82981598D01*
X93151273Y-82855325D01*
X93092956Y-82787044D01*
X92956696Y-82670667D01*
X92898401Y-82620878D01*
X92898396Y-82620875D01*
X92680242Y-82487190D01*
X92680239Y-82487188D01*
X92443864Y-82389279D01*
X92434101Y-82386935D01*
X92195070Y-82329548D01*
X92195067Y-82329547D01*
X92195064Y-82329547D01*
X91940000Y-82309474D01*
X91684935Y-82329547D01*
X91684931Y-82329547D01*
X91684930Y-82329548D01*
X91560535Y-82359413D01*
X91436135Y-82389279D01*
X91199760Y-82487188D01*
X91199757Y-82487190D01*
X90981603Y-82620875D01*
X90981598Y-82620878D01*
X90787044Y-82787044D01*
X90620878Y-82981598D01*
X90620875Y-82981603D01*
X90487190Y-83199757D01*
X90487188Y-83199760D01*
X90389279Y-83436135D01*
X90329547Y-83684935D01*
X90309474Y-83940000D01*
X88490526Y-83940000D01*
X88470452Y-83684930D01*
X88410722Y-83436140D01*
X88382615Y-83368284D01*
X88312811Y-83199760D01*
X88312809Y-83199757D01*
X88272460Y-83133913D01*
X88179123Y-82981601D01*
X88179122Y-82981600D01*
X88179121Y-82981598D01*
X88071273Y-82855325D01*
X88012956Y-82787044D01*
X87876696Y-82670667D01*
X87818401Y-82620878D01*
X87818396Y-82620875D01*
X87600242Y-82487190D01*
X87600239Y-82487188D01*
X87363864Y-82389279D01*
X87354101Y-82386935D01*
X87115070Y-82329548D01*
X87115067Y-82329547D01*
X87115064Y-82329547D01*
X86860000Y-82309474D01*
X86604935Y-82329547D01*
X86604931Y-82329547D01*
X86604930Y-82329548D01*
X86480535Y-82359413D01*
X86356135Y-82389279D01*
X86119760Y-82487188D01*
X86119757Y-82487190D01*
X85901603Y-82620875D01*
X85901598Y-82620878D01*
X85707044Y-82787044D01*
X85540878Y-82981598D01*
X85540875Y-82981603D01*
X85407190Y-83199757D01*
X85407188Y-83199760D01*
X85309279Y-83436135D01*
X85249547Y-83684935D01*
X85229474Y-83940000D01*
X84836000Y-83940000D01*
X84836000Y-81400000D01*
X87869783Y-81400000D01*
X87888623Y-81639382D01*
X87944674Y-81872853D01*
X87944678Y-81872865D01*
X88036565Y-82094702D01*
X88162026Y-82299436D01*
X88162028Y-82299439D01*
X88317973Y-82482027D01*
X88500561Y-82637972D01*
X88500563Y-82637973D01*
X88705297Y-82763434D01*
X88802047Y-82803508D01*
X88927137Y-82855323D01*
X89160621Y-82911377D01*
X89400000Y-82930217D01*
X89639379Y-82911377D01*
X89872863Y-82855323D01*
X90094704Y-82763433D01*
X90299439Y-82637972D01*
X90482027Y-82482027D01*
X90637972Y-82299439D01*
X90763433Y-82094704D01*
X90763437Y-82094695D01*
X90764204Y-82093192D01*
X90764645Y-82092724D01*
X90765978Y-82090550D01*
X90766435Y-82090830D01*
X90812184Y-82042402D01*
X90874682Y-82025500D01*
X93296252Y-82025500D01*
X93363291Y-82045185D01*
X93388400Y-82066526D01*
X93394126Y-82072885D01*
X93394130Y-82072889D01*
X93547265Y-82184148D01*
X93547270Y-82184151D01*
X93720192Y-82261142D01*
X93720197Y-82261144D01*
X93905354Y-82300500D01*
X93905355Y-82300500D01*
X94094644Y-82300500D01*
X94094646Y-82300500D01*
X94279803Y-82261144D01*
X94452730Y-82184151D01*
X94605871Y-82072888D01*
X94666980Y-82005020D01*
X94726467Y-81968371D01*
X94796324Y-81969702D01*
X94854372Y-82008588D01*
X94862937Y-82020167D01*
X94891021Y-82063153D01*
X95048216Y-82233913D01*
X95048219Y-82233915D01*
X95048222Y-82233918D01*
X95231365Y-82376464D01*
X95231371Y-82376468D01*
X95231374Y-82376470D01*
X95435497Y-82486936D01*
X95475008Y-82500500D01*
X95655015Y-82562297D01*
X95655017Y-82562297D01*
X95655019Y-82562298D01*
X95883951Y-82600500D01*
X95883952Y-82600500D01*
X96116048Y-82600500D01*
X96116049Y-82600500D01*
X96344981Y-82562298D01*
X96564503Y-82486936D01*
X96768626Y-82376470D01*
X96951784Y-82233913D01*
X97108979Y-82063153D01*
X97235924Y-81868849D01*
X97329157Y-81656300D01*
X97386134Y-81431305D01*
X97391538Y-81366087D01*
X97405300Y-81200006D01*
X97405300Y-81199993D01*
X97397015Y-81100006D01*
X98294700Y-81100006D01*
X98313864Y-81331297D01*
X98313866Y-81331308D01*
X98370842Y-81556300D01*
X98464075Y-81768848D01*
X98591016Y-81963147D01*
X98591019Y-81963151D01*
X98591021Y-81963153D01*
X98748216Y-82133913D01*
X98748219Y-82133915D01*
X98748222Y-82133918D01*
X98931365Y-82276464D01*
X98931371Y-82276468D01*
X98931374Y-82276470D01*
X99032700Y-82331305D01*
X99116157Y-82376470D01*
X99135497Y-82386936D01*
X99173569Y-82400006D01*
X99355015Y-82462297D01*
X99355017Y-82462297D01*
X99355019Y-82462298D01*
X99583951Y-82500500D01*
X99583952Y-82500500D01*
X99816048Y-82500500D01*
X99816049Y-82500500D01*
X100044981Y-82462298D01*
X100264503Y-82386936D01*
X100468626Y-82276470D01*
X100488320Y-82261142D01*
X100587242Y-82184148D01*
X100651784Y-82133913D01*
X100808979Y-81963153D01*
X100935924Y-81768849D01*
X101029157Y-81556300D01*
X101086134Y-81331305D01*
X101086135Y-81331297D01*
X101105300Y-81100006D01*
X101105300Y-81099993D01*
X101086135Y-80868702D01*
X101086133Y-80868691D01*
X101071272Y-80810006D01*
X108614700Y-80810006D01*
X108633864Y-81041297D01*
X108633866Y-81041308D01*
X108690842Y-81266300D01*
X108784075Y-81478848D01*
X108911016Y-81673147D01*
X108911019Y-81673151D01*
X108911021Y-81673153D01*
X109068216Y-81843913D01*
X109068219Y-81843915D01*
X109068222Y-81843918D01*
X109251365Y-81986464D01*
X109251371Y-81986468D01*
X109251374Y-81986470D01*
X109393064Y-82063149D01*
X109451372Y-82094704D01*
X109455497Y-82096936D01*
X109563207Y-82133913D01*
X109675015Y-82172297D01*
X109675017Y-82172297D01*
X109675019Y-82172298D01*
X109903951Y-82210500D01*
X109903952Y-82210500D01*
X110136048Y-82210500D01*
X110136049Y-82210500D01*
X110364981Y-82172298D01*
X110584503Y-82096936D01*
X110788626Y-81986470D01*
X110971784Y-81843913D01*
X111128979Y-81673153D01*
X111255924Y-81478849D01*
X111349157Y-81266300D01*
X111406134Y-81041305D01*
X111412150Y-80968702D01*
X111425300Y-80810006D01*
X111425300Y-80809993D01*
X111406135Y-80578702D01*
X111406133Y-80578691D01*
X111349157Y-80353699D01*
X111255924Y-80141151D01*
X111128983Y-79946852D01*
X111128980Y-79946849D01*
X111128979Y-79946847D01*
X110971784Y-79776087D01*
X110971779Y-79776083D01*
X110971777Y-79776081D01*
X110788634Y-79633535D01*
X110788628Y-79633531D01*
X110584504Y-79523064D01*
X110584495Y-79523061D01*
X110364984Y-79447702D01*
X110175169Y-79416028D01*
X110136049Y-79409500D01*
X109903951Y-79409500D01*
X109864831Y-79416028D01*
X109675015Y-79447702D01*
X109455504Y-79523061D01*
X109455495Y-79523064D01*
X109251371Y-79633531D01*
X109251365Y-79633535D01*
X109068222Y-79776081D01*
X109068219Y-79776084D01*
X109068216Y-79776086D01*
X109068216Y-79776087D01*
X109029268Y-79818396D01*
X108911016Y-79946852D01*
X108784075Y-80141151D01*
X108690842Y-80353699D01*
X108633866Y-80578691D01*
X108633864Y-80578702D01*
X108614700Y-80809993D01*
X108614700Y-80810006D01*
X101071272Y-80810006D01*
X101029157Y-80643699D01*
X100935924Y-80431151D01*
X100808983Y-80236852D01*
X100808980Y-80236849D01*
X100808979Y-80236847D01*
X100651784Y-80066087D01*
X100651779Y-80066083D01*
X100651777Y-80066081D01*
X100468634Y-79923535D01*
X100468628Y-79923531D01*
X100264504Y-79813064D01*
X100264495Y-79813061D01*
X100044984Y-79737702D01*
X99873282Y-79709050D01*
X99816049Y-79699500D01*
X99583951Y-79699500D01*
X99538164Y-79707140D01*
X99355015Y-79737702D01*
X99135504Y-79813061D01*
X99135495Y-79813064D01*
X98931371Y-79923531D01*
X98931365Y-79923535D01*
X98748222Y-80066081D01*
X98748219Y-80066084D01*
X98591016Y-80236852D01*
X98464075Y-80431151D01*
X98370842Y-80643699D01*
X98313866Y-80868691D01*
X98313864Y-80868702D01*
X98294700Y-81099993D01*
X98294700Y-81100006D01*
X97397015Y-81100006D01*
X97386135Y-80968702D01*
X97386133Y-80968691D01*
X97329157Y-80743699D01*
X97235924Y-80531151D01*
X97108983Y-80336852D01*
X97108980Y-80336849D01*
X97108979Y-80336847D01*
X96951784Y-80166087D01*
X96951779Y-80166083D01*
X96951777Y-80166081D01*
X96768634Y-80023535D01*
X96768628Y-80023531D01*
X96564504Y-79913064D01*
X96564495Y-79913061D01*
X96344984Y-79837702D01*
X96173282Y-79809050D01*
X96116049Y-79799500D01*
X95883951Y-79799500D01*
X95838164Y-79807140D01*
X95655015Y-79837702D01*
X95435504Y-79913061D01*
X95435495Y-79913064D01*
X95231371Y-80023531D01*
X95231365Y-80023535D01*
X95048222Y-80166081D01*
X95048219Y-80166084D01*
X95048216Y-80166086D01*
X95048216Y-80166087D01*
X95036216Y-80179123D01*
X94891016Y-80336852D01*
X94764076Y-80531149D01*
X94722517Y-80625895D01*
X94677560Y-80679380D01*
X94610824Y-80700070D01*
X94543497Y-80681395D01*
X94536076Y-80676403D01*
X94466557Y-80625895D01*
X94452730Y-80615849D01*
X94452728Y-80615848D01*
X94452729Y-80615848D01*
X94279807Y-80538857D01*
X94279802Y-80538855D01*
X94134001Y-80507865D01*
X94094646Y-80499500D01*
X93905354Y-80499500D01*
X93872897Y-80506398D01*
X93720197Y-80538855D01*
X93720192Y-80538857D01*
X93547270Y-80615848D01*
X93547265Y-80615851D01*
X93394130Y-80727110D01*
X93394126Y-80727114D01*
X93388400Y-80733474D01*
X93328913Y-80770121D01*
X93296252Y-80774500D01*
X90874682Y-80774500D01*
X90807643Y-80754815D01*
X90766374Y-80709206D01*
X90765978Y-80709450D01*
X90764684Y-80707338D01*
X90764204Y-80706808D01*
X90763437Y-80705304D01*
X90763433Y-80705297D01*
X90763433Y-80705296D01*
X90637972Y-80500561D01*
X90482027Y-80317973D01*
X90299439Y-80162028D01*
X90265371Y-80141151D01*
X90094702Y-80036565D01*
X89878114Y-79946852D01*
X89872863Y-79944677D01*
X89872859Y-79944676D01*
X89872853Y-79944674D01*
X89639382Y-79888623D01*
X89400000Y-79869783D01*
X89160617Y-79888623D01*
X88927146Y-79944674D01*
X88927134Y-79944678D01*
X88705297Y-80036565D01*
X88500563Y-80162026D01*
X88317973Y-80317973D01*
X88162026Y-80500563D01*
X88036565Y-80705297D01*
X87944678Y-80927134D01*
X87944674Y-80927146D01*
X87888623Y-81160617D01*
X87869783Y-81400000D01*
X84836000Y-81400000D01*
X84836000Y-78860000D01*
X85229474Y-78860000D01*
X85249547Y-79115064D01*
X85249547Y-79115067D01*
X85249548Y-79115070D01*
X85278137Y-79234151D01*
X85309279Y-79363864D01*
X85407188Y-79600239D01*
X85407190Y-79600242D01*
X85540875Y-79818396D01*
X85540878Y-79818401D01*
X85557363Y-79837702D01*
X85707044Y-80012956D01*
X85769253Y-80066087D01*
X85901598Y-80179121D01*
X85901603Y-80179124D01*
X86119757Y-80312809D01*
X86119760Y-80312811D01*
X86356135Y-80410720D01*
X86356140Y-80410722D01*
X86604930Y-80470452D01*
X86860000Y-80490526D01*
X87115070Y-80470452D01*
X87363860Y-80410722D01*
X87542198Y-80336852D01*
X87600239Y-80312811D01*
X87600240Y-80312810D01*
X87600243Y-80312809D01*
X87818399Y-80179123D01*
X88012956Y-80012956D01*
X88179123Y-79818399D01*
X88312809Y-79600243D01*
X88319476Y-79584149D01*
X88365562Y-79472886D01*
X88410722Y-79363860D01*
X88470452Y-79115070D01*
X88490526Y-78860000D01*
X90309474Y-78860000D01*
X90329547Y-79115064D01*
X90329547Y-79115067D01*
X90329548Y-79115070D01*
X90358137Y-79234151D01*
X90389279Y-79363864D01*
X90487188Y-79600239D01*
X90487190Y-79600242D01*
X90620875Y-79818396D01*
X90620878Y-79818401D01*
X90637363Y-79837702D01*
X90787044Y-80012956D01*
X90849253Y-80066087D01*
X90981598Y-80179121D01*
X90981603Y-80179124D01*
X91199757Y-80312809D01*
X91199760Y-80312811D01*
X91436135Y-80410720D01*
X91436140Y-80410722D01*
X91684930Y-80470452D01*
X91940000Y-80490526D01*
X92195070Y-80470452D01*
X92443860Y-80410722D01*
X92622198Y-80336852D01*
X92680239Y-80312811D01*
X92680240Y-80312810D01*
X92680243Y-80312809D01*
X92898399Y-80179123D01*
X93092956Y-80012956D01*
X93259123Y-79818399D01*
X93392809Y-79600243D01*
X93399476Y-79584149D01*
X93445562Y-79472886D01*
X93490722Y-79363860D01*
X93550452Y-79115070D01*
X93570526Y-78860000D01*
X93565804Y-78800000D01*
X115404540Y-78800000D01*
X115424326Y-78988256D01*
X115424327Y-78988259D01*
X115482818Y-79168277D01*
X115482821Y-79168284D01*
X115577467Y-79332216D01*
X115615990Y-79375000D01*
X115704127Y-79472886D01*
X115704129Y-79472888D01*
X115857265Y-79584148D01*
X115857270Y-79584151D01*
X116030192Y-79661142D01*
X116030197Y-79661144D01*
X116215354Y-79700500D01*
X116215355Y-79700500D01*
X116404644Y-79700500D01*
X116404646Y-79700500D01*
X116589803Y-79661144D01*
X116762730Y-79584151D01*
X116915871Y-79472888D01*
X117042533Y-79332216D01*
X117137179Y-79168284D01*
X117195674Y-78988256D01*
X117215460Y-78800000D01*
X117195674Y-78611744D01*
X117137179Y-78431716D01*
X117042533Y-78267784D01*
X116915871Y-78127112D01*
X116878293Y-78099810D01*
X116762734Y-78015851D01*
X116762729Y-78015848D01*
X116589807Y-77938857D01*
X116589802Y-77938855D01*
X116444001Y-77907865D01*
X116404646Y-77899500D01*
X116215354Y-77899500D01*
X116182897Y-77906398D01*
X116030197Y-77938855D01*
X116030192Y-77938857D01*
X115857270Y-78015848D01*
X115857265Y-78015851D01*
X115704129Y-78127111D01*
X115577466Y-78267785D01*
X115482821Y-78431715D01*
X115482818Y-78431722D01*
X115436102Y-78575500D01*
X115424326Y-78611744D01*
X115404540Y-78800000D01*
X93565804Y-78800000D01*
X93550452Y-78604930D01*
X93490722Y-78356140D01*
X93456237Y-78272886D01*
X93392811Y-78119760D01*
X93392809Y-78119757D01*
X93329134Y-78015849D01*
X93259123Y-77901601D01*
X93259122Y-77901600D01*
X93259121Y-77901598D01*
X93152803Y-77777116D01*
X93092956Y-77707044D01*
X92967624Y-77600000D01*
X97694540Y-77600000D01*
X97714326Y-77788256D01*
X97714327Y-77788259D01*
X97772818Y-77968277D01*
X97772821Y-77968284D01*
X97867467Y-78132216D01*
X97928500Y-78200000D01*
X97994127Y-78272886D01*
X97994129Y-78272888D01*
X98147265Y-78384148D01*
X98147270Y-78384151D01*
X98320192Y-78461142D01*
X98320197Y-78461144D01*
X98505354Y-78500500D01*
X98505355Y-78500500D01*
X98694644Y-78500500D01*
X98694646Y-78500500D01*
X98879803Y-78461144D01*
X99052730Y-78384151D01*
X99205871Y-78272888D01*
X99332533Y-78132216D01*
X99427179Y-77968284D01*
X99485674Y-77788256D01*
X99505460Y-77600000D01*
X99485674Y-77411744D01*
X99427179Y-77231716D01*
X99332533Y-77067784D01*
X99205871Y-76927112D01*
X99204602Y-76926190D01*
X99052734Y-76815851D01*
X99052729Y-76815848D01*
X98879807Y-76738857D01*
X98879802Y-76738855D01*
X98734001Y-76707865D01*
X98694646Y-76699500D01*
X98505354Y-76699500D01*
X98472897Y-76706398D01*
X98320197Y-76738855D01*
X98320192Y-76738857D01*
X98147270Y-76815848D01*
X98147265Y-76815851D01*
X97994129Y-76927111D01*
X97867466Y-77067785D01*
X97772821Y-77231715D01*
X97772818Y-77231722D01*
X97715805Y-77407191D01*
X97714326Y-77411744D01*
X97694540Y-77600000D01*
X92967624Y-77600000D01*
X92964111Y-77597000D01*
X92898401Y-77540878D01*
X92898396Y-77540875D01*
X92680242Y-77407190D01*
X92680239Y-77407188D01*
X92443864Y-77309279D01*
X92443860Y-77309278D01*
X92195070Y-77249548D01*
X92195067Y-77249547D01*
X92195064Y-77249547D01*
X91940000Y-77229474D01*
X91684935Y-77249547D01*
X91684931Y-77249547D01*
X91684930Y-77249548D01*
X91587293Y-77272989D01*
X91436135Y-77309279D01*
X91199760Y-77407188D01*
X91199757Y-77407190D01*
X90981603Y-77540875D01*
X90981598Y-77540878D01*
X90787044Y-77707044D01*
X90620878Y-77901598D01*
X90620875Y-77901603D01*
X90487190Y-78119757D01*
X90487188Y-78119760D01*
X90389279Y-78356135D01*
X90371132Y-78431722D01*
X90330538Y-78600809D01*
X90329547Y-78604935D01*
X90309474Y-78860000D01*
X88490526Y-78860000D01*
X88470452Y-78604930D01*
X88410722Y-78356140D01*
X88376237Y-78272886D01*
X88312811Y-78119760D01*
X88312809Y-78119757D01*
X88249134Y-78015849D01*
X88179123Y-77901601D01*
X88179122Y-77901600D01*
X88179121Y-77901598D01*
X88072803Y-77777116D01*
X88012956Y-77707044D01*
X87884111Y-77597000D01*
X87818401Y-77540878D01*
X87818396Y-77540875D01*
X87600242Y-77407190D01*
X87600239Y-77407188D01*
X87363864Y-77309279D01*
X87363860Y-77309278D01*
X87115070Y-77249548D01*
X87115067Y-77249547D01*
X87115064Y-77249547D01*
X86860000Y-77229474D01*
X86604935Y-77249547D01*
X86604931Y-77249547D01*
X86604930Y-77249548D01*
X86507293Y-77272989D01*
X86356135Y-77309279D01*
X86119760Y-77407188D01*
X86119757Y-77407190D01*
X85901603Y-77540875D01*
X85901598Y-77540878D01*
X85707044Y-77707044D01*
X85540878Y-77901598D01*
X85540875Y-77901603D01*
X85407190Y-78119757D01*
X85407188Y-78119760D01*
X85309279Y-78356135D01*
X85291132Y-78431722D01*
X85250538Y-78600809D01*
X85249547Y-78604935D01*
X85229474Y-78860000D01*
X84836000Y-78860000D01*
X84836000Y-76300000D01*
X100794540Y-76300000D01*
X100814326Y-76488256D01*
X100814327Y-76488259D01*
X100872818Y-76668277D01*
X100872821Y-76668284D01*
X100967467Y-76832216D01*
X101022139Y-76892935D01*
X101094129Y-76972888D01*
X101247265Y-77084148D01*
X101247270Y-77084151D01*
X101420192Y-77161142D01*
X101420197Y-77161144D01*
X101605354Y-77200500D01*
X101605355Y-77200500D01*
X101663000Y-77200500D01*
X101730039Y-77220185D01*
X101775794Y-77272989D01*
X101787000Y-77324500D01*
X101787000Y-77886669D01*
X101787001Y-77886687D01*
X101797325Y-77987752D01*
X101851592Y-78151515D01*
X101851593Y-78151518D01*
X101864774Y-78172888D01*
X101942160Y-78298350D01*
X102064150Y-78420340D01*
X102210984Y-78510908D01*
X102374747Y-78565174D01*
X102475823Y-78575500D01*
X103074176Y-78575499D01*
X103074184Y-78575498D01*
X103074187Y-78575498D01*
X103129530Y-78569844D01*
X103175253Y-78565174D01*
X103339016Y-78510908D01*
X103485850Y-78420340D01*
X103599819Y-78306371D01*
X103661142Y-78272886D01*
X103730834Y-78277870D01*
X103775181Y-78306371D01*
X103889150Y-78420340D01*
X104035984Y-78510908D01*
X104199747Y-78565174D01*
X104300823Y-78575500D01*
X104899176Y-78575499D01*
X104899184Y-78575498D01*
X104899187Y-78575498D01*
X104954530Y-78569844D01*
X105000253Y-78565174D01*
X105164016Y-78510908D01*
X105310850Y-78420340D01*
X105317654Y-78413535D01*
X105378974Y-78380050D01*
X105448666Y-78385031D01*
X105455739Y-78387921D01*
X105620197Y-78461144D01*
X105805354Y-78500500D01*
X105805355Y-78500500D01*
X105994644Y-78500500D01*
X105994646Y-78500500D01*
X106179803Y-78461144D01*
X106352730Y-78384151D01*
X106505871Y-78272888D01*
X106534558Y-78241027D01*
X106594045Y-78204379D01*
X106626708Y-78200000D01*
X110500000Y-78200000D01*
X110500000Y-77500000D01*
X118194540Y-77500000D01*
X118214326Y-77688256D01*
X118214327Y-77688259D01*
X118272818Y-77868277D01*
X118272821Y-77868284D01*
X118367467Y-78032216D01*
X118446292Y-78119760D01*
X118494129Y-78172888D01*
X118647265Y-78284148D01*
X118647270Y-78284151D01*
X118820192Y-78361142D01*
X118820197Y-78361144D01*
X119005354Y-78400500D01*
X119005355Y-78400500D01*
X119088000Y-78400500D01*
X119155039Y-78420185D01*
X119200794Y-78472989D01*
X119212000Y-78524500D01*
X119212000Y-79086669D01*
X119212001Y-79086687D01*
X119222325Y-79187752D01*
X119258609Y-79297249D01*
X119276592Y-79351516D01*
X119367160Y-79498350D01*
X119489150Y-79620340D01*
X119635984Y-79710908D01*
X119799747Y-79765174D01*
X119900823Y-79775500D01*
X120499176Y-79775499D01*
X120499184Y-79775498D01*
X120499187Y-79775498D01*
X120554530Y-79769844D01*
X120600253Y-79765174D01*
X120764016Y-79710908D01*
X120910850Y-79620340D01*
X121024819Y-79506371D01*
X121086142Y-79472886D01*
X121155834Y-79477870D01*
X121200181Y-79506371D01*
X121314150Y-79620340D01*
X121460984Y-79710908D01*
X121624747Y-79765174D01*
X121725823Y-79775500D01*
X122324176Y-79775499D01*
X122324184Y-79775498D01*
X122324187Y-79775498D01*
X122379530Y-79769844D01*
X122425253Y-79765174D01*
X122589016Y-79710908D01*
X122735850Y-79620340D01*
X122770890Y-79585300D01*
X122832212Y-79551814D01*
X122901904Y-79556798D01*
X122931460Y-79572664D01*
X122947267Y-79584149D01*
X122947270Y-79584151D01*
X123120192Y-79661142D01*
X123120197Y-79661144D01*
X123305354Y-79700500D01*
X123305355Y-79700500D01*
X123494644Y-79700500D01*
X123494646Y-79700500D01*
X123679803Y-79661144D01*
X123852730Y-79584151D01*
X124005871Y-79472888D01*
X124057068Y-79416027D01*
X124116555Y-79379379D01*
X124149218Y-79375000D01*
X128524000Y-79375000D01*
X128524000Y-77597000D01*
X127254000Y-77597000D01*
X126783230Y-78185462D01*
X126725979Y-78225514D01*
X126686402Y-78232000D01*
X124155521Y-78232000D01*
X124088482Y-78212315D01*
X124063371Y-78190972D01*
X124027846Y-78151518D01*
X124005871Y-78127112D01*
X124005870Y-78127111D01*
X124005864Y-78127106D01*
X123852734Y-78015851D01*
X123852729Y-78015848D01*
X123679807Y-77938857D01*
X123679802Y-77938855D01*
X123608590Y-77923719D01*
X123547108Y-77890527D01*
X123522004Y-77854867D01*
X123518245Y-77846813D01*
X123192133Y-77148000D01*
X132397474Y-77148000D01*
X132417547Y-77403064D01*
X132417547Y-77403067D01*
X132417548Y-77403070D01*
X132450633Y-77540877D01*
X132477279Y-77651864D01*
X132575188Y-77888239D01*
X132575190Y-77888242D01*
X132708875Y-78106396D01*
X132708878Y-78106401D01*
X132747410Y-78151516D01*
X132875044Y-78300956D01*
X132976885Y-78387936D01*
X133069598Y-78467121D01*
X133069600Y-78467122D01*
X133069601Y-78467123D01*
X133141050Y-78510907D01*
X133287757Y-78600809D01*
X133287760Y-78600811D01*
X133524135Y-78698720D01*
X133524140Y-78698722D01*
X133772930Y-78758452D01*
X134028000Y-78778526D01*
X134283070Y-78758452D01*
X134531860Y-78698722D01*
X134741844Y-78611744D01*
X134768239Y-78600811D01*
X134768240Y-78600810D01*
X134768243Y-78600809D01*
X134986399Y-78467123D01*
X135180956Y-78300956D01*
X135347123Y-78106399D01*
X135480809Y-77888243D01*
X135486530Y-77874433D01*
X135578720Y-77651864D01*
X135578722Y-77651860D01*
X135638452Y-77403070D01*
X135658526Y-77148000D01*
X135638452Y-76892930D01*
X135578722Y-76644140D01*
X135559833Y-76598537D01*
X135480811Y-76407760D01*
X135480809Y-76407757D01*
X135420008Y-76308539D01*
X135347123Y-76189601D01*
X135347122Y-76189600D01*
X135347121Y-76189598D01*
X135249156Y-76074896D01*
X135180956Y-75995044D01*
X135070259Y-75900500D01*
X134986401Y-75828878D01*
X134986396Y-75828875D01*
X134768242Y-75695190D01*
X134768239Y-75695188D01*
X134531864Y-75597279D01*
X134531860Y-75597278D01*
X134283070Y-75537548D01*
X134283067Y-75537547D01*
X134283064Y-75537547D01*
X134028000Y-75517474D01*
X133772935Y-75537547D01*
X133772931Y-75537547D01*
X133772930Y-75537548D01*
X133734177Y-75546852D01*
X133524135Y-75597279D01*
X133287760Y-75695188D01*
X133287757Y-75695190D01*
X133069603Y-75828875D01*
X133069598Y-75828878D01*
X132875044Y-75995044D01*
X132708878Y-76189598D01*
X132708875Y-76189603D01*
X132575190Y-76407757D01*
X132575188Y-76407760D01*
X132477279Y-76644135D01*
X132477278Y-76644140D01*
X132423942Y-76866300D01*
X132417547Y-76892935D01*
X132397474Y-77148000D01*
X123192133Y-77148000D01*
X122809000Y-76327000D01*
X122685641Y-76327000D01*
X122620545Y-76308539D01*
X122599280Y-76295422D01*
X122589018Y-76289093D01*
X122589013Y-76289091D01*
X122587569Y-76288612D01*
X122425253Y-76234826D01*
X122425251Y-76234825D01*
X122324178Y-76224500D01*
X121725830Y-76224500D01*
X121725812Y-76224501D01*
X121624747Y-76234825D01*
X121460984Y-76289092D01*
X121460981Y-76289093D01*
X121443299Y-76300000D01*
X121429454Y-76308539D01*
X121364359Y-76327000D01*
X121030999Y-76327000D01*
X121021920Y-76336079D01*
X120960597Y-76369564D01*
X120890905Y-76364578D01*
X120869143Y-76353935D01*
X120764024Y-76289096D01*
X120764018Y-76289093D01*
X120764016Y-76289092D01*
X120600253Y-76234826D01*
X120600251Y-76234825D01*
X120499178Y-76224500D01*
X119900830Y-76224500D01*
X119900812Y-76224501D01*
X119799747Y-76234825D01*
X119635984Y-76289092D01*
X119635981Y-76289093D01*
X119489151Y-76379659D01*
X119367158Y-76501651D01*
X119348323Y-76532187D01*
X119296374Y-76578910D01*
X119266979Y-76588704D01*
X119239382Y-76594193D01*
X119224685Y-76597117D01*
X119200495Y-76599500D01*
X119194646Y-76599500D01*
X119005354Y-76599500D01*
X118991758Y-76602390D01*
X118820197Y-76638855D01*
X118820192Y-76638857D01*
X118647270Y-76715848D01*
X118647265Y-76715851D01*
X118494129Y-76827111D01*
X118367466Y-76967785D01*
X118272821Y-77131715D01*
X118272818Y-77131722D01*
X118226918Y-77272989D01*
X118214326Y-77311744D01*
X118194540Y-77500000D01*
X110500000Y-77500000D01*
X110500000Y-77170750D01*
X110519685Y-77103711D01*
X110520110Y-77103052D01*
X110535924Y-77078849D01*
X110629157Y-76866300D01*
X110686134Y-76641305D01*
X110686337Y-76638855D01*
X110705300Y-76410006D01*
X110705300Y-76409993D01*
X110686135Y-76178702D01*
X110686131Y-76178682D01*
X110638551Y-75990796D01*
X110641175Y-75920976D01*
X110681131Y-75863658D01*
X110745732Y-75837041D01*
X110799018Y-75843074D01*
X110855013Y-75862297D01*
X110855019Y-75862298D01*
X111083951Y-75900500D01*
X111083952Y-75900500D01*
X111316048Y-75900500D01*
X111316049Y-75900500D01*
X111544981Y-75862298D01*
X111764503Y-75786936D01*
X111968626Y-75676470D01*
X112151784Y-75533913D01*
X112308979Y-75363153D01*
X112435924Y-75168849D01*
X112529157Y-74956300D01*
X112586134Y-74731305D01*
X112591357Y-74668277D01*
X112605300Y-74500006D01*
X112605300Y-74499993D01*
X112588728Y-74300000D01*
X128994540Y-74300000D01*
X129014326Y-74488256D01*
X129014327Y-74488259D01*
X129072818Y-74668277D01*
X129072821Y-74668284D01*
X129167467Y-74832216D01*
X129181123Y-74847382D01*
X129294129Y-74972888D01*
X129447265Y-75084148D01*
X129447270Y-75084151D01*
X129620192Y-75161142D01*
X129620197Y-75161144D01*
X129805354Y-75200500D01*
X129805355Y-75200500D01*
X129994644Y-75200500D01*
X129994646Y-75200500D01*
X130179803Y-75161144D01*
X130352730Y-75084151D01*
X130505871Y-74972888D01*
X130632533Y-74832216D01*
X130727179Y-74668284D01*
X130746767Y-74608000D01*
X135037783Y-74608000D01*
X135056623Y-74847382D01*
X135112674Y-75080853D01*
X135112678Y-75080865D01*
X135204565Y-75302702D01*
X135330026Y-75507436D01*
X135330028Y-75507439D01*
X135485973Y-75690027D01*
X135668561Y-75845972D01*
X135873296Y-75971433D01*
X135873306Y-75971437D01*
X135874793Y-75972195D01*
X135875259Y-75972635D01*
X135877450Y-75973978D01*
X135877168Y-75974438D01*
X135925590Y-76020169D01*
X135942500Y-76082681D01*
X135942500Y-77678787D01*
X135922815Y-77745826D01*
X135898181Y-77771912D01*
X135898953Y-77772769D01*
X135894123Y-77777116D01*
X135767466Y-77917785D01*
X135672821Y-78081715D01*
X135672818Y-78081722D01*
X135623990Y-78232000D01*
X135614326Y-78261744D01*
X135594540Y-78450000D01*
X135614326Y-78638256D01*
X135614327Y-78638259D01*
X135672818Y-78818277D01*
X135672821Y-78818284D01*
X135767467Y-78982216D01*
X135887084Y-79115064D01*
X135894129Y-79122888D01*
X136047265Y-79234148D01*
X136047270Y-79234151D01*
X136220192Y-79311142D01*
X136220197Y-79311144D01*
X136405354Y-79350500D01*
X136405355Y-79350500D01*
X136594644Y-79350500D01*
X136594646Y-79350500D01*
X136779803Y-79311144D01*
X136952730Y-79234151D01*
X137105871Y-79122888D01*
X137232533Y-78982216D01*
X137327179Y-78818284D01*
X137385674Y-78638256D01*
X137405460Y-78450000D01*
X137385674Y-78261744D01*
X137327179Y-78081716D01*
X137261685Y-77968277D01*
X137232535Y-77917787D01*
X137232534Y-77917785D01*
X137232533Y-77917784D01*
X137225349Y-77909805D01*
X137195120Y-77846813D01*
X137193500Y-77826834D01*
X137193500Y-77148000D01*
X137477474Y-77148000D01*
X137497547Y-77403064D01*
X137497547Y-77403067D01*
X137497548Y-77403070D01*
X137530633Y-77540877D01*
X137557279Y-77651864D01*
X137655188Y-77888239D01*
X137655190Y-77888242D01*
X137788875Y-78106396D01*
X137788878Y-78106401D01*
X137827410Y-78151516D01*
X137955044Y-78300956D01*
X138056885Y-78387936D01*
X138149598Y-78467121D01*
X138149600Y-78467122D01*
X138149601Y-78467123D01*
X138221050Y-78510907D01*
X138367757Y-78600809D01*
X138367760Y-78600811D01*
X138604135Y-78698720D01*
X138604140Y-78698722D01*
X138852930Y-78758452D01*
X139108000Y-78778526D01*
X139363070Y-78758452D01*
X139611860Y-78698722D01*
X139821844Y-78611744D01*
X139848239Y-78600811D01*
X139848240Y-78600810D01*
X139848243Y-78600809D01*
X140066399Y-78467123D01*
X140260956Y-78300956D01*
X140427123Y-78106399D01*
X140560809Y-77888243D01*
X140566530Y-77874433D01*
X140658720Y-77651864D01*
X140658722Y-77651860D01*
X140718452Y-77403070D01*
X140738526Y-77148000D01*
X140718452Y-76892930D01*
X140658722Y-76644140D01*
X140639833Y-76598537D01*
X140560811Y-76407760D01*
X140560809Y-76407757D01*
X140500008Y-76308539D01*
X140427123Y-76189601D01*
X140427122Y-76189600D01*
X140427121Y-76189598D01*
X140329156Y-76074896D01*
X140260956Y-75995044D01*
X140150259Y-75900500D01*
X140066401Y-75828878D01*
X140066396Y-75828875D01*
X139848242Y-75695190D01*
X139848239Y-75695188D01*
X139611864Y-75597279D01*
X139611860Y-75597278D01*
X139363070Y-75537548D01*
X139363067Y-75537547D01*
X139363064Y-75537547D01*
X139108000Y-75517474D01*
X138852935Y-75537547D01*
X138852931Y-75537547D01*
X138852930Y-75537548D01*
X138814177Y-75546852D01*
X138604135Y-75597279D01*
X138367760Y-75695188D01*
X138367757Y-75695190D01*
X138149603Y-75828875D01*
X138149598Y-75828878D01*
X137955044Y-75995044D01*
X137788878Y-76189598D01*
X137788875Y-76189603D01*
X137655190Y-76407757D01*
X137655188Y-76407760D01*
X137557279Y-76644135D01*
X137557278Y-76644140D01*
X137503942Y-76866300D01*
X137497547Y-76892935D01*
X137477474Y-77148000D01*
X137193500Y-77148000D01*
X137193500Y-76082681D01*
X137213185Y-76015642D01*
X137258794Y-75974377D01*
X137258550Y-75973978D01*
X137260676Y-75972674D01*
X137261207Y-75972195D01*
X137262688Y-75971439D01*
X137262704Y-75971433D01*
X137467439Y-75845972D01*
X137650027Y-75690027D01*
X137805972Y-75507439D01*
X137931433Y-75302704D01*
X137931871Y-75301648D01*
X137960084Y-75233535D01*
X138023323Y-75080863D01*
X138079377Y-74847379D01*
X138098217Y-74608000D01*
X138079377Y-74368621D01*
X138023323Y-74135137D01*
X137957598Y-73976464D01*
X137931434Y-73913297D01*
X137805973Y-73708563D01*
X137805972Y-73708561D01*
X137650027Y-73525973D01*
X137467439Y-73370028D01*
X137391569Y-73323535D01*
X137262702Y-73244565D01*
X137040865Y-73152678D01*
X137040867Y-73152678D01*
X137040863Y-73152677D01*
X137040859Y-73152676D01*
X137040853Y-73152674D01*
X136807382Y-73096623D01*
X136568000Y-73077783D01*
X136328617Y-73096623D01*
X136095146Y-73152674D01*
X136095134Y-73152678D01*
X135873297Y-73244565D01*
X135668563Y-73370026D01*
X135485973Y-73525973D01*
X135330026Y-73708563D01*
X135204565Y-73913297D01*
X135112678Y-74135134D01*
X135112674Y-74135146D01*
X135056623Y-74368617D01*
X135037783Y-74608000D01*
X130746767Y-74608000D01*
X130785674Y-74488256D01*
X130805460Y-74300000D01*
X130785674Y-74111744D01*
X130727179Y-73931716D01*
X130632533Y-73767784D01*
X130505871Y-73627112D01*
X130505870Y-73627111D01*
X130352734Y-73515851D01*
X130352729Y-73515848D01*
X130179807Y-73438857D01*
X130179802Y-73438855D01*
X130034001Y-73407865D01*
X129994646Y-73399500D01*
X129805354Y-73399500D01*
X129772897Y-73406398D01*
X129620197Y-73438855D01*
X129620192Y-73438857D01*
X129447270Y-73515848D01*
X129447265Y-73515851D01*
X129294129Y-73627111D01*
X129167466Y-73767785D01*
X129072821Y-73931715D01*
X129072818Y-73931722D01*
X129022386Y-74086938D01*
X129014326Y-74111744D01*
X128994540Y-74300000D01*
X112588728Y-74300000D01*
X112586135Y-74268702D01*
X112586133Y-74268691D01*
X112529157Y-74043699D01*
X112435924Y-73831151D01*
X112308983Y-73636852D01*
X112308980Y-73636849D01*
X112308979Y-73636847D01*
X112151784Y-73466087D01*
X112151779Y-73466083D01*
X112151777Y-73466081D01*
X111968634Y-73323535D01*
X111968628Y-73323531D01*
X111764504Y-73213064D01*
X111764495Y-73213061D01*
X111544984Y-73137702D01*
X111373282Y-73109050D01*
X111316049Y-73099500D01*
X111083951Y-73099500D01*
X111038164Y-73107140D01*
X110855015Y-73137702D01*
X110635504Y-73213061D01*
X110635495Y-73213064D01*
X110431371Y-73323531D01*
X110431365Y-73323535D01*
X110248222Y-73466081D01*
X110248219Y-73466084D01*
X110248216Y-73466086D01*
X110248216Y-73466087D01*
X110202408Y-73515848D01*
X110091016Y-73636852D01*
X109964075Y-73831151D01*
X109870842Y-74043699D01*
X109813866Y-74268691D01*
X109813864Y-74268702D01*
X109794700Y-74499993D01*
X109794700Y-74500006D01*
X109813864Y-74731297D01*
X109813866Y-74731305D01*
X109839420Y-74832216D01*
X109861449Y-74919203D01*
X109858824Y-74989024D01*
X109818868Y-75046341D01*
X109754267Y-75072958D01*
X109700982Y-75066926D01*
X109644983Y-75047702D01*
X109492359Y-75022234D01*
X109416049Y-75009500D01*
X109183951Y-75009500D01*
X109138164Y-75017140D01*
X108955015Y-75047702D01*
X108735504Y-75123061D01*
X108735495Y-75123064D01*
X108531371Y-75233531D01*
X108531365Y-75233535D01*
X108348222Y-75376081D01*
X108348219Y-75376084D01*
X108348216Y-75376086D01*
X108348216Y-75376087D01*
X108297850Y-75430799D01*
X108191016Y-75546852D01*
X108064075Y-75741151D01*
X107970842Y-75953699D01*
X107913866Y-76178691D01*
X107913864Y-76178702D01*
X107894700Y-76409993D01*
X107894700Y-76410006D01*
X107913864Y-76641297D01*
X107913866Y-76641308D01*
X107970842Y-76866300D01*
X107997113Y-76926190D01*
X108006016Y-76995490D01*
X107976039Y-77058602D01*
X107916699Y-77095489D01*
X107883557Y-77100000D01*
X106716749Y-77100000D01*
X106649710Y-77080315D01*
X106624599Y-77058972D01*
X106505870Y-76927111D01*
X106352734Y-76815851D01*
X106352729Y-76815848D01*
X106179807Y-76738857D01*
X106179802Y-76738855D01*
X106034001Y-76707865D01*
X105994646Y-76699500D01*
X105994645Y-76699500D01*
X105918130Y-76699500D01*
X105851091Y-76679815D01*
X105805336Y-76627011D01*
X105803470Y-76622713D01*
X105597339Y-76122109D01*
X105587999Y-76074896D01*
X105587999Y-75713330D01*
X105587998Y-75713313D01*
X105577674Y-75612247D01*
X105552921Y-75537548D01*
X105523408Y-75448484D01*
X105432840Y-75301650D01*
X105310850Y-75179660D01*
X105164016Y-75089092D01*
X105000253Y-75034826D01*
X105000251Y-75034825D01*
X104899178Y-75024500D01*
X104300830Y-75024500D01*
X104300812Y-75024501D01*
X104199747Y-75034825D01*
X104035984Y-75089092D01*
X104035981Y-75089093D01*
X103889148Y-75179661D01*
X103775181Y-75293629D01*
X103713858Y-75327114D01*
X103644166Y-75322130D01*
X103599819Y-75293629D01*
X103485851Y-75179661D01*
X103485850Y-75179660D01*
X103339016Y-75089092D01*
X103175253Y-75034826D01*
X103175251Y-75034825D01*
X103074178Y-75024500D01*
X102475830Y-75024500D01*
X102475812Y-75024501D01*
X102374747Y-75034825D01*
X102210984Y-75089092D01*
X102210981Y-75089093D01*
X102064151Y-75179659D01*
X101942157Y-75301652D01*
X101919827Y-75337854D01*
X101867878Y-75384578D01*
X101838490Y-75394371D01*
X101833741Y-75395315D01*
X101824688Y-75397116D01*
X101800495Y-75399500D01*
X101794646Y-75399500D01*
X101605354Y-75399500D01*
X101591758Y-75402390D01*
X101420197Y-75438855D01*
X101420192Y-75438857D01*
X101247270Y-75515848D01*
X101247265Y-75515851D01*
X101094129Y-75627111D01*
X100967466Y-75767785D01*
X100872821Y-75931715D01*
X100872818Y-75931722D01*
X100823769Y-76082681D01*
X100814326Y-76111744D01*
X100794540Y-76300000D01*
X84836000Y-76300000D01*
X84836000Y-71000006D01*
X107794700Y-71000006D01*
X107813864Y-71231297D01*
X107813866Y-71231308D01*
X107870842Y-71456300D01*
X107964075Y-71668848D01*
X108091016Y-71863147D01*
X108091019Y-71863151D01*
X108091021Y-71863153D01*
X108248216Y-72033913D01*
X108248219Y-72033915D01*
X108248222Y-72033918D01*
X108431365Y-72176464D01*
X108431371Y-72176468D01*
X108431374Y-72176470D01*
X108635497Y-72286936D01*
X108740734Y-72323064D01*
X108855015Y-72362297D01*
X108855017Y-72362297D01*
X108855019Y-72362298D01*
X109083951Y-72400500D01*
X109083952Y-72400500D01*
X109316048Y-72400500D01*
X109316049Y-72400500D01*
X109319045Y-72400000D01*
X122394540Y-72400000D01*
X122414326Y-72588256D01*
X122414327Y-72588259D01*
X122472818Y-72768277D01*
X122472821Y-72768284D01*
X122567467Y-72932216D01*
X122656690Y-73031308D01*
X122694129Y-73072888D01*
X122847265Y-73184148D01*
X122847270Y-73184151D01*
X123020192Y-73261142D01*
X123020197Y-73261144D01*
X123205354Y-73300500D01*
X123205355Y-73300500D01*
X123394644Y-73300500D01*
X123394646Y-73300500D01*
X123579803Y-73261144D01*
X123752730Y-73184151D01*
X123905871Y-73072888D01*
X124032533Y-72932216D01*
X124127179Y-72768284D01*
X124185674Y-72588256D01*
X124205460Y-72400000D01*
X124185674Y-72211744D01*
X124138968Y-72068000D01*
X132397474Y-72068000D01*
X132417547Y-72323064D01*
X132477279Y-72571864D01*
X132575188Y-72808239D01*
X132575190Y-72808242D01*
X132708875Y-73026396D01*
X132708878Y-73026401D01*
X132748582Y-73072888D01*
X132875044Y-73220956D01*
X132995143Y-73323530D01*
X133069598Y-73387121D01*
X133069600Y-73387122D01*
X133069601Y-73387123D01*
X133198449Y-73466081D01*
X133287757Y-73520809D01*
X133287760Y-73520811D01*
X133524135Y-73618720D01*
X133524140Y-73618722D01*
X133772930Y-73678452D01*
X134028000Y-73698526D01*
X134283070Y-73678452D01*
X134531860Y-73618722D01*
X134650051Y-73569765D01*
X134768239Y-73520811D01*
X134768240Y-73520810D01*
X134768243Y-73520809D01*
X134986399Y-73387123D01*
X135180956Y-73220956D01*
X135347123Y-73026399D01*
X135480809Y-72808243D01*
X135484224Y-72800000D01*
X135571929Y-72588259D01*
X135578722Y-72571860D01*
X135638452Y-72323070D01*
X135658526Y-72068000D01*
X137477474Y-72068000D01*
X137497547Y-72323064D01*
X137557279Y-72571864D01*
X137655188Y-72808239D01*
X137655190Y-72808242D01*
X137788875Y-73026396D01*
X137788878Y-73026401D01*
X137828582Y-73072888D01*
X137955044Y-73220956D01*
X138075143Y-73323530D01*
X138149598Y-73387121D01*
X138149600Y-73387122D01*
X138149601Y-73387123D01*
X138278449Y-73466081D01*
X138367757Y-73520809D01*
X138367760Y-73520811D01*
X138604135Y-73618720D01*
X138604140Y-73618722D01*
X138852930Y-73678452D01*
X139108000Y-73698526D01*
X139363070Y-73678452D01*
X139611860Y-73618722D01*
X139730051Y-73569765D01*
X139848239Y-73520811D01*
X139848240Y-73520810D01*
X139848243Y-73520809D01*
X140066399Y-73387123D01*
X140260956Y-73220956D01*
X140427123Y-73026399D01*
X140560809Y-72808243D01*
X140564222Y-72800006D01*
X143594700Y-72800006D01*
X143613864Y-73031297D01*
X143613866Y-73031308D01*
X143670842Y-73256300D01*
X143764075Y-73468848D01*
X143891016Y-73663147D01*
X143891019Y-73663151D01*
X143891021Y-73663153D01*
X144048216Y-73833913D01*
X144048219Y-73833915D01*
X144048222Y-73833918D01*
X144231365Y-73976464D01*
X144231371Y-73976468D01*
X144231374Y-73976470D01*
X144435497Y-74086936D01*
X144549487Y-74126068D01*
X144655015Y-74162297D01*
X144655017Y-74162297D01*
X144655019Y-74162298D01*
X144883951Y-74200500D01*
X144883952Y-74200500D01*
X145116048Y-74200500D01*
X145116049Y-74200500D01*
X145344981Y-74162298D01*
X145564503Y-74086936D01*
X145768626Y-73976470D01*
X145951784Y-73833913D01*
X146108979Y-73663153D01*
X146235924Y-73468849D01*
X146329157Y-73256300D01*
X146386134Y-73031305D01*
X146386135Y-73031297D01*
X146405300Y-72800006D01*
X146405300Y-72799993D01*
X146386135Y-72568702D01*
X146386133Y-72568691D01*
X146329157Y-72343699D01*
X146235924Y-72131151D01*
X146108983Y-71936852D01*
X146108980Y-71936849D01*
X146108979Y-71936847D01*
X145951784Y-71766087D01*
X145951779Y-71766083D01*
X145951777Y-71766081D01*
X145768634Y-71623535D01*
X145768628Y-71623531D01*
X145564504Y-71513064D01*
X145564495Y-71513061D01*
X145344984Y-71437702D01*
X145173282Y-71409050D01*
X145116049Y-71399500D01*
X144883951Y-71399500D01*
X144838164Y-71407140D01*
X144655015Y-71437702D01*
X144435504Y-71513061D01*
X144435495Y-71513064D01*
X144231371Y-71623531D01*
X144231365Y-71623535D01*
X144048222Y-71766081D01*
X144048219Y-71766084D01*
X143891016Y-71936852D01*
X143764075Y-72131151D01*
X143670842Y-72343699D01*
X143613866Y-72568691D01*
X143613864Y-72568702D01*
X143594700Y-72799993D01*
X143594700Y-72800006D01*
X140564222Y-72800006D01*
X140564224Y-72800000D01*
X140651929Y-72588259D01*
X140658722Y-72571860D01*
X140718452Y-72323070D01*
X140738526Y-72068000D01*
X140718452Y-71812930D01*
X140658722Y-71564140D01*
X140658720Y-71564135D01*
X140560811Y-71327760D01*
X140560809Y-71327757D01*
X140427124Y-71109603D01*
X140427121Y-71109598D01*
X140333509Y-70999993D01*
X140260956Y-70915044D01*
X140154591Y-70824200D01*
X140066401Y-70748878D01*
X140066396Y-70748875D01*
X139848242Y-70615190D01*
X139848239Y-70615188D01*
X139611864Y-70517279D01*
X139611860Y-70517278D01*
X139549506Y-70502307D01*
X139488916Y-70467518D01*
X139456753Y-70405491D01*
X139463229Y-70335922D01*
X139506289Y-70280899D01*
X139540494Y-70265026D01*
X139540130Y-70263964D01*
X139644528Y-70228123D01*
X139764503Y-70186936D01*
X139968626Y-70076470D01*
X140151784Y-69933913D01*
X140308979Y-69763153D01*
X140435924Y-69568849D01*
X140529157Y-69356300D01*
X140586134Y-69131305D01*
X140586135Y-69131297D01*
X140605300Y-68900006D01*
X140605300Y-68899993D01*
X140597015Y-68800006D01*
X141994700Y-68800006D01*
X142013864Y-69031297D01*
X142013866Y-69031308D01*
X142070842Y-69256300D01*
X142164075Y-69468848D01*
X142291016Y-69663147D01*
X142291019Y-69663151D01*
X142291021Y-69663153D01*
X142448216Y-69833913D01*
X142448219Y-69833915D01*
X142448222Y-69833918D01*
X142631365Y-69976464D01*
X142631371Y-69976468D01*
X142631374Y-69976470D01*
X142778318Y-70055992D01*
X142816157Y-70076470D01*
X142835497Y-70086936D01*
X142949487Y-70126068D01*
X143055015Y-70162297D01*
X143055017Y-70162297D01*
X143055019Y-70162298D01*
X143283951Y-70200500D01*
X143283952Y-70200500D01*
X143516048Y-70200500D01*
X143516049Y-70200500D01*
X143744981Y-70162298D01*
X143964503Y-70086936D01*
X144168626Y-69976470D01*
X144351784Y-69833913D01*
X144508979Y-69663153D01*
X144635924Y-69468849D01*
X144729157Y-69256300D01*
X144786134Y-69031305D01*
X144796682Y-68904008D01*
X144805300Y-68800006D01*
X144805300Y-68799993D01*
X144786135Y-68568702D01*
X144786133Y-68568691D01*
X144729157Y-68343699D01*
X144635924Y-68131151D01*
X144508983Y-67936852D01*
X144508980Y-67936849D01*
X144508979Y-67936847D01*
X144351784Y-67766087D01*
X144351779Y-67766083D01*
X144351777Y-67766081D01*
X144168634Y-67623535D01*
X144168628Y-67623531D01*
X143964504Y-67513064D01*
X143964495Y-67513061D01*
X143744984Y-67437702D01*
X143573282Y-67409050D01*
X143516049Y-67399500D01*
X143283951Y-67399500D01*
X143238164Y-67407140D01*
X143055015Y-67437702D01*
X142835504Y-67513061D01*
X142835495Y-67513064D01*
X142631371Y-67623531D01*
X142631365Y-67623535D01*
X142448222Y-67766081D01*
X142448219Y-67766084D01*
X142448216Y-67766086D01*
X142448216Y-67766087D01*
X142389267Y-67830122D01*
X142291016Y-67936852D01*
X142164075Y-68131151D01*
X142070842Y-68343699D01*
X142013866Y-68568691D01*
X142013864Y-68568702D01*
X141994700Y-68799993D01*
X141994700Y-68800006D01*
X140597015Y-68800006D01*
X140586135Y-68668702D01*
X140586133Y-68668691D01*
X140529157Y-68443699D01*
X140435924Y-68231151D01*
X140308983Y-68036852D01*
X140308980Y-68036849D01*
X140308979Y-68036847D01*
X140151784Y-67866087D01*
X140151779Y-67866083D01*
X140151777Y-67866081D01*
X139968634Y-67723535D01*
X139968628Y-67723531D01*
X139764504Y-67613064D01*
X139764495Y-67613061D01*
X139544984Y-67537702D01*
X139373282Y-67509050D01*
X139316049Y-67499500D01*
X139083951Y-67499500D01*
X139038164Y-67507140D01*
X138855015Y-67537702D01*
X138635504Y-67613061D01*
X138635495Y-67613064D01*
X138431371Y-67723531D01*
X138431365Y-67723535D01*
X138248222Y-67866081D01*
X138248219Y-67866084D01*
X138091016Y-68036852D01*
X137964075Y-68231151D01*
X137870842Y-68443699D01*
X137813866Y-68668691D01*
X137813864Y-68668702D01*
X137794700Y-68899993D01*
X137794700Y-68900006D01*
X137813864Y-69131297D01*
X137813866Y-69131308D01*
X137870842Y-69356300D01*
X137964075Y-69568848D01*
X138091016Y-69763147D01*
X138091019Y-69763151D01*
X138091021Y-69763153D01*
X138248216Y-69933913D01*
X138248219Y-69933915D01*
X138248222Y-69933918D01*
X138431365Y-70076464D01*
X138431371Y-70076468D01*
X138431374Y-70076470D01*
X138635497Y-70186936D01*
X138675008Y-70200500D01*
X138785784Y-70238530D01*
X138842799Y-70278915D01*
X138868930Y-70343715D01*
X138855879Y-70412355D01*
X138807790Y-70463043D01*
X138774469Y-70476385D01*
X138604135Y-70517279D01*
X138367760Y-70615188D01*
X138367757Y-70615190D01*
X138149603Y-70748875D01*
X138149598Y-70748878D01*
X137955044Y-70915044D01*
X137788878Y-71109598D01*
X137788875Y-71109603D01*
X137655190Y-71327757D01*
X137655188Y-71327760D01*
X137557279Y-71564135D01*
X137497547Y-71812935D01*
X137477474Y-72068000D01*
X135658526Y-72068000D01*
X135638452Y-71812930D01*
X135578722Y-71564140D01*
X135578720Y-71564135D01*
X135480811Y-71327760D01*
X135480809Y-71327757D01*
X135347124Y-71109603D01*
X135347121Y-71109598D01*
X135253509Y-70999993D01*
X135180956Y-70915044D01*
X135074591Y-70824200D01*
X134986401Y-70748878D01*
X134986396Y-70748875D01*
X134768242Y-70615190D01*
X134768239Y-70615188D01*
X134531864Y-70517279D01*
X134469510Y-70502309D01*
X134283070Y-70457548D01*
X134283067Y-70457547D01*
X134283064Y-70457547D01*
X134028000Y-70437474D01*
X133772935Y-70457547D01*
X133772931Y-70457547D01*
X133772930Y-70457548D01*
X133648535Y-70487413D01*
X133524135Y-70517279D01*
X133287760Y-70615188D01*
X133287757Y-70615190D01*
X133069603Y-70748875D01*
X133069598Y-70748878D01*
X132875044Y-70915044D01*
X132708878Y-71109598D01*
X132708875Y-71109603D01*
X132575190Y-71327757D01*
X132575188Y-71327760D01*
X132477279Y-71564135D01*
X132417547Y-71812935D01*
X132397474Y-72068000D01*
X124138968Y-72068000D01*
X124131112Y-72043823D01*
X124127181Y-72031722D01*
X124127180Y-72031721D01*
X124127179Y-72031716D01*
X124032533Y-71867784D01*
X123905871Y-71727112D01*
X123825679Y-71668849D01*
X123752734Y-71615851D01*
X123752729Y-71615848D01*
X123579807Y-71538857D01*
X123579802Y-71538855D01*
X123434001Y-71507865D01*
X123394646Y-71499500D01*
X123205354Y-71499500D01*
X123172897Y-71506398D01*
X123020197Y-71538855D01*
X123020192Y-71538857D01*
X122847270Y-71615848D01*
X122847265Y-71615851D01*
X122694129Y-71727111D01*
X122567466Y-71867785D01*
X122472821Y-72031715D01*
X122472818Y-72031722D01*
X122425787Y-72176470D01*
X122414326Y-72211744D01*
X122394540Y-72400000D01*
X109319045Y-72400000D01*
X109544981Y-72362298D01*
X109764503Y-72286936D01*
X109968626Y-72176470D01*
X110151784Y-72033913D01*
X110308979Y-71863153D01*
X110435924Y-71668849D01*
X110529157Y-71456300D01*
X110586134Y-71231305D01*
X110586135Y-71231297D01*
X110605300Y-71000006D01*
X110605300Y-70999993D01*
X110586135Y-70768702D01*
X110586133Y-70768691D01*
X110529157Y-70543699D01*
X110435924Y-70331151D01*
X110308983Y-70136852D01*
X110308980Y-70136849D01*
X110308979Y-70136847D01*
X110151784Y-69966087D01*
X110151779Y-69966083D01*
X110151777Y-69966081D01*
X109968634Y-69823535D01*
X109968628Y-69823531D01*
X109764504Y-69713064D01*
X109764495Y-69713061D01*
X109544984Y-69637702D01*
X109373282Y-69609050D01*
X109316049Y-69599500D01*
X109083951Y-69599500D01*
X109038164Y-69607140D01*
X108855015Y-69637702D01*
X108635504Y-69713061D01*
X108635495Y-69713064D01*
X108431371Y-69823531D01*
X108431365Y-69823535D01*
X108248222Y-69966081D01*
X108248219Y-69966084D01*
X108248216Y-69966086D01*
X108248216Y-69966087D01*
X108238660Y-69976468D01*
X108091016Y-70136852D01*
X107964075Y-70331151D01*
X107870842Y-70543699D01*
X107813866Y-70768691D01*
X107813864Y-70768702D01*
X107794700Y-70999993D01*
X107794700Y-71000006D01*
X84836000Y-71000006D01*
X84836000Y-69598097D01*
X88799500Y-69598097D01*
X88836446Y-69831368D01*
X88909433Y-70055996D01*
X88976151Y-70186936D01*
X89016657Y-70266433D01*
X89155483Y-70457510D01*
X89322490Y-70624517D01*
X89513567Y-70763343D01*
X89524085Y-70768702D01*
X89724003Y-70870566D01*
X89724005Y-70870566D01*
X89724008Y-70870568D01*
X89844412Y-70909689D01*
X89948631Y-70943553D01*
X90181903Y-70980500D01*
X90181908Y-70980500D01*
X91418097Y-70980500D01*
X91651368Y-70943553D01*
X91739109Y-70915044D01*
X91875992Y-70870568D01*
X92086433Y-70763343D01*
X92277510Y-70624517D01*
X92444517Y-70457510D01*
X92583343Y-70266433D01*
X92690568Y-70055992D01*
X92763553Y-69831368D01*
X92774358Y-69763147D01*
X92800500Y-69598097D01*
X93799500Y-69598097D01*
X93836446Y-69831368D01*
X93909433Y-70055996D01*
X93976151Y-70186936D01*
X94016657Y-70266433D01*
X94155483Y-70457510D01*
X94322490Y-70624517D01*
X94513567Y-70763343D01*
X94524085Y-70768702D01*
X94724003Y-70870566D01*
X94724005Y-70870566D01*
X94724008Y-70870568D01*
X94844412Y-70909689D01*
X94948631Y-70943553D01*
X95181903Y-70980500D01*
X95181908Y-70980500D01*
X96418097Y-70980500D01*
X96651368Y-70943553D01*
X96739109Y-70915044D01*
X96875992Y-70870568D01*
X97086433Y-70763343D01*
X97277510Y-70624517D01*
X97444517Y-70457510D01*
X97583343Y-70266433D01*
X97690568Y-70055992D01*
X97763553Y-69831368D01*
X97774358Y-69763147D01*
X97800500Y-69598097D01*
X97800500Y-69361902D01*
X97763553Y-69128631D01*
X97690566Y-68904003D01*
X97583342Y-68693566D01*
X97565269Y-68668691D01*
X97444517Y-68502490D01*
X97277510Y-68335483D01*
X97242872Y-68310317D01*
X97200207Y-68254989D01*
X97194228Y-68185375D01*
X97226833Y-68123580D01*
X97242873Y-68109682D01*
X97277510Y-68084517D01*
X97444517Y-67917510D01*
X97583343Y-67726433D01*
X97690568Y-67515992D01*
X97763553Y-67291368D01*
X97782958Y-67168849D01*
X97800500Y-67058097D01*
X97800500Y-66821902D01*
X97797032Y-66800006D01*
X121194700Y-66800006D01*
X121213864Y-67031297D01*
X121213866Y-67031308D01*
X121270842Y-67256300D01*
X121364075Y-67468848D01*
X121491016Y-67663147D01*
X121491019Y-67663151D01*
X121491021Y-67663153D01*
X121648216Y-67833913D01*
X121648219Y-67833915D01*
X121648222Y-67833918D01*
X121831365Y-67976464D01*
X121831371Y-67976468D01*
X121831374Y-67976470D01*
X121942941Y-68036847D01*
X122031021Y-68084514D01*
X122035497Y-68086936D01*
X122101754Y-68109682D01*
X122255015Y-68162297D01*
X122255017Y-68162297D01*
X122255019Y-68162298D01*
X122483951Y-68200500D01*
X122483952Y-68200500D01*
X122716048Y-68200500D01*
X122716049Y-68200500D01*
X122944981Y-68162298D01*
X123164503Y-68086936D01*
X123368626Y-67976470D01*
X123551784Y-67833913D01*
X123708979Y-67663153D01*
X123835924Y-67468849D01*
X123929157Y-67256300D01*
X123986134Y-67031305D01*
X124003485Y-66821908D01*
X124005300Y-66800006D01*
X124005300Y-66799993D01*
X123986135Y-66568702D01*
X123986133Y-66568691D01*
X123968740Y-66500006D01*
X124394700Y-66500006D01*
X124413864Y-66731297D01*
X124413866Y-66731308D01*
X124470842Y-66956300D01*
X124564075Y-67168848D01*
X124691016Y-67363147D01*
X124691019Y-67363151D01*
X124691021Y-67363153D01*
X124848216Y-67533913D01*
X124848219Y-67533915D01*
X124848222Y-67533918D01*
X125031365Y-67676464D01*
X125031371Y-67676468D01*
X125031374Y-67676470D01*
X125235497Y-67786936D01*
X125349487Y-67826068D01*
X125455015Y-67862297D01*
X125455017Y-67862297D01*
X125455019Y-67862298D01*
X125683951Y-67900500D01*
X125683952Y-67900500D01*
X125916048Y-67900500D01*
X125916049Y-67900500D01*
X126144981Y-67862298D01*
X126364503Y-67786936D01*
X126568626Y-67676470D01*
X126585744Y-67663147D01*
X126650094Y-67613061D01*
X126751784Y-67533913D01*
X126908979Y-67363153D01*
X127035924Y-67168849D01*
X127129157Y-66956300D01*
X127186134Y-66731305D01*
X127197956Y-66588631D01*
X127205300Y-66500006D01*
X127205300Y-66499993D01*
X127186135Y-66268702D01*
X127186133Y-66268691D01*
X127129157Y-66043699D01*
X127035924Y-65831151D01*
X126908983Y-65636852D01*
X126908980Y-65636849D01*
X126908979Y-65636847D01*
X126751784Y-65466087D01*
X126751779Y-65466083D01*
X126751777Y-65466081D01*
X126568634Y-65323535D01*
X126568628Y-65323531D01*
X126364504Y-65213064D01*
X126364495Y-65213061D01*
X126144984Y-65137702D01*
X125973282Y-65109050D01*
X125916049Y-65099500D01*
X125683951Y-65099500D01*
X125638164Y-65107140D01*
X125455015Y-65137702D01*
X125235504Y-65213061D01*
X125235495Y-65213064D01*
X125031371Y-65323531D01*
X125031365Y-65323535D01*
X124848222Y-65466081D01*
X124848219Y-65466084D01*
X124848216Y-65466086D01*
X124848216Y-65466087D01*
X124804974Y-65513061D01*
X124691016Y-65636852D01*
X124564075Y-65831151D01*
X124470842Y-66043699D01*
X124413866Y-66268691D01*
X124413864Y-66268702D01*
X124394700Y-66499993D01*
X124394700Y-66500006D01*
X123968740Y-66500006D01*
X123929157Y-66343699D01*
X123835924Y-66131151D01*
X123708983Y-65936852D01*
X123708980Y-65936849D01*
X123708979Y-65936847D01*
X123551784Y-65766087D01*
X123551779Y-65766083D01*
X123551777Y-65766081D01*
X123368634Y-65623535D01*
X123368628Y-65623531D01*
X123164504Y-65513064D01*
X123164495Y-65513061D01*
X122944984Y-65437702D01*
X122773282Y-65409050D01*
X122716049Y-65399500D01*
X122483951Y-65399500D01*
X122438164Y-65407140D01*
X122255015Y-65437702D01*
X122035504Y-65513061D01*
X122035495Y-65513064D01*
X121831371Y-65623531D01*
X121831365Y-65623535D01*
X121648222Y-65766081D01*
X121648219Y-65766084D01*
X121491016Y-65936852D01*
X121364075Y-66131151D01*
X121270842Y-66343699D01*
X121213866Y-66568691D01*
X121213864Y-66568702D01*
X121194700Y-66799993D01*
X121194700Y-66800006D01*
X97797032Y-66800006D01*
X97763553Y-66588631D01*
X97690566Y-66364003D01*
X97583342Y-66153566D01*
X97583340Y-66153563D01*
X97493449Y-66029839D01*
X97469970Y-65964035D01*
X97485795Y-65895981D01*
X97534744Y-65848410D01*
X97534546Y-65848047D01*
X97535851Y-65847334D01*
X97535901Y-65847286D01*
X97536111Y-65847192D01*
X97542326Y-65843797D01*
X97542331Y-65843796D01*
X97657546Y-65757546D01*
X97743796Y-65642331D01*
X97794091Y-65507483D01*
X97800500Y-65447873D01*
X97800500Y-64400006D01*
X102094700Y-64400006D01*
X102113864Y-64631297D01*
X102113866Y-64631308D01*
X102170842Y-64856300D01*
X102264075Y-65068848D01*
X102391016Y-65263147D01*
X102391019Y-65263151D01*
X102391021Y-65263153D01*
X102548216Y-65433913D01*
X102548219Y-65433915D01*
X102548222Y-65433918D01*
X102731365Y-65576464D01*
X102731371Y-65576468D01*
X102731374Y-65576470D01*
X102935497Y-65686936D01*
X103049487Y-65726068D01*
X103155015Y-65762297D01*
X103155017Y-65762297D01*
X103155019Y-65762298D01*
X103383951Y-65800500D01*
X103383952Y-65800500D01*
X103616048Y-65800500D01*
X103616049Y-65800500D01*
X103844981Y-65762298D01*
X104064503Y-65686936D01*
X104268626Y-65576470D01*
X104451784Y-65433913D01*
X104608979Y-65263153D01*
X104735924Y-65068849D01*
X104829157Y-64856300D01*
X104886134Y-64631305D01*
X104889515Y-64590500D01*
X104905300Y-64400006D01*
X104905300Y-64399993D01*
X104886135Y-64168702D01*
X104886133Y-64168691D01*
X104829157Y-63943699D01*
X104735924Y-63731151D01*
X104608983Y-63536852D01*
X104608980Y-63536849D01*
X104608979Y-63536847D01*
X104451784Y-63366087D01*
X104451779Y-63366083D01*
X104451777Y-63366081D01*
X104268634Y-63223535D01*
X104268628Y-63223531D01*
X104064504Y-63113064D01*
X104064495Y-63113061D01*
X103844984Y-63037702D01*
X103673282Y-63009050D01*
X103616049Y-62999500D01*
X103383951Y-62999500D01*
X103338164Y-63007140D01*
X103155015Y-63037702D01*
X102935504Y-63113061D01*
X102935495Y-63113064D01*
X102731371Y-63223531D01*
X102731365Y-63223535D01*
X102548222Y-63366081D01*
X102548219Y-63366084D01*
X102391016Y-63536852D01*
X102264075Y-63731151D01*
X102170842Y-63943699D01*
X102113866Y-64168691D01*
X102113864Y-64168702D01*
X102094700Y-64399993D01*
X102094700Y-64400006D01*
X97800500Y-64400006D01*
X97800499Y-63352128D01*
X97794091Y-63292517D01*
X97785204Y-63268691D01*
X97743797Y-63157671D01*
X97743793Y-63157664D01*
X97657547Y-63042455D01*
X97657544Y-63042452D01*
X97542335Y-62956206D01*
X97542328Y-62956202D01*
X97407482Y-62905908D01*
X97407483Y-62905908D01*
X97347883Y-62899501D01*
X97347881Y-62899500D01*
X97347873Y-62899500D01*
X97347864Y-62899500D01*
X94252129Y-62899500D01*
X94252123Y-62899501D01*
X94192516Y-62905908D01*
X94057671Y-62956202D01*
X94057664Y-62956206D01*
X93942455Y-63042452D01*
X93942452Y-63042455D01*
X93856206Y-63157664D01*
X93856202Y-63157671D01*
X93805908Y-63292517D01*
X93799501Y-63352116D01*
X93799501Y-63352123D01*
X93799500Y-63352135D01*
X93799500Y-65447870D01*
X93799501Y-65447876D01*
X93805908Y-65507483D01*
X93856202Y-65642328D01*
X93856206Y-65642335D01*
X93942452Y-65757544D01*
X93942455Y-65757547D01*
X94057664Y-65843793D01*
X94065454Y-65848047D01*
X94063646Y-65851357D01*
X94105351Y-65882449D01*
X94129897Y-65947865D01*
X94115180Y-66016167D01*
X94106549Y-66029840D01*
X94016659Y-66153563D01*
X93909433Y-66364003D01*
X93836446Y-66588631D01*
X93799500Y-66821902D01*
X93799500Y-67058097D01*
X93836446Y-67291368D01*
X93909433Y-67515996D01*
X94015178Y-67723530D01*
X94016657Y-67726433D01*
X94155483Y-67917510D01*
X94322490Y-68084517D01*
X94357127Y-68109683D01*
X94399792Y-68165013D01*
X94405771Y-68234626D01*
X94373165Y-68296421D01*
X94357130Y-68310315D01*
X94339365Y-68323222D01*
X94322488Y-68335484D01*
X94155485Y-68502487D01*
X94155485Y-68502488D01*
X94155483Y-68502490D01*
X94107385Y-68568691D01*
X94016657Y-68693566D01*
X93909433Y-68904003D01*
X93836446Y-69128631D01*
X93799500Y-69361902D01*
X93799500Y-69598097D01*
X92800500Y-69598097D01*
X92800500Y-69361902D01*
X92763553Y-69128631D01*
X92690566Y-68904003D01*
X92583342Y-68693566D01*
X92565269Y-68668691D01*
X92444517Y-68502490D01*
X92277510Y-68335483D01*
X92242872Y-68310317D01*
X92200207Y-68254989D01*
X92194228Y-68185375D01*
X92226833Y-68123580D01*
X92242873Y-68109682D01*
X92277510Y-68084517D01*
X92444517Y-67917510D01*
X92583343Y-67726433D01*
X92690568Y-67515992D01*
X92763553Y-67291368D01*
X92782958Y-67168849D01*
X92800500Y-67058097D01*
X92800500Y-66821902D01*
X92763553Y-66588631D01*
X92690566Y-66364003D01*
X92583342Y-66153566D01*
X92583340Y-66153563D01*
X92493449Y-66029839D01*
X92469970Y-65964035D01*
X92485795Y-65895981D01*
X92534744Y-65848410D01*
X92534546Y-65848047D01*
X92535851Y-65847334D01*
X92535901Y-65847286D01*
X92536111Y-65847192D01*
X92542326Y-65843797D01*
X92542331Y-65843796D01*
X92657546Y-65757546D01*
X92743796Y-65642331D01*
X92794091Y-65507483D01*
X92800500Y-65447873D01*
X92800499Y-63352128D01*
X92794091Y-63292517D01*
X92785204Y-63268691D01*
X92743797Y-63157671D01*
X92743793Y-63157664D01*
X92657547Y-63042455D01*
X92657544Y-63042452D01*
X92542335Y-62956206D01*
X92542328Y-62956202D01*
X92407482Y-62905908D01*
X92407483Y-62905908D01*
X92347883Y-62899501D01*
X92347881Y-62899500D01*
X92347873Y-62899500D01*
X92347864Y-62899500D01*
X89252129Y-62899500D01*
X89252123Y-62899501D01*
X89192516Y-62905908D01*
X89057671Y-62956202D01*
X89057664Y-62956206D01*
X88942455Y-63042452D01*
X88942452Y-63042455D01*
X88856206Y-63157664D01*
X88856202Y-63157671D01*
X88805908Y-63292517D01*
X88799501Y-63352116D01*
X88799501Y-63352123D01*
X88799500Y-63352135D01*
X88799500Y-65447870D01*
X88799501Y-65447876D01*
X88805908Y-65507483D01*
X88856202Y-65642328D01*
X88856206Y-65642335D01*
X88942452Y-65757544D01*
X88942455Y-65757547D01*
X89057664Y-65843793D01*
X89065454Y-65848047D01*
X89063646Y-65851357D01*
X89105351Y-65882449D01*
X89129897Y-65947865D01*
X89115180Y-66016167D01*
X89106549Y-66029840D01*
X89016659Y-66153563D01*
X88909433Y-66364003D01*
X88836446Y-66588631D01*
X88799500Y-66821902D01*
X88799500Y-67058097D01*
X88836446Y-67291368D01*
X88909433Y-67515996D01*
X89015178Y-67723530D01*
X89016657Y-67726433D01*
X89155483Y-67917510D01*
X89322490Y-68084517D01*
X89357127Y-68109683D01*
X89399792Y-68165013D01*
X89405771Y-68234626D01*
X89373165Y-68296421D01*
X89357130Y-68310315D01*
X89339365Y-68323222D01*
X89322488Y-68335484D01*
X89155485Y-68502487D01*
X89155485Y-68502488D01*
X89155483Y-68502490D01*
X89107385Y-68568691D01*
X89016657Y-68693566D01*
X88909433Y-68904003D01*
X88836446Y-69128631D01*
X88799500Y-69361902D01*
X88799500Y-69598097D01*
X84836000Y-69598097D01*
X84836000Y-61200006D01*
X100894700Y-61200006D01*
X100913864Y-61431297D01*
X100913866Y-61431308D01*
X100970842Y-61656300D01*
X101064075Y-61868848D01*
X101191016Y-62063147D01*
X101191019Y-62063151D01*
X101191021Y-62063153D01*
X101348216Y-62233913D01*
X101348219Y-62233915D01*
X101348222Y-62233918D01*
X101531365Y-62376464D01*
X101531371Y-62376468D01*
X101531374Y-62376470D01*
X101735497Y-62486936D01*
X101849487Y-62526068D01*
X101955015Y-62562297D01*
X101955017Y-62562297D01*
X101955019Y-62562298D01*
X102183951Y-62600500D01*
X102183952Y-62600500D01*
X102416048Y-62600500D01*
X102416049Y-62600500D01*
X102644981Y-62562298D01*
X102864503Y-62486936D01*
X103068626Y-62376470D01*
X103251784Y-62233913D01*
X103408979Y-62063153D01*
X103535924Y-61868849D01*
X103629157Y-61656300D01*
X103686134Y-61431305D01*
X103690678Y-61376468D01*
X103705300Y-61200006D01*
X103705300Y-61199993D01*
X103686135Y-60968702D01*
X103686133Y-60968691D01*
X103629157Y-60743699D01*
X103535924Y-60531151D01*
X103408983Y-60336852D01*
X103408980Y-60336849D01*
X103408979Y-60336847D01*
X103283009Y-60200006D01*
X107194700Y-60200006D01*
X107213864Y-60431297D01*
X107213866Y-60431308D01*
X107270842Y-60656300D01*
X107364075Y-60868848D01*
X107491016Y-61063147D01*
X107491019Y-61063151D01*
X107491021Y-61063153D01*
X107648216Y-61233913D01*
X107648219Y-61233915D01*
X107648222Y-61233918D01*
X107831365Y-61376464D01*
X107831371Y-61376468D01*
X107831374Y-61376470D01*
X108035497Y-61486936D01*
X108149487Y-61526068D01*
X108255015Y-61562297D01*
X108255017Y-61562297D01*
X108255019Y-61562298D01*
X108483951Y-61600500D01*
X108483952Y-61600500D01*
X108716048Y-61600500D01*
X108716049Y-61600500D01*
X108944981Y-61562298D01*
X109164503Y-61486936D01*
X109368626Y-61376470D01*
X109551784Y-61233913D01*
X109708979Y-61063153D01*
X109835924Y-60868849D01*
X109929157Y-60656300D01*
X109986134Y-60431305D01*
X109986135Y-60431297D01*
X110005300Y-60200006D01*
X117494700Y-60200006D01*
X117513864Y-60431297D01*
X117513866Y-60431308D01*
X117570842Y-60656300D01*
X117664075Y-60868848D01*
X117791016Y-61063147D01*
X117791019Y-61063151D01*
X117791021Y-61063153D01*
X117948216Y-61233913D01*
X117948219Y-61233915D01*
X117948222Y-61233918D01*
X118131365Y-61376464D01*
X118131371Y-61376468D01*
X118131374Y-61376470D01*
X118335497Y-61486936D01*
X118449487Y-61526068D01*
X118555015Y-61562297D01*
X118555017Y-61562297D01*
X118555019Y-61562298D01*
X118783951Y-61600500D01*
X118783952Y-61600500D01*
X119016048Y-61600500D01*
X119016049Y-61600500D01*
X119244981Y-61562298D01*
X119464503Y-61486936D01*
X119668626Y-61376470D01*
X119851784Y-61233913D01*
X120008979Y-61063153D01*
X120135924Y-60868849D01*
X120229157Y-60656300D01*
X120286134Y-60431305D01*
X120286135Y-60431297D01*
X120305300Y-60200006D01*
X120305300Y-60199993D01*
X120286135Y-59968702D01*
X120286133Y-59968691D01*
X120229157Y-59743699D01*
X120135924Y-59531151D01*
X120008983Y-59336852D01*
X120008980Y-59336849D01*
X120008979Y-59336847D01*
X119851784Y-59166087D01*
X119851779Y-59166083D01*
X119851777Y-59166081D01*
X119668634Y-59023535D01*
X119668628Y-59023531D01*
X119464504Y-58913064D01*
X119464495Y-58913061D01*
X119244984Y-58837702D01*
X119073282Y-58809050D01*
X119016049Y-58799500D01*
X118783951Y-58799500D01*
X118738164Y-58807140D01*
X118555015Y-58837702D01*
X118335504Y-58913061D01*
X118335495Y-58913064D01*
X118131371Y-59023531D01*
X118131365Y-59023535D01*
X117948222Y-59166081D01*
X117948219Y-59166084D01*
X117948216Y-59166086D01*
X117948216Y-59166087D01*
X117909029Y-59208656D01*
X117791016Y-59336852D01*
X117664075Y-59531151D01*
X117570842Y-59743699D01*
X117513866Y-59968691D01*
X117513864Y-59968702D01*
X117494700Y-60199993D01*
X117494700Y-60200006D01*
X110005300Y-60200006D01*
X110005300Y-60199993D01*
X109986135Y-59968702D01*
X109986133Y-59968691D01*
X109929157Y-59743699D01*
X109835924Y-59531151D01*
X109708983Y-59336852D01*
X109708980Y-59336849D01*
X109708979Y-59336847D01*
X109551784Y-59166087D01*
X109551779Y-59166083D01*
X109551777Y-59166081D01*
X109368634Y-59023535D01*
X109368628Y-59023531D01*
X109164504Y-58913064D01*
X109164495Y-58913061D01*
X108944984Y-58837702D01*
X108773282Y-58809050D01*
X108716049Y-58799500D01*
X108483951Y-58799500D01*
X108438164Y-58807140D01*
X108255015Y-58837702D01*
X108035504Y-58913061D01*
X108035495Y-58913064D01*
X107831371Y-59023531D01*
X107831365Y-59023535D01*
X107648222Y-59166081D01*
X107648219Y-59166084D01*
X107648216Y-59166086D01*
X107648216Y-59166087D01*
X107609029Y-59208656D01*
X107491016Y-59336852D01*
X107364075Y-59531151D01*
X107270842Y-59743699D01*
X107213866Y-59968691D01*
X107213864Y-59968702D01*
X107194700Y-60199993D01*
X107194700Y-60200006D01*
X103283009Y-60200006D01*
X103251784Y-60166087D01*
X103251779Y-60166083D01*
X103251777Y-60166081D01*
X103068634Y-60023535D01*
X103068628Y-60023531D01*
X102864504Y-59913064D01*
X102864495Y-59913061D01*
X102644984Y-59837702D01*
X102469881Y-59808483D01*
X102416049Y-59799500D01*
X102183951Y-59799500D01*
X102138164Y-59807140D01*
X101955015Y-59837702D01*
X101735504Y-59913061D01*
X101735495Y-59913064D01*
X101531371Y-60023531D01*
X101531365Y-60023535D01*
X101348222Y-60166081D01*
X101348219Y-60166084D01*
X101348216Y-60166086D01*
X101348216Y-60166087D01*
X101307011Y-60210848D01*
X101191016Y-60336852D01*
X101064075Y-60531151D01*
X100970842Y-60743699D01*
X100913866Y-60968691D01*
X100913864Y-60968702D01*
X100894700Y-61199993D01*
X100894700Y-61200006D01*
X84836000Y-61200006D01*
X84836000Y-58291962D01*
X85521500Y-58291962D01*
X85554242Y-58498687D01*
X85560910Y-58540785D01*
X85638760Y-58780383D01*
X85753132Y-59004848D01*
X85901201Y-59208649D01*
X85901205Y-59208654D01*
X86079345Y-59386794D01*
X86079350Y-59386798D01*
X86217178Y-59486935D01*
X86283155Y-59534870D01*
X86411961Y-59600500D01*
X86507616Y-59649239D01*
X86507618Y-59649239D01*
X86507621Y-59649241D01*
X86747215Y-59727090D01*
X86996038Y-59766500D01*
X86996039Y-59766500D01*
X87247961Y-59766500D01*
X87247962Y-59766500D01*
X87496785Y-59727090D01*
X87736379Y-59649241D01*
X87960845Y-59534870D01*
X88164656Y-59386793D01*
X88342793Y-59208656D01*
X88490870Y-59004845D01*
X88605241Y-58780379D01*
X88683090Y-58540785D01*
X88722500Y-58291962D01*
X88722500Y-58040038D01*
X88716160Y-58000006D01*
X99694700Y-58000006D01*
X99713864Y-58231297D01*
X99713866Y-58231308D01*
X99770842Y-58456300D01*
X99864075Y-58668848D01*
X99991016Y-58863147D01*
X99991019Y-58863151D01*
X99991021Y-58863153D01*
X100148216Y-59033913D01*
X100148219Y-59033915D01*
X100148222Y-59033918D01*
X100331365Y-59176464D01*
X100331371Y-59176468D01*
X100331374Y-59176470D01*
X100535497Y-59286936D01*
X100649487Y-59326068D01*
X100755015Y-59362297D01*
X100755017Y-59362297D01*
X100755019Y-59362298D01*
X100983951Y-59400500D01*
X100983952Y-59400500D01*
X101216048Y-59400500D01*
X101216049Y-59400500D01*
X101444981Y-59362298D01*
X101664503Y-59286936D01*
X101868626Y-59176470D01*
X102051784Y-59033913D01*
X102208979Y-58863153D01*
X102335924Y-58668849D01*
X102429157Y-58456300D01*
X102486134Y-58231305D01*
X102486135Y-58231297D01*
X102488728Y-58200006D01*
X121094700Y-58200006D01*
X121113864Y-58431297D01*
X121113866Y-58431308D01*
X121170842Y-58656300D01*
X121264075Y-58868848D01*
X121391016Y-59063147D01*
X121391019Y-59063151D01*
X121391021Y-59063153D01*
X121548216Y-59233913D01*
X121548219Y-59233915D01*
X121548222Y-59233918D01*
X121731365Y-59376464D01*
X121731371Y-59376468D01*
X121731374Y-59376470D01*
X121935497Y-59486936D01*
X122049487Y-59526068D01*
X122155015Y-59562297D01*
X122155017Y-59562297D01*
X122155019Y-59562298D01*
X122383951Y-59600500D01*
X122383952Y-59600500D01*
X122417959Y-59600500D01*
X122484998Y-59620185D01*
X122530753Y-59672989D01*
X122540697Y-59742147D01*
X122511672Y-59805703D01*
X122509225Y-59808442D01*
X122473465Y-59847289D01*
X122391016Y-59936852D01*
X122264075Y-60131151D01*
X122170842Y-60343699D01*
X122113866Y-60568691D01*
X122113864Y-60568702D01*
X122094700Y-60799993D01*
X122094700Y-60800006D01*
X122113864Y-61031297D01*
X122113866Y-61031308D01*
X122170842Y-61256300D01*
X122264075Y-61468848D01*
X122391016Y-61663147D01*
X122391019Y-61663151D01*
X122391021Y-61663153D01*
X122548216Y-61833913D01*
X122647735Y-61911371D01*
X122688547Y-61968080D01*
X122692222Y-62037853D01*
X122657591Y-62098537D01*
X122595649Y-62130864D01*
X122591984Y-62131532D01*
X122555022Y-62137700D01*
X122555017Y-62137701D01*
X122335504Y-62213061D01*
X122335495Y-62213064D01*
X122131371Y-62323531D01*
X122131365Y-62323535D01*
X121948222Y-62466081D01*
X121948219Y-62466084D01*
X121948216Y-62466086D01*
X121948216Y-62466087D01*
X121889267Y-62530122D01*
X121791016Y-62636852D01*
X121664075Y-62831151D01*
X121570842Y-63043699D01*
X121513866Y-63268691D01*
X121513864Y-63268702D01*
X121494700Y-63499993D01*
X121494700Y-63500006D01*
X121513864Y-63731297D01*
X121513866Y-63731308D01*
X121570842Y-63956300D01*
X121664075Y-64168848D01*
X121791016Y-64363147D01*
X121791019Y-64363151D01*
X121791021Y-64363153D01*
X121948216Y-64533913D01*
X121948219Y-64533915D01*
X121948222Y-64533918D01*
X122131365Y-64676464D01*
X122131371Y-64676468D01*
X122131374Y-64676470D01*
X122335497Y-64786936D01*
X122449487Y-64826068D01*
X122555015Y-64862297D01*
X122555017Y-64862297D01*
X122555019Y-64862298D01*
X122783951Y-64900500D01*
X122783952Y-64900500D01*
X123016048Y-64900500D01*
X123016049Y-64900500D01*
X123244981Y-64862298D01*
X123464503Y-64786936D01*
X123668626Y-64676470D01*
X123851784Y-64533913D01*
X124008979Y-64363153D01*
X124135924Y-64168849D01*
X124229157Y-63956300D01*
X124245947Y-63889999D01*
X141649500Y-63889999D01*
X141649501Y-63890016D01*
X141660000Y-63992795D01*
X141660001Y-63992798D01*
X141715185Y-64159330D01*
X141715187Y-64159335D01*
X141750071Y-64215890D01*
X141807289Y-64308655D01*
X141931345Y-64432711D01*
X142080667Y-64524814D01*
X142247204Y-64579999D01*
X142349993Y-64590500D01*
X145850006Y-64590499D01*
X145952796Y-64579999D01*
X146119333Y-64524814D01*
X146268655Y-64432711D01*
X146392711Y-64308655D01*
X146484814Y-64159333D01*
X146539999Y-63992796D01*
X146550500Y-63890007D01*
X146550499Y-60389994D01*
X146548407Y-60369519D01*
X146539999Y-60287204D01*
X146539998Y-60287201D01*
X146514698Y-60210851D01*
X146484814Y-60120667D01*
X146392711Y-59971345D01*
X146268655Y-59847289D01*
X146137676Y-59766500D01*
X146119335Y-59755187D01*
X146119330Y-59755185D01*
X146117861Y-59754698D01*
X145952796Y-59700001D01*
X145952794Y-59700000D01*
X145850008Y-59689500D01*
X142350000Y-59689500D01*
X142349983Y-59689501D01*
X142247204Y-59700000D01*
X142247201Y-59700001D01*
X142080669Y-59755185D01*
X142080664Y-59755187D01*
X141931343Y-59847290D01*
X141807290Y-59971343D01*
X141715187Y-60120664D01*
X141715186Y-60120667D01*
X141660001Y-60287204D01*
X141660001Y-60287205D01*
X141660000Y-60287205D01*
X141649500Y-60389985D01*
X141649500Y-63889999D01*
X124245947Y-63889999D01*
X124286134Y-63731305D01*
X124286147Y-63731151D01*
X124305300Y-63500006D01*
X124305300Y-63499993D01*
X124286135Y-63268702D01*
X124286133Y-63268691D01*
X124229157Y-63043699D01*
X124135924Y-62831151D01*
X124008983Y-62636852D01*
X124008980Y-62636849D01*
X124008979Y-62636847D01*
X123851784Y-62466087D01*
X123752264Y-62388628D01*
X123711452Y-62331918D01*
X123707777Y-62262145D01*
X123742408Y-62201462D01*
X123804350Y-62169135D01*
X123808018Y-62168466D01*
X123844981Y-62162298D01*
X124064503Y-62086936D01*
X124268626Y-61976470D01*
X124451784Y-61833913D01*
X124608979Y-61663153D01*
X124666572Y-61575000D01*
X126725001Y-61575000D01*
X126725001Y-61624154D01*
X126735319Y-61725152D01*
X126789546Y-61888800D01*
X126789551Y-61888811D01*
X126880052Y-62035534D01*
X126880055Y-62035538D01*
X127001961Y-62157444D01*
X127001965Y-62157447D01*
X127148688Y-62247948D01*
X127148699Y-62247953D01*
X127312347Y-62302180D01*
X127413352Y-62312499D01*
X127450000Y-62312499D01*
X127450000Y-61575000D01*
X127950000Y-61575000D01*
X127950000Y-62312499D01*
X127986640Y-62312499D01*
X127986654Y-62312498D01*
X128087652Y-62302180D01*
X128251300Y-62247953D01*
X128251311Y-62247948D01*
X128398034Y-62157447D01*
X128398038Y-62157444D01*
X128519944Y-62035538D01*
X128519947Y-62035534D01*
X128610448Y-61888811D01*
X128610453Y-61888800D01*
X128664680Y-61725152D01*
X128674999Y-61624154D01*
X128675000Y-61624141D01*
X128675000Y-61575000D01*
X127950000Y-61575000D01*
X127450000Y-61575000D01*
X126725001Y-61575000D01*
X124666572Y-61575000D01*
X124735924Y-61468849D01*
X124829157Y-61256300D01*
X124886134Y-61031305D01*
X124886135Y-61031297D01*
X124905300Y-60800006D01*
X124905300Y-60799993D01*
X124886135Y-60568702D01*
X124886133Y-60568691D01*
X124829157Y-60343699D01*
X124735924Y-60131151D01*
X124608983Y-59936852D01*
X124608980Y-59936849D01*
X124608979Y-59936847D01*
X124482238Y-59799169D01*
X126724500Y-59799169D01*
X126724501Y-59799187D01*
X126734825Y-59900252D01*
X126771109Y-60009749D01*
X126789092Y-60064016D01*
X126872971Y-60200006D01*
X126879661Y-60210851D01*
X126993982Y-60325172D01*
X127027467Y-60386495D01*
X127022483Y-60456187D01*
X126993983Y-60500534D01*
X126880052Y-60614465D01*
X126789551Y-60761188D01*
X126789546Y-60761199D01*
X126735319Y-60924847D01*
X126725000Y-61025845D01*
X126725000Y-61075000D01*
X128674999Y-61075000D01*
X128674999Y-61025860D01*
X128674998Y-61025845D01*
X128664680Y-60924847D01*
X128610453Y-60761199D01*
X128610448Y-60761188D01*
X128519947Y-60614465D01*
X128519944Y-60614461D01*
X128406017Y-60500534D01*
X128372532Y-60439211D01*
X128377516Y-60369519D01*
X128406013Y-60325176D01*
X128520340Y-60210850D01*
X128610908Y-60064016D01*
X128665174Y-59900253D01*
X128675500Y-59799177D01*
X128675499Y-59460450D01*
X128695183Y-59393412D01*
X128711813Y-59372775D01*
X128998729Y-59085860D01*
X128998733Y-59085858D01*
X129085858Y-58998733D01*
X129154311Y-58896286D01*
X129201463Y-58782452D01*
X129210079Y-58739133D01*
X129221752Y-58680455D01*
X129224395Y-58667161D01*
X129225500Y-58661607D01*
X129225500Y-58538393D01*
X129225500Y-58498687D01*
X129245185Y-58431648D01*
X129257350Y-58415715D01*
X129279528Y-58391083D01*
X129332533Y-58332216D01*
X129427179Y-58168284D01*
X129485674Y-57988256D01*
X129505460Y-57800000D01*
X129485674Y-57611744D01*
X129427179Y-57431716D01*
X129332533Y-57267784D01*
X129205871Y-57127112D01*
X129200693Y-57123350D01*
X129052734Y-57015851D01*
X129052729Y-57015848D01*
X128879807Y-56938857D01*
X128879802Y-56938855D01*
X128734001Y-56907865D01*
X128694646Y-56899500D01*
X128505354Y-56899500D01*
X128472897Y-56906398D01*
X128320197Y-56938855D01*
X128320192Y-56938857D01*
X128147270Y-57015848D01*
X128147265Y-57015851D01*
X127994129Y-57127111D01*
X127867466Y-57267785D01*
X127772821Y-57431715D01*
X127772818Y-57431722D01*
X127733861Y-57551621D01*
X127714326Y-57611744D01*
X127694540Y-57800000D01*
X127714326Y-57988256D01*
X127714327Y-57988259D01*
X127772818Y-58168277D01*
X127772821Y-58168284D01*
X127862251Y-58323182D01*
X127878724Y-58391083D01*
X127855871Y-58457109D01*
X127842545Y-58472863D01*
X127839727Y-58475681D01*
X127778404Y-58509166D01*
X127752046Y-58512000D01*
X127413331Y-58512000D01*
X127413312Y-58512001D01*
X127312247Y-58522325D01*
X127148484Y-58576592D01*
X127148481Y-58576593D01*
X127001648Y-58667161D01*
X126879661Y-58789148D01*
X126789093Y-58935981D01*
X126789092Y-58935984D01*
X126734826Y-59099747D01*
X126734826Y-59099748D01*
X126734825Y-59099748D01*
X126724500Y-59200815D01*
X126724500Y-59799169D01*
X124482238Y-59799169D01*
X124451784Y-59766087D01*
X124451779Y-59766083D01*
X124451777Y-59766081D01*
X124268634Y-59623535D01*
X124268628Y-59623531D01*
X124064504Y-59513064D01*
X124064495Y-59513061D01*
X123844984Y-59437702D01*
X123673282Y-59409050D01*
X123616049Y-59399500D01*
X123582041Y-59399500D01*
X123515002Y-59379815D01*
X123469247Y-59327011D01*
X123459303Y-59257853D01*
X123488328Y-59194297D01*
X123490774Y-59191557D01*
X123608979Y-59063153D01*
X123735924Y-58868849D01*
X123829157Y-58656300D01*
X123886134Y-58431305D01*
X123894345Y-58332214D01*
X123905300Y-58200006D01*
X123905300Y-58199993D01*
X123886135Y-57968702D01*
X123886133Y-57968691D01*
X123829157Y-57743699D01*
X123735924Y-57531151D01*
X123608983Y-57336852D01*
X123608980Y-57336849D01*
X123608979Y-57336847D01*
X123451784Y-57166087D01*
X123451779Y-57166083D01*
X123451777Y-57166081D01*
X123268634Y-57023535D01*
X123268628Y-57023531D01*
X123064504Y-56913064D01*
X123064495Y-56913061D01*
X122844984Y-56837702D01*
X122673282Y-56809050D01*
X122616049Y-56799500D01*
X122383951Y-56799500D01*
X122338164Y-56807140D01*
X122155015Y-56837702D01*
X121935504Y-56913061D01*
X121935495Y-56913064D01*
X121731371Y-57023531D01*
X121731365Y-57023535D01*
X121548222Y-57166081D01*
X121548219Y-57166084D01*
X121391016Y-57336852D01*
X121264075Y-57531151D01*
X121170842Y-57743699D01*
X121113866Y-57968691D01*
X121113864Y-57968702D01*
X121094700Y-58199993D01*
X121094700Y-58200006D01*
X102488728Y-58200006D01*
X102505300Y-58000006D01*
X102505300Y-57999993D01*
X102486135Y-57768702D01*
X102486133Y-57768691D01*
X102429157Y-57543699D01*
X102335924Y-57331151D01*
X102208983Y-57136852D01*
X102208980Y-57136849D01*
X102208979Y-57136847D01*
X102051784Y-56966087D01*
X102051779Y-56966083D01*
X102051777Y-56966081D01*
X101868634Y-56823535D01*
X101868628Y-56823531D01*
X101664504Y-56713064D01*
X101664495Y-56713061D01*
X101444984Y-56637702D01*
X101248469Y-56604910D01*
X101216049Y-56599500D01*
X100983951Y-56599500D01*
X100951531Y-56604910D01*
X100755015Y-56637702D01*
X100535504Y-56713061D01*
X100535495Y-56713064D01*
X100331371Y-56823531D01*
X100331365Y-56823535D01*
X100148222Y-56966081D01*
X100148219Y-56966084D01*
X99991016Y-57136852D01*
X99864075Y-57331151D01*
X99770842Y-57543699D01*
X99713866Y-57768691D01*
X99713864Y-57768702D01*
X99694700Y-57999993D01*
X99694700Y-58000006D01*
X88716160Y-58000006D01*
X88683090Y-57791215D01*
X88605241Y-57551621D01*
X88605239Y-57551618D01*
X88605239Y-57551616D01*
X88544146Y-57431715D01*
X88490870Y-57327155D01*
X88373848Y-57166087D01*
X88342798Y-57123350D01*
X88342794Y-57123345D01*
X88164654Y-56945205D01*
X88164649Y-56945201D01*
X87960848Y-56797132D01*
X87960847Y-56797131D01*
X87960845Y-56797130D01*
X87890747Y-56761413D01*
X87736383Y-56682760D01*
X87496785Y-56604910D01*
X87462628Y-56599500D01*
X87247962Y-56565500D01*
X86996038Y-56565500D01*
X86871626Y-56585205D01*
X86747214Y-56604910D01*
X86507616Y-56682760D01*
X86283151Y-56797132D01*
X86079350Y-56945201D01*
X86079345Y-56945205D01*
X85901205Y-57123345D01*
X85901201Y-57123350D01*
X85753132Y-57327151D01*
X85638760Y-57551616D01*
X85560910Y-57791214D01*
X85529701Y-57988259D01*
X85521500Y-58040038D01*
X85521500Y-58291962D01*
X84836000Y-58291962D01*
X84836000Y-56004000D01*
X84855685Y-55936961D01*
X84908489Y-55891206D01*
X84960000Y-55880000D01*
X147944000Y-55880000D01*
X148011039Y-55899685D01*
G37*
%TD.AperFunction*%
%TD*%
M02*
