%TF.GenerationSoftware,KiCad,Pcbnew,8.0.1*%
%TF.CreationDate,2024-05-07T10:30:01+01:00*%
%TF.ProjectId,UoB TICSP,556f4220-5449-4435-9350-2e6b69636164,1*%
%TF.SameCoordinates,Original*%
%TF.FileFunction,Legend,Bot*%
%TF.FilePolarity,Positive*%
%FSLAX46Y46*%
G04 Gerber Fmt 4.6, Leading zero omitted, Abs format (unit mm)*
G04 Created by KiCad (PCBNEW 8.0.1) date 2024-05-07 10:30:01*
%MOMM*%
%LPD*%
G01*
G04 APERTURE LIST*
G04 Aperture macros list*
%AMRoundRect*
0 Rectangle with rounded corners*
0 $1 Rounding radius*
0 $2 $3 $4 $5 $6 $7 $8 $9 X,Y pos of 4 corners*
0 Add a 4 corners polygon primitive as box body*
4,1,4,$2,$3,$4,$5,$6,$7,$8,$9,$2,$3,0*
0 Add four circle primitives for the rounded corners*
1,1,$1+$1,$2,$3*
1,1,$1+$1,$4,$5*
1,1,$1+$1,$6,$7*
1,1,$1+$1,$8,$9*
0 Add four rect primitives between the rounded corners*
20,1,$1+$1,$2,$3,$4,$5,0*
20,1,$1+$1,$4,$5,$6,$7,0*
20,1,$1+$1,$6,$7,$8,$9,0*
20,1,$1+$1,$8,$9,$2,$3,0*%
G04 Aperture macros list end*
%ADD10C,0.150000*%
%ADD11C,0.120000*%
%ADD12R,3.000000X2.000000*%
%ADD13O,3.000000X2.000000*%
%ADD14RoundRect,0.237500X0.250000X0.237500X-0.250000X0.237500X-0.250000X-0.237500X0.250000X-0.237500X0*%
%ADD15RoundRect,0.237500X-0.237500X0.250000X-0.237500X-0.250000X0.237500X-0.250000X0.237500X0.250000X0*%
%ADD16RoundRect,0.237500X-0.237500X0.287500X-0.237500X-0.287500X0.237500X-0.287500X0.237500X0.287500X0*%
%ADD17C,2.700000*%
%ADD18RoundRect,0.250002X1.699998X-1.699998X1.699998X1.699998X-1.699998X1.699998X-1.699998X-1.699998X0*%
%ADD19RoundRect,0.250002X-1.699998X-1.699998X1.699998X-1.699998X1.699998X1.699998X-1.699998X1.699998X0*%
%ADD20C,2.050000*%
%ADD21C,2.250000*%
%ADD22RoundRect,0.250000X-0.250000X-0.475000X0.250000X-0.475000X0.250000X0.475000X-0.250000X0.475000X0*%
%ADD23RoundRect,0.250000X0.250000X0.475000X-0.250000X0.475000X-0.250000X-0.475000X0.250000X-0.475000X0*%
G04 APERTURE END LIST*
D10*
X133330357Y-88174819D02*
X133663690Y-87698628D01*
X133901785Y-88174819D02*
X133901785Y-87174819D01*
X133901785Y-87174819D02*
X133520833Y-87174819D01*
X133520833Y-87174819D02*
X133425595Y-87222438D01*
X133425595Y-87222438D02*
X133377976Y-87270057D01*
X133377976Y-87270057D02*
X133330357Y-87365295D01*
X133330357Y-87365295D02*
X133330357Y-87508152D01*
X133330357Y-87508152D02*
X133377976Y-87603390D01*
X133377976Y-87603390D02*
X133425595Y-87651009D01*
X133425595Y-87651009D02*
X133520833Y-87698628D01*
X133520833Y-87698628D02*
X133901785Y-87698628D01*
X132949404Y-87270057D02*
X132901785Y-87222438D01*
X132901785Y-87222438D02*
X132806547Y-87174819D01*
X132806547Y-87174819D02*
X132568452Y-87174819D01*
X132568452Y-87174819D02*
X132473214Y-87222438D01*
X132473214Y-87222438D02*
X132425595Y-87270057D01*
X132425595Y-87270057D02*
X132377976Y-87365295D01*
X132377976Y-87365295D02*
X132377976Y-87460533D01*
X132377976Y-87460533D02*
X132425595Y-87603390D01*
X132425595Y-87603390D02*
X132997023Y-88174819D01*
X132997023Y-88174819D02*
X132377976Y-88174819D01*
X131425595Y-88174819D02*
X131997023Y-88174819D01*
X131711309Y-88174819D02*
X131711309Y-87174819D01*
X131711309Y-87174819D02*
X131806547Y-87317676D01*
X131806547Y-87317676D02*
X131901785Y-87412914D01*
X131901785Y-87412914D02*
X131997023Y-87460533D01*
X126724819Y-59769642D02*
X126248628Y-59436309D01*
X126724819Y-59198214D02*
X125724819Y-59198214D01*
X125724819Y-59198214D02*
X125724819Y-59579166D01*
X125724819Y-59579166D02*
X125772438Y-59674404D01*
X125772438Y-59674404D02*
X125820057Y-59722023D01*
X125820057Y-59722023D02*
X125915295Y-59769642D01*
X125915295Y-59769642D02*
X126058152Y-59769642D01*
X126058152Y-59769642D02*
X126153390Y-59722023D01*
X126153390Y-59722023D02*
X126201009Y-59674404D01*
X126201009Y-59674404D02*
X126248628Y-59579166D01*
X126248628Y-59579166D02*
X126248628Y-59198214D01*
X126724819Y-60722023D02*
X126724819Y-60150595D01*
X126724819Y-60436309D02*
X125724819Y-60436309D01*
X125724819Y-60436309D02*
X125867676Y-60341071D01*
X125867676Y-60341071D02*
X125962914Y-60245833D01*
X125962914Y-60245833D02*
X126010533Y-60150595D01*
X126153390Y-61293452D02*
X126105771Y-61198214D01*
X126105771Y-61198214D02*
X126058152Y-61150595D01*
X126058152Y-61150595D02*
X125962914Y-61102976D01*
X125962914Y-61102976D02*
X125915295Y-61102976D01*
X125915295Y-61102976D02*
X125820057Y-61150595D01*
X125820057Y-61150595D02*
X125772438Y-61198214D01*
X125772438Y-61198214D02*
X125724819Y-61293452D01*
X125724819Y-61293452D02*
X125724819Y-61483928D01*
X125724819Y-61483928D02*
X125772438Y-61579166D01*
X125772438Y-61579166D02*
X125820057Y-61626785D01*
X125820057Y-61626785D02*
X125915295Y-61674404D01*
X125915295Y-61674404D02*
X125962914Y-61674404D01*
X125962914Y-61674404D02*
X126058152Y-61626785D01*
X126058152Y-61626785D02*
X126105771Y-61579166D01*
X126105771Y-61579166D02*
X126153390Y-61483928D01*
X126153390Y-61483928D02*
X126153390Y-61293452D01*
X126153390Y-61293452D02*
X126201009Y-61198214D01*
X126201009Y-61198214D02*
X126248628Y-61150595D01*
X126248628Y-61150595D02*
X126343866Y-61102976D01*
X126343866Y-61102976D02*
X126534342Y-61102976D01*
X126534342Y-61102976D02*
X126629580Y-61150595D01*
X126629580Y-61150595D02*
X126677200Y-61198214D01*
X126677200Y-61198214D02*
X126724819Y-61293452D01*
X126724819Y-61293452D02*
X126724819Y-61483928D01*
X126724819Y-61483928D02*
X126677200Y-61579166D01*
X126677200Y-61579166D02*
X126629580Y-61626785D01*
X126629580Y-61626785D02*
X126534342Y-61674404D01*
X126534342Y-61674404D02*
X126343866Y-61674404D01*
X126343866Y-61674404D02*
X126248628Y-61626785D01*
X126248628Y-61626785D02*
X126201009Y-61579166D01*
X126201009Y-61579166D02*
X126153390Y-61483928D01*
X128824819Y-89833333D02*
X128824819Y-89357143D01*
X128824819Y-89357143D02*
X127824819Y-89357143D01*
X128824819Y-90690476D02*
X128824819Y-90119048D01*
X128824819Y-90404762D02*
X127824819Y-90404762D01*
X127824819Y-90404762D02*
X127967676Y-90309524D01*
X127967676Y-90309524D02*
X128062914Y-90214286D01*
X128062914Y-90214286D02*
X128110533Y-90119048D01*
X125142857Y-79159580D02*
X125190476Y-79207200D01*
X125190476Y-79207200D02*
X125333333Y-79254819D01*
X125333333Y-79254819D02*
X125428571Y-79254819D01*
X125428571Y-79254819D02*
X125571428Y-79207200D01*
X125571428Y-79207200D02*
X125666666Y-79111961D01*
X125666666Y-79111961D02*
X125714285Y-79016723D01*
X125714285Y-79016723D02*
X125761904Y-78826247D01*
X125761904Y-78826247D02*
X125761904Y-78683390D01*
X125761904Y-78683390D02*
X125714285Y-78492914D01*
X125714285Y-78492914D02*
X125666666Y-78397676D01*
X125666666Y-78397676D02*
X125571428Y-78302438D01*
X125571428Y-78302438D02*
X125428571Y-78254819D01*
X125428571Y-78254819D02*
X125333333Y-78254819D01*
X125333333Y-78254819D02*
X125190476Y-78302438D01*
X125190476Y-78302438D02*
X125142857Y-78350057D01*
X124190476Y-79254819D02*
X124761904Y-79254819D01*
X124476190Y-79254819D02*
X124476190Y-78254819D01*
X124476190Y-78254819D02*
X124571428Y-78397676D01*
X124571428Y-78397676D02*
X124666666Y-78492914D01*
X124666666Y-78492914D02*
X124761904Y-78540533D01*
X123333333Y-78254819D02*
X123523809Y-78254819D01*
X123523809Y-78254819D02*
X123619047Y-78302438D01*
X123619047Y-78302438D02*
X123666666Y-78350057D01*
X123666666Y-78350057D02*
X123761904Y-78492914D01*
X123761904Y-78492914D02*
X123809523Y-78683390D01*
X123809523Y-78683390D02*
X123809523Y-79064342D01*
X123809523Y-79064342D02*
X123761904Y-79159580D01*
X123761904Y-79159580D02*
X123714285Y-79207200D01*
X123714285Y-79207200D02*
X123619047Y-79254819D01*
X123619047Y-79254819D02*
X123428571Y-79254819D01*
X123428571Y-79254819D02*
X123333333Y-79207200D01*
X123333333Y-79207200D02*
X123285714Y-79159580D01*
X123285714Y-79159580D02*
X123238095Y-79064342D01*
X123238095Y-79064342D02*
X123238095Y-78826247D01*
X123238095Y-78826247D02*
X123285714Y-78731009D01*
X123285714Y-78731009D02*
X123333333Y-78683390D01*
X123333333Y-78683390D02*
X123428571Y-78635771D01*
X123428571Y-78635771D02*
X123619047Y-78635771D01*
X123619047Y-78635771D02*
X123714285Y-78683390D01*
X123714285Y-78683390D02*
X123761904Y-78731009D01*
X123761904Y-78731009D02*
X123809523Y-78826247D01*
X125142857Y-77654819D02*
X125476190Y-77178628D01*
X125714285Y-77654819D02*
X125714285Y-76654819D01*
X125714285Y-76654819D02*
X125333333Y-76654819D01*
X125333333Y-76654819D02*
X125238095Y-76702438D01*
X125238095Y-76702438D02*
X125190476Y-76750057D01*
X125190476Y-76750057D02*
X125142857Y-76845295D01*
X125142857Y-76845295D02*
X125142857Y-76988152D01*
X125142857Y-76988152D02*
X125190476Y-77083390D01*
X125190476Y-77083390D02*
X125238095Y-77131009D01*
X125238095Y-77131009D02*
X125333333Y-77178628D01*
X125333333Y-77178628D02*
X125714285Y-77178628D01*
X124190476Y-77654819D02*
X124761904Y-77654819D01*
X124476190Y-77654819D02*
X124476190Y-76654819D01*
X124476190Y-76654819D02*
X124571428Y-76797676D01*
X124571428Y-76797676D02*
X124666666Y-76892914D01*
X124666666Y-76892914D02*
X124761904Y-76940533D01*
X123333333Y-76988152D02*
X123333333Y-77654819D01*
X123571428Y-76607200D02*
X123809523Y-77321485D01*
X123809523Y-77321485D02*
X123190476Y-77321485D01*
X107342857Y-76454819D02*
X107676190Y-75978628D01*
X107914285Y-76454819D02*
X107914285Y-75454819D01*
X107914285Y-75454819D02*
X107533333Y-75454819D01*
X107533333Y-75454819D02*
X107438095Y-75502438D01*
X107438095Y-75502438D02*
X107390476Y-75550057D01*
X107390476Y-75550057D02*
X107342857Y-75645295D01*
X107342857Y-75645295D02*
X107342857Y-75788152D01*
X107342857Y-75788152D02*
X107390476Y-75883390D01*
X107390476Y-75883390D02*
X107438095Y-75931009D01*
X107438095Y-75931009D02*
X107533333Y-75978628D01*
X107533333Y-75978628D02*
X107914285Y-75978628D01*
X106390476Y-76454819D02*
X106961904Y-76454819D01*
X106676190Y-76454819D02*
X106676190Y-75454819D01*
X106676190Y-75454819D02*
X106771428Y-75597676D01*
X106771428Y-75597676D02*
X106866666Y-75692914D01*
X106866666Y-75692914D02*
X106961904Y-75740533D01*
X105533333Y-75454819D02*
X105723809Y-75454819D01*
X105723809Y-75454819D02*
X105819047Y-75502438D01*
X105819047Y-75502438D02*
X105866666Y-75550057D01*
X105866666Y-75550057D02*
X105961904Y-75692914D01*
X105961904Y-75692914D02*
X106009523Y-75883390D01*
X106009523Y-75883390D02*
X106009523Y-76264342D01*
X106009523Y-76264342D02*
X105961904Y-76359580D01*
X105961904Y-76359580D02*
X105914285Y-76407200D01*
X105914285Y-76407200D02*
X105819047Y-76454819D01*
X105819047Y-76454819D02*
X105628571Y-76454819D01*
X105628571Y-76454819D02*
X105533333Y-76407200D01*
X105533333Y-76407200D02*
X105485714Y-76359580D01*
X105485714Y-76359580D02*
X105438095Y-76264342D01*
X105438095Y-76264342D02*
X105438095Y-76026247D01*
X105438095Y-76026247D02*
X105485714Y-75931009D01*
X105485714Y-75931009D02*
X105533333Y-75883390D01*
X105533333Y-75883390D02*
X105628571Y-75835771D01*
X105628571Y-75835771D02*
X105819047Y-75835771D01*
X105819047Y-75835771D02*
X105914285Y-75883390D01*
X105914285Y-75883390D02*
X105961904Y-75931009D01*
X105961904Y-75931009D02*
X106009523Y-76026247D01*
X140152857Y-94009580D02*
X140200476Y-94057200D01*
X140200476Y-94057200D02*
X140343333Y-94104819D01*
X140343333Y-94104819D02*
X140438571Y-94104819D01*
X140438571Y-94104819D02*
X140581428Y-94057200D01*
X140581428Y-94057200D02*
X140676666Y-93961961D01*
X140676666Y-93961961D02*
X140724285Y-93866723D01*
X140724285Y-93866723D02*
X140771904Y-93676247D01*
X140771904Y-93676247D02*
X140771904Y-93533390D01*
X140771904Y-93533390D02*
X140724285Y-93342914D01*
X140724285Y-93342914D02*
X140676666Y-93247676D01*
X140676666Y-93247676D02*
X140581428Y-93152438D01*
X140581428Y-93152438D02*
X140438571Y-93104819D01*
X140438571Y-93104819D02*
X140343333Y-93104819D01*
X140343333Y-93104819D02*
X140200476Y-93152438D01*
X140200476Y-93152438D02*
X140152857Y-93200057D01*
X139200476Y-94104819D02*
X139771904Y-94104819D01*
X139486190Y-94104819D02*
X139486190Y-93104819D01*
X139486190Y-93104819D02*
X139581428Y-93247676D01*
X139581428Y-93247676D02*
X139676666Y-93342914D01*
X139676666Y-93342914D02*
X139771904Y-93390533D01*
X138581428Y-93104819D02*
X138486190Y-93104819D01*
X138486190Y-93104819D02*
X138390952Y-93152438D01*
X138390952Y-93152438D02*
X138343333Y-93200057D01*
X138343333Y-93200057D02*
X138295714Y-93295295D01*
X138295714Y-93295295D02*
X138248095Y-93485771D01*
X138248095Y-93485771D02*
X138248095Y-93723866D01*
X138248095Y-93723866D02*
X138295714Y-93914342D01*
X138295714Y-93914342D02*
X138343333Y-94009580D01*
X138343333Y-94009580D02*
X138390952Y-94057200D01*
X138390952Y-94057200D02*
X138486190Y-94104819D01*
X138486190Y-94104819D02*
X138581428Y-94104819D01*
X138581428Y-94104819D02*
X138676666Y-94057200D01*
X138676666Y-94057200D02*
X138724285Y-94009580D01*
X138724285Y-94009580D02*
X138771904Y-93914342D01*
X138771904Y-93914342D02*
X138819523Y-93723866D01*
X138819523Y-93723866D02*
X138819523Y-93485771D01*
X138819523Y-93485771D02*
X138771904Y-93295295D01*
X138771904Y-93295295D02*
X138724285Y-93200057D01*
X138724285Y-93200057D02*
X138676666Y-93152438D01*
X138676666Y-93152438D02*
X138581428Y-93104819D01*
X132554257Y-93327580D02*
X132601876Y-93375200D01*
X132601876Y-93375200D02*
X132744733Y-93422819D01*
X132744733Y-93422819D02*
X132839971Y-93422819D01*
X132839971Y-93422819D02*
X132982828Y-93375200D01*
X132982828Y-93375200D02*
X133078066Y-93279961D01*
X133078066Y-93279961D02*
X133125685Y-93184723D01*
X133125685Y-93184723D02*
X133173304Y-92994247D01*
X133173304Y-92994247D02*
X133173304Y-92851390D01*
X133173304Y-92851390D02*
X133125685Y-92660914D01*
X133125685Y-92660914D02*
X133078066Y-92565676D01*
X133078066Y-92565676D02*
X132982828Y-92470438D01*
X132982828Y-92470438D02*
X132839971Y-92422819D01*
X132839971Y-92422819D02*
X132744733Y-92422819D01*
X132744733Y-92422819D02*
X132601876Y-92470438D01*
X132601876Y-92470438D02*
X132554257Y-92518057D01*
X131601876Y-93422819D02*
X132173304Y-93422819D01*
X131887590Y-93422819D02*
X131887590Y-92422819D01*
X131887590Y-92422819D02*
X131982828Y-92565676D01*
X131982828Y-92565676D02*
X132078066Y-92660914D01*
X132078066Y-92660914D02*
X132173304Y-92708533D01*
X130649495Y-93422819D02*
X131220923Y-93422819D01*
X130935209Y-93422819D02*
X130935209Y-92422819D01*
X130935209Y-92422819D02*
X131030447Y-92565676D01*
X131030447Y-92565676D02*
X131125685Y-92660914D01*
X131125685Y-92660914D02*
X131220923Y-92708533D01*
X107442857Y-77959580D02*
X107490476Y-78007200D01*
X107490476Y-78007200D02*
X107633333Y-78054819D01*
X107633333Y-78054819D02*
X107728571Y-78054819D01*
X107728571Y-78054819D02*
X107871428Y-78007200D01*
X107871428Y-78007200D02*
X107966666Y-77911961D01*
X107966666Y-77911961D02*
X108014285Y-77816723D01*
X108014285Y-77816723D02*
X108061904Y-77626247D01*
X108061904Y-77626247D02*
X108061904Y-77483390D01*
X108061904Y-77483390D02*
X108014285Y-77292914D01*
X108014285Y-77292914D02*
X107966666Y-77197676D01*
X107966666Y-77197676D02*
X107871428Y-77102438D01*
X107871428Y-77102438D02*
X107728571Y-77054819D01*
X107728571Y-77054819D02*
X107633333Y-77054819D01*
X107633333Y-77054819D02*
X107490476Y-77102438D01*
X107490476Y-77102438D02*
X107442857Y-77150057D01*
X107061904Y-77150057D02*
X107014285Y-77102438D01*
X107014285Y-77102438D02*
X106919047Y-77054819D01*
X106919047Y-77054819D02*
X106680952Y-77054819D01*
X106680952Y-77054819D02*
X106585714Y-77102438D01*
X106585714Y-77102438D02*
X106538095Y-77150057D01*
X106538095Y-77150057D02*
X106490476Y-77245295D01*
X106490476Y-77245295D02*
X106490476Y-77340533D01*
X106490476Y-77340533D02*
X106538095Y-77483390D01*
X106538095Y-77483390D02*
X107109523Y-78054819D01*
X107109523Y-78054819D02*
X106490476Y-78054819D01*
X105633333Y-77388152D02*
X105633333Y-78054819D01*
X105871428Y-77007200D02*
X106109523Y-77721485D01*
X106109523Y-77721485D02*
X105490476Y-77721485D01*
D11*
%TO.C,R21*%
X132432776Y-88627500D02*
X132942224Y-88627500D01*
X132432776Y-89672500D02*
X132942224Y-89672500D01*
%TO.C,R18*%
X127177500Y-60667224D02*
X127177500Y-60157776D01*
X128222500Y-60667224D02*
X128222500Y-60157776D01*
%TO.C,L1*%
X129290000Y-90171267D02*
X129290000Y-89828733D01*
X130310000Y-90171267D02*
X130310000Y-89828733D01*
%TO.C,C16*%
X120857776Y-78277500D02*
X121367224Y-78277500D01*
X120857776Y-79322500D02*
X121367224Y-79322500D01*
%TO.C,R14*%
X120857776Y-76677500D02*
X121367224Y-76677500D01*
X120857776Y-77722500D02*
X121367224Y-77722500D01*
%TO.C,R16*%
X103432776Y-75477500D02*
X103942224Y-75477500D01*
X103432776Y-76522500D02*
X103942224Y-76522500D01*
%TO.C,C10*%
X135511252Y-92815000D02*
X134988748Y-92815000D01*
X135511252Y-94285000D02*
X134988748Y-94285000D01*
%TO.C,C11*%
X128388748Y-92265000D02*
X128911252Y-92265000D01*
X128388748Y-93735000D02*
X128911252Y-93735000D01*
%TO.C,C24*%
X103432776Y-77077500D02*
X103942224Y-77077500D01*
X103432776Y-78122500D02*
X103942224Y-78122500D01*
%TD*%
%LPC*%
D12*
%TO.C,J1*%
X95800000Y-64400000D03*
X90800000Y-64400000D03*
D13*
X95800000Y-66940000D03*
X90800000Y-66940000D03*
X95800000Y-69480000D03*
X90800000Y-69480000D03*
%TD*%
D14*
%TO.C,R21*%
X133600000Y-89150000D03*
X131775000Y-89150000D03*
%TD*%
D15*
%TO.C,R18*%
X127700000Y-59500000D03*
X127700000Y-61325000D03*
%TD*%
D16*
%TO.C,L1*%
X129800000Y-89125000D03*
X129800000Y-90875000D03*
%TD*%
D17*
%TO.C,H2*%
X87122000Y-91948000D03*
%TD*%
D18*
%TO.C,J2*%
X152908000Y-89154000D03*
%TD*%
D19*
%TO.C,J4*%
X144100000Y-62140000D03*
%TD*%
%TO.C,J5*%
X137710000Y-84690000D03*
%TD*%
D17*
%TO.C,H3*%
X161010600Y-57937400D03*
%TD*%
D20*
%TO.C,J6*%
X136568000Y-74608000D03*
D21*
X134028000Y-72068000D03*
X134028000Y-77148000D03*
X139108000Y-72068000D03*
X139108000Y-77148000D03*
%TD*%
D19*
%TO.C,J3*%
X157590000Y-66060000D03*
%TD*%
D17*
%TO.C,H4*%
X161036000Y-91948000D03*
%TD*%
%TO.C,H1*%
X87122000Y-58166000D03*
%TD*%
D20*
%TO.C,J7*%
X89400000Y-81400000D03*
D21*
X86860000Y-78860000D03*
X86860000Y-83940000D03*
X91940000Y-78860000D03*
X91940000Y-83940000D03*
%TD*%
D14*
%TO.C,C16*%
X122025000Y-78800000D03*
X120200000Y-78800000D03*
%TD*%
%TO.C,R14*%
X122025000Y-77200000D03*
X120200000Y-77200000D03*
%TD*%
%TO.C,R16*%
X104600000Y-76000000D03*
X102775000Y-76000000D03*
%TD*%
D22*
%TO.C,C10*%
X136200000Y-93550000D03*
X134300000Y-93550000D03*
%TD*%
D23*
%TO.C,C11*%
X129600000Y-93000000D03*
X127700000Y-93000000D03*
%TD*%
D14*
%TO.C,C24*%
X104600000Y-77600000D03*
X102775000Y-77600000D03*
%TD*%
%LPD*%
M02*
