%TF.GenerationSoftware,KiCad,Pcbnew,8.0.1*%
%TF.CreationDate,2024-05-07T10:14:09+01:00*%
%TF.ProjectId,UoB TICSP,556f4220-5449-4435-9350-2e6b69636164,1*%
%TF.SameCoordinates,Original*%
%TF.FileFunction,Drillmap*%
%TF.FilePolarity,Positive*%
%FSLAX45Y45*%
G04 Gerber Fmt 4.5, Leading zero omitted, Abs format (unit mm)*
G04 Created by KiCad (PCBNEW 8.0.1) date 2024-05-07 10:14:09*
%MOMM*%
%LPD*%
G01*
G04 APERTURE LIST*
%ADD10C,0.100000*%
%ADD11C,0.200000*%
%ADD12C,0.120000*%
%ADD13C,0.150000*%
%ADD14C,0.170000*%
%ADD15C,0.250000*%
G04 APERTURE END LIST*
D10*
X8400000Y-5500000D02*
X16400000Y-5500000D01*
X16400000Y-9500000D01*
X8400000Y-9500000D01*
X8400000Y-5500000D01*
D11*
D10*
X9380000Y-8120000D02*
X9420000Y-8160000D01*
X9420000Y-8120000D02*
X9380000Y-8160000D01*
X10150000Y-7610000D02*
X10190000Y-7650000D01*
X10190000Y-7610000D02*
X10150000Y-7650000D01*
X10570000Y-7740000D02*
X10610000Y-7780000D01*
X10610000Y-7740000D02*
X10570000Y-7780000D01*
X11890000Y-7730000D02*
X11930000Y-7770000D01*
X11930000Y-7730000D02*
X11890000Y-7770000D01*
X12310000Y-7220000D02*
X12350000Y-7260000D01*
X12350000Y-7220000D02*
X12310000Y-7260000D01*
X12310000Y-7410000D02*
X12350000Y-7450000D01*
X12350000Y-7410000D02*
X12310000Y-7450000D01*
X12320000Y-7860000D02*
X12360000Y-7900000D01*
X12360000Y-7860000D02*
X12320000Y-7900000D01*
X12840000Y-5760000D02*
X12880000Y-5800000D01*
X12880000Y-5760000D02*
X12840000Y-5800000D01*
X12970000Y-7410000D02*
X13010000Y-7450000D01*
X13010000Y-7410000D02*
X12970000Y-7450000D01*
X13180000Y-8280000D02*
X13220000Y-8320000D01*
X13220000Y-8280000D02*
X13180000Y-8320000D01*
X13300000Y-9350000D02*
X13340000Y-9390000D01*
X13340000Y-9350000D02*
X13300000Y-9390000D01*
X13630000Y-7825000D02*
X13670000Y-7865000D01*
X13670000Y-7825000D02*
X13630000Y-7865000D01*
X9625000Y-8120000D02*
G75*
G02*
X9575000Y-8120000I-25000J0D01*
G01*
X9575000Y-8120000D02*
G75*
G02*
X9625000Y-8120000I25000J0D01*
G01*
X9885000Y-7760000D02*
G75*
G02*
X9835000Y-7760000I-25000J0D01*
G01*
X9835000Y-7760000D02*
G75*
G02*
X9885000Y-7760000I25000J0D01*
G01*
X9995000Y-8110000D02*
G75*
G02*
X9945000Y-8110000I-25000J0D01*
G01*
X9945000Y-8110000D02*
G75*
G02*
X9995000Y-8110000I25000J0D01*
G01*
X10135000Y-5800000D02*
G75*
G02*
X10085000Y-5800000I-25000J0D01*
G01*
X10085000Y-5800000D02*
G75*
G02*
X10135000Y-5800000I25000J0D01*
G01*
X10255000Y-6120000D02*
G75*
G02*
X10205000Y-6120000I-25000J0D01*
G01*
X10205000Y-6120000D02*
G75*
G02*
X10255000Y-6120000I25000J0D01*
G01*
X10375000Y-6440000D02*
G75*
G02*
X10325000Y-6440000I-25000J0D01*
G01*
X10325000Y-6440000D02*
G75*
G02*
X10375000Y-6440000I25000J0D01*
G01*
X10885000Y-6020000D02*
G75*
G02*
X10835000Y-6020000I-25000J0D01*
G01*
X10835000Y-6020000D02*
G75*
G02*
X10885000Y-6020000I25000J0D01*
G01*
X10915000Y-7450000D02*
G75*
G02*
X10865000Y-7450000I-25000J0D01*
G01*
X10865000Y-7450000D02*
G75*
G02*
X10915000Y-7450000I25000J0D01*
G01*
X10945000Y-7100000D02*
G75*
G02*
X10895000Y-7100000I-25000J0D01*
G01*
X10895000Y-7100000D02*
G75*
G02*
X10945000Y-7100000I25000J0D01*
G01*
X10955000Y-7641000D02*
G75*
G02*
X10905000Y-7641000I-25000J0D01*
G01*
X10905000Y-7641000D02*
G75*
G02*
X10955000Y-7641000I25000J0D01*
G01*
X11027000Y-8081000D02*
G75*
G02*
X10977000Y-8081000I-25000J0D01*
G01*
X10977000Y-8081000D02*
G75*
G02*
X11027000Y-8081000I25000J0D01*
G01*
X11145000Y-7450000D02*
G75*
G02*
X11095000Y-7450000I-25000J0D01*
G01*
X11095000Y-7450000D02*
G75*
G02*
X11145000Y-7450000I25000J0D01*
G01*
X11275000Y-9190000D02*
G75*
G02*
X11225000Y-9190000I-25000J0D01*
G01*
X11225000Y-9190000D02*
G75*
G02*
X11275000Y-9190000I25000J0D01*
G01*
X11310000Y-8609000D02*
G75*
G02*
X11260000Y-8609000I-25000J0D01*
G01*
X11260000Y-8609000D02*
G75*
G02*
X11310000Y-8609000I25000J0D01*
G01*
X11408000Y-8320000D02*
G75*
G02*
X11358000Y-8320000I-25000J0D01*
G01*
X11358000Y-8320000D02*
G75*
G02*
X11408000Y-8320000I25000J0D01*
G01*
X11656000Y-7880000D02*
G75*
G02*
X11606000Y-7880000I-25000J0D01*
G01*
X11606000Y-7880000D02*
G75*
G02*
X11656000Y-7880000I25000J0D01*
G01*
X11805000Y-9130000D02*
G75*
G02*
X11755000Y-9130000I-25000J0D01*
G01*
X11755000Y-9130000D02*
G75*
G02*
X11805000Y-9130000I25000J0D01*
G01*
X11865000Y-8400000D02*
G75*
G02*
X11815000Y-8400000I-25000J0D01*
G01*
X11815000Y-8400000D02*
G75*
G02*
X11865000Y-8400000I25000J0D01*
G01*
X11915000Y-6020000D02*
G75*
G02*
X11865000Y-6020000I-25000J0D01*
G01*
X11865000Y-6020000D02*
G75*
G02*
X11915000Y-6020000I25000J0D01*
G01*
X12005000Y-9081000D02*
G75*
G02*
X11955000Y-9081000I-25000J0D01*
G01*
X11955000Y-9081000D02*
G75*
G02*
X12005000Y-9081000I25000J0D01*
G01*
X12225000Y-8240000D02*
G75*
G02*
X12175000Y-8240000I-25000J0D01*
G01*
X12175000Y-8240000D02*
G75*
G02*
X12225000Y-8240000I25000J0D01*
G01*
X12275000Y-5820000D02*
G75*
G02*
X12225000Y-5820000I-25000J0D01*
G01*
X12225000Y-5820000D02*
G75*
G02*
X12275000Y-5820000I25000J0D01*
G01*
X12285000Y-6680000D02*
G75*
G02*
X12235000Y-6680000I-25000J0D01*
G01*
X12235000Y-6680000D02*
G75*
G02*
X12285000Y-6680000I25000J0D01*
G01*
X12315000Y-6350000D02*
G75*
G02*
X12265000Y-6350000I-25000J0D01*
G01*
X12265000Y-6350000D02*
G75*
G02*
X12315000Y-6350000I25000J0D01*
G01*
X12335000Y-9290000D02*
G75*
G02*
X12285000Y-9290000I-25000J0D01*
G01*
X12285000Y-9290000D02*
G75*
G02*
X12335000Y-9290000I25000J0D01*
G01*
X12365000Y-8741740D02*
G75*
G02*
X12315000Y-8741740I-25000J0D01*
G01*
X12315000Y-8741740D02*
G75*
G02*
X12365000Y-8741740I25000J0D01*
G01*
X12375000Y-6080000D02*
G75*
G02*
X12325000Y-6080000I-25000J0D01*
G01*
X12325000Y-6080000D02*
G75*
G02*
X12375000Y-6080000I25000J0D01*
G01*
X12565000Y-8210000D02*
G75*
G02*
X12515000Y-8210000I-25000J0D01*
G01*
X12515000Y-8210000D02*
G75*
G02*
X12565000Y-8210000I25000J0D01*
G01*
X12605000Y-6650000D02*
G75*
G02*
X12555000Y-6650000I-25000J0D01*
G01*
X12555000Y-6650000D02*
G75*
G02*
X12605000Y-6650000I25000J0D01*
G01*
X12625000Y-9300000D02*
G75*
G02*
X12575000Y-9300000I-25000J0D01*
G01*
X12575000Y-9300000D02*
G75*
G02*
X12625000Y-9300000I25000J0D01*
G01*
X12675000Y-7630000D02*
G75*
G02*
X12625000Y-7630000I-25000J0D01*
G01*
X12625000Y-7630000D02*
G75*
G02*
X12675000Y-7630000I25000J0D01*
G01*
X12855000Y-6300000D02*
G75*
G02*
X12805000Y-6300000I-25000J0D01*
G01*
X12805000Y-6300000D02*
G75*
G02*
X12855000Y-6300000I25000J0D01*
G01*
X13110000Y-9349000D02*
G75*
G02*
X13060000Y-9349000I-25000J0D01*
G01*
X13060000Y-9349000D02*
G75*
G02*
X13110000Y-9349000I25000J0D01*
G01*
X13235000Y-6640000D02*
G75*
G02*
X13185000Y-6640000I-25000J0D01*
G01*
X13185000Y-6640000D02*
G75*
G02*
X13235000Y-6640000I25000J0D01*
G01*
X13613000Y-8801000D02*
G75*
G02*
X13563000Y-8801000I-25000J0D01*
G01*
X13563000Y-8801000D02*
G75*
G02*
X13613000Y-8801000I25000J0D01*
G01*
X13790000Y-9335000D02*
G75*
G02*
X13740000Y-9335000I-25000J0D01*
G01*
X13740000Y-9335000D02*
G75*
G02*
X13790000Y-9335000I25000J0D01*
G01*
X13945000Y-6890000D02*
G75*
G02*
X13895000Y-6890000I-25000J0D01*
G01*
X13895000Y-6890000D02*
G75*
G02*
X13945000Y-6890000I25000J0D01*
G01*
X14005000Y-8970000D02*
G75*
G02*
X13955000Y-8970000I-25000J0D01*
G01*
X13955000Y-8970000D02*
G75*
G02*
X14005000Y-8970000I25000J0D01*
G01*
X14365000Y-6880000D02*
G75*
G02*
X14315000Y-6880000I-25000J0D01*
G01*
X14315000Y-6880000D02*
G75*
G02*
X14365000Y-6880000I25000J0D01*
G01*
X14525000Y-7280000D02*
G75*
G02*
X14475000Y-7280000I-25000J0D01*
G01*
X14475000Y-7280000D02*
G75*
G02*
X14525000Y-7280000I25000J0D01*
G01*
X14525000Y-8240000D02*
G75*
G02*
X14475000Y-8240000I-25000J0D01*
G01*
X14475000Y-8240000D02*
G75*
G02*
X14525000Y-8240000I25000J0D01*
G01*
D12*
X9080000Y-6380000D02*
X9080000Y-6500000D01*
X9020000Y-6440000D02*
X9140000Y-6440000D01*
X9080000Y-6634000D02*
X9080000Y-6754000D01*
X9020000Y-6694000D02*
X9140000Y-6694000D01*
X9080000Y-6888000D02*
X9080000Y-7008000D01*
X9020000Y-6948000D02*
X9140000Y-6948000D01*
X9580000Y-6380000D02*
X9580000Y-6500000D01*
X9520000Y-6440000D02*
X9640000Y-6440000D01*
X9580000Y-6634000D02*
X9580000Y-6754000D01*
X9520000Y-6694000D02*
X9640000Y-6694000D01*
X9580000Y-6888000D02*
X9580000Y-7008000D01*
X9520000Y-6948000D02*
X9640000Y-6948000D01*
D13*
X8993034Y-8193033D02*
X8993034Y-8086966D01*
X8886967Y-8086966D01*
X8886967Y-8193033D01*
X8993034Y-8193033D01*
X13709833Y-7513833D02*
X13709833Y-7407766D01*
X13603766Y-7407766D01*
X13603766Y-7513833D01*
X13709833Y-7513833D01*
D14*
X8686000Y-7971000D02*
X8771000Y-7886000D01*
X8686000Y-7801000D01*
X8601000Y-7886000D01*
X8686000Y-7971000D01*
X8686000Y-8479000D02*
X8771000Y-8394000D01*
X8686000Y-8309000D01*
X8601000Y-8394000D01*
X8686000Y-8479000D01*
X9194000Y-7971000D02*
X9279000Y-7886000D01*
X9194000Y-7801000D01*
X9109000Y-7886000D01*
X9194000Y-7971000D01*
X9194000Y-8479000D02*
X9279000Y-8394000D01*
X9194000Y-8309000D01*
X9109000Y-8394000D01*
X9194000Y-8479000D01*
X13402800Y-7291800D02*
X13487800Y-7206800D01*
X13402800Y-7121800D01*
X13317800Y-7206800D01*
X13402800Y-7291800D01*
X13402800Y-7799800D02*
X13487800Y-7714800D01*
X13402800Y-7629800D01*
X13317800Y-7714800D01*
X13402800Y-7799800D01*
X13910800Y-7291800D02*
X13995800Y-7206800D01*
X13910800Y-7121800D01*
X13825800Y-7206800D01*
X13910800Y-7291800D01*
X13910800Y-7799800D02*
X13995800Y-7714800D01*
X13910800Y-7629800D01*
X13825800Y-7714800D01*
X13910800Y-7799800D01*
D15*
X13646000Y-8344000D02*
X13896000Y-8594000D01*
X13896000Y-8344000D02*
X13646000Y-8594000D01*
X13896000Y-8469000D02*
G75*
G02*
X13646000Y-8469000I-125000J0D01*
G01*
X13646000Y-8469000D02*
G75*
G02*
X13896000Y-8469000I125000J0D01*
G01*
X14285000Y-6089000D02*
X14535000Y-6339000D01*
X14535000Y-6089000D02*
X14285000Y-6339000D01*
X14535000Y-6214000D02*
G75*
G02*
X14285000Y-6214000I-125000J0D01*
G01*
X14285000Y-6214000D02*
G75*
G02*
X14535000Y-6214000I125000J0D01*
G01*
X15165800Y-8790400D02*
X15415800Y-9040400D01*
X15415800Y-8790400D02*
X15165800Y-9040400D01*
X15415800Y-8915400D02*
G75*
G02*
X15165800Y-8915400I-125000J0D01*
G01*
X15165800Y-8915400D02*
G75*
G02*
X15415800Y-8915400I125000J0D01*
G01*
X15634000Y-6481000D02*
X15884000Y-6731000D01*
X15884000Y-6481000D02*
X15634000Y-6731000D01*
X15884000Y-6606000D02*
G75*
G02*
X15634000Y-6606000I-125000J0D01*
G01*
X15634000Y-6606000D02*
G75*
G02*
X15884000Y-6606000I125000J0D01*
G01*
D11*
X8655777Y-9816484D02*
X8655777Y-9616484D01*
X8655777Y-9616484D02*
X8703396Y-9616484D01*
X8703396Y-9616484D02*
X8731967Y-9626008D01*
X8731967Y-9626008D02*
X8751015Y-9645055D01*
X8751015Y-9645055D02*
X8760539Y-9664103D01*
X8760539Y-9664103D02*
X8770063Y-9702198D01*
X8770063Y-9702198D02*
X8770063Y-9730770D01*
X8770063Y-9730770D02*
X8760539Y-9768865D01*
X8760539Y-9768865D02*
X8751015Y-9787912D01*
X8751015Y-9787912D02*
X8731967Y-9806960D01*
X8731967Y-9806960D02*
X8703396Y-9816484D01*
X8703396Y-9816484D02*
X8655777Y-9816484D01*
X8855777Y-9816484D02*
X8855777Y-9683150D01*
X8855777Y-9721246D02*
X8865301Y-9702198D01*
X8865301Y-9702198D02*
X8874824Y-9692674D01*
X8874824Y-9692674D02*
X8893872Y-9683150D01*
X8893872Y-9683150D02*
X8912920Y-9683150D01*
X8979586Y-9816484D02*
X8979586Y-9683150D01*
X8979586Y-9616484D02*
X8970063Y-9626008D01*
X8970063Y-9626008D02*
X8979586Y-9635531D01*
X8979586Y-9635531D02*
X8989110Y-9626008D01*
X8989110Y-9626008D02*
X8979586Y-9616484D01*
X8979586Y-9616484D02*
X8979586Y-9635531D01*
X9103396Y-9816484D02*
X9084348Y-9806960D01*
X9084348Y-9806960D02*
X9074824Y-9787912D01*
X9074824Y-9787912D02*
X9074824Y-9616484D01*
X9208158Y-9816484D02*
X9189110Y-9806960D01*
X9189110Y-9806960D02*
X9179586Y-9787912D01*
X9179586Y-9787912D02*
X9179586Y-9616484D01*
X9436729Y-9816484D02*
X9436729Y-9616484D01*
X9436729Y-9616484D02*
X9503396Y-9759341D01*
X9503396Y-9759341D02*
X9570063Y-9616484D01*
X9570063Y-9616484D02*
X9570063Y-9816484D01*
X9751015Y-9816484D02*
X9751015Y-9711722D01*
X9751015Y-9711722D02*
X9741491Y-9692674D01*
X9741491Y-9692674D02*
X9722444Y-9683150D01*
X9722444Y-9683150D02*
X9684348Y-9683150D01*
X9684348Y-9683150D02*
X9665301Y-9692674D01*
X9751015Y-9806960D02*
X9731967Y-9816484D01*
X9731967Y-9816484D02*
X9684348Y-9816484D01*
X9684348Y-9816484D02*
X9665301Y-9806960D01*
X9665301Y-9806960D02*
X9655777Y-9787912D01*
X9655777Y-9787912D02*
X9655777Y-9768865D01*
X9655777Y-9768865D02*
X9665301Y-9749817D01*
X9665301Y-9749817D02*
X9684348Y-9740293D01*
X9684348Y-9740293D02*
X9731967Y-9740293D01*
X9731967Y-9740293D02*
X9751015Y-9730770D01*
X9846253Y-9683150D02*
X9846253Y-9883150D01*
X9846253Y-9692674D02*
X9865301Y-9683150D01*
X9865301Y-9683150D02*
X9903396Y-9683150D01*
X9903396Y-9683150D02*
X9922444Y-9692674D01*
X9922444Y-9692674D02*
X9931967Y-9702198D01*
X9931967Y-9702198D02*
X9941491Y-9721246D01*
X9941491Y-9721246D02*
X9941491Y-9778389D01*
X9941491Y-9778389D02*
X9931967Y-9797436D01*
X9931967Y-9797436D02*
X9922444Y-9806960D01*
X9922444Y-9806960D02*
X9903396Y-9816484D01*
X9903396Y-9816484D02*
X9865301Y-9816484D01*
X9865301Y-9816484D02*
X9846253Y-9806960D01*
X10027205Y-9797436D02*
X10036729Y-9806960D01*
X10036729Y-9806960D02*
X10027205Y-9816484D01*
X10027205Y-9816484D02*
X10017682Y-9806960D01*
X10017682Y-9806960D02*
X10027205Y-9797436D01*
X10027205Y-9797436D02*
X10027205Y-9816484D01*
X10027205Y-9692674D02*
X10036729Y-9702198D01*
X10036729Y-9702198D02*
X10027205Y-9711722D01*
X10027205Y-9711722D02*
X10017682Y-9702198D01*
X10017682Y-9702198D02*
X10027205Y-9692674D01*
X10027205Y-9692674D02*
X10027205Y-9711722D01*
D10*
X8355000Y-10125000D02*
X8395000Y-10165000D01*
X8395000Y-10125000D02*
X8355000Y-10165000D01*
D11*
X8693872Y-10036484D02*
X8712920Y-10036484D01*
X8712920Y-10036484D02*
X8731967Y-10046008D01*
X8731967Y-10046008D02*
X8741491Y-10055531D01*
X8741491Y-10055531D02*
X8751015Y-10074579D01*
X8751015Y-10074579D02*
X8760539Y-10112674D01*
X8760539Y-10112674D02*
X8760539Y-10160293D01*
X8760539Y-10160293D02*
X8751015Y-10198389D01*
X8751015Y-10198389D02*
X8741491Y-10217436D01*
X8741491Y-10217436D02*
X8731967Y-10226960D01*
X8731967Y-10226960D02*
X8712920Y-10236484D01*
X8712920Y-10236484D02*
X8693872Y-10236484D01*
X8693872Y-10236484D02*
X8674824Y-10226960D01*
X8674824Y-10226960D02*
X8665301Y-10217436D01*
X8665301Y-10217436D02*
X8655777Y-10198389D01*
X8655777Y-10198389D02*
X8646253Y-10160293D01*
X8646253Y-10160293D02*
X8646253Y-10112674D01*
X8646253Y-10112674D02*
X8655777Y-10074579D01*
X8655777Y-10074579D02*
X8665301Y-10055531D01*
X8665301Y-10055531D02*
X8674824Y-10046008D01*
X8674824Y-10046008D02*
X8693872Y-10036484D01*
X8846253Y-10217436D02*
X8855777Y-10226960D01*
X8855777Y-10226960D02*
X8846253Y-10236484D01*
X8846253Y-10236484D02*
X8836729Y-10226960D01*
X8836729Y-10226960D02*
X8846253Y-10217436D01*
X8846253Y-10217436D02*
X8846253Y-10236484D01*
X9027205Y-10103150D02*
X9027205Y-10236484D01*
X8979586Y-10026960D02*
X8931967Y-10169817D01*
X8931967Y-10169817D02*
X9055777Y-10169817D01*
X9170063Y-10036484D02*
X9189110Y-10036484D01*
X9189110Y-10036484D02*
X9208158Y-10046008D01*
X9208158Y-10046008D02*
X9217682Y-10055531D01*
X9217682Y-10055531D02*
X9227205Y-10074579D01*
X9227205Y-10074579D02*
X9236729Y-10112674D01*
X9236729Y-10112674D02*
X9236729Y-10160293D01*
X9236729Y-10160293D02*
X9227205Y-10198389D01*
X9227205Y-10198389D02*
X9217682Y-10217436D01*
X9217682Y-10217436D02*
X9208158Y-10226960D01*
X9208158Y-10226960D02*
X9189110Y-10236484D01*
X9189110Y-10236484D02*
X9170063Y-10236484D01*
X9170063Y-10236484D02*
X9151015Y-10226960D01*
X9151015Y-10226960D02*
X9141491Y-10217436D01*
X9141491Y-10217436D02*
X9131967Y-10198389D01*
X9131967Y-10198389D02*
X9122444Y-10160293D01*
X9122444Y-10160293D02*
X9122444Y-10112674D01*
X9122444Y-10112674D02*
X9131967Y-10074579D01*
X9131967Y-10074579D02*
X9141491Y-10055531D01*
X9141491Y-10055531D02*
X9151015Y-10046008D01*
X9151015Y-10046008D02*
X9170063Y-10036484D01*
X9360539Y-10036484D02*
X9379586Y-10036484D01*
X9379586Y-10036484D02*
X9398634Y-10046008D01*
X9398634Y-10046008D02*
X9408158Y-10055531D01*
X9408158Y-10055531D02*
X9417682Y-10074579D01*
X9417682Y-10074579D02*
X9427205Y-10112674D01*
X9427205Y-10112674D02*
X9427205Y-10160293D01*
X9427205Y-10160293D02*
X9417682Y-10198389D01*
X9417682Y-10198389D02*
X9408158Y-10217436D01*
X9408158Y-10217436D02*
X9398634Y-10226960D01*
X9398634Y-10226960D02*
X9379586Y-10236484D01*
X9379586Y-10236484D02*
X9360539Y-10236484D01*
X9360539Y-10236484D02*
X9341491Y-10226960D01*
X9341491Y-10226960D02*
X9331967Y-10217436D01*
X9331967Y-10217436D02*
X9322444Y-10198389D01*
X9322444Y-10198389D02*
X9312920Y-10160293D01*
X9312920Y-10160293D02*
X9312920Y-10112674D01*
X9312920Y-10112674D02*
X9322444Y-10074579D01*
X9322444Y-10074579D02*
X9331967Y-10055531D01*
X9331967Y-10055531D02*
X9341491Y-10046008D01*
X9341491Y-10046008D02*
X9360539Y-10036484D01*
X9512920Y-10236484D02*
X9512920Y-10103150D01*
X9512920Y-10122198D02*
X9522444Y-10112674D01*
X9522444Y-10112674D02*
X9541491Y-10103150D01*
X9541491Y-10103150D02*
X9570063Y-10103150D01*
X9570063Y-10103150D02*
X9589110Y-10112674D01*
X9589110Y-10112674D02*
X9598634Y-10131722D01*
X9598634Y-10131722D02*
X9598634Y-10236484D01*
X9598634Y-10131722D02*
X9608158Y-10112674D01*
X9608158Y-10112674D02*
X9627205Y-10103150D01*
X9627205Y-10103150D02*
X9655777Y-10103150D01*
X9655777Y-10103150D02*
X9674825Y-10112674D01*
X9674825Y-10112674D02*
X9684348Y-10131722D01*
X9684348Y-10131722D02*
X9684348Y-10236484D01*
X9779586Y-10236484D02*
X9779586Y-10103150D01*
X9779586Y-10122198D02*
X9789110Y-10112674D01*
X9789110Y-10112674D02*
X9808158Y-10103150D01*
X9808158Y-10103150D02*
X9836729Y-10103150D01*
X9836729Y-10103150D02*
X9855777Y-10112674D01*
X9855777Y-10112674D02*
X9865301Y-10131722D01*
X9865301Y-10131722D02*
X9865301Y-10236484D01*
X9865301Y-10131722D02*
X9874825Y-10112674D01*
X9874825Y-10112674D02*
X9893872Y-10103150D01*
X9893872Y-10103150D02*
X9922444Y-10103150D01*
X9922444Y-10103150D02*
X9941491Y-10112674D01*
X9941491Y-10112674D02*
X9951015Y-10131722D01*
X9951015Y-10131722D02*
X9951015Y-10236484D01*
X10341491Y-10026960D02*
X10170063Y-10284103D01*
X10598634Y-10036484D02*
X10617682Y-10036484D01*
X10617682Y-10036484D02*
X10636729Y-10046008D01*
X10636729Y-10046008D02*
X10646253Y-10055531D01*
X10646253Y-10055531D02*
X10655777Y-10074579D01*
X10655777Y-10074579D02*
X10665301Y-10112674D01*
X10665301Y-10112674D02*
X10665301Y-10160293D01*
X10665301Y-10160293D02*
X10655777Y-10198389D01*
X10655777Y-10198389D02*
X10646253Y-10217436D01*
X10646253Y-10217436D02*
X10636729Y-10226960D01*
X10636729Y-10226960D02*
X10617682Y-10236484D01*
X10617682Y-10236484D02*
X10598634Y-10236484D01*
X10598634Y-10236484D02*
X10579587Y-10226960D01*
X10579587Y-10226960D02*
X10570063Y-10217436D01*
X10570063Y-10217436D02*
X10560539Y-10198389D01*
X10560539Y-10198389D02*
X10551015Y-10160293D01*
X10551015Y-10160293D02*
X10551015Y-10112674D01*
X10551015Y-10112674D02*
X10560539Y-10074579D01*
X10560539Y-10074579D02*
X10570063Y-10055531D01*
X10570063Y-10055531D02*
X10579587Y-10046008D01*
X10579587Y-10046008D02*
X10598634Y-10036484D01*
X10751015Y-10217436D02*
X10760539Y-10226960D01*
X10760539Y-10226960D02*
X10751015Y-10236484D01*
X10751015Y-10236484D02*
X10741491Y-10226960D01*
X10741491Y-10226960D02*
X10751015Y-10217436D01*
X10751015Y-10217436D02*
X10751015Y-10236484D01*
X10884348Y-10036484D02*
X10903396Y-10036484D01*
X10903396Y-10036484D02*
X10922444Y-10046008D01*
X10922444Y-10046008D02*
X10931968Y-10055531D01*
X10931968Y-10055531D02*
X10941491Y-10074579D01*
X10941491Y-10074579D02*
X10951015Y-10112674D01*
X10951015Y-10112674D02*
X10951015Y-10160293D01*
X10951015Y-10160293D02*
X10941491Y-10198389D01*
X10941491Y-10198389D02*
X10931968Y-10217436D01*
X10931968Y-10217436D02*
X10922444Y-10226960D01*
X10922444Y-10226960D02*
X10903396Y-10236484D01*
X10903396Y-10236484D02*
X10884348Y-10236484D01*
X10884348Y-10236484D02*
X10865301Y-10226960D01*
X10865301Y-10226960D02*
X10855777Y-10217436D01*
X10855777Y-10217436D02*
X10846253Y-10198389D01*
X10846253Y-10198389D02*
X10836729Y-10160293D01*
X10836729Y-10160293D02*
X10836729Y-10112674D01*
X10836729Y-10112674D02*
X10846253Y-10074579D01*
X10846253Y-10074579D02*
X10855777Y-10055531D01*
X10855777Y-10055531D02*
X10865301Y-10046008D01*
X10865301Y-10046008D02*
X10884348Y-10036484D01*
X11141491Y-10236484D02*
X11027206Y-10236484D01*
X11084348Y-10236484D02*
X11084348Y-10036484D01*
X11084348Y-10036484D02*
X11065301Y-10065055D01*
X11065301Y-10065055D02*
X11046253Y-10084103D01*
X11046253Y-10084103D02*
X11027206Y-10093627D01*
X11322444Y-10036484D02*
X11227206Y-10036484D01*
X11227206Y-10036484D02*
X11217682Y-10131722D01*
X11217682Y-10131722D02*
X11227206Y-10122198D01*
X11227206Y-10122198D02*
X11246253Y-10112674D01*
X11246253Y-10112674D02*
X11293872Y-10112674D01*
X11293872Y-10112674D02*
X11312920Y-10122198D01*
X11312920Y-10122198D02*
X11322444Y-10131722D01*
X11322444Y-10131722D02*
X11331967Y-10150770D01*
X11331967Y-10150770D02*
X11331967Y-10198389D01*
X11331967Y-10198389D02*
X11322444Y-10217436D01*
X11322444Y-10217436D02*
X11312920Y-10226960D01*
X11312920Y-10226960D02*
X11293872Y-10236484D01*
X11293872Y-10236484D02*
X11246253Y-10236484D01*
X11246253Y-10236484D02*
X11227206Y-10226960D01*
X11227206Y-10226960D02*
X11217682Y-10217436D01*
X11398634Y-10036484D02*
X11531967Y-10036484D01*
X11531967Y-10036484D02*
X11446253Y-10236484D01*
X11598634Y-10036484D02*
X11598634Y-10074579D01*
X11674825Y-10036484D02*
X11674825Y-10074579D01*
X11970063Y-10312674D02*
X11960539Y-10303150D01*
X11960539Y-10303150D02*
X11941491Y-10274579D01*
X11941491Y-10274579D02*
X11931968Y-10255531D01*
X11931968Y-10255531D02*
X11922444Y-10226960D01*
X11922444Y-10226960D02*
X11912920Y-10179341D01*
X11912920Y-10179341D02*
X11912920Y-10141246D01*
X11912920Y-10141246D02*
X11922444Y-10093627D01*
X11922444Y-10093627D02*
X11931968Y-10065055D01*
X11931968Y-10065055D02*
X11941491Y-10046008D01*
X11941491Y-10046008D02*
X11960539Y-10017436D01*
X11960539Y-10017436D02*
X11970063Y-10007912D01*
X12151015Y-10236484D02*
X12036729Y-10236484D01*
X12093872Y-10236484D02*
X12093872Y-10036484D01*
X12093872Y-10036484D02*
X12074825Y-10065055D01*
X12074825Y-10065055D02*
X12055777Y-10084103D01*
X12055777Y-10084103D02*
X12036729Y-10093627D01*
X12227206Y-10055531D02*
X12236729Y-10046008D01*
X12236729Y-10046008D02*
X12255777Y-10036484D01*
X12255777Y-10036484D02*
X12303396Y-10036484D01*
X12303396Y-10036484D02*
X12322444Y-10046008D01*
X12322444Y-10046008D02*
X12331968Y-10055531D01*
X12331968Y-10055531D02*
X12341491Y-10074579D01*
X12341491Y-10074579D02*
X12341491Y-10093627D01*
X12341491Y-10093627D02*
X12331968Y-10122198D01*
X12331968Y-10122198D02*
X12217682Y-10236484D01*
X12217682Y-10236484D02*
X12341491Y-10236484D01*
X12579587Y-10236484D02*
X12579587Y-10036484D01*
X12665301Y-10236484D02*
X12665301Y-10131722D01*
X12665301Y-10131722D02*
X12655777Y-10112674D01*
X12655777Y-10112674D02*
X12636730Y-10103150D01*
X12636730Y-10103150D02*
X12608158Y-10103150D01*
X12608158Y-10103150D02*
X12589110Y-10112674D01*
X12589110Y-10112674D02*
X12579587Y-10122198D01*
X12789110Y-10236484D02*
X12770063Y-10226960D01*
X12770063Y-10226960D02*
X12760539Y-10217436D01*
X12760539Y-10217436D02*
X12751015Y-10198389D01*
X12751015Y-10198389D02*
X12751015Y-10141246D01*
X12751015Y-10141246D02*
X12760539Y-10122198D01*
X12760539Y-10122198D02*
X12770063Y-10112674D01*
X12770063Y-10112674D02*
X12789110Y-10103150D01*
X12789110Y-10103150D02*
X12817682Y-10103150D01*
X12817682Y-10103150D02*
X12836730Y-10112674D01*
X12836730Y-10112674D02*
X12846253Y-10122198D01*
X12846253Y-10122198D02*
X12855777Y-10141246D01*
X12855777Y-10141246D02*
X12855777Y-10198389D01*
X12855777Y-10198389D02*
X12846253Y-10217436D01*
X12846253Y-10217436D02*
X12836730Y-10226960D01*
X12836730Y-10226960D02*
X12817682Y-10236484D01*
X12817682Y-10236484D02*
X12789110Y-10236484D01*
X12970063Y-10236484D02*
X12951015Y-10226960D01*
X12951015Y-10226960D02*
X12941491Y-10207912D01*
X12941491Y-10207912D02*
X12941491Y-10036484D01*
X13122444Y-10226960D02*
X13103396Y-10236484D01*
X13103396Y-10236484D02*
X13065301Y-10236484D01*
X13065301Y-10236484D02*
X13046253Y-10226960D01*
X13046253Y-10226960D02*
X13036730Y-10207912D01*
X13036730Y-10207912D02*
X13036730Y-10131722D01*
X13036730Y-10131722D02*
X13046253Y-10112674D01*
X13046253Y-10112674D02*
X13065301Y-10103150D01*
X13065301Y-10103150D02*
X13103396Y-10103150D01*
X13103396Y-10103150D02*
X13122444Y-10112674D01*
X13122444Y-10112674D02*
X13131968Y-10131722D01*
X13131968Y-10131722D02*
X13131968Y-10150770D01*
X13131968Y-10150770D02*
X13036730Y-10169817D01*
X13208158Y-10226960D02*
X13227206Y-10236484D01*
X13227206Y-10236484D02*
X13265301Y-10236484D01*
X13265301Y-10236484D02*
X13284349Y-10226960D01*
X13284349Y-10226960D02*
X13293872Y-10207912D01*
X13293872Y-10207912D02*
X13293872Y-10198389D01*
X13293872Y-10198389D02*
X13284349Y-10179341D01*
X13284349Y-10179341D02*
X13265301Y-10169817D01*
X13265301Y-10169817D02*
X13236730Y-10169817D01*
X13236730Y-10169817D02*
X13217682Y-10160293D01*
X13217682Y-10160293D02*
X13208158Y-10141246D01*
X13208158Y-10141246D02*
X13208158Y-10131722D01*
X13208158Y-10131722D02*
X13217682Y-10112674D01*
X13217682Y-10112674D02*
X13236730Y-10103150D01*
X13236730Y-10103150D02*
X13265301Y-10103150D01*
X13265301Y-10103150D02*
X13284349Y-10112674D01*
X13360539Y-10312674D02*
X13370063Y-10303150D01*
X13370063Y-10303150D02*
X13389111Y-10274579D01*
X13389111Y-10274579D02*
X13398634Y-10255531D01*
X13398634Y-10255531D02*
X13408158Y-10226960D01*
X13408158Y-10226960D02*
X13417682Y-10179341D01*
X13417682Y-10179341D02*
X13417682Y-10141246D01*
X13417682Y-10141246D02*
X13408158Y-10093627D01*
X13408158Y-10093627D02*
X13398634Y-10065055D01*
X13398634Y-10065055D02*
X13389111Y-10046008D01*
X13389111Y-10046008D02*
X13370063Y-10017436D01*
X13370063Y-10017436D02*
X13360539Y-10007912D01*
D10*
X8395000Y-10409000D02*
G75*
G02*
X8345000Y-10409000I-25000J0D01*
G01*
X8345000Y-10409000D02*
G75*
G02*
X8395000Y-10409000I25000J0D01*
G01*
D11*
X8693872Y-10300484D02*
X8712920Y-10300484D01*
X8712920Y-10300484D02*
X8731967Y-10310008D01*
X8731967Y-10310008D02*
X8741491Y-10319531D01*
X8741491Y-10319531D02*
X8751015Y-10338579D01*
X8751015Y-10338579D02*
X8760539Y-10376674D01*
X8760539Y-10376674D02*
X8760539Y-10424293D01*
X8760539Y-10424293D02*
X8751015Y-10462389D01*
X8751015Y-10462389D02*
X8741491Y-10481436D01*
X8741491Y-10481436D02*
X8731967Y-10490960D01*
X8731967Y-10490960D02*
X8712920Y-10500484D01*
X8712920Y-10500484D02*
X8693872Y-10500484D01*
X8693872Y-10500484D02*
X8674824Y-10490960D01*
X8674824Y-10490960D02*
X8665301Y-10481436D01*
X8665301Y-10481436D02*
X8655777Y-10462389D01*
X8655777Y-10462389D02*
X8646253Y-10424293D01*
X8646253Y-10424293D02*
X8646253Y-10376674D01*
X8646253Y-10376674D02*
X8655777Y-10338579D01*
X8655777Y-10338579D02*
X8665301Y-10319531D01*
X8665301Y-10319531D02*
X8674824Y-10310008D01*
X8674824Y-10310008D02*
X8693872Y-10300484D01*
X8846253Y-10481436D02*
X8855777Y-10490960D01*
X8855777Y-10490960D02*
X8846253Y-10500484D01*
X8846253Y-10500484D02*
X8836729Y-10490960D01*
X8836729Y-10490960D02*
X8846253Y-10481436D01*
X8846253Y-10481436D02*
X8846253Y-10500484D01*
X9036729Y-10300484D02*
X8941491Y-10300484D01*
X8941491Y-10300484D02*
X8931967Y-10395722D01*
X8931967Y-10395722D02*
X8941491Y-10386198D01*
X8941491Y-10386198D02*
X8960539Y-10376674D01*
X8960539Y-10376674D02*
X9008158Y-10376674D01*
X9008158Y-10376674D02*
X9027205Y-10386198D01*
X9027205Y-10386198D02*
X9036729Y-10395722D01*
X9036729Y-10395722D02*
X9046253Y-10414770D01*
X9046253Y-10414770D02*
X9046253Y-10462389D01*
X9046253Y-10462389D02*
X9036729Y-10481436D01*
X9036729Y-10481436D02*
X9027205Y-10490960D01*
X9027205Y-10490960D02*
X9008158Y-10500484D01*
X9008158Y-10500484D02*
X8960539Y-10500484D01*
X8960539Y-10500484D02*
X8941491Y-10490960D01*
X8941491Y-10490960D02*
X8931967Y-10481436D01*
X9170063Y-10300484D02*
X9189110Y-10300484D01*
X9189110Y-10300484D02*
X9208158Y-10310008D01*
X9208158Y-10310008D02*
X9217682Y-10319531D01*
X9217682Y-10319531D02*
X9227205Y-10338579D01*
X9227205Y-10338579D02*
X9236729Y-10376674D01*
X9236729Y-10376674D02*
X9236729Y-10424293D01*
X9236729Y-10424293D02*
X9227205Y-10462389D01*
X9227205Y-10462389D02*
X9217682Y-10481436D01*
X9217682Y-10481436D02*
X9208158Y-10490960D01*
X9208158Y-10490960D02*
X9189110Y-10500484D01*
X9189110Y-10500484D02*
X9170063Y-10500484D01*
X9170063Y-10500484D02*
X9151015Y-10490960D01*
X9151015Y-10490960D02*
X9141491Y-10481436D01*
X9141491Y-10481436D02*
X9131967Y-10462389D01*
X9131967Y-10462389D02*
X9122444Y-10424293D01*
X9122444Y-10424293D02*
X9122444Y-10376674D01*
X9122444Y-10376674D02*
X9131967Y-10338579D01*
X9131967Y-10338579D02*
X9141491Y-10319531D01*
X9141491Y-10319531D02*
X9151015Y-10310008D01*
X9151015Y-10310008D02*
X9170063Y-10300484D01*
X9360539Y-10300484D02*
X9379586Y-10300484D01*
X9379586Y-10300484D02*
X9398634Y-10310008D01*
X9398634Y-10310008D02*
X9408158Y-10319531D01*
X9408158Y-10319531D02*
X9417682Y-10338579D01*
X9417682Y-10338579D02*
X9427205Y-10376674D01*
X9427205Y-10376674D02*
X9427205Y-10424293D01*
X9427205Y-10424293D02*
X9417682Y-10462389D01*
X9417682Y-10462389D02*
X9408158Y-10481436D01*
X9408158Y-10481436D02*
X9398634Y-10490960D01*
X9398634Y-10490960D02*
X9379586Y-10500484D01*
X9379586Y-10500484D02*
X9360539Y-10500484D01*
X9360539Y-10500484D02*
X9341491Y-10490960D01*
X9341491Y-10490960D02*
X9331967Y-10481436D01*
X9331967Y-10481436D02*
X9322444Y-10462389D01*
X9322444Y-10462389D02*
X9312920Y-10424293D01*
X9312920Y-10424293D02*
X9312920Y-10376674D01*
X9312920Y-10376674D02*
X9322444Y-10338579D01*
X9322444Y-10338579D02*
X9331967Y-10319531D01*
X9331967Y-10319531D02*
X9341491Y-10310008D01*
X9341491Y-10310008D02*
X9360539Y-10300484D01*
X9512920Y-10500484D02*
X9512920Y-10367150D01*
X9512920Y-10386198D02*
X9522444Y-10376674D01*
X9522444Y-10376674D02*
X9541491Y-10367150D01*
X9541491Y-10367150D02*
X9570063Y-10367150D01*
X9570063Y-10367150D02*
X9589110Y-10376674D01*
X9589110Y-10376674D02*
X9598634Y-10395722D01*
X9598634Y-10395722D02*
X9598634Y-10500484D01*
X9598634Y-10395722D02*
X9608158Y-10376674D01*
X9608158Y-10376674D02*
X9627205Y-10367150D01*
X9627205Y-10367150D02*
X9655777Y-10367150D01*
X9655777Y-10367150D02*
X9674825Y-10376674D01*
X9674825Y-10376674D02*
X9684348Y-10395722D01*
X9684348Y-10395722D02*
X9684348Y-10500484D01*
X9779586Y-10500484D02*
X9779586Y-10367150D01*
X9779586Y-10386198D02*
X9789110Y-10376674D01*
X9789110Y-10376674D02*
X9808158Y-10367150D01*
X9808158Y-10367150D02*
X9836729Y-10367150D01*
X9836729Y-10367150D02*
X9855777Y-10376674D01*
X9855777Y-10376674D02*
X9865301Y-10395722D01*
X9865301Y-10395722D02*
X9865301Y-10500484D01*
X9865301Y-10395722D02*
X9874825Y-10376674D01*
X9874825Y-10376674D02*
X9893872Y-10367150D01*
X9893872Y-10367150D02*
X9922444Y-10367150D01*
X9922444Y-10367150D02*
X9941491Y-10376674D01*
X9941491Y-10376674D02*
X9951015Y-10395722D01*
X9951015Y-10395722D02*
X9951015Y-10500484D01*
X10341491Y-10290960D02*
X10170063Y-10548103D01*
X10598634Y-10300484D02*
X10617682Y-10300484D01*
X10617682Y-10300484D02*
X10636729Y-10310008D01*
X10636729Y-10310008D02*
X10646253Y-10319531D01*
X10646253Y-10319531D02*
X10655777Y-10338579D01*
X10655777Y-10338579D02*
X10665301Y-10376674D01*
X10665301Y-10376674D02*
X10665301Y-10424293D01*
X10665301Y-10424293D02*
X10655777Y-10462389D01*
X10655777Y-10462389D02*
X10646253Y-10481436D01*
X10646253Y-10481436D02*
X10636729Y-10490960D01*
X10636729Y-10490960D02*
X10617682Y-10500484D01*
X10617682Y-10500484D02*
X10598634Y-10500484D01*
X10598634Y-10500484D02*
X10579587Y-10490960D01*
X10579587Y-10490960D02*
X10570063Y-10481436D01*
X10570063Y-10481436D02*
X10560539Y-10462389D01*
X10560539Y-10462389D02*
X10551015Y-10424293D01*
X10551015Y-10424293D02*
X10551015Y-10376674D01*
X10551015Y-10376674D02*
X10560539Y-10338579D01*
X10560539Y-10338579D02*
X10570063Y-10319531D01*
X10570063Y-10319531D02*
X10579587Y-10310008D01*
X10579587Y-10310008D02*
X10598634Y-10300484D01*
X10751015Y-10481436D02*
X10760539Y-10490960D01*
X10760539Y-10490960D02*
X10751015Y-10500484D01*
X10751015Y-10500484D02*
X10741491Y-10490960D01*
X10741491Y-10490960D02*
X10751015Y-10481436D01*
X10751015Y-10481436D02*
X10751015Y-10500484D01*
X10884348Y-10300484D02*
X10903396Y-10300484D01*
X10903396Y-10300484D02*
X10922444Y-10310008D01*
X10922444Y-10310008D02*
X10931968Y-10319531D01*
X10931968Y-10319531D02*
X10941491Y-10338579D01*
X10941491Y-10338579D02*
X10951015Y-10376674D01*
X10951015Y-10376674D02*
X10951015Y-10424293D01*
X10951015Y-10424293D02*
X10941491Y-10462389D01*
X10941491Y-10462389D02*
X10931968Y-10481436D01*
X10931968Y-10481436D02*
X10922444Y-10490960D01*
X10922444Y-10490960D02*
X10903396Y-10500484D01*
X10903396Y-10500484D02*
X10884348Y-10500484D01*
X10884348Y-10500484D02*
X10865301Y-10490960D01*
X10865301Y-10490960D02*
X10855777Y-10481436D01*
X10855777Y-10481436D02*
X10846253Y-10462389D01*
X10846253Y-10462389D02*
X10836729Y-10424293D01*
X10836729Y-10424293D02*
X10836729Y-10376674D01*
X10836729Y-10376674D02*
X10846253Y-10338579D01*
X10846253Y-10338579D02*
X10855777Y-10319531D01*
X10855777Y-10319531D02*
X10865301Y-10310008D01*
X10865301Y-10310008D02*
X10884348Y-10300484D01*
X11141491Y-10500484D02*
X11027206Y-10500484D01*
X11084348Y-10500484D02*
X11084348Y-10300484D01*
X11084348Y-10300484D02*
X11065301Y-10329055D01*
X11065301Y-10329055D02*
X11046253Y-10348103D01*
X11046253Y-10348103D02*
X11027206Y-10357627D01*
X11236729Y-10500484D02*
X11274825Y-10500484D01*
X11274825Y-10500484D02*
X11293872Y-10490960D01*
X11293872Y-10490960D02*
X11303396Y-10481436D01*
X11303396Y-10481436D02*
X11322444Y-10452865D01*
X11322444Y-10452865D02*
X11331967Y-10414770D01*
X11331967Y-10414770D02*
X11331967Y-10338579D01*
X11331967Y-10338579D02*
X11322444Y-10319531D01*
X11322444Y-10319531D02*
X11312920Y-10310008D01*
X11312920Y-10310008D02*
X11293872Y-10300484D01*
X11293872Y-10300484D02*
X11255777Y-10300484D01*
X11255777Y-10300484D02*
X11236729Y-10310008D01*
X11236729Y-10310008D02*
X11227206Y-10319531D01*
X11227206Y-10319531D02*
X11217682Y-10338579D01*
X11217682Y-10338579D02*
X11217682Y-10386198D01*
X11217682Y-10386198D02*
X11227206Y-10405246D01*
X11227206Y-10405246D02*
X11236729Y-10414770D01*
X11236729Y-10414770D02*
X11255777Y-10424293D01*
X11255777Y-10424293D02*
X11293872Y-10424293D01*
X11293872Y-10424293D02*
X11312920Y-10414770D01*
X11312920Y-10414770D02*
X11322444Y-10405246D01*
X11322444Y-10405246D02*
X11331967Y-10386198D01*
X11398634Y-10300484D02*
X11531967Y-10300484D01*
X11531967Y-10300484D02*
X11446253Y-10500484D01*
X11598634Y-10300484D02*
X11598634Y-10338579D01*
X11674825Y-10300484D02*
X11674825Y-10338579D01*
X11970063Y-10576674D02*
X11960539Y-10567150D01*
X11960539Y-10567150D02*
X11941491Y-10538579D01*
X11941491Y-10538579D02*
X11931968Y-10519531D01*
X11931968Y-10519531D02*
X11922444Y-10490960D01*
X11922444Y-10490960D02*
X11912920Y-10443341D01*
X11912920Y-10443341D02*
X11912920Y-10405246D01*
X11912920Y-10405246D02*
X11922444Y-10357627D01*
X11922444Y-10357627D02*
X11931968Y-10329055D01*
X11931968Y-10329055D02*
X11941491Y-10310008D01*
X11941491Y-10310008D02*
X11960539Y-10281436D01*
X11960539Y-10281436D02*
X11970063Y-10271912D01*
X12131968Y-10367150D02*
X12131968Y-10500484D01*
X12084348Y-10290960D02*
X12036729Y-10433817D01*
X12036729Y-10433817D02*
X12160539Y-10433817D01*
X12341491Y-10500484D02*
X12227206Y-10500484D01*
X12284348Y-10500484D02*
X12284348Y-10300484D01*
X12284348Y-10300484D02*
X12265301Y-10329055D01*
X12265301Y-10329055D02*
X12246253Y-10348103D01*
X12246253Y-10348103D02*
X12227206Y-10357627D01*
X12579587Y-10500484D02*
X12579587Y-10300484D01*
X12665301Y-10500484D02*
X12665301Y-10395722D01*
X12665301Y-10395722D02*
X12655777Y-10376674D01*
X12655777Y-10376674D02*
X12636730Y-10367150D01*
X12636730Y-10367150D02*
X12608158Y-10367150D01*
X12608158Y-10367150D02*
X12589110Y-10376674D01*
X12589110Y-10376674D02*
X12579587Y-10386198D01*
X12789110Y-10500484D02*
X12770063Y-10490960D01*
X12770063Y-10490960D02*
X12760539Y-10481436D01*
X12760539Y-10481436D02*
X12751015Y-10462389D01*
X12751015Y-10462389D02*
X12751015Y-10405246D01*
X12751015Y-10405246D02*
X12760539Y-10386198D01*
X12760539Y-10386198D02*
X12770063Y-10376674D01*
X12770063Y-10376674D02*
X12789110Y-10367150D01*
X12789110Y-10367150D02*
X12817682Y-10367150D01*
X12817682Y-10367150D02*
X12836730Y-10376674D01*
X12836730Y-10376674D02*
X12846253Y-10386198D01*
X12846253Y-10386198D02*
X12855777Y-10405246D01*
X12855777Y-10405246D02*
X12855777Y-10462389D01*
X12855777Y-10462389D02*
X12846253Y-10481436D01*
X12846253Y-10481436D02*
X12836730Y-10490960D01*
X12836730Y-10490960D02*
X12817682Y-10500484D01*
X12817682Y-10500484D02*
X12789110Y-10500484D01*
X12970063Y-10500484D02*
X12951015Y-10490960D01*
X12951015Y-10490960D02*
X12941491Y-10471912D01*
X12941491Y-10471912D02*
X12941491Y-10300484D01*
X13122444Y-10490960D02*
X13103396Y-10500484D01*
X13103396Y-10500484D02*
X13065301Y-10500484D01*
X13065301Y-10500484D02*
X13046253Y-10490960D01*
X13046253Y-10490960D02*
X13036730Y-10471912D01*
X13036730Y-10471912D02*
X13036730Y-10395722D01*
X13036730Y-10395722D02*
X13046253Y-10376674D01*
X13046253Y-10376674D02*
X13065301Y-10367150D01*
X13065301Y-10367150D02*
X13103396Y-10367150D01*
X13103396Y-10367150D02*
X13122444Y-10376674D01*
X13122444Y-10376674D02*
X13131968Y-10395722D01*
X13131968Y-10395722D02*
X13131968Y-10414770D01*
X13131968Y-10414770D02*
X13036730Y-10433817D01*
X13208158Y-10490960D02*
X13227206Y-10500484D01*
X13227206Y-10500484D02*
X13265301Y-10500484D01*
X13265301Y-10500484D02*
X13284349Y-10490960D01*
X13284349Y-10490960D02*
X13293872Y-10471912D01*
X13293872Y-10471912D02*
X13293872Y-10462389D01*
X13293872Y-10462389D02*
X13284349Y-10443341D01*
X13284349Y-10443341D02*
X13265301Y-10433817D01*
X13265301Y-10433817D02*
X13236730Y-10433817D01*
X13236730Y-10433817D02*
X13217682Y-10424293D01*
X13217682Y-10424293D02*
X13208158Y-10405246D01*
X13208158Y-10405246D02*
X13208158Y-10395722D01*
X13208158Y-10395722D02*
X13217682Y-10376674D01*
X13217682Y-10376674D02*
X13236730Y-10367150D01*
X13236730Y-10367150D02*
X13265301Y-10367150D01*
X13265301Y-10367150D02*
X13284349Y-10376674D01*
X13360539Y-10576674D02*
X13370063Y-10567150D01*
X13370063Y-10567150D02*
X13389111Y-10538579D01*
X13389111Y-10538579D02*
X13398634Y-10519531D01*
X13398634Y-10519531D02*
X13408158Y-10490960D01*
X13408158Y-10490960D02*
X13417682Y-10443341D01*
X13417682Y-10443341D02*
X13417682Y-10405246D01*
X13417682Y-10405246D02*
X13408158Y-10357627D01*
X13408158Y-10357627D02*
X13398634Y-10329055D01*
X13398634Y-10329055D02*
X13389111Y-10310008D01*
X13389111Y-10310008D02*
X13370063Y-10281436D01*
X13370063Y-10281436D02*
X13360539Y-10271912D01*
D12*
X8335000Y-10613000D02*
X8335000Y-10733000D01*
X8275000Y-10673000D02*
X8395000Y-10673000D01*
D11*
X8760539Y-10764484D02*
X8646253Y-10764484D01*
X8703396Y-10764484D02*
X8703396Y-10564484D01*
X8703396Y-10564484D02*
X8684348Y-10593055D01*
X8684348Y-10593055D02*
X8665301Y-10612103D01*
X8665301Y-10612103D02*
X8646253Y-10621627D01*
X8846253Y-10745436D02*
X8855777Y-10754960D01*
X8855777Y-10754960D02*
X8846253Y-10764484D01*
X8846253Y-10764484D02*
X8836729Y-10754960D01*
X8836729Y-10754960D02*
X8846253Y-10745436D01*
X8846253Y-10745436D02*
X8846253Y-10764484D01*
X8931967Y-10583531D02*
X8941491Y-10574008D01*
X8941491Y-10574008D02*
X8960539Y-10564484D01*
X8960539Y-10564484D02*
X9008158Y-10564484D01*
X9008158Y-10564484D02*
X9027205Y-10574008D01*
X9027205Y-10574008D02*
X9036729Y-10583531D01*
X9036729Y-10583531D02*
X9046253Y-10602579D01*
X9046253Y-10602579D02*
X9046253Y-10621627D01*
X9046253Y-10621627D02*
X9036729Y-10650198D01*
X9036729Y-10650198D02*
X8922444Y-10764484D01*
X8922444Y-10764484D02*
X9046253Y-10764484D01*
X9170063Y-10564484D02*
X9189110Y-10564484D01*
X9189110Y-10564484D02*
X9208158Y-10574008D01*
X9208158Y-10574008D02*
X9217682Y-10583531D01*
X9217682Y-10583531D02*
X9227205Y-10602579D01*
X9227205Y-10602579D02*
X9236729Y-10640674D01*
X9236729Y-10640674D02*
X9236729Y-10688293D01*
X9236729Y-10688293D02*
X9227205Y-10726389D01*
X9227205Y-10726389D02*
X9217682Y-10745436D01*
X9217682Y-10745436D02*
X9208158Y-10754960D01*
X9208158Y-10754960D02*
X9189110Y-10764484D01*
X9189110Y-10764484D02*
X9170063Y-10764484D01*
X9170063Y-10764484D02*
X9151015Y-10754960D01*
X9151015Y-10754960D02*
X9141491Y-10745436D01*
X9141491Y-10745436D02*
X9131967Y-10726389D01*
X9131967Y-10726389D02*
X9122444Y-10688293D01*
X9122444Y-10688293D02*
X9122444Y-10640674D01*
X9122444Y-10640674D02*
X9131967Y-10602579D01*
X9131967Y-10602579D02*
X9141491Y-10583531D01*
X9141491Y-10583531D02*
X9151015Y-10574008D01*
X9151015Y-10574008D02*
X9170063Y-10564484D01*
X9360539Y-10564484D02*
X9379586Y-10564484D01*
X9379586Y-10564484D02*
X9398634Y-10574008D01*
X9398634Y-10574008D02*
X9408158Y-10583531D01*
X9408158Y-10583531D02*
X9417682Y-10602579D01*
X9417682Y-10602579D02*
X9427205Y-10640674D01*
X9427205Y-10640674D02*
X9427205Y-10688293D01*
X9427205Y-10688293D02*
X9417682Y-10726389D01*
X9417682Y-10726389D02*
X9408158Y-10745436D01*
X9408158Y-10745436D02*
X9398634Y-10754960D01*
X9398634Y-10754960D02*
X9379586Y-10764484D01*
X9379586Y-10764484D02*
X9360539Y-10764484D01*
X9360539Y-10764484D02*
X9341491Y-10754960D01*
X9341491Y-10754960D02*
X9331967Y-10745436D01*
X9331967Y-10745436D02*
X9322444Y-10726389D01*
X9322444Y-10726389D02*
X9312920Y-10688293D01*
X9312920Y-10688293D02*
X9312920Y-10640674D01*
X9312920Y-10640674D02*
X9322444Y-10602579D01*
X9322444Y-10602579D02*
X9331967Y-10583531D01*
X9331967Y-10583531D02*
X9341491Y-10574008D01*
X9341491Y-10574008D02*
X9360539Y-10564484D01*
X9512920Y-10764484D02*
X9512920Y-10631150D01*
X9512920Y-10650198D02*
X9522444Y-10640674D01*
X9522444Y-10640674D02*
X9541491Y-10631150D01*
X9541491Y-10631150D02*
X9570063Y-10631150D01*
X9570063Y-10631150D02*
X9589110Y-10640674D01*
X9589110Y-10640674D02*
X9598634Y-10659722D01*
X9598634Y-10659722D02*
X9598634Y-10764484D01*
X9598634Y-10659722D02*
X9608158Y-10640674D01*
X9608158Y-10640674D02*
X9627205Y-10631150D01*
X9627205Y-10631150D02*
X9655777Y-10631150D01*
X9655777Y-10631150D02*
X9674825Y-10640674D01*
X9674825Y-10640674D02*
X9684348Y-10659722D01*
X9684348Y-10659722D02*
X9684348Y-10764484D01*
X9779586Y-10764484D02*
X9779586Y-10631150D01*
X9779586Y-10650198D02*
X9789110Y-10640674D01*
X9789110Y-10640674D02*
X9808158Y-10631150D01*
X9808158Y-10631150D02*
X9836729Y-10631150D01*
X9836729Y-10631150D02*
X9855777Y-10640674D01*
X9855777Y-10640674D02*
X9865301Y-10659722D01*
X9865301Y-10659722D02*
X9865301Y-10764484D01*
X9865301Y-10659722D02*
X9874825Y-10640674D01*
X9874825Y-10640674D02*
X9893872Y-10631150D01*
X9893872Y-10631150D02*
X9922444Y-10631150D01*
X9922444Y-10631150D02*
X9941491Y-10640674D01*
X9941491Y-10640674D02*
X9951015Y-10659722D01*
X9951015Y-10659722D02*
X9951015Y-10764484D01*
X10341491Y-10554960D02*
X10170063Y-10812103D01*
X10598634Y-10564484D02*
X10617682Y-10564484D01*
X10617682Y-10564484D02*
X10636729Y-10574008D01*
X10636729Y-10574008D02*
X10646253Y-10583531D01*
X10646253Y-10583531D02*
X10655777Y-10602579D01*
X10655777Y-10602579D02*
X10665301Y-10640674D01*
X10665301Y-10640674D02*
X10665301Y-10688293D01*
X10665301Y-10688293D02*
X10655777Y-10726389D01*
X10655777Y-10726389D02*
X10646253Y-10745436D01*
X10646253Y-10745436D02*
X10636729Y-10754960D01*
X10636729Y-10754960D02*
X10617682Y-10764484D01*
X10617682Y-10764484D02*
X10598634Y-10764484D01*
X10598634Y-10764484D02*
X10579587Y-10754960D01*
X10579587Y-10754960D02*
X10570063Y-10745436D01*
X10570063Y-10745436D02*
X10560539Y-10726389D01*
X10560539Y-10726389D02*
X10551015Y-10688293D01*
X10551015Y-10688293D02*
X10551015Y-10640674D01*
X10551015Y-10640674D02*
X10560539Y-10602579D01*
X10560539Y-10602579D02*
X10570063Y-10583531D01*
X10570063Y-10583531D02*
X10579587Y-10574008D01*
X10579587Y-10574008D02*
X10598634Y-10564484D01*
X10751015Y-10745436D02*
X10760539Y-10754960D01*
X10760539Y-10754960D02*
X10751015Y-10764484D01*
X10751015Y-10764484D02*
X10741491Y-10754960D01*
X10741491Y-10754960D02*
X10751015Y-10745436D01*
X10751015Y-10745436D02*
X10751015Y-10764484D01*
X10884348Y-10564484D02*
X10903396Y-10564484D01*
X10903396Y-10564484D02*
X10922444Y-10574008D01*
X10922444Y-10574008D02*
X10931968Y-10583531D01*
X10931968Y-10583531D02*
X10941491Y-10602579D01*
X10941491Y-10602579D02*
X10951015Y-10640674D01*
X10951015Y-10640674D02*
X10951015Y-10688293D01*
X10951015Y-10688293D02*
X10941491Y-10726389D01*
X10941491Y-10726389D02*
X10931968Y-10745436D01*
X10931968Y-10745436D02*
X10922444Y-10754960D01*
X10922444Y-10754960D02*
X10903396Y-10764484D01*
X10903396Y-10764484D02*
X10884348Y-10764484D01*
X10884348Y-10764484D02*
X10865301Y-10754960D01*
X10865301Y-10754960D02*
X10855777Y-10745436D01*
X10855777Y-10745436D02*
X10846253Y-10726389D01*
X10846253Y-10726389D02*
X10836729Y-10688293D01*
X10836729Y-10688293D02*
X10836729Y-10640674D01*
X10836729Y-10640674D02*
X10846253Y-10602579D01*
X10846253Y-10602579D02*
X10855777Y-10583531D01*
X10855777Y-10583531D02*
X10865301Y-10574008D01*
X10865301Y-10574008D02*
X10884348Y-10564484D01*
X11122444Y-10631150D02*
X11122444Y-10764484D01*
X11074825Y-10554960D02*
X11027206Y-10697817D01*
X11027206Y-10697817D02*
X11151015Y-10697817D01*
X11208158Y-10564484D02*
X11341491Y-10564484D01*
X11341491Y-10564484D02*
X11255777Y-10764484D01*
X11408158Y-10583531D02*
X11417682Y-10574008D01*
X11417682Y-10574008D02*
X11436729Y-10564484D01*
X11436729Y-10564484D02*
X11484348Y-10564484D01*
X11484348Y-10564484D02*
X11503396Y-10574008D01*
X11503396Y-10574008D02*
X11512920Y-10583531D01*
X11512920Y-10583531D02*
X11522444Y-10602579D01*
X11522444Y-10602579D02*
X11522444Y-10621627D01*
X11522444Y-10621627D02*
X11512920Y-10650198D01*
X11512920Y-10650198D02*
X11398634Y-10764484D01*
X11398634Y-10764484D02*
X11522444Y-10764484D01*
X11598634Y-10564484D02*
X11598634Y-10602579D01*
X11674825Y-10564484D02*
X11674825Y-10602579D01*
X11970063Y-10840674D02*
X11960539Y-10831150D01*
X11960539Y-10831150D02*
X11941491Y-10802579D01*
X11941491Y-10802579D02*
X11931968Y-10783531D01*
X11931968Y-10783531D02*
X11922444Y-10754960D01*
X11922444Y-10754960D02*
X11912920Y-10707341D01*
X11912920Y-10707341D02*
X11912920Y-10669246D01*
X11912920Y-10669246D02*
X11922444Y-10621627D01*
X11922444Y-10621627D02*
X11931968Y-10593055D01*
X11931968Y-10593055D02*
X11941491Y-10574008D01*
X11941491Y-10574008D02*
X11960539Y-10545436D01*
X11960539Y-10545436D02*
X11970063Y-10535912D01*
X12131968Y-10564484D02*
X12093872Y-10564484D01*
X12093872Y-10564484D02*
X12074825Y-10574008D01*
X12074825Y-10574008D02*
X12065301Y-10583531D01*
X12065301Y-10583531D02*
X12046253Y-10612103D01*
X12046253Y-10612103D02*
X12036729Y-10650198D01*
X12036729Y-10650198D02*
X12036729Y-10726389D01*
X12036729Y-10726389D02*
X12046253Y-10745436D01*
X12046253Y-10745436D02*
X12055777Y-10754960D01*
X12055777Y-10754960D02*
X12074825Y-10764484D01*
X12074825Y-10764484D02*
X12112920Y-10764484D01*
X12112920Y-10764484D02*
X12131968Y-10754960D01*
X12131968Y-10754960D02*
X12141491Y-10745436D01*
X12141491Y-10745436D02*
X12151015Y-10726389D01*
X12151015Y-10726389D02*
X12151015Y-10678770D01*
X12151015Y-10678770D02*
X12141491Y-10659722D01*
X12141491Y-10659722D02*
X12131968Y-10650198D01*
X12131968Y-10650198D02*
X12112920Y-10640674D01*
X12112920Y-10640674D02*
X12074825Y-10640674D01*
X12074825Y-10640674D02*
X12055777Y-10650198D01*
X12055777Y-10650198D02*
X12046253Y-10659722D01*
X12046253Y-10659722D02*
X12036729Y-10678770D01*
X12389110Y-10764484D02*
X12389110Y-10564484D01*
X12474825Y-10764484D02*
X12474825Y-10659722D01*
X12474825Y-10659722D02*
X12465301Y-10640674D01*
X12465301Y-10640674D02*
X12446253Y-10631150D01*
X12446253Y-10631150D02*
X12417682Y-10631150D01*
X12417682Y-10631150D02*
X12398634Y-10640674D01*
X12398634Y-10640674D02*
X12389110Y-10650198D01*
X12598634Y-10764484D02*
X12579587Y-10754960D01*
X12579587Y-10754960D02*
X12570063Y-10745436D01*
X12570063Y-10745436D02*
X12560539Y-10726389D01*
X12560539Y-10726389D02*
X12560539Y-10669246D01*
X12560539Y-10669246D02*
X12570063Y-10650198D01*
X12570063Y-10650198D02*
X12579587Y-10640674D01*
X12579587Y-10640674D02*
X12598634Y-10631150D01*
X12598634Y-10631150D02*
X12627206Y-10631150D01*
X12627206Y-10631150D02*
X12646253Y-10640674D01*
X12646253Y-10640674D02*
X12655777Y-10650198D01*
X12655777Y-10650198D02*
X12665301Y-10669246D01*
X12665301Y-10669246D02*
X12665301Y-10726389D01*
X12665301Y-10726389D02*
X12655777Y-10745436D01*
X12655777Y-10745436D02*
X12646253Y-10754960D01*
X12646253Y-10754960D02*
X12627206Y-10764484D01*
X12627206Y-10764484D02*
X12598634Y-10764484D01*
X12779587Y-10764484D02*
X12760539Y-10754960D01*
X12760539Y-10754960D02*
X12751015Y-10735912D01*
X12751015Y-10735912D02*
X12751015Y-10564484D01*
X12931968Y-10754960D02*
X12912920Y-10764484D01*
X12912920Y-10764484D02*
X12874825Y-10764484D01*
X12874825Y-10764484D02*
X12855777Y-10754960D01*
X12855777Y-10754960D02*
X12846253Y-10735912D01*
X12846253Y-10735912D02*
X12846253Y-10659722D01*
X12846253Y-10659722D02*
X12855777Y-10640674D01*
X12855777Y-10640674D02*
X12874825Y-10631150D01*
X12874825Y-10631150D02*
X12912920Y-10631150D01*
X12912920Y-10631150D02*
X12931968Y-10640674D01*
X12931968Y-10640674D02*
X12941491Y-10659722D01*
X12941491Y-10659722D02*
X12941491Y-10678770D01*
X12941491Y-10678770D02*
X12846253Y-10697817D01*
X13017682Y-10754960D02*
X13036730Y-10764484D01*
X13036730Y-10764484D02*
X13074825Y-10764484D01*
X13074825Y-10764484D02*
X13093872Y-10754960D01*
X13093872Y-10754960D02*
X13103396Y-10735912D01*
X13103396Y-10735912D02*
X13103396Y-10726389D01*
X13103396Y-10726389D02*
X13093872Y-10707341D01*
X13093872Y-10707341D02*
X13074825Y-10697817D01*
X13074825Y-10697817D02*
X13046253Y-10697817D01*
X13046253Y-10697817D02*
X13027206Y-10688293D01*
X13027206Y-10688293D02*
X13017682Y-10669246D01*
X13017682Y-10669246D02*
X13017682Y-10659722D01*
X13017682Y-10659722D02*
X13027206Y-10640674D01*
X13027206Y-10640674D02*
X13046253Y-10631150D01*
X13046253Y-10631150D02*
X13074825Y-10631150D01*
X13074825Y-10631150D02*
X13093872Y-10640674D01*
X13170063Y-10840674D02*
X13179587Y-10831150D01*
X13179587Y-10831150D02*
X13198634Y-10802579D01*
X13198634Y-10802579D02*
X13208158Y-10783531D01*
X13208158Y-10783531D02*
X13217682Y-10754960D01*
X13217682Y-10754960D02*
X13227206Y-10707341D01*
X13227206Y-10707341D02*
X13227206Y-10669246D01*
X13227206Y-10669246D02*
X13217682Y-10621627D01*
X13217682Y-10621627D02*
X13208158Y-10593055D01*
X13208158Y-10593055D02*
X13198634Y-10574008D01*
X13198634Y-10574008D02*
X13179587Y-10545436D01*
X13179587Y-10545436D02*
X13170063Y-10535912D01*
D13*
X8373033Y-10990034D02*
X8373033Y-10883967D01*
X8266966Y-10883967D01*
X8266966Y-10990034D01*
X8373033Y-10990034D01*
D11*
X8760539Y-11028484D02*
X8646253Y-11028484D01*
X8703396Y-11028484D02*
X8703396Y-10828484D01*
X8703396Y-10828484D02*
X8684348Y-10857055D01*
X8684348Y-10857055D02*
X8665301Y-10876103D01*
X8665301Y-10876103D02*
X8646253Y-10885627D01*
X8846253Y-11009436D02*
X8855777Y-11018960D01*
X8855777Y-11018960D02*
X8846253Y-11028484D01*
X8846253Y-11028484D02*
X8836729Y-11018960D01*
X8836729Y-11018960D02*
X8846253Y-11009436D01*
X8846253Y-11009436D02*
X8846253Y-11028484D01*
X9036729Y-10828484D02*
X8941491Y-10828484D01*
X8941491Y-10828484D02*
X8931967Y-10923722D01*
X8931967Y-10923722D02*
X8941491Y-10914198D01*
X8941491Y-10914198D02*
X8960539Y-10904674D01*
X8960539Y-10904674D02*
X9008158Y-10904674D01*
X9008158Y-10904674D02*
X9027205Y-10914198D01*
X9027205Y-10914198D02*
X9036729Y-10923722D01*
X9036729Y-10923722D02*
X9046253Y-10942770D01*
X9046253Y-10942770D02*
X9046253Y-10990389D01*
X9046253Y-10990389D02*
X9036729Y-11009436D01*
X9036729Y-11009436D02*
X9027205Y-11018960D01*
X9027205Y-11018960D02*
X9008158Y-11028484D01*
X9008158Y-11028484D02*
X8960539Y-11028484D01*
X8960539Y-11028484D02*
X8941491Y-11018960D01*
X8941491Y-11018960D02*
X8931967Y-11009436D01*
X9170063Y-10828484D02*
X9189110Y-10828484D01*
X9189110Y-10828484D02*
X9208158Y-10838008D01*
X9208158Y-10838008D02*
X9217682Y-10847531D01*
X9217682Y-10847531D02*
X9227205Y-10866579D01*
X9227205Y-10866579D02*
X9236729Y-10904674D01*
X9236729Y-10904674D02*
X9236729Y-10952293D01*
X9236729Y-10952293D02*
X9227205Y-10990389D01*
X9227205Y-10990389D02*
X9217682Y-11009436D01*
X9217682Y-11009436D02*
X9208158Y-11018960D01*
X9208158Y-11018960D02*
X9189110Y-11028484D01*
X9189110Y-11028484D02*
X9170063Y-11028484D01*
X9170063Y-11028484D02*
X9151015Y-11018960D01*
X9151015Y-11018960D02*
X9141491Y-11009436D01*
X9141491Y-11009436D02*
X9131967Y-10990389D01*
X9131967Y-10990389D02*
X9122444Y-10952293D01*
X9122444Y-10952293D02*
X9122444Y-10904674D01*
X9122444Y-10904674D02*
X9131967Y-10866579D01*
X9131967Y-10866579D02*
X9141491Y-10847531D01*
X9141491Y-10847531D02*
X9151015Y-10838008D01*
X9151015Y-10838008D02*
X9170063Y-10828484D01*
X9360539Y-10828484D02*
X9379586Y-10828484D01*
X9379586Y-10828484D02*
X9398634Y-10838008D01*
X9398634Y-10838008D02*
X9408158Y-10847531D01*
X9408158Y-10847531D02*
X9417682Y-10866579D01*
X9417682Y-10866579D02*
X9427205Y-10904674D01*
X9427205Y-10904674D02*
X9427205Y-10952293D01*
X9427205Y-10952293D02*
X9417682Y-10990389D01*
X9417682Y-10990389D02*
X9408158Y-11009436D01*
X9408158Y-11009436D02*
X9398634Y-11018960D01*
X9398634Y-11018960D02*
X9379586Y-11028484D01*
X9379586Y-11028484D02*
X9360539Y-11028484D01*
X9360539Y-11028484D02*
X9341491Y-11018960D01*
X9341491Y-11018960D02*
X9331967Y-11009436D01*
X9331967Y-11009436D02*
X9322444Y-10990389D01*
X9322444Y-10990389D02*
X9312920Y-10952293D01*
X9312920Y-10952293D02*
X9312920Y-10904674D01*
X9312920Y-10904674D02*
X9322444Y-10866579D01*
X9322444Y-10866579D02*
X9331967Y-10847531D01*
X9331967Y-10847531D02*
X9341491Y-10838008D01*
X9341491Y-10838008D02*
X9360539Y-10828484D01*
X9512920Y-11028484D02*
X9512920Y-10895150D01*
X9512920Y-10914198D02*
X9522444Y-10904674D01*
X9522444Y-10904674D02*
X9541491Y-10895150D01*
X9541491Y-10895150D02*
X9570063Y-10895150D01*
X9570063Y-10895150D02*
X9589110Y-10904674D01*
X9589110Y-10904674D02*
X9598634Y-10923722D01*
X9598634Y-10923722D02*
X9598634Y-11028484D01*
X9598634Y-10923722D02*
X9608158Y-10904674D01*
X9608158Y-10904674D02*
X9627205Y-10895150D01*
X9627205Y-10895150D02*
X9655777Y-10895150D01*
X9655777Y-10895150D02*
X9674825Y-10904674D01*
X9674825Y-10904674D02*
X9684348Y-10923722D01*
X9684348Y-10923722D02*
X9684348Y-11028484D01*
X9779586Y-11028484D02*
X9779586Y-10895150D01*
X9779586Y-10914198D02*
X9789110Y-10904674D01*
X9789110Y-10904674D02*
X9808158Y-10895150D01*
X9808158Y-10895150D02*
X9836729Y-10895150D01*
X9836729Y-10895150D02*
X9855777Y-10904674D01*
X9855777Y-10904674D02*
X9865301Y-10923722D01*
X9865301Y-10923722D02*
X9865301Y-11028484D01*
X9865301Y-10923722D02*
X9874825Y-10904674D01*
X9874825Y-10904674D02*
X9893872Y-10895150D01*
X9893872Y-10895150D02*
X9922444Y-10895150D01*
X9922444Y-10895150D02*
X9941491Y-10904674D01*
X9941491Y-10904674D02*
X9951015Y-10923722D01*
X9951015Y-10923722D02*
X9951015Y-11028484D01*
X10341491Y-10818960D02*
X10170063Y-11076103D01*
X10598634Y-10828484D02*
X10617682Y-10828484D01*
X10617682Y-10828484D02*
X10636729Y-10838008D01*
X10636729Y-10838008D02*
X10646253Y-10847531D01*
X10646253Y-10847531D02*
X10655777Y-10866579D01*
X10655777Y-10866579D02*
X10665301Y-10904674D01*
X10665301Y-10904674D02*
X10665301Y-10952293D01*
X10665301Y-10952293D02*
X10655777Y-10990389D01*
X10655777Y-10990389D02*
X10646253Y-11009436D01*
X10646253Y-11009436D02*
X10636729Y-11018960D01*
X10636729Y-11018960D02*
X10617682Y-11028484D01*
X10617682Y-11028484D02*
X10598634Y-11028484D01*
X10598634Y-11028484D02*
X10579587Y-11018960D01*
X10579587Y-11018960D02*
X10570063Y-11009436D01*
X10570063Y-11009436D02*
X10560539Y-10990389D01*
X10560539Y-10990389D02*
X10551015Y-10952293D01*
X10551015Y-10952293D02*
X10551015Y-10904674D01*
X10551015Y-10904674D02*
X10560539Y-10866579D01*
X10560539Y-10866579D02*
X10570063Y-10847531D01*
X10570063Y-10847531D02*
X10579587Y-10838008D01*
X10579587Y-10838008D02*
X10598634Y-10828484D01*
X10751015Y-11009436D02*
X10760539Y-11018960D01*
X10760539Y-11018960D02*
X10751015Y-11028484D01*
X10751015Y-11028484D02*
X10741491Y-11018960D01*
X10741491Y-11018960D02*
X10751015Y-11009436D01*
X10751015Y-11009436D02*
X10751015Y-11028484D01*
X10884348Y-10828484D02*
X10903396Y-10828484D01*
X10903396Y-10828484D02*
X10922444Y-10838008D01*
X10922444Y-10838008D02*
X10931968Y-10847531D01*
X10931968Y-10847531D02*
X10941491Y-10866579D01*
X10941491Y-10866579D02*
X10951015Y-10904674D01*
X10951015Y-10904674D02*
X10951015Y-10952293D01*
X10951015Y-10952293D02*
X10941491Y-10990389D01*
X10941491Y-10990389D02*
X10931968Y-11009436D01*
X10931968Y-11009436D02*
X10922444Y-11018960D01*
X10922444Y-11018960D02*
X10903396Y-11028484D01*
X10903396Y-11028484D02*
X10884348Y-11028484D01*
X10884348Y-11028484D02*
X10865301Y-11018960D01*
X10865301Y-11018960D02*
X10855777Y-11009436D01*
X10855777Y-11009436D02*
X10846253Y-10990389D01*
X10846253Y-10990389D02*
X10836729Y-10952293D01*
X10836729Y-10952293D02*
X10836729Y-10904674D01*
X10836729Y-10904674D02*
X10846253Y-10866579D01*
X10846253Y-10866579D02*
X10855777Y-10847531D01*
X10855777Y-10847531D02*
X10865301Y-10838008D01*
X10865301Y-10838008D02*
X10884348Y-10828484D01*
X11131968Y-10828484D02*
X11036729Y-10828484D01*
X11036729Y-10828484D02*
X11027206Y-10923722D01*
X11027206Y-10923722D02*
X11036729Y-10914198D01*
X11036729Y-10914198D02*
X11055777Y-10904674D01*
X11055777Y-10904674D02*
X11103396Y-10904674D01*
X11103396Y-10904674D02*
X11122444Y-10914198D01*
X11122444Y-10914198D02*
X11131968Y-10923722D01*
X11131968Y-10923722D02*
X11141491Y-10942770D01*
X11141491Y-10942770D02*
X11141491Y-10990389D01*
X11141491Y-10990389D02*
X11131968Y-11009436D01*
X11131968Y-11009436D02*
X11122444Y-11018960D01*
X11122444Y-11018960D02*
X11103396Y-11028484D01*
X11103396Y-11028484D02*
X11055777Y-11028484D01*
X11055777Y-11028484D02*
X11036729Y-11018960D01*
X11036729Y-11018960D02*
X11027206Y-11009436D01*
X11236729Y-11028484D02*
X11274825Y-11028484D01*
X11274825Y-11028484D02*
X11293872Y-11018960D01*
X11293872Y-11018960D02*
X11303396Y-11009436D01*
X11303396Y-11009436D02*
X11322444Y-10980865D01*
X11322444Y-10980865D02*
X11331967Y-10942770D01*
X11331967Y-10942770D02*
X11331967Y-10866579D01*
X11331967Y-10866579D02*
X11322444Y-10847531D01*
X11322444Y-10847531D02*
X11312920Y-10838008D01*
X11312920Y-10838008D02*
X11293872Y-10828484D01*
X11293872Y-10828484D02*
X11255777Y-10828484D01*
X11255777Y-10828484D02*
X11236729Y-10838008D01*
X11236729Y-10838008D02*
X11227206Y-10847531D01*
X11227206Y-10847531D02*
X11217682Y-10866579D01*
X11217682Y-10866579D02*
X11217682Y-10914198D01*
X11217682Y-10914198D02*
X11227206Y-10933246D01*
X11227206Y-10933246D02*
X11236729Y-10942770D01*
X11236729Y-10942770D02*
X11255777Y-10952293D01*
X11255777Y-10952293D02*
X11293872Y-10952293D01*
X11293872Y-10952293D02*
X11312920Y-10942770D01*
X11312920Y-10942770D02*
X11322444Y-10933246D01*
X11322444Y-10933246D02*
X11331967Y-10914198D01*
X11522444Y-11028484D02*
X11408158Y-11028484D01*
X11465301Y-11028484D02*
X11465301Y-10828484D01*
X11465301Y-10828484D02*
X11446253Y-10857055D01*
X11446253Y-10857055D02*
X11427206Y-10876103D01*
X11427206Y-10876103D02*
X11408158Y-10885627D01*
X11598634Y-10828484D02*
X11598634Y-10866579D01*
X11674825Y-10828484D02*
X11674825Y-10866579D01*
X11970063Y-11104674D02*
X11960539Y-11095150D01*
X11960539Y-11095150D02*
X11941491Y-11066579D01*
X11941491Y-11066579D02*
X11931968Y-11047531D01*
X11931968Y-11047531D02*
X11922444Y-11018960D01*
X11922444Y-11018960D02*
X11912920Y-10971341D01*
X11912920Y-10971341D02*
X11912920Y-10933246D01*
X11912920Y-10933246D02*
X11922444Y-10885627D01*
X11922444Y-10885627D02*
X11931968Y-10857055D01*
X11931968Y-10857055D02*
X11941491Y-10838008D01*
X11941491Y-10838008D02*
X11960539Y-10809436D01*
X11960539Y-10809436D02*
X11970063Y-10799912D01*
X12036729Y-10847531D02*
X12046253Y-10838008D01*
X12046253Y-10838008D02*
X12065301Y-10828484D01*
X12065301Y-10828484D02*
X12112920Y-10828484D01*
X12112920Y-10828484D02*
X12131968Y-10838008D01*
X12131968Y-10838008D02*
X12141491Y-10847531D01*
X12141491Y-10847531D02*
X12151015Y-10866579D01*
X12151015Y-10866579D02*
X12151015Y-10885627D01*
X12151015Y-10885627D02*
X12141491Y-10914198D01*
X12141491Y-10914198D02*
X12027206Y-11028484D01*
X12027206Y-11028484D02*
X12151015Y-11028484D01*
X12389110Y-11028484D02*
X12389110Y-10828484D01*
X12474825Y-11028484D02*
X12474825Y-10923722D01*
X12474825Y-10923722D02*
X12465301Y-10904674D01*
X12465301Y-10904674D02*
X12446253Y-10895150D01*
X12446253Y-10895150D02*
X12417682Y-10895150D01*
X12417682Y-10895150D02*
X12398634Y-10904674D01*
X12398634Y-10904674D02*
X12389110Y-10914198D01*
X12598634Y-11028484D02*
X12579587Y-11018960D01*
X12579587Y-11018960D02*
X12570063Y-11009436D01*
X12570063Y-11009436D02*
X12560539Y-10990389D01*
X12560539Y-10990389D02*
X12560539Y-10933246D01*
X12560539Y-10933246D02*
X12570063Y-10914198D01*
X12570063Y-10914198D02*
X12579587Y-10904674D01*
X12579587Y-10904674D02*
X12598634Y-10895150D01*
X12598634Y-10895150D02*
X12627206Y-10895150D01*
X12627206Y-10895150D02*
X12646253Y-10904674D01*
X12646253Y-10904674D02*
X12655777Y-10914198D01*
X12655777Y-10914198D02*
X12665301Y-10933246D01*
X12665301Y-10933246D02*
X12665301Y-10990389D01*
X12665301Y-10990389D02*
X12655777Y-11009436D01*
X12655777Y-11009436D02*
X12646253Y-11018960D01*
X12646253Y-11018960D02*
X12627206Y-11028484D01*
X12627206Y-11028484D02*
X12598634Y-11028484D01*
X12779587Y-11028484D02*
X12760539Y-11018960D01*
X12760539Y-11018960D02*
X12751015Y-10999912D01*
X12751015Y-10999912D02*
X12751015Y-10828484D01*
X12931968Y-11018960D02*
X12912920Y-11028484D01*
X12912920Y-11028484D02*
X12874825Y-11028484D01*
X12874825Y-11028484D02*
X12855777Y-11018960D01*
X12855777Y-11018960D02*
X12846253Y-10999912D01*
X12846253Y-10999912D02*
X12846253Y-10923722D01*
X12846253Y-10923722D02*
X12855777Y-10904674D01*
X12855777Y-10904674D02*
X12874825Y-10895150D01*
X12874825Y-10895150D02*
X12912920Y-10895150D01*
X12912920Y-10895150D02*
X12931968Y-10904674D01*
X12931968Y-10904674D02*
X12941491Y-10923722D01*
X12941491Y-10923722D02*
X12941491Y-10942770D01*
X12941491Y-10942770D02*
X12846253Y-10961817D01*
X13017682Y-11018960D02*
X13036730Y-11028484D01*
X13036730Y-11028484D02*
X13074825Y-11028484D01*
X13074825Y-11028484D02*
X13093872Y-11018960D01*
X13093872Y-11018960D02*
X13103396Y-10999912D01*
X13103396Y-10999912D02*
X13103396Y-10990389D01*
X13103396Y-10990389D02*
X13093872Y-10971341D01*
X13093872Y-10971341D02*
X13074825Y-10961817D01*
X13074825Y-10961817D02*
X13046253Y-10961817D01*
X13046253Y-10961817D02*
X13027206Y-10952293D01*
X13027206Y-10952293D02*
X13017682Y-10933246D01*
X13017682Y-10933246D02*
X13017682Y-10923722D01*
X13017682Y-10923722D02*
X13027206Y-10904674D01*
X13027206Y-10904674D02*
X13046253Y-10895150D01*
X13046253Y-10895150D02*
X13074825Y-10895150D01*
X13074825Y-10895150D02*
X13093872Y-10904674D01*
X13170063Y-11104674D02*
X13179587Y-11095150D01*
X13179587Y-11095150D02*
X13198634Y-11066579D01*
X13198634Y-11066579D02*
X13208158Y-11047531D01*
X13208158Y-11047531D02*
X13217682Y-11018960D01*
X13217682Y-11018960D02*
X13227206Y-10971341D01*
X13227206Y-10971341D02*
X13227206Y-10933246D01*
X13227206Y-10933246D02*
X13217682Y-10885627D01*
X13217682Y-10885627D02*
X13208158Y-10857055D01*
X13208158Y-10857055D02*
X13198634Y-10838008D01*
X13198634Y-10838008D02*
X13179587Y-10809436D01*
X13179587Y-10809436D02*
X13170063Y-10799912D01*
D14*
X8310000Y-11292000D02*
X8395000Y-11207000D01*
X8310000Y-11122000D01*
X8225000Y-11207000D01*
X8310000Y-11292000D01*
D11*
X8760539Y-11298484D02*
X8646253Y-11298484D01*
X8703396Y-11298484D02*
X8703396Y-11098484D01*
X8703396Y-11098484D02*
X8684348Y-11127055D01*
X8684348Y-11127055D02*
X8665301Y-11146103D01*
X8665301Y-11146103D02*
X8646253Y-11155627D01*
X8846253Y-11279436D02*
X8855777Y-11288960D01*
X8855777Y-11288960D02*
X8846253Y-11298484D01*
X8846253Y-11298484D02*
X8836729Y-11288960D01*
X8836729Y-11288960D02*
X8846253Y-11279436D01*
X8846253Y-11279436D02*
X8846253Y-11298484D01*
X8922444Y-11098484D02*
X9055777Y-11098484D01*
X9055777Y-11098484D02*
X8970063Y-11298484D01*
X9170063Y-11098484D02*
X9189110Y-11098484D01*
X9189110Y-11098484D02*
X9208158Y-11108008D01*
X9208158Y-11108008D02*
X9217682Y-11117531D01*
X9217682Y-11117531D02*
X9227205Y-11136579D01*
X9227205Y-11136579D02*
X9236729Y-11174674D01*
X9236729Y-11174674D02*
X9236729Y-11222293D01*
X9236729Y-11222293D02*
X9227205Y-11260388D01*
X9227205Y-11260388D02*
X9217682Y-11279436D01*
X9217682Y-11279436D02*
X9208158Y-11288960D01*
X9208158Y-11288960D02*
X9189110Y-11298484D01*
X9189110Y-11298484D02*
X9170063Y-11298484D01*
X9170063Y-11298484D02*
X9151015Y-11288960D01*
X9151015Y-11288960D02*
X9141491Y-11279436D01*
X9141491Y-11279436D02*
X9131967Y-11260388D01*
X9131967Y-11260388D02*
X9122444Y-11222293D01*
X9122444Y-11222293D02*
X9122444Y-11174674D01*
X9122444Y-11174674D02*
X9131967Y-11136579D01*
X9131967Y-11136579D02*
X9141491Y-11117531D01*
X9141491Y-11117531D02*
X9151015Y-11108008D01*
X9151015Y-11108008D02*
X9170063Y-11098484D01*
X9360539Y-11098484D02*
X9379586Y-11098484D01*
X9379586Y-11098484D02*
X9398634Y-11108008D01*
X9398634Y-11108008D02*
X9408158Y-11117531D01*
X9408158Y-11117531D02*
X9417682Y-11136579D01*
X9417682Y-11136579D02*
X9427205Y-11174674D01*
X9427205Y-11174674D02*
X9427205Y-11222293D01*
X9427205Y-11222293D02*
X9417682Y-11260388D01*
X9417682Y-11260388D02*
X9408158Y-11279436D01*
X9408158Y-11279436D02*
X9398634Y-11288960D01*
X9398634Y-11288960D02*
X9379586Y-11298484D01*
X9379586Y-11298484D02*
X9360539Y-11298484D01*
X9360539Y-11298484D02*
X9341491Y-11288960D01*
X9341491Y-11288960D02*
X9331967Y-11279436D01*
X9331967Y-11279436D02*
X9322444Y-11260388D01*
X9322444Y-11260388D02*
X9312920Y-11222293D01*
X9312920Y-11222293D02*
X9312920Y-11174674D01*
X9312920Y-11174674D02*
X9322444Y-11136579D01*
X9322444Y-11136579D02*
X9331967Y-11117531D01*
X9331967Y-11117531D02*
X9341491Y-11108008D01*
X9341491Y-11108008D02*
X9360539Y-11098484D01*
X9512920Y-11298484D02*
X9512920Y-11165150D01*
X9512920Y-11184198D02*
X9522444Y-11174674D01*
X9522444Y-11174674D02*
X9541491Y-11165150D01*
X9541491Y-11165150D02*
X9570063Y-11165150D01*
X9570063Y-11165150D02*
X9589110Y-11174674D01*
X9589110Y-11174674D02*
X9598634Y-11193722D01*
X9598634Y-11193722D02*
X9598634Y-11298484D01*
X9598634Y-11193722D02*
X9608158Y-11174674D01*
X9608158Y-11174674D02*
X9627205Y-11165150D01*
X9627205Y-11165150D02*
X9655777Y-11165150D01*
X9655777Y-11165150D02*
X9674825Y-11174674D01*
X9674825Y-11174674D02*
X9684348Y-11193722D01*
X9684348Y-11193722D02*
X9684348Y-11298484D01*
X9779586Y-11298484D02*
X9779586Y-11165150D01*
X9779586Y-11184198D02*
X9789110Y-11174674D01*
X9789110Y-11174674D02*
X9808158Y-11165150D01*
X9808158Y-11165150D02*
X9836729Y-11165150D01*
X9836729Y-11165150D02*
X9855777Y-11174674D01*
X9855777Y-11174674D02*
X9865301Y-11193722D01*
X9865301Y-11193722D02*
X9865301Y-11298484D01*
X9865301Y-11193722D02*
X9874825Y-11174674D01*
X9874825Y-11174674D02*
X9893872Y-11165150D01*
X9893872Y-11165150D02*
X9922444Y-11165150D01*
X9922444Y-11165150D02*
X9941491Y-11174674D01*
X9941491Y-11174674D02*
X9951015Y-11193722D01*
X9951015Y-11193722D02*
X9951015Y-11298484D01*
X10341491Y-11088960D02*
X10170063Y-11346103D01*
X10598634Y-11098484D02*
X10617682Y-11098484D01*
X10617682Y-11098484D02*
X10636729Y-11108008D01*
X10636729Y-11108008D02*
X10646253Y-11117531D01*
X10646253Y-11117531D02*
X10655777Y-11136579D01*
X10655777Y-11136579D02*
X10665301Y-11174674D01*
X10665301Y-11174674D02*
X10665301Y-11222293D01*
X10665301Y-11222293D02*
X10655777Y-11260388D01*
X10655777Y-11260388D02*
X10646253Y-11279436D01*
X10646253Y-11279436D02*
X10636729Y-11288960D01*
X10636729Y-11288960D02*
X10617682Y-11298484D01*
X10617682Y-11298484D02*
X10598634Y-11298484D01*
X10598634Y-11298484D02*
X10579587Y-11288960D01*
X10579587Y-11288960D02*
X10570063Y-11279436D01*
X10570063Y-11279436D02*
X10560539Y-11260388D01*
X10560539Y-11260388D02*
X10551015Y-11222293D01*
X10551015Y-11222293D02*
X10551015Y-11174674D01*
X10551015Y-11174674D02*
X10560539Y-11136579D01*
X10560539Y-11136579D02*
X10570063Y-11117531D01*
X10570063Y-11117531D02*
X10579587Y-11108008D01*
X10579587Y-11108008D02*
X10598634Y-11098484D01*
X10751015Y-11279436D02*
X10760539Y-11288960D01*
X10760539Y-11288960D02*
X10751015Y-11298484D01*
X10751015Y-11298484D02*
X10741491Y-11288960D01*
X10741491Y-11288960D02*
X10751015Y-11279436D01*
X10751015Y-11279436D02*
X10751015Y-11298484D01*
X10884348Y-11098484D02*
X10903396Y-11098484D01*
X10903396Y-11098484D02*
X10922444Y-11108008D01*
X10922444Y-11108008D02*
X10931968Y-11117531D01*
X10931968Y-11117531D02*
X10941491Y-11136579D01*
X10941491Y-11136579D02*
X10951015Y-11174674D01*
X10951015Y-11174674D02*
X10951015Y-11222293D01*
X10951015Y-11222293D02*
X10941491Y-11260388D01*
X10941491Y-11260388D02*
X10931968Y-11279436D01*
X10931968Y-11279436D02*
X10922444Y-11288960D01*
X10922444Y-11288960D02*
X10903396Y-11298484D01*
X10903396Y-11298484D02*
X10884348Y-11298484D01*
X10884348Y-11298484D02*
X10865301Y-11288960D01*
X10865301Y-11288960D02*
X10855777Y-11279436D01*
X10855777Y-11279436D02*
X10846253Y-11260388D01*
X10846253Y-11260388D02*
X10836729Y-11222293D01*
X10836729Y-11222293D02*
X10836729Y-11174674D01*
X10836729Y-11174674D02*
X10846253Y-11136579D01*
X10846253Y-11136579D02*
X10855777Y-11117531D01*
X10855777Y-11117531D02*
X10865301Y-11108008D01*
X10865301Y-11108008D02*
X10884348Y-11098484D01*
X11122444Y-11098484D02*
X11084348Y-11098484D01*
X11084348Y-11098484D02*
X11065301Y-11108008D01*
X11065301Y-11108008D02*
X11055777Y-11117531D01*
X11055777Y-11117531D02*
X11036729Y-11146103D01*
X11036729Y-11146103D02*
X11027206Y-11184198D01*
X11027206Y-11184198D02*
X11027206Y-11260388D01*
X11027206Y-11260388D02*
X11036729Y-11279436D01*
X11036729Y-11279436D02*
X11046253Y-11288960D01*
X11046253Y-11288960D02*
X11065301Y-11298484D01*
X11065301Y-11298484D02*
X11103396Y-11298484D01*
X11103396Y-11298484D02*
X11122444Y-11288960D01*
X11122444Y-11288960D02*
X11131968Y-11279436D01*
X11131968Y-11279436D02*
X11141491Y-11260388D01*
X11141491Y-11260388D02*
X11141491Y-11212769D01*
X11141491Y-11212769D02*
X11131968Y-11193722D01*
X11131968Y-11193722D02*
X11122444Y-11184198D01*
X11122444Y-11184198D02*
X11103396Y-11174674D01*
X11103396Y-11174674D02*
X11065301Y-11174674D01*
X11065301Y-11174674D02*
X11046253Y-11184198D01*
X11046253Y-11184198D02*
X11036729Y-11193722D01*
X11036729Y-11193722D02*
X11027206Y-11212769D01*
X11312920Y-11098484D02*
X11274825Y-11098484D01*
X11274825Y-11098484D02*
X11255777Y-11108008D01*
X11255777Y-11108008D02*
X11246253Y-11117531D01*
X11246253Y-11117531D02*
X11227206Y-11146103D01*
X11227206Y-11146103D02*
X11217682Y-11184198D01*
X11217682Y-11184198D02*
X11217682Y-11260388D01*
X11217682Y-11260388D02*
X11227206Y-11279436D01*
X11227206Y-11279436D02*
X11236729Y-11288960D01*
X11236729Y-11288960D02*
X11255777Y-11298484D01*
X11255777Y-11298484D02*
X11293872Y-11298484D01*
X11293872Y-11298484D02*
X11312920Y-11288960D01*
X11312920Y-11288960D02*
X11322444Y-11279436D01*
X11322444Y-11279436D02*
X11331967Y-11260388D01*
X11331967Y-11260388D02*
X11331967Y-11212769D01*
X11331967Y-11212769D02*
X11322444Y-11193722D01*
X11322444Y-11193722D02*
X11312920Y-11184198D01*
X11312920Y-11184198D02*
X11293872Y-11174674D01*
X11293872Y-11174674D02*
X11255777Y-11174674D01*
X11255777Y-11174674D02*
X11236729Y-11184198D01*
X11236729Y-11184198D02*
X11227206Y-11193722D01*
X11227206Y-11193722D02*
X11217682Y-11212769D01*
X11427206Y-11298484D02*
X11465301Y-11298484D01*
X11465301Y-11298484D02*
X11484348Y-11288960D01*
X11484348Y-11288960D02*
X11493872Y-11279436D01*
X11493872Y-11279436D02*
X11512920Y-11250865D01*
X11512920Y-11250865D02*
X11522444Y-11212769D01*
X11522444Y-11212769D02*
X11522444Y-11136579D01*
X11522444Y-11136579D02*
X11512920Y-11117531D01*
X11512920Y-11117531D02*
X11503396Y-11108008D01*
X11503396Y-11108008D02*
X11484348Y-11098484D01*
X11484348Y-11098484D02*
X11446253Y-11098484D01*
X11446253Y-11098484D02*
X11427206Y-11108008D01*
X11427206Y-11108008D02*
X11417682Y-11117531D01*
X11417682Y-11117531D02*
X11408158Y-11136579D01*
X11408158Y-11136579D02*
X11408158Y-11184198D01*
X11408158Y-11184198D02*
X11417682Y-11203246D01*
X11417682Y-11203246D02*
X11427206Y-11212769D01*
X11427206Y-11212769D02*
X11446253Y-11222293D01*
X11446253Y-11222293D02*
X11484348Y-11222293D01*
X11484348Y-11222293D02*
X11503396Y-11212769D01*
X11503396Y-11212769D02*
X11512920Y-11203246D01*
X11512920Y-11203246D02*
X11522444Y-11184198D01*
X11598634Y-11098484D02*
X11598634Y-11136579D01*
X11674825Y-11098484D02*
X11674825Y-11136579D01*
X11970063Y-11374674D02*
X11960539Y-11365150D01*
X11960539Y-11365150D02*
X11941491Y-11336579D01*
X11941491Y-11336579D02*
X11931968Y-11317531D01*
X11931968Y-11317531D02*
X11922444Y-11288960D01*
X11922444Y-11288960D02*
X11912920Y-11241341D01*
X11912920Y-11241341D02*
X11912920Y-11203246D01*
X11912920Y-11203246D02*
X11922444Y-11155627D01*
X11922444Y-11155627D02*
X11931968Y-11127055D01*
X11931968Y-11127055D02*
X11941491Y-11108008D01*
X11941491Y-11108008D02*
X11960539Y-11079436D01*
X11960539Y-11079436D02*
X11970063Y-11069912D01*
X12074825Y-11184198D02*
X12055777Y-11174674D01*
X12055777Y-11174674D02*
X12046253Y-11165150D01*
X12046253Y-11165150D02*
X12036729Y-11146103D01*
X12036729Y-11146103D02*
X12036729Y-11136579D01*
X12036729Y-11136579D02*
X12046253Y-11117531D01*
X12046253Y-11117531D02*
X12055777Y-11108008D01*
X12055777Y-11108008D02*
X12074825Y-11098484D01*
X12074825Y-11098484D02*
X12112920Y-11098484D01*
X12112920Y-11098484D02*
X12131968Y-11108008D01*
X12131968Y-11108008D02*
X12141491Y-11117531D01*
X12141491Y-11117531D02*
X12151015Y-11136579D01*
X12151015Y-11136579D02*
X12151015Y-11146103D01*
X12151015Y-11146103D02*
X12141491Y-11165150D01*
X12141491Y-11165150D02*
X12131968Y-11174674D01*
X12131968Y-11174674D02*
X12112920Y-11184198D01*
X12112920Y-11184198D02*
X12074825Y-11184198D01*
X12074825Y-11184198D02*
X12055777Y-11193722D01*
X12055777Y-11193722D02*
X12046253Y-11203246D01*
X12046253Y-11203246D02*
X12036729Y-11222293D01*
X12036729Y-11222293D02*
X12036729Y-11260388D01*
X12036729Y-11260388D02*
X12046253Y-11279436D01*
X12046253Y-11279436D02*
X12055777Y-11288960D01*
X12055777Y-11288960D02*
X12074825Y-11298484D01*
X12074825Y-11298484D02*
X12112920Y-11298484D01*
X12112920Y-11298484D02*
X12131968Y-11288960D01*
X12131968Y-11288960D02*
X12141491Y-11279436D01*
X12141491Y-11279436D02*
X12151015Y-11260388D01*
X12151015Y-11260388D02*
X12151015Y-11222293D01*
X12151015Y-11222293D02*
X12141491Y-11203246D01*
X12141491Y-11203246D02*
X12131968Y-11193722D01*
X12131968Y-11193722D02*
X12112920Y-11184198D01*
X12389110Y-11298484D02*
X12389110Y-11098484D01*
X12474825Y-11298484D02*
X12474825Y-11193722D01*
X12474825Y-11193722D02*
X12465301Y-11174674D01*
X12465301Y-11174674D02*
X12446253Y-11165150D01*
X12446253Y-11165150D02*
X12417682Y-11165150D01*
X12417682Y-11165150D02*
X12398634Y-11174674D01*
X12398634Y-11174674D02*
X12389110Y-11184198D01*
X12598634Y-11298484D02*
X12579587Y-11288960D01*
X12579587Y-11288960D02*
X12570063Y-11279436D01*
X12570063Y-11279436D02*
X12560539Y-11260388D01*
X12560539Y-11260388D02*
X12560539Y-11203246D01*
X12560539Y-11203246D02*
X12570063Y-11184198D01*
X12570063Y-11184198D02*
X12579587Y-11174674D01*
X12579587Y-11174674D02*
X12598634Y-11165150D01*
X12598634Y-11165150D02*
X12627206Y-11165150D01*
X12627206Y-11165150D02*
X12646253Y-11174674D01*
X12646253Y-11174674D02*
X12655777Y-11184198D01*
X12655777Y-11184198D02*
X12665301Y-11203246D01*
X12665301Y-11203246D02*
X12665301Y-11260388D01*
X12665301Y-11260388D02*
X12655777Y-11279436D01*
X12655777Y-11279436D02*
X12646253Y-11288960D01*
X12646253Y-11288960D02*
X12627206Y-11298484D01*
X12627206Y-11298484D02*
X12598634Y-11298484D01*
X12779587Y-11298484D02*
X12760539Y-11288960D01*
X12760539Y-11288960D02*
X12751015Y-11269912D01*
X12751015Y-11269912D02*
X12751015Y-11098484D01*
X12931968Y-11288960D02*
X12912920Y-11298484D01*
X12912920Y-11298484D02*
X12874825Y-11298484D01*
X12874825Y-11298484D02*
X12855777Y-11288960D01*
X12855777Y-11288960D02*
X12846253Y-11269912D01*
X12846253Y-11269912D02*
X12846253Y-11193722D01*
X12846253Y-11193722D02*
X12855777Y-11174674D01*
X12855777Y-11174674D02*
X12874825Y-11165150D01*
X12874825Y-11165150D02*
X12912920Y-11165150D01*
X12912920Y-11165150D02*
X12931968Y-11174674D01*
X12931968Y-11174674D02*
X12941491Y-11193722D01*
X12941491Y-11193722D02*
X12941491Y-11212769D01*
X12941491Y-11212769D02*
X12846253Y-11231817D01*
X13017682Y-11288960D02*
X13036730Y-11298484D01*
X13036730Y-11298484D02*
X13074825Y-11298484D01*
X13074825Y-11298484D02*
X13093872Y-11288960D01*
X13093872Y-11288960D02*
X13103396Y-11269912D01*
X13103396Y-11269912D02*
X13103396Y-11260388D01*
X13103396Y-11260388D02*
X13093872Y-11241341D01*
X13093872Y-11241341D02*
X13074825Y-11231817D01*
X13074825Y-11231817D02*
X13046253Y-11231817D01*
X13046253Y-11231817D02*
X13027206Y-11222293D01*
X13027206Y-11222293D02*
X13017682Y-11203246D01*
X13017682Y-11203246D02*
X13017682Y-11193722D01*
X13017682Y-11193722D02*
X13027206Y-11174674D01*
X13027206Y-11174674D02*
X13046253Y-11165150D01*
X13046253Y-11165150D02*
X13074825Y-11165150D01*
X13074825Y-11165150D02*
X13093872Y-11174674D01*
X13170063Y-11374674D02*
X13179587Y-11365150D01*
X13179587Y-11365150D02*
X13198634Y-11336579D01*
X13198634Y-11336579D02*
X13208158Y-11317531D01*
X13208158Y-11317531D02*
X13217682Y-11288960D01*
X13217682Y-11288960D02*
X13227206Y-11241341D01*
X13227206Y-11241341D02*
X13227206Y-11203246D01*
X13227206Y-11203246D02*
X13217682Y-11155627D01*
X13217682Y-11155627D02*
X13208158Y-11127055D01*
X13208158Y-11127055D02*
X13198634Y-11108008D01*
X13198634Y-11108008D02*
X13179587Y-11079436D01*
X13179587Y-11079436D02*
X13170063Y-11069912D01*
X8195000Y-11397000D02*
X8395000Y-11597000D01*
X8395000Y-11397000D02*
X8195000Y-11597000D01*
X8395000Y-11497000D02*
G75*
G02*
X8195000Y-11497000I-100000J0D01*
G01*
X8195000Y-11497000D02*
G75*
G02*
X8395000Y-11497000I100000J0D01*
G01*
X8646253Y-11407531D02*
X8655777Y-11398008D01*
X8655777Y-11398008D02*
X8674824Y-11388484D01*
X8674824Y-11388484D02*
X8722444Y-11388484D01*
X8722444Y-11388484D02*
X8741491Y-11398008D01*
X8741491Y-11398008D02*
X8751015Y-11407531D01*
X8751015Y-11407531D02*
X8760539Y-11426579D01*
X8760539Y-11426579D02*
X8760539Y-11445627D01*
X8760539Y-11445627D02*
X8751015Y-11474198D01*
X8751015Y-11474198D02*
X8636729Y-11588484D01*
X8636729Y-11588484D02*
X8760539Y-11588484D01*
X8846253Y-11569436D02*
X8855777Y-11578960D01*
X8855777Y-11578960D02*
X8846253Y-11588484D01*
X8846253Y-11588484D02*
X8836729Y-11578960D01*
X8836729Y-11578960D02*
X8846253Y-11569436D01*
X8846253Y-11569436D02*
X8846253Y-11588484D01*
X9036729Y-11388484D02*
X8941491Y-11388484D01*
X8941491Y-11388484D02*
X8931967Y-11483722D01*
X8931967Y-11483722D02*
X8941491Y-11474198D01*
X8941491Y-11474198D02*
X8960539Y-11464674D01*
X8960539Y-11464674D02*
X9008158Y-11464674D01*
X9008158Y-11464674D02*
X9027205Y-11474198D01*
X9027205Y-11474198D02*
X9036729Y-11483722D01*
X9036729Y-11483722D02*
X9046253Y-11502769D01*
X9046253Y-11502769D02*
X9046253Y-11550388D01*
X9046253Y-11550388D02*
X9036729Y-11569436D01*
X9036729Y-11569436D02*
X9027205Y-11578960D01*
X9027205Y-11578960D02*
X9008158Y-11588484D01*
X9008158Y-11588484D02*
X8960539Y-11588484D01*
X8960539Y-11588484D02*
X8941491Y-11578960D01*
X8941491Y-11578960D02*
X8931967Y-11569436D01*
X9170063Y-11388484D02*
X9189110Y-11388484D01*
X9189110Y-11388484D02*
X9208158Y-11398008D01*
X9208158Y-11398008D02*
X9217682Y-11407531D01*
X9217682Y-11407531D02*
X9227205Y-11426579D01*
X9227205Y-11426579D02*
X9236729Y-11464674D01*
X9236729Y-11464674D02*
X9236729Y-11512293D01*
X9236729Y-11512293D02*
X9227205Y-11550388D01*
X9227205Y-11550388D02*
X9217682Y-11569436D01*
X9217682Y-11569436D02*
X9208158Y-11578960D01*
X9208158Y-11578960D02*
X9189110Y-11588484D01*
X9189110Y-11588484D02*
X9170063Y-11588484D01*
X9170063Y-11588484D02*
X9151015Y-11578960D01*
X9151015Y-11578960D02*
X9141491Y-11569436D01*
X9141491Y-11569436D02*
X9131967Y-11550388D01*
X9131967Y-11550388D02*
X9122444Y-11512293D01*
X9122444Y-11512293D02*
X9122444Y-11464674D01*
X9122444Y-11464674D02*
X9131967Y-11426579D01*
X9131967Y-11426579D02*
X9141491Y-11407531D01*
X9141491Y-11407531D02*
X9151015Y-11398008D01*
X9151015Y-11398008D02*
X9170063Y-11388484D01*
X9360539Y-11388484D02*
X9379586Y-11388484D01*
X9379586Y-11388484D02*
X9398634Y-11398008D01*
X9398634Y-11398008D02*
X9408158Y-11407531D01*
X9408158Y-11407531D02*
X9417682Y-11426579D01*
X9417682Y-11426579D02*
X9427205Y-11464674D01*
X9427205Y-11464674D02*
X9427205Y-11512293D01*
X9427205Y-11512293D02*
X9417682Y-11550388D01*
X9417682Y-11550388D02*
X9408158Y-11569436D01*
X9408158Y-11569436D02*
X9398634Y-11578960D01*
X9398634Y-11578960D02*
X9379586Y-11588484D01*
X9379586Y-11588484D02*
X9360539Y-11588484D01*
X9360539Y-11588484D02*
X9341491Y-11578960D01*
X9341491Y-11578960D02*
X9331967Y-11569436D01*
X9331967Y-11569436D02*
X9322444Y-11550388D01*
X9322444Y-11550388D02*
X9312920Y-11512293D01*
X9312920Y-11512293D02*
X9312920Y-11464674D01*
X9312920Y-11464674D02*
X9322444Y-11426579D01*
X9322444Y-11426579D02*
X9331967Y-11407531D01*
X9331967Y-11407531D02*
X9341491Y-11398008D01*
X9341491Y-11398008D02*
X9360539Y-11388484D01*
X9512920Y-11588484D02*
X9512920Y-11455150D01*
X9512920Y-11474198D02*
X9522444Y-11464674D01*
X9522444Y-11464674D02*
X9541491Y-11455150D01*
X9541491Y-11455150D02*
X9570063Y-11455150D01*
X9570063Y-11455150D02*
X9589110Y-11464674D01*
X9589110Y-11464674D02*
X9598634Y-11483722D01*
X9598634Y-11483722D02*
X9598634Y-11588484D01*
X9598634Y-11483722D02*
X9608158Y-11464674D01*
X9608158Y-11464674D02*
X9627205Y-11455150D01*
X9627205Y-11455150D02*
X9655777Y-11455150D01*
X9655777Y-11455150D02*
X9674825Y-11464674D01*
X9674825Y-11464674D02*
X9684348Y-11483722D01*
X9684348Y-11483722D02*
X9684348Y-11588484D01*
X9779586Y-11588484D02*
X9779586Y-11455150D01*
X9779586Y-11474198D02*
X9789110Y-11464674D01*
X9789110Y-11464674D02*
X9808158Y-11455150D01*
X9808158Y-11455150D02*
X9836729Y-11455150D01*
X9836729Y-11455150D02*
X9855777Y-11464674D01*
X9855777Y-11464674D02*
X9865301Y-11483722D01*
X9865301Y-11483722D02*
X9865301Y-11588484D01*
X9865301Y-11483722D02*
X9874825Y-11464674D01*
X9874825Y-11464674D02*
X9893872Y-11455150D01*
X9893872Y-11455150D02*
X9922444Y-11455150D01*
X9922444Y-11455150D02*
X9941491Y-11464674D01*
X9941491Y-11464674D02*
X9951015Y-11483722D01*
X9951015Y-11483722D02*
X9951015Y-11588484D01*
X10341491Y-11378960D02*
X10170063Y-11636103D01*
X10598634Y-11388484D02*
X10617682Y-11388484D01*
X10617682Y-11388484D02*
X10636729Y-11398008D01*
X10636729Y-11398008D02*
X10646253Y-11407531D01*
X10646253Y-11407531D02*
X10655777Y-11426579D01*
X10655777Y-11426579D02*
X10665301Y-11464674D01*
X10665301Y-11464674D02*
X10665301Y-11512293D01*
X10665301Y-11512293D02*
X10655777Y-11550388D01*
X10655777Y-11550388D02*
X10646253Y-11569436D01*
X10646253Y-11569436D02*
X10636729Y-11578960D01*
X10636729Y-11578960D02*
X10617682Y-11588484D01*
X10617682Y-11588484D02*
X10598634Y-11588484D01*
X10598634Y-11588484D02*
X10579587Y-11578960D01*
X10579587Y-11578960D02*
X10570063Y-11569436D01*
X10570063Y-11569436D02*
X10560539Y-11550388D01*
X10560539Y-11550388D02*
X10551015Y-11512293D01*
X10551015Y-11512293D02*
X10551015Y-11464674D01*
X10551015Y-11464674D02*
X10560539Y-11426579D01*
X10560539Y-11426579D02*
X10570063Y-11407531D01*
X10570063Y-11407531D02*
X10579587Y-11398008D01*
X10579587Y-11398008D02*
X10598634Y-11388484D01*
X10751015Y-11569436D02*
X10760539Y-11578960D01*
X10760539Y-11578960D02*
X10751015Y-11588484D01*
X10751015Y-11588484D02*
X10741491Y-11578960D01*
X10741491Y-11578960D02*
X10751015Y-11569436D01*
X10751015Y-11569436D02*
X10751015Y-11588484D01*
X10884348Y-11388484D02*
X10903396Y-11388484D01*
X10903396Y-11388484D02*
X10922444Y-11398008D01*
X10922444Y-11398008D02*
X10931968Y-11407531D01*
X10931968Y-11407531D02*
X10941491Y-11426579D01*
X10941491Y-11426579D02*
X10951015Y-11464674D01*
X10951015Y-11464674D02*
X10951015Y-11512293D01*
X10951015Y-11512293D02*
X10941491Y-11550388D01*
X10941491Y-11550388D02*
X10931968Y-11569436D01*
X10931968Y-11569436D02*
X10922444Y-11578960D01*
X10922444Y-11578960D02*
X10903396Y-11588484D01*
X10903396Y-11588484D02*
X10884348Y-11588484D01*
X10884348Y-11588484D02*
X10865301Y-11578960D01*
X10865301Y-11578960D02*
X10855777Y-11569436D01*
X10855777Y-11569436D02*
X10846253Y-11550388D01*
X10846253Y-11550388D02*
X10836729Y-11512293D01*
X10836729Y-11512293D02*
X10836729Y-11464674D01*
X10836729Y-11464674D02*
X10846253Y-11426579D01*
X10846253Y-11426579D02*
X10855777Y-11407531D01*
X10855777Y-11407531D02*
X10865301Y-11398008D01*
X10865301Y-11398008D02*
X10884348Y-11388484D01*
X11046253Y-11588484D02*
X11084348Y-11588484D01*
X11084348Y-11588484D02*
X11103396Y-11578960D01*
X11103396Y-11578960D02*
X11112920Y-11569436D01*
X11112920Y-11569436D02*
X11131968Y-11540865D01*
X11131968Y-11540865D02*
X11141491Y-11502769D01*
X11141491Y-11502769D02*
X11141491Y-11426579D01*
X11141491Y-11426579D02*
X11131968Y-11407531D01*
X11131968Y-11407531D02*
X11122444Y-11398008D01*
X11122444Y-11398008D02*
X11103396Y-11388484D01*
X11103396Y-11388484D02*
X11065301Y-11388484D01*
X11065301Y-11388484D02*
X11046253Y-11398008D01*
X11046253Y-11398008D02*
X11036729Y-11407531D01*
X11036729Y-11407531D02*
X11027206Y-11426579D01*
X11027206Y-11426579D02*
X11027206Y-11474198D01*
X11027206Y-11474198D02*
X11036729Y-11493246D01*
X11036729Y-11493246D02*
X11046253Y-11502769D01*
X11046253Y-11502769D02*
X11065301Y-11512293D01*
X11065301Y-11512293D02*
X11103396Y-11512293D01*
X11103396Y-11512293D02*
X11122444Y-11502769D01*
X11122444Y-11502769D02*
X11131968Y-11493246D01*
X11131968Y-11493246D02*
X11141491Y-11474198D01*
X11255777Y-11474198D02*
X11236729Y-11464674D01*
X11236729Y-11464674D02*
X11227206Y-11455150D01*
X11227206Y-11455150D02*
X11217682Y-11436103D01*
X11217682Y-11436103D02*
X11217682Y-11426579D01*
X11217682Y-11426579D02*
X11227206Y-11407531D01*
X11227206Y-11407531D02*
X11236729Y-11398008D01*
X11236729Y-11398008D02*
X11255777Y-11388484D01*
X11255777Y-11388484D02*
X11293872Y-11388484D01*
X11293872Y-11388484D02*
X11312920Y-11398008D01*
X11312920Y-11398008D02*
X11322444Y-11407531D01*
X11322444Y-11407531D02*
X11331967Y-11426579D01*
X11331967Y-11426579D02*
X11331967Y-11436103D01*
X11331967Y-11436103D02*
X11322444Y-11455150D01*
X11322444Y-11455150D02*
X11312920Y-11464674D01*
X11312920Y-11464674D02*
X11293872Y-11474198D01*
X11293872Y-11474198D02*
X11255777Y-11474198D01*
X11255777Y-11474198D02*
X11236729Y-11483722D01*
X11236729Y-11483722D02*
X11227206Y-11493246D01*
X11227206Y-11493246D02*
X11217682Y-11512293D01*
X11217682Y-11512293D02*
X11217682Y-11550388D01*
X11217682Y-11550388D02*
X11227206Y-11569436D01*
X11227206Y-11569436D02*
X11236729Y-11578960D01*
X11236729Y-11578960D02*
X11255777Y-11588484D01*
X11255777Y-11588484D02*
X11293872Y-11588484D01*
X11293872Y-11588484D02*
X11312920Y-11578960D01*
X11312920Y-11578960D02*
X11322444Y-11569436D01*
X11322444Y-11569436D02*
X11331967Y-11550388D01*
X11331967Y-11550388D02*
X11331967Y-11512293D01*
X11331967Y-11512293D02*
X11322444Y-11493246D01*
X11322444Y-11493246D02*
X11312920Y-11483722D01*
X11312920Y-11483722D02*
X11293872Y-11474198D01*
X11503396Y-11455150D02*
X11503396Y-11588484D01*
X11455777Y-11378960D02*
X11408158Y-11521817D01*
X11408158Y-11521817D02*
X11531967Y-11521817D01*
X11598634Y-11388484D02*
X11598634Y-11426579D01*
X11674825Y-11388484D02*
X11674825Y-11426579D01*
X11970063Y-11664674D02*
X11960539Y-11655150D01*
X11960539Y-11655150D02*
X11941491Y-11626579D01*
X11941491Y-11626579D02*
X11931968Y-11607531D01*
X11931968Y-11607531D02*
X11922444Y-11578960D01*
X11922444Y-11578960D02*
X11912920Y-11531341D01*
X11912920Y-11531341D02*
X11912920Y-11493246D01*
X11912920Y-11493246D02*
X11922444Y-11445627D01*
X11922444Y-11445627D02*
X11931968Y-11417055D01*
X11931968Y-11417055D02*
X11941491Y-11398008D01*
X11941491Y-11398008D02*
X11960539Y-11369436D01*
X11960539Y-11369436D02*
X11970063Y-11359912D01*
X12131968Y-11455150D02*
X12131968Y-11588484D01*
X12084348Y-11378960D02*
X12036729Y-11521817D01*
X12036729Y-11521817D02*
X12160539Y-11521817D01*
X12389110Y-11588484D02*
X12389110Y-11388484D01*
X12474825Y-11588484D02*
X12474825Y-11483722D01*
X12474825Y-11483722D02*
X12465301Y-11464674D01*
X12465301Y-11464674D02*
X12446253Y-11455150D01*
X12446253Y-11455150D02*
X12417682Y-11455150D01*
X12417682Y-11455150D02*
X12398634Y-11464674D01*
X12398634Y-11464674D02*
X12389110Y-11474198D01*
X12598634Y-11588484D02*
X12579587Y-11578960D01*
X12579587Y-11578960D02*
X12570063Y-11569436D01*
X12570063Y-11569436D02*
X12560539Y-11550388D01*
X12560539Y-11550388D02*
X12560539Y-11493246D01*
X12560539Y-11493246D02*
X12570063Y-11474198D01*
X12570063Y-11474198D02*
X12579587Y-11464674D01*
X12579587Y-11464674D02*
X12598634Y-11455150D01*
X12598634Y-11455150D02*
X12627206Y-11455150D01*
X12627206Y-11455150D02*
X12646253Y-11464674D01*
X12646253Y-11464674D02*
X12655777Y-11474198D01*
X12655777Y-11474198D02*
X12665301Y-11493246D01*
X12665301Y-11493246D02*
X12665301Y-11550388D01*
X12665301Y-11550388D02*
X12655777Y-11569436D01*
X12655777Y-11569436D02*
X12646253Y-11578960D01*
X12646253Y-11578960D02*
X12627206Y-11588484D01*
X12627206Y-11588484D02*
X12598634Y-11588484D01*
X12779587Y-11588484D02*
X12760539Y-11578960D01*
X12760539Y-11578960D02*
X12751015Y-11559912D01*
X12751015Y-11559912D02*
X12751015Y-11388484D01*
X12931968Y-11578960D02*
X12912920Y-11588484D01*
X12912920Y-11588484D02*
X12874825Y-11588484D01*
X12874825Y-11588484D02*
X12855777Y-11578960D01*
X12855777Y-11578960D02*
X12846253Y-11559912D01*
X12846253Y-11559912D02*
X12846253Y-11483722D01*
X12846253Y-11483722D02*
X12855777Y-11464674D01*
X12855777Y-11464674D02*
X12874825Y-11455150D01*
X12874825Y-11455150D02*
X12912920Y-11455150D01*
X12912920Y-11455150D02*
X12931968Y-11464674D01*
X12931968Y-11464674D02*
X12941491Y-11483722D01*
X12941491Y-11483722D02*
X12941491Y-11502769D01*
X12941491Y-11502769D02*
X12846253Y-11521817D01*
X13017682Y-11578960D02*
X13036730Y-11588484D01*
X13036730Y-11588484D02*
X13074825Y-11588484D01*
X13074825Y-11588484D02*
X13093872Y-11578960D01*
X13093872Y-11578960D02*
X13103396Y-11559912D01*
X13103396Y-11559912D02*
X13103396Y-11550388D01*
X13103396Y-11550388D02*
X13093872Y-11531341D01*
X13093872Y-11531341D02*
X13074825Y-11521817D01*
X13074825Y-11521817D02*
X13046253Y-11521817D01*
X13046253Y-11521817D02*
X13027206Y-11512293D01*
X13027206Y-11512293D02*
X13017682Y-11493246D01*
X13017682Y-11493246D02*
X13017682Y-11483722D01*
X13017682Y-11483722D02*
X13027206Y-11464674D01*
X13027206Y-11464674D02*
X13046253Y-11455150D01*
X13046253Y-11455150D02*
X13074825Y-11455150D01*
X13074825Y-11455150D02*
X13093872Y-11464674D01*
X13170063Y-11664674D02*
X13179587Y-11655150D01*
X13179587Y-11655150D02*
X13198634Y-11626579D01*
X13198634Y-11626579D02*
X13208158Y-11607531D01*
X13208158Y-11607531D02*
X13217682Y-11578960D01*
X13217682Y-11578960D02*
X13227206Y-11531341D01*
X13227206Y-11531341D02*
X13227206Y-11493246D01*
X13227206Y-11493246D02*
X13217682Y-11445627D01*
X13217682Y-11445627D02*
X13208158Y-11417055D01*
X13208158Y-11417055D02*
X13198634Y-11398008D01*
X13198634Y-11398008D02*
X13179587Y-11369436D01*
X13179587Y-11369436D02*
X13170063Y-11359912D01*
M02*
