%TF.GenerationSoftware,KiCad,Pcbnew,8.0.1*%
%TF.CreationDate,2024-05-07T10:30:01+01:00*%
%TF.ProjectId,UoB TICSP,556f4220-5449-4435-9350-2e6b69636164,1*%
%TF.SameCoordinates,Original*%
%TF.FileFunction,Soldermask,Top*%
%TF.FilePolarity,Negative*%
%FSLAX46Y46*%
G04 Gerber Fmt 4.6, Leading zero omitted, Abs format (unit mm)*
G04 Created by KiCad (PCBNEW 8.0.1) date 2024-05-07 10:30:01*
%MOMM*%
%LPD*%
G01*
G04 APERTURE LIST*
G04 Aperture macros list*
%AMRoundRect*
0 Rectangle with rounded corners*
0 $1 Rounding radius*
0 $2 $3 $4 $5 $6 $7 $8 $9 X,Y pos of 4 corners*
0 Add a 4 corners polygon primitive as box body*
4,1,4,$2,$3,$4,$5,$6,$7,$8,$9,$2,$3,0*
0 Add four circle primitives for the rounded corners*
1,1,$1+$1,$2,$3*
1,1,$1+$1,$4,$5*
1,1,$1+$1,$6,$7*
1,1,$1+$1,$8,$9*
0 Add four rect primitives between the rounded corners*
20,1,$1+$1,$2,$3,$4,$5,0*
20,1,$1+$1,$4,$5,$6,$7,0*
20,1,$1+$1,$6,$7,$8,$9,0*
20,1,$1+$1,$8,$9,$2,$3,0*%
G04 Aperture macros list end*
%ADD10RoundRect,0.237500X0.237500X-0.250000X0.237500X0.250000X-0.237500X0.250000X-0.237500X-0.250000X0*%
%ADD11R,3.000000X2.000000*%
%ADD12O,3.000000X2.000000*%
%ADD13RoundRect,0.237500X-0.250000X-0.237500X0.250000X-0.237500X0.250000X0.237500X-0.250000X0.237500X0*%
%ADD14RoundRect,0.150000X0.587500X0.150000X-0.587500X0.150000X-0.587500X-0.150000X0.587500X-0.150000X0*%
%ADD15RoundRect,0.150000X-0.587500X-0.150000X0.587500X-0.150000X0.587500X0.150000X-0.587500X0.150000X0*%
%ADD16RoundRect,0.237500X0.250000X0.237500X-0.250000X0.237500X-0.250000X-0.237500X0.250000X-0.237500X0*%
%ADD17RoundRect,0.375000X-0.625000X-0.375000X0.625000X-0.375000X0.625000X0.375000X-0.625000X0.375000X0*%
%ADD18RoundRect,0.500000X-0.500000X-1.400000X0.500000X-1.400000X0.500000X1.400000X-0.500000X1.400000X0*%
%ADD19RoundRect,0.237500X-0.237500X0.250000X-0.237500X-0.250000X0.237500X-0.250000X0.237500X0.250000X0*%
%ADD20RoundRect,0.250000X0.250000X0.475000X-0.250000X0.475000X-0.250000X-0.475000X0.250000X-0.475000X0*%
%ADD21RoundRect,0.250000X0.325000X1.100000X-0.325000X1.100000X-0.325000X-1.100000X0.325000X-1.100000X0*%
%ADD22RoundRect,0.250000X-0.325000X-1.100000X0.325000X-1.100000X0.325000X1.100000X-0.325000X1.100000X0*%
%ADD23RoundRect,0.250000X0.475000X-0.250000X0.475000X0.250000X-0.475000X0.250000X-0.475000X-0.250000X0*%
%ADD24RoundRect,0.250000X-1.100000X0.325000X-1.100000X-0.325000X1.100000X-0.325000X1.100000X0.325000X0*%
%ADD25RoundRect,0.250000X-0.250000X-0.475000X0.250000X-0.475000X0.250000X0.475000X-0.250000X0.475000X0*%
%ADD26C,2.700000*%
%ADD27RoundRect,0.250002X1.699998X-1.699998X1.699998X1.699998X-1.699998X1.699998X-1.699998X-1.699998X0*%
%ADD28RoundRect,0.237500X-0.237500X0.300000X-0.237500X-0.300000X0.237500X-0.300000X0.237500X0.300000X0*%
%ADD29RoundRect,0.250002X-1.699998X-1.699998X1.699998X-1.699998X1.699998X1.699998X-1.699998X1.699998X0*%
%ADD30RoundRect,0.249999X0.737501X2.450001X-0.737501X2.450001X-0.737501X-2.450001X0.737501X-2.450001X0*%
%ADD31RoundRect,0.250000X-0.475000X0.250000X-0.475000X-0.250000X0.475000X-0.250000X0.475000X0.250000X0*%
%ADD32RoundRect,0.150000X0.650000X0.150000X-0.650000X0.150000X-0.650000X-0.150000X0.650000X-0.150000X0*%
%ADD33RoundRect,0.250000X1.100000X-0.325000X1.100000X0.325000X-1.100000X0.325000X-1.100000X-0.325000X0*%
%ADD34C,2.050000*%
%ADD35C,2.250000*%
%ADD36RoundRect,0.237500X0.300000X0.237500X-0.300000X0.237500X-0.300000X-0.237500X0.300000X-0.237500X0*%
%ADD37RoundRect,0.250000X-0.450000X0.262500X-0.450000X-0.262500X0.450000X-0.262500X0.450000X0.262500X0*%
%ADD38RoundRect,0.150000X-0.650000X-0.150000X0.650000X-0.150000X0.650000X0.150000X-0.650000X0.150000X0*%
%ADD39RoundRect,0.249999X1.425001X-0.450001X1.425001X0.450001X-1.425001X0.450001X-1.425001X-0.450001X0*%
G04 APERTURE END LIST*
D10*
%TO.C,R5*%
X141478000Y-68746500D03*
X141478000Y-66921500D03*
%TD*%
D11*
%TO.C,J1*%
X95800000Y-64400000D03*
X90800000Y-64400000D03*
D12*
X95800000Y-66940000D03*
X90800000Y-66940000D03*
X95800000Y-69480000D03*
X90800000Y-69480000D03*
%TD*%
D13*
%TO.C,R6*%
X139862500Y-79730000D03*
X138037500Y-79730000D03*
%TD*%
D14*
%TO.C,Q1*%
X133937500Y-89300000D03*
X133937500Y-87400000D03*
X132062500Y-88350000D03*
%TD*%
D15*
%TO.C,Q2*%
X132112500Y-83937500D03*
X132112500Y-85837500D03*
X133987500Y-84887500D03*
%TD*%
D13*
%TO.C,R4*%
X125175000Y-60700000D03*
X127000000Y-60700000D03*
%TD*%
D16*
%TO.C,R3*%
X105525000Y-61200000D03*
X103700000Y-61200000D03*
%TD*%
D17*
%TO.C,U7*%
X130500000Y-57800000D03*
X130500000Y-60100000D03*
D18*
X136800000Y-60100000D03*
D17*
X130500000Y-62400000D03*
%TD*%
%TO.C,U6*%
X110500000Y-57900000D03*
X110500000Y-60200000D03*
D18*
X116800000Y-60200000D03*
D17*
X110500000Y-62500000D03*
%TD*%
D10*
%TO.C,R20*%
X131750000Y-92612500D03*
X131750000Y-90787500D03*
%TD*%
D19*
%TO.C,R19*%
X134750000Y-90837500D03*
X134750000Y-92662500D03*
%TD*%
D10*
%TO.C,R17*%
X107200000Y-60025000D03*
X107200000Y-58200000D03*
%TD*%
D16*
%TO.C,R11*%
X115940000Y-87600000D03*
X114115000Y-87600000D03*
%TD*%
D13*
%TO.C,R10*%
X114125000Y-86100000D03*
X115950000Y-86100000D03*
%TD*%
D10*
%TO.C,R7*%
X133250000Y-92612500D03*
X133250000Y-90787500D03*
%TD*%
D20*
%TO.C,C31*%
X138210000Y-90140000D03*
X136310000Y-90140000D03*
%TD*%
D21*
%TO.C,C6*%
X105500000Y-58000000D03*
X102550000Y-58000000D03*
%TD*%
D22*
%TO.C,C5*%
X124050000Y-58200000D03*
X127000000Y-58200000D03*
%TD*%
D23*
%TO.C,C23*%
X107500000Y-73200000D03*
X107500000Y-71300000D03*
%TD*%
D24*
%TO.C,C7*%
X120300000Y-63100000D03*
X120300000Y-66050000D03*
%TD*%
D25*
%TO.C,C13*%
X114090000Y-89380000D03*
X115990000Y-89380000D03*
%TD*%
D26*
%TO.C,H2*%
X87122000Y-91948000D03*
%TD*%
D16*
%TO.C,R15*%
X111922500Y-78210000D03*
X110097500Y-78210000D03*
%TD*%
D20*
%TO.C,C28*%
X113540000Y-80650000D03*
X111640000Y-80650000D03*
%TD*%
D27*
%TO.C,J2*%
X152908000Y-89154000D03*
%TD*%
D25*
%TO.C,C20*%
X126700000Y-74300000D03*
X128600000Y-74300000D03*
%TD*%
D28*
%TO.C,C9*%
X136540000Y-79717500D03*
X136540000Y-81442500D03*
%TD*%
D10*
%TO.C,R13*%
X127800000Y-80425000D03*
X127800000Y-78600000D03*
%TD*%
D29*
%TO.C,J4*%
X144100000Y-62140000D03*
%TD*%
D30*
%TO.C,C4*%
X152400000Y-72898000D03*
X147125000Y-72898000D03*
%TD*%
D31*
%TO.C,C29*%
X95800000Y-77700000D03*
X95800000Y-79600000D03*
%TD*%
D22*
%TO.C,C8*%
X127550000Y-66500000D03*
X130500000Y-66500000D03*
%TD*%
D10*
%TO.C,C15*%
X127800000Y-83725000D03*
X127800000Y-81900000D03*
%TD*%
D32*
%TO.C,U4*%
X124800000Y-80070000D03*
X124800000Y-78800000D03*
X124800000Y-77530000D03*
X124800000Y-76260000D03*
X117600000Y-76260000D03*
X117600000Y-77530000D03*
X117600000Y-78800000D03*
X117600000Y-80070000D03*
%TD*%
%TO.C,U5*%
X107400000Y-78810000D03*
X107400000Y-77540000D03*
X107400000Y-76270000D03*
X107400000Y-75000000D03*
X100200000Y-75000000D03*
X100200000Y-76270000D03*
X100200000Y-77540000D03*
X100200000Y-78810000D03*
%TD*%
D29*
%TO.C,J5*%
X137710000Y-84690000D03*
%TD*%
D33*
%TO.C,C2*%
X136500000Y-68900000D03*
X136500000Y-65950000D03*
%TD*%
D31*
%TO.C,C30*%
X97900000Y-79200000D03*
X97900000Y-81100000D03*
%TD*%
D30*
%TO.C,C3*%
X152400000Y-82296000D03*
X147125000Y-82296000D03*
%TD*%
D26*
%TO.C,H3*%
X161010600Y-57937400D03*
%TD*%
D34*
%TO.C,J6*%
X136568000Y-74608000D03*
D35*
X134028000Y-72068000D03*
X134028000Y-77148000D03*
X139108000Y-72068000D03*
X139108000Y-77148000D03*
%TD*%
D20*
%TO.C,C19*%
X116000000Y-91900000D03*
X114100000Y-91900000D03*
%TD*%
D29*
%TO.C,J3*%
X157590000Y-66060000D03*
%TD*%
D36*
%TO.C,C12*%
X129462500Y-92400000D03*
X127737500Y-92400000D03*
%TD*%
D37*
%TO.C,R2*%
X157480000Y-71120000D03*
X157480000Y-72945000D03*
%TD*%
D16*
%TO.C,C17*%
X115425000Y-77600000D03*
X113600000Y-77600000D03*
%TD*%
D25*
%TO.C,C25*%
X123500000Y-84000000D03*
X125400000Y-84000000D03*
%TD*%
%TO.C,C22*%
X109400000Y-72900000D03*
X111300000Y-72900000D03*
%TD*%
D38*
%TO.C,U3*%
X117800000Y-86390000D03*
X117800000Y-87660000D03*
X117800000Y-88930000D03*
X117800000Y-90200000D03*
X125000000Y-90200000D03*
X125000000Y-88930000D03*
X125000000Y-87660000D03*
X125000000Y-86390000D03*
%TD*%
D16*
%TO.C,R12*%
X129625000Y-85400000D03*
X127800000Y-85400000D03*
%TD*%
D39*
%TO.C,R1*%
X157480000Y-82300000D03*
X157480000Y-76200000D03*
%TD*%
D25*
%TO.C,C18*%
X119500000Y-92900000D03*
X121400000Y-92900000D03*
%TD*%
D16*
%TO.C,R8*%
X129600000Y-89000000D03*
X127775000Y-89000000D03*
%TD*%
D26*
%TO.C,H4*%
X161036000Y-91948000D03*
%TD*%
%TO.C,H1*%
X87122000Y-58166000D03*
%TD*%
D20*
%TO.C,C26*%
X122000000Y-84000000D03*
X120100000Y-84000000D03*
%TD*%
D34*
%TO.C,J7*%
X89400000Y-81400000D03*
D35*
X86860000Y-78860000D03*
X86860000Y-83940000D03*
X91940000Y-78860000D03*
X91940000Y-83940000D03*
%TD*%
D23*
%TO.C,C21*%
X124800000Y-74300000D03*
X124800000Y-72400000D03*
%TD*%
D21*
%TO.C,C1*%
X108000000Y-64400000D03*
X105050000Y-64400000D03*
%TD*%
D16*
%TO.C,C14*%
X129625000Y-87000000D03*
X127800000Y-87000000D03*
%TD*%
D13*
%TO.C,R9*%
X127800000Y-90800000D03*
X129625000Y-90800000D03*
%TD*%
D31*
%TO.C,C27*%
X115300000Y-80200000D03*
X115300000Y-82100000D03*
%TD*%
M02*
