%TF.GenerationSoftware,KiCad,Pcbnew,8.0.1*%
%TF.CreationDate,2024-05-07T10:30:01+01:00*%
%TF.ProjectId,UoB TICSP,556f4220-5449-4435-9350-2e6b69636164,1*%
%TF.SameCoordinates,Original*%
%TF.FileFunction,Copper,L2,Inr*%
%TF.FilePolarity,Positive*%
%FSLAX46Y46*%
G04 Gerber Fmt 4.6, Leading zero omitted, Abs format (unit mm)*
G04 Created by KiCad (PCBNEW 8.0.1) date 2024-05-07 10:30:01*
%MOMM*%
%LPD*%
G01*
G04 APERTURE LIST*
G04 Aperture macros list*
%AMRoundRect*
0 Rectangle with rounded corners*
0 $1 Rounding radius*
0 $2 $3 $4 $5 $6 $7 $8 $9 X,Y pos of 4 corners*
0 Add a 4 corners polygon primitive as box body*
4,1,4,$2,$3,$4,$5,$6,$7,$8,$9,$2,$3,0*
0 Add four circle primitives for the rounded corners*
1,1,$1+$1,$2,$3*
1,1,$1+$1,$4,$5*
1,1,$1+$1,$6,$7*
1,1,$1+$1,$8,$9*
0 Add four rect primitives between the rounded corners*
20,1,$1+$1,$2,$3,$4,$5,0*
20,1,$1+$1,$4,$5,$6,$7,0*
20,1,$1+$1,$6,$7,$8,$9,0*
20,1,$1+$1,$8,$9,$2,$3,0*%
G04 Aperture macros list end*
%ADD10C,0.300000*%
%TA.AperFunction,NonConductor*%
%ADD11C,0.300000*%
%TD*%
%TA.AperFunction,ComponentPad*%
%ADD12R,3.000000X2.000000*%
%TD*%
%TA.AperFunction,ComponentPad*%
%ADD13O,3.000000X2.000000*%
%TD*%
%TA.AperFunction,ComponentPad*%
%ADD14RoundRect,0.250002X1.699998X-1.699998X1.699998X1.699998X-1.699998X1.699998X-1.699998X-1.699998X0*%
%TD*%
%TA.AperFunction,ComponentPad*%
%ADD15RoundRect,0.250002X-1.699998X-1.699998X1.699998X-1.699998X1.699998X1.699998X-1.699998X1.699998X0*%
%TD*%
%TA.AperFunction,ComponentPad*%
%ADD16C,2.050000*%
%TD*%
%TA.AperFunction,ComponentPad*%
%ADD17C,2.250000*%
%TD*%
%TA.AperFunction,ViaPad*%
%ADD18C,0.800000*%
%TD*%
%TA.AperFunction,ViaPad*%
%ADD19C,1.800000*%
%TD*%
G04 APERTURE END LIST*
D10*
D11*
X105525939Y-92543685D02*
X105597367Y-92472257D01*
X105597367Y-92472257D02*
X105740225Y-92400828D01*
X105740225Y-92400828D02*
X106097367Y-92400828D01*
X106097367Y-92400828D02*
X106240225Y-92472257D01*
X106240225Y-92472257D02*
X106311653Y-92543685D01*
X106311653Y-92543685D02*
X106383082Y-92686542D01*
X106383082Y-92686542D02*
X106383082Y-92829400D01*
X106383082Y-92829400D02*
X106311653Y-93043685D01*
X106311653Y-93043685D02*
X105454510Y-93900828D01*
X105454510Y-93900828D02*
X106383082Y-93900828D01*
D12*
%TO.N,/+12V*%
%TO.C,J1*%
X95800000Y-64400000D03*
X90800000Y-64400000D03*
D13*
%TO.N,GND*%
X95800000Y-66940000D03*
X90800000Y-66940000D03*
%TO.N,/-9V*%
X95800000Y-69480000D03*
X90800000Y-69480000D03*
%TD*%
D14*
%TO.N,/detector_bias*%
%TO.C,J2*%
X152908000Y-89154000D03*
%TD*%
D15*
%TO.N,Net-(J4-Pin_1)*%
%TO.C,J4*%
X144100000Y-62140000D03*
%TD*%
%TO.N,/qin*%
%TO.C,J5*%
X137710000Y-84690000D03*
%TD*%
D16*
%TO.N,Net-(J6-In)*%
%TO.C,J6*%
X136568000Y-74608000D03*
D17*
%TO.N,GND*%
X134028000Y-72068000D03*
X134028000Y-77148000D03*
X139108000Y-72068000D03*
X139108000Y-77148000D03*
%TD*%
D15*
%TO.N,/bias_in*%
%TO.C,J3*%
X157590000Y-66060000D03*
%TD*%
D16*
%TO.N,/vout*%
%TO.C,J7*%
X89400000Y-81400000D03*
D17*
%TO.N,GND*%
X86860000Y-78860000D03*
X86860000Y-83940000D03*
X91940000Y-78860000D03*
X91940000Y-83940000D03*
%TD*%
D18*
%TO.N,Net-(C10-Pad1)*%
X133200000Y-93700000D03*
D19*
%TO.N,/+10V*%
X135880000Y-88010000D03*
%TO.N,GND*%
X139800000Y-89700000D03*
X139200000Y-68900000D03*
X122600000Y-66800000D03*
%TO.N,/+10V*%
X122900000Y-63500000D03*
%TO.N,GND*%
X125800000Y-66500000D03*
%TO.N,/V-*%
X132100000Y-66400000D03*
X128300000Y-63000000D03*
%TO.N,GND*%
X123500000Y-60800000D03*
X122500000Y-58200000D03*
D18*
%TO.N,Net-(U7-ADJ)*%
X128600000Y-57800000D03*
D19*
%TO.N,GND*%
X103500000Y-64400000D03*
%TO.N,/+10V*%
X118900000Y-60200000D03*
%TO.N,GND*%
X102300000Y-61200000D03*
X101100000Y-58000000D03*
%TO.N,/+10V*%
X108600000Y-60200000D03*
%TO.N,GND*%
X109300000Y-76410000D03*
X145000000Y-72800000D03*
D18*
X132000000Y-83000000D03*
D19*
X113830000Y-83200000D03*
X112500000Y-91900000D03*
D18*
X123300000Y-72400000D03*
D19*
X123100000Y-92900000D03*
X99700000Y-81100000D03*
X110020000Y-80810000D03*
X143400000Y-68800000D03*
X126000000Y-93000000D03*
X145000000Y-82400000D03*
X125400000Y-82100000D03*
X111200000Y-74500000D03*
X118400000Y-84000000D03*
D18*
X129900000Y-74300000D03*
D19*
X137650000Y-93350000D03*
X109200000Y-71000000D03*
X96000000Y-81200000D03*
D18*
%TO.N,/+10V*%
X116310000Y-78800000D03*
%TO.N,Net-(C10-Pad1)*%
X130850000Y-93490000D03*
%TO.N,/+10V*%
X112850000Y-86090000D03*
X98600000Y-77600000D03*
X123400000Y-87417400D03*
D19*
X122000000Y-82400000D03*
D18*
%TO.N,/V-*%
X126500000Y-76300000D03*
X123300000Y-74300000D03*
X108900000Y-74500000D03*
X117800000Y-91300000D03*
D19*
X119800000Y-90810000D03*
D18*
%TO.N,Net-(U4--)*%
X123400000Y-78800000D03*
%TO.N,Net-(C16-Pad2)*%
X119100000Y-77500000D03*
%TO.N,Net-(U5--)*%
X105900000Y-77600000D03*
%TO.N,/vout*%
X101700000Y-76300000D03*
X94000000Y-81400000D03*
%TO.N,Net-(J6-In)*%
X136500000Y-78450000D03*
%TD*%
%TA.AperFunction,Conductor*%
%TO.N,GND*%
G36*
X148011039Y-55899685D02*
G01*
X148056794Y-55952489D01*
X148068000Y-56004000D01*
X148068000Y-84536064D01*
X148048315Y-84603103D01*
X148039735Y-84614873D01*
X147795725Y-84911287D01*
X147566251Y-85252485D01*
X147566245Y-85252495D01*
X147370771Y-85614247D01*
X147211125Y-85993174D01*
X147211120Y-85993190D01*
X147088795Y-86385744D01*
X147088792Y-86385755D01*
X147004922Y-86788303D01*
X147004921Y-86788309D01*
X146960295Y-87197047D01*
X146960294Y-87197075D01*
X146957500Y-87289545D01*
X146957500Y-91018454D01*
X146960294Y-91110924D01*
X146960295Y-91110952D01*
X147004921Y-91519690D01*
X147004922Y-91519696D01*
X147088792Y-91922244D01*
X147088795Y-91922255D01*
X147211120Y-92314809D01*
X147211125Y-92314825D01*
X147370771Y-92693752D01*
X147437429Y-92817112D01*
X147566250Y-93055514D01*
X147795728Y-93396716D01*
X147888235Y-93509090D01*
X148039735Y-93693126D01*
X148067145Y-93757395D01*
X148068000Y-93771935D01*
X148068000Y-94110000D01*
X148048315Y-94177039D01*
X147995511Y-94222794D01*
X147944000Y-94234000D01*
X134144006Y-94234000D01*
X134076967Y-94214315D01*
X134031212Y-94161511D01*
X134021268Y-94092353D01*
X134026075Y-94071682D01*
X134047762Y-94004935D01*
X134085674Y-93888256D01*
X134105460Y-93700000D01*
X134085674Y-93511744D01*
X134027179Y-93331716D01*
X133932533Y-93167784D01*
X133805871Y-93027112D01*
X133805870Y-93027111D01*
X133652734Y-92915851D01*
X133652729Y-92915848D01*
X133479807Y-92838857D01*
X133479802Y-92838855D01*
X133334001Y-92807865D01*
X133294646Y-92799500D01*
X133105354Y-92799500D01*
X133072897Y-92806398D01*
X132920197Y-92838855D01*
X132920192Y-92838857D01*
X132747270Y-92915848D01*
X132747265Y-92915851D01*
X132594129Y-93027111D01*
X132467466Y-93167785D01*
X132372821Y-93331715D01*
X132372818Y-93331722D01*
X132315188Y-93509090D01*
X132314326Y-93511744D01*
X132294540Y-93700000D01*
X132314326Y-93888256D01*
X132314327Y-93888259D01*
X132373925Y-94071682D01*
X132375920Y-94141523D01*
X132339840Y-94201356D01*
X132277139Y-94232184D01*
X132255994Y-94234000D01*
X131670350Y-94234000D01*
X131603311Y-94214315D01*
X131557556Y-94161511D01*
X131547612Y-94092353D01*
X131576637Y-94028797D01*
X131578201Y-94027027D01*
X131582533Y-94022216D01*
X131677179Y-93858284D01*
X131735674Y-93678256D01*
X131755460Y-93490000D01*
X131735674Y-93301744D01*
X131677179Y-93121716D01*
X131582533Y-92957784D01*
X131455871Y-92817112D01*
X131455870Y-92817111D01*
X131302734Y-92705851D01*
X131302729Y-92705848D01*
X131129807Y-92628857D01*
X131129802Y-92628855D01*
X130984001Y-92597865D01*
X130944646Y-92589500D01*
X130755354Y-92589500D01*
X130722897Y-92596398D01*
X130570197Y-92628855D01*
X130570192Y-92628857D01*
X130397270Y-92705848D01*
X130397265Y-92705851D01*
X130244129Y-92817111D01*
X130117466Y-92957785D01*
X130022821Y-93121715D01*
X130022818Y-93121722D01*
X129964327Y-93301740D01*
X129964326Y-93301744D01*
X129944540Y-93490000D01*
X129964326Y-93678256D01*
X129964327Y-93678259D01*
X130022818Y-93858277D01*
X130022821Y-93858284D01*
X130117467Y-94022216D01*
X130121799Y-94027027D01*
X130152029Y-94090018D01*
X130143405Y-94159353D01*
X130098665Y-94213019D01*
X130032012Y-94233977D01*
X130029650Y-94234000D01*
X109724000Y-94234000D01*
X109656961Y-94214315D01*
X109611206Y-94161511D01*
X109600000Y-94110000D01*
X109600000Y-92100000D01*
X107164307Y-92100000D01*
X107097268Y-92080315D01*
X107051513Y-92027511D01*
X107040307Y-91976000D01*
X107040307Y-91743603D01*
X104799010Y-91743603D01*
X104799010Y-91976000D01*
X104779325Y-92043039D01*
X104726521Y-92088794D01*
X104675010Y-92100000D01*
X103900000Y-92100000D01*
X103900000Y-94110000D01*
X103880315Y-94177039D01*
X103827511Y-94222794D01*
X103776000Y-94234000D01*
X84960000Y-94234000D01*
X84892961Y-94214315D01*
X84847206Y-94161511D01*
X84836000Y-94110000D01*
X84836000Y-92073961D01*
X85521500Y-92073961D01*
X85560910Y-92322785D01*
X85638760Y-92562383D01*
X85753132Y-92786848D01*
X85901201Y-92990649D01*
X85901205Y-92990654D01*
X86079345Y-93168794D01*
X86079350Y-93168798D01*
X86257117Y-93297952D01*
X86283155Y-93316870D01*
X86426184Y-93389747D01*
X86507616Y-93431239D01*
X86507618Y-93431239D01*
X86507621Y-93431241D01*
X86747215Y-93509090D01*
X86996038Y-93548500D01*
X86996039Y-93548500D01*
X87247961Y-93548500D01*
X87247962Y-93548500D01*
X87496785Y-93509090D01*
X87736379Y-93431241D01*
X87960845Y-93316870D01*
X88164656Y-93168793D01*
X88342793Y-92990656D01*
X88490870Y-92786845D01*
X88605241Y-92562379D01*
X88683090Y-92322785D01*
X88722500Y-92073962D01*
X88722500Y-91822038D01*
X88683090Y-91573215D01*
X88605241Y-91333621D01*
X88605239Y-91333618D01*
X88605239Y-91333616D01*
X88563747Y-91252184D01*
X88490870Y-91109155D01*
X88471952Y-91083117D01*
X88342798Y-90905350D01*
X88342794Y-90905345D01*
X88164654Y-90727205D01*
X88164649Y-90727201D01*
X87960848Y-90579132D01*
X87960847Y-90579131D01*
X87960845Y-90579130D01*
X87866769Y-90531196D01*
X87736383Y-90464760D01*
X87496785Y-90386910D01*
X87247962Y-90347500D01*
X86996038Y-90347500D01*
X86956868Y-90353704D01*
X86747214Y-90386910D01*
X86507616Y-90464760D01*
X86283151Y-90579132D01*
X86079350Y-90727201D01*
X86079345Y-90727205D01*
X85901205Y-90905345D01*
X85901201Y-90905350D01*
X85753132Y-91109151D01*
X85638760Y-91333616D01*
X85560910Y-91573214D01*
X85521500Y-91822038D01*
X85521500Y-92073961D01*
X84836000Y-92073961D01*
X84836000Y-89500000D01*
X116800000Y-89500000D01*
X118300000Y-89500000D01*
X118777827Y-89308868D01*
X118823879Y-89300000D01*
X119158018Y-89300000D01*
X119225057Y-89319685D01*
X119270812Y-89372489D01*
X119280756Y-89441647D01*
X119251731Y-89505203D01*
X119217037Y-89533053D01*
X119145339Y-89571854D01*
X119031371Y-89633531D01*
X119031365Y-89633535D01*
X118848222Y-89776081D01*
X118848219Y-89776084D01*
X118848216Y-89776086D01*
X118848216Y-89776087D01*
X118809941Y-89817665D01*
X118691016Y-89946852D01*
X118564075Y-90141151D01*
X118470841Y-90353703D01*
X118470841Y-90353704D01*
X118447218Y-90446987D01*
X118411679Y-90507143D01*
X118349258Y-90538534D01*
X118279775Y-90531196D01*
X118254129Y-90516865D01*
X118252733Y-90515851D01*
X118252729Y-90515848D01*
X118079807Y-90438857D01*
X118079802Y-90438855D01*
X117934001Y-90407865D01*
X117894646Y-90399500D01*
X117705354Y-90399500D01*
X117672897Y-90406398D01*
X117520197Y-90438855D01*
X117520192Y-90438857D01*
X117347270Y-90515848D01*
X117347265Y-90515851D01*
X117194129Y-90627111D01*
X117067466Y-90767785D01*
X116972821Y-90931715D01*
X116972818Y-90931722D01*
X116915167Y-91109155D01*
X116914326Y-91111744D01*
X116894540Y-91300000D01*
X116914326Y-91488256D01*
X116914327Y-91488259D01*
X116972818Y-91668277D01*
X116972821Y-91668284D01*
X117067467Y-91832216D01*
X117148539Y-91922255D01*
X117194129Y-91972888D01*
X117347265Y-92084148D01*
X117347270Y-92084151D01*
X117520192Y-92161142D01*
X117520197Y-92161144D01*
X117705354Y-92200500D01*
X117705355Y-92200500D01*
X117894644Y-92200500D01*
X117894646Y-92200500D01*
X118079803Y-92161144D01*
X118252730Y-92084151D01*
X118405871Y-91972888D01*
X118532533Y-91832216D01*
X118565705Y-91774759D01*
X118616270Y-91726546D01*
X118684877Y-91713322D01*
X118749742Y-91739290D01*
X118764318Y-91752775D01*
X118848216Y-91843913D01*
X118848219Y-91843915D01*
X118848222Y-91843918D01*
X119031365Y-91986464D01*
X119031371Y-91986468D01*
X119031374Y-91986470D01*
X119235497Y-92096936D01*
X119349487Y-92136068D01*
X119455015Y-92172297D01*
X119455017Y-92172297D01*
X119455019Y-92172298D01*
X119683951Y-92210500D01*
X119683952Y-92210500D01*
X119916048Y-92210500D01*
X119916049Y-92210500D01*
X120144981Y-92172298D01*
X120364503Y-92096936D01*
X120568626Y-91986470D01*
X120751784Y-91843913D01*
X120908979Y-91673153D01*
X121035924Y-91478849D01*
X121129157Y-91266300D01*
X121186134Y-91041305D01*
X121186135Y-91041297D01*
X121205300Y-90810006D01*
X121205300Y-90809993D01*
X121186135Y-90578702D01*
X121186133Y-90578691D01*
X121129157Y-90353699D01*
X121035924Y-90141151D01*
X120926175Y-89973167D01*
X120905988Y-89906278D01*
X120925168Y-89839092D01*
X120977626Y-89792942D01*
X121046708Y-89782479D01*
X121110480Y-89811025D01*
X121117665Y-89817665D01*
X123000000Y-91700000D01*
X126400000Y-91700000D01*
X126563681Y-91536319D01*
X126625004Y-91502834D01*
X126651362Y-91500000D01*
X128600000Y-91500000D01*
X128600000Y-88200000D01*
X127400000Y-88200000D01*
X127399999Y-88200000D01*
X126800000Y-88799999D01*
X126800000Y-90048638D01*
X126780315Y-90115677D01*
X126763681Y-90136319D01*
X126136319Y-90763681D01*
X126074996Y-90797166D01*
X126048638Y-90800000D01*
X123754488Y-90800000D01*
X123687449Y-90780315D01*
X123663149Y-90759864D01*
X121400000Y-88295000D01*
X116800000Y-88300000D01*
X116800000Y-89500000D01*
X84836000Y-89500000D01*
X84836000Y-87417400D01*
X122494540Y-87417400D01*
X122514326Y-87605656D01*
X122514327Y-87605659D01*
X122572818Y-87785677D01*
X122572821Y-87785684D01*
X122667467Y-87949616D01*
X122721843Y-88010006D01*
X122794129Y-88090288D01*
X122947265Y-88201548D01*
X122947270Y-88201551D01*
X123120192Y-88278542D01*
X123120197Y-88278544D01*
X123305354Y-88317900D01*
X123305355Y-88317900D01*
X123494644Y-88317900D01*
X123494646Y-88317900D01*
X123679803Y-88278544D01*
X123852730Y-88201551D01*
X124005871Y-88090288D01*
X124132533Y-87949616D01*
X124227179Y-87785684D01*
X124285674Y-87605656D01*
X124291524Y-87550000D01*
X128800000Y-87550000D01*
X129050000Y-87800000D01*
X130199998Y-87800000D01*
X130200000Y-87800000D01*
X130500000Y-87550000D01*
X130500000Y-85974000D01*
X130519685Y-85906961D01*
X130572489Y-85861206D01*
X130624000Y-85850000D01*
X130899999Y-85850000D01*
X130900000Y-85850000D01*
X131398806Y-85305848D01*
X131413141Y-85290210D01*
X131472952Y-85254093D01*
X131504548Y-85250000D01*
X132983637Y-85250000D01*
X133050676Y-85269685D01*
X133086811Y-85305217D01*
X133210165Y-85490247D01*
X133250000Y-85550000D01*
X135137148Y-85575049D01*
X135203918Y-85595622D01*
X135248968Y-85649028D01*
X135259500Y-85699038D01*
X135259500Y-86439999D01*
X135259501Y-86440016D01*
X135270000Y-86542795D01*
X135270001Y-86542798D01*
X135294893Y-86617916D01*
X135297295Y-86687744D01*
X135261563Y-86747786D01*
X135236205Y-86765975D01*
X135111371Y-86833531D01*
X135111365Y-86833535D01*
X134928222Y-86976081D01*
X134928219Y-86976084D01*
X134771016Y-87146852D01*
X134644075Y-87341151D01*
X134550842Y-87553699D01*
X134493866Y-87778691D01*
X134493864Y-87778702D01*
X134474700Y-88009993D01*
X134474700Y-88010006D01*
X134493864Y-88241297D01*
X134493866Y-88241308D01*
X134550842Y-88466300D01*
X134644075Y-88678848D01*
X134771016Y-88873147D01*
X134771019Y-88873151D01*
X134771021Y-88873153D01*
X134928216Y-89043913D01*
X134928219Y-89043915D01*
X134928222Y-89043918D01*
X135111365Y-89186464D01*
X135111371Y-89186468D01*
X135111374Y-89186470D01*
X135315497Y-89296936D01*
X135350257Y-89308869D01*
X135535015Y-89372297D01*
X135535017Y-89372297D01*
X135535019Y-89372298D01*
X135763951Y-89410500D01*
X135763952Y-89410500D01*
X135996048Y-89410500D01*
X135996049Y-89410500D01*
X136224981Y-89372298D01*
X136444503Y-89296936D01*
X136648626Y-89186470D01*
X136831784Y-89043913D01*
X136988979Y-88873153D01*
X137115924Y-88678849D01*
X137209157Y-88466300D01*
X137266134Y-88241305D01*
X137269428Y-88201551D01*
X137285300Y-88010006D01*
X137285300Y-88009993D01*
X137266135Y-87778702D01*
X137266133Y-87778691D01*
X137209157Y-87553699D01*
X137115924Y-87341152D01*
X137115924Y-87341151D01*
X137110154Y-87332319D01*
X137089967Y-87265429D01*
X137109149Y-87198244D01*
X137161608Y-87152094D01*
X137213964Y-87140499D01*
X139460000Y-87140499D01*
X139460006Y-87140499D01*
X139562796Y-87129999D01*
X139729333Y-87074814D01*
X139754176Y-87059490D01*
X139804484Y-87028461D01*
X139869580Y-87010000D01*
X139870000Y-87010000D01*
X139885763Y-86991391D01*
X139886220Y-86987618D01*
X139912456Y-86948909D01*
X140002711Y-86858655D01*
X140094814Y-86709333D01*
X140149999Y-86542796D01*
X140160500Y-86440007D01*
X140160499Y-82939994D01*
X140149999Y-82837204D01*
X140094814Y-82670667D01*
X140002711Y-82521345D01*
X139878655Y-82397289D01*
X139729333Y-82305186D01*
X139562796Y-82250001D01*
X139562794Y-82250000D01*
X139460008Y-82239500D01*
X135960000Y-82239500D01*
X135959983Y-82239501D01*
X135857204Y-82250000D01*
X135857201Y-82250001D01*
X135690669Y-82305185D01*
X135690664Y-82305187D01*
X135541343Y-82397290D01*
X135417290Y-82521343D01*
X135325187Y-82670664D01*
X135325186Y-82670667D01*
X135270001Y-82837204D01*
X135270001Y-82837205D01*
X135270000Y-82837205D01*
X135259500Y-82939985D01*
X135259500Y-84115253D01*
X135239815Y-84182292D01*
X135187011Y-84228047D01*
X135132917Y-84239226D01*
X133250001Y-84200000D01*
X133250000Y-84200000D01*
X133037179Y-84455384D01*
X132979142Y-84494282D01*
X132941922Y-84500000D01*
X130900000Y-84500000D01*
X130634486Y-84721260D01*
X130570386Y-84749055D01*
X130555106Y-84750000D01*
X128800000Y-84750000D01*
X128800000Y-87550000D01*
X124291524Y-87550000D01*
X124305460Y-87417400D01*
X124285674Y-87229144D01*
X124227179Y-87049116D01*
X124132533Y-86885184D01*
X124005871Y-86744512D01*
X124005870Y-86744511D01*
X123852734Y-86633251D01*
X123852729Y-86633248D01*
X123679807Y-86556257D01*
X123679802Y-86556255D01*
X123534001Y-86525265D01*
X123494646Y-86516900D01*
X123305354Y-86516900D01*
X123272897Y-86523798D01*
X123120197Y-86556255D01*
X123120192Y-86556257D01*
X122947270Y-86633248D01*
X122947265Y-86633251D01*
X122794129Y-86744511D01*
X122667466Y-86885185D01*
X122572821Y-87049115D01*
X122572818Y-87049122D01*
X122524366Y-87198244D01*
X122514326Y-87229144D01*
X122494540Y-87417400D01*
X84836000Y-87417400D01*
X84836000Y-86090000D01*
X111944540Y-86090000D01*
X111964326Y-86278256D01*
X111964327Y-86278259D01*
X112022818Y-86458277D01*
X112022821Y-86458284D01*
X112117467Y-86622216D01*
X112176469Y-86687744D01*
X112244129Y-86762888D01*
X112397265Y-86874148D01*
X112397270Y-86874151D01*
X112570192Y-86951142D01*
X112570197Y-86951144D01*
X112755354Y-86990500D01*
X112755355Y-86990500D01*
X112944644Y-86990500D01*
X112944646Y-86990500D01*
X113129803Y-86951144D01*
X113302730Y-86874151D01*
X113455871Y-86762888D01*
X113582533Y-86622216D01*
X113677179Y-86458284D01*
X113735674Y-86278256D01*
X113755460Y-86090000D01*
X113735674Y-85901744D01*
X113677179Y-85721716D01*
X113582533Y-85557784D01*
X113455871Y-85417112D01*
X113421807Y-85392363D01*
X113302734Y-85305851D01*
X113302729Y-85305848D01*
X113129807Y-85228857D01*
X113129802Y-85228855D01*
X112984001Y-85197865D01*
X112944646Y-85189500D01*
X112755354Y-85189500D01*
X112722897Y-85196398D01*
X112570197Y-85228855D01*
X112570192Y-85228857D01*
X112397270Y-85305848D01*
X112397265Y-85305851D01*
X112244129Y-85417111D01*
X112117466Y-85557785D01*
X112022821Y-85721715D01*
X112022818Y-85721722D01*
X111964327Y-85901740D01*
X111964326Y-85901744D01*
X111944540Y-86090000D01*
X84836000Y-86090000D01*
X84836000Y-83940000D01*
X85229975Y-83940000D01*
X85250042Y-84194989D01*
X85309752Y-84443702D01*
X85407634Y-84680012D01*
X85407636Y-84680015D01*
X85541277Y-84898098D01*
X85541284Y-84898107D01*
X85544533Y-84901912D01*
X86105884Y-84340560D01*
X86106740Y-84342626D01*
X86199762Y-84481844D01*
X86318156Y-84600238D01*
X86457374Y-84693260D01*
X86459437Y-84694114D01*
X85898087Y-85255465D01*
X85901897Y-85258719D01*
X86119984Y-85392363D01*
X86119987Y-85392365D01*
X86356297Y-85490247D01*
X86605011Y-85549957D01*
X86605010Y-85549957D01*
X86860000Y-85570024D01*
X87114989Y-85549957D01*
X87363702Y-85490247D01*
X87600012Y-85392365D01*
X87600015Y-85392363D01*
X87818095Y-85258724D01*
X87818110Y-85258713D01*
X87821911Y-85255466D01*
X87821911Y-85255464D01*
X87260562Y-84694114D01*
X87262626Y-84693260D01*
X87401844Y-84600238D01*
X87520238Y-84481844D01*
X87613260Y-84342626D01*
X87614114Y-84340561D01*
X88175464Y-84901911D01*
X88175466Y-84901911D01*
X88178713Y-84898110D01*
X88178724Y-84898095D01*
X88312363Y-84680015D01*
X88312365Y-84680012D01*
X88410247Y-84443702D01*
X88469957Y-84194989D01*
X88490024Y-83940000D01*
X90309975Y-83940000D01*
X90330042Y-84194989D01*
X90389752Y-84443702D01*
X90487634Y-84680012D01*
X90487636Y-84680015D01*
X90621277Y-84898098D01*
X90621284Y-84898107D01*
X90624533Y-84901912D01*
X91185884Y-84340560D01*
X91186740Y-84342626D01*
X91279762Y-84481844D01*
X91398156Y-84600238D01*
X91537374Y-84693260D01*
X91539437Y-84694114D01*
X90978087Y-85255465D01*
X90981897Y-85258719D01*
X91199984Y-85392363D01*
X91199987Y-85392365D01*
X91436297Y-85490247D01*
X91685011Y-85549957D01*
X91685010Y-85549957D01*
X91940000Y-85570024D01*
X92194989Y-85549957D01*
X92443702Y-85490247D01*
X92680012Y-85392365D01*
X92680015Y-85392363D01*
X92898095Y-85258724D01*
X92898110Y-85258713D01*
X92901911Y-85255466D01*
X92901911Y-85255464D01*
X92340562Y-84694114D01*
X92342626Y-84693260D01*
X92481844Y-84600238D01*
X92600238Y-84481844D01*
X92693260Y-84342626D01*
X92694114Y-84340561D01*
X93255464Y-84901911D01*
X93255466Y-84901911D01*
X93258713Y-84898110D01*
X93258724Y-84898095D01*
X93392363Y-84680015D01*
X93392365Y-84680012D01*
X93490247Y-84443702D01*
X93549957Y-84194989D01*
X93570024Y-83940000D01*
X93549957Y-83685010D01*
X93490247Y-83436297D01*
X93392365Y-83199987D01*
X93392363Y-83199984D01*
X93258719Y-82981897D01*
X93255465Y-82978087D01*
X92694114Y-83539437D01*
X92693260Y-83537374D01*
X92600238Y-83398156D01*
X92481844Y-83279762D01*
X92342626Y-83186740D01*
X92340561Y-83185884D01*
X92901912Y-82624533D01*
X92898107Y-82621284D01*
X92898098Y-82621277D01*
X92680015Y-82487636D01*
X92680012Y-82487634D01*
X92468458Y-82400006D01*
X120594700Y-82400006D01*
X120613864Y-82631297D01*
X120613866Y-82631308D01*
X120670842Y-82856300D01*
X120764075Y-83068848D01*
X120891016Y-83263147D01*
X120891019Y-83263151D01*
X120891021Y-83263153D01*
X121048216Y-83433913D01*
X121048219Y-83433915D01*
X121048222Y-83433918D01*
X121231365Y-83576464D01*
X121231371Y-83576468D01*
X121231374Y-83576470D01*
X121435497Y-83686936D01*
X121549487Y-83726068D01*
X121655015Y-83762297D01*
X121655017Y-83762297D01*
X121655019Y-83762298D01*
X121883951Y-83800500D01*
X121883952Y-83800500D01*
X122116048Y-83800500D01*
X122116049Y-83800500D01*
X122344981Y-83762298D01*
X122564503Y-83686936D01*
X122768626Y-83576470D01*
X122951784Y-83433913D01*
X123108979Y-83263153D01*
X123235924Y-83068849D01*
X123329157Y-82856300D01*
X123386134Y-82631305D01*
X123386695Y-82624533D01*
X123405300Y-82400006D01*
X123405300Y-82399993D01*
X123386135Y-82168702D01*
X123386133Y-82168691D01*
X123329157Y-81943699D01*
X123235924Y-81731151D01*
X123108983Y-81536852D01*
X123108980Y-81536849D01*
X123108979Y-81536847D01*
X122951784Y-81366087D01*
X122951779Y-81366083D01*
X122951777Y-81366081D01*
X122768634Y-81223535D01*
X122768628Y-81223531D01*
X122564504Y-81113064D01*
X122564495Y-81113061D01*
X122344984Y-81037702D01*
X122173282Y-81009050D01*
X122116049Y-80999500D01*
X121883951Y-80999500D01*
X121838164Y-81007140D01*
X121655015Y-81037702D01*
X121435504Y-81113061D01*
X121435495Y-81113064D01*
X121231371Y-81223531D01*
X121231365Y-81223535D01*
X121048222Y-81366081D01*
X121048219Y-81366084D01*
X120891016Y-81536852D01*
X120764075Y-81731151D01*
X120670842Y-81943699D01*
X120613866Y-82168691D01*
X120613864Y-82168702D01*
X120594700Y-82399993D01*
X120594700Y-82400006D01*
X92468458Y-82400006D01*
X92443702Y-82389752D01*
X92194988Y-82330042D01*
X92194989Y-82330042D01*
X91940000Y-82309975D01*
X91685010Y-82330042D01*
X91436297Y-82389752D01*
X91199987Y-82487634D01*
X91199984Y-82487636D01*
X90981893Y-82621282D01*
X90978086Y-82624532D01*
X91539438Y-83185884D01*
X91537374Y-83186740D01*
X91398156Y-83279762D01*
X91279762Y-83398156D01*
X91186740Y-83537374D01*
X91185884Y-83539438D01*
X90624532Y-82978086D01*
X90621282Y-82981893D01*
X90487636Y-83199984D01*
X90487634Y-83199987D01*
X90389752Y-83436297D01*
X90330042Y-83685010D01*
X90309975Y-83940000D01*
X88490024Y-83940000D01*
X88469957Y-83685010D01*
X88410247Y-83436297D01*
X88312365Y-83199987D01*
X88312363Y-83199984D01*
X88178719Y-82981897D01*
X88175465Y-82978087D01*
X87614114Y-83539437D01*
X87613260Y-83537374D01*
X87520238Y-83398156D01*
X87401844Y-83279762D01*
X87262626Y-83186740D01*
X87260561Y-83185884D01*
X87821912Y-82624533D01*
X87818107Y-82621284D01*
X87818098Y-82621277D01*
X87600015Y-82487636D01*
X87600012Y-82487634D01*
X87363702Y-82389752D01*
X87114988Y-82330042D01*
X87114989Y-82330042D01*
X86860000Y-82309975D01*
X86605010Y-82330042D01*
X86356297Y-82389752D01*
X86119987Y-82487634D01*
X86119984Y-82487636D01*
X85901893Y-82621282D01*
X85898086Y-82624532D01*
X86459438Y-83185884D01*
X86457374Y-83186740D01*
X86318156Y-83279762D01*
X86199762Y-83398156D01*
X86106740Y-83537374D01*
X86105884Y-83539438D01*
X85544532Y-82978086D01*
X85541282Y-82981893D01*
X85407636Y-83199984D01*
X85407634Y-83199987D01*
X85309752Y-83436297D01*
X85250042Y-83685010D01*
X85229975Y-83940000D01*
X84836000Y-83940000D01*
X84836000Y-81400000D01*
X87869783Y-81400000D01*
X87888623Y-81639382D01*
X87944674Y-81872853D01*
X87944678Y-81872865D01*
X88036565Y-82094702D01*
X88138561Y-82261144D01*
X88162028Y-82299439D01*
X88317973Y-82482027D01*
X88500561Y-82637972D01*
X88500563Y-82637973D01*
X88705297Y-82763434D01*
X88802047Y-82803508D01*
X88927137Y-82855323D01*
X89160621Y-82911377D01*
X89400000Y-82930217D01*
X89639379Y-82911377D01*
X89872863Y-82855323D01*
X90094704Y-82763433D01*
X90299439Y-82637972D01*
X90482027Y-82482027D01*
X90637972Y-82299439D01*
X90763433Y-82094704D01*
X90855323Y-81872863D01*
X90911377Y-81639379D01*
X90930217Y-81400000D01*
X93094540Y-81400000D01*
X93114326Y-81588256D01*
X93114327Y-81588259D01*
X93172818Y-81768277D01*
X93172821Y-81768284D01*
X93267467Y-81932216D01*
X93394129Y-82072888D01*
X93547265Y-82184148D01*
X93547270Y-82184151D01*
X93720192Y-82261142D01*
X93720197Y-82261144D01*
X93905354Y-82300500D01*
X93905355Y-82300500D01*
X94094644Y-82300500D01*
X94094646Y-82300500D01*
X94279803Y-82261144D01*
X94452730Y-82184151D01*
X94605871Y-82072888D01*
X94732533Y-81932216D01*
X94827179Y-81768284D01*
X94885674Y-81588256D01*
X94905460Y-81400000D01*
X94885674Y-81211744D01*
X94827179Y-81031716D01*
X94732533Y-80867784D01*
X94605871Y-80727112D01*
X94605870Y-80727111D01*
X94452734Y-80615851D01*
X94452729Y-80615848D01*
X94279807Y-80538857D01*
X94279802Y-80538855D01*
X94134001Y-80507865D01*
X94094646Y-80499500D01*
X93905354Y-80499500D01*
X93872897Y-80506398D01*
X93720197Y-80538855D01*
X93720192Y-80538857D01*
X93547270Y-80615848D01*
X93547265Y-80615851D01*
X93394129Y-80727111D01*
X93267466Y-80867785D01*
X93172821Y-81031715D01*
X93172818Y-81031722D01*
X93114327Y-81211740D01*
X93114326Y-81211744D01*
X93094540Y-81400000D01*
X90930217Y-81400000D01*
X90911377Y-81160621D01*
X90855323Y-80927137D01*
X90772470Y-80727112D01*
X90763434Y-80705297D01*
X90637973Y-80500563D01*
X90637972Y-80500561D01*
X90482027Y-80317973D01*
X90299439Y-80162028D01*
X90299436Y-80162026D01*
X90094702Y-80036565D01*
X89872865Y-79944678D01*
X89872867Y-79944678D01*
X89872863Y-79944677D01*
X89872859Y-79944676D01*
X89872853Y-79944674D01*
X89639382Y-79888623D01*
X89400000Y-79869783D01*
X89160617Y-79888623D01*
X88927146Y-79944674D01*
X88927134Y-79944678D01*
X88705297Y-80036565D01*
X88500563Y-80162026D01*
X88317973Y-80317973D01*
X88162026Y-80500563D01*
X88036565Y-80705297D01*
X87944678Y-80927134D01*
X87944674Y-80927146D01*
X87888623Y-81160617D01*
X87869783Y-81400000D01*
X84836000Y-81400000D01*
X84836000Y-78860000D01*
X85229975Y-78860000D01*
X85250042Y-79114989D01*
X85309752Y-79363702D01*
X85407634Y-79600012D01*
X85407636Y-79600015D01*
X85541277Y-79818098D01*
X85541284Y-79818107D01*
X85544533Y-79821912D01*
X86105884Y-79260560D01*
X86106740Y-79262626D01*
X86199762Y-79401844D01*
X86318156Y-79520238D01*
X86457374Y-79613260D01*
X86459437Y-79614114D01*
X85898087Y-80175465D01*
X85901897Y-80178719D01*
X86119984Y-80312363D01*
X86119987Y-80312365D01*
X86356297Y-80410247D01*
X86605011Y-80469957D01*
X86605010Y-80469957D01*
X86860000Y-80490024D01*
X87114989Y-80469957D01*
X87363702Y-80410247D01*
X87600012Y-80312365D01*
X87600015Y-80312363D01*
X87818095Y-80178724D01*
X87818110Y-80178713D01*
X87821911Y-80175466D01*
X87821911Y-80175464D01*
X87260562Y-79614114D01*
X87262626Y-79613260D01*
X87401844Y-79520238D01*
X87520238Y-79401844D01*
X87613260Y-79262626D01*
X87614114Y-79260561D01*
X88175464Y-79821911D01*
X88175466Y-79821911D01*
X88178713Y-79818110D01*
X88178724Y-79818095D01*
X88312363Y-79600015D01*
X88312365Y-79600012D01*
X88410247Y-79363702D01*
X88469957Y-79114989D01*
X88490024Y-78860000D01*
X90309975Y-78860000D01*
X90330042Y-79114989D01*
X90389752Y-79363702D01*
X90487634Y-79600012D01*
X90487636Y-79600015D01*
X90621277Y-79818098D01*
X90621284Y-79818107D01*
X90624533Y-79821912D01*
X91185884Y-79260560D01*
X91186740Y-79262626D01*
X91279762Y-79401844D01*
X91398156Y-79520238D01*
X91537374Y-79613260D01*
X91539437Y-79614114D01*
X90978087Y-80175465D01*
X90981897Y-80178719D01*
X91199984Y-80312363D01*
X91199987Y-80312365D01*
X91436297Y-80410247D01*
X91685011Y-80469957D01*
X91685010Y-80469957D01*
X91940000Y-80490024D01*
X92194989Y-80469957D01*
X92443702Y-80410247D01*
X92680012Y-80312365D01*
X92680015Y-80312363D01*
X92898095Y-80178724D01*
X92898110Y-80178713D01*
X92901911Y-80175466D01*
X92901911Y-80175464D01*
X92340562Y-79614114D01*
X92342626Y-79613260D01*
X92481844Y-79520238D01*
X92600238Y-79401844D01*
X92693260Y-79262626D01*
X92694114Y-79260561D01*
X93255464Y-79821911D01*
X93255466Y-79821911D01*
X93258713Y-79818110D01*
X93258724Y-79818095D01*
X93392363Y-79600015D01*
X93392365Y-79600012D01*
X93490247Y-79363702D01*
X93549957Y-79114989D01*
X93570024Y-78860000D01*
X93565302Y-78800000D01*
X115404540Y-78800000D01*
X115424326Y-78988256D01*
X115424327Y-78988259D01*
X115482818Y-79168277D01*
X115482821Y-79168284D01*
X115577467Y-79332216D01*
X115619933Y-79379379D01*
X115704129Y-79472888D01*
X115857265Y-79584148D01*
X115857270Y-79584151D01*
X116030192Y-79661142D01*
X116030197Y-79661144D01*
X116215354Y-79700500D01*
X116215355Y-79700500D01*
X116404644Y-79700500D01*
X116404646Y-79700500D01*
X116589803Y-79661144D01*
X116762730Y-79584151D01*
X116915871Y-79472888D01*
X117042533Y-79332216D01*
X117137179Y-79168284D01*
X117195674Y-78988256D01*
X117215460Y-78800000D01*
X117195674Y-78611744D01*
X117137179Y-78431716D01*
X117042533Y-78267784D01*
X116915871Y-78127112D01*
X116915863Y-78127106D01*
X116762734Y-78015851D01*
X116762729Y-78015848D01*
X116589807Y-77938857D01*
X116589802Y-77938855D01*
X116444001Y-77907865D01*
X116404646Y-77899500D01*
X116215354Y-77899500D01*
X116182897Y-77906398D01*
X116030197Y-77938855D01*
X116030192Y-77938857D01*
X115857270Y-78015848D01*
X115857265Y-78015851D01*
X115704129Y-78127111D01*
X115577466Y-78267785D01*
X115482821Y-78431715D01*
X115482818Y-78431722D01*
X115428024Y-78600363D01*
X115424326Y-78611744D01*
X115404540Y-78800000D01*
X93565302Y-78800000D01*
X93549957Y-78605010D01*
X93490247Y-78356297D01*
X93392365Y-78119987D01*
X93392363Y-78119984D01*
X93258719Y-77901897D01*
X93255465Y-77898087D01*
X92694114Y-78459437D01*
X92693260Y-78457374D01*
X92600238Y-78318156D01*
X92481844Y-78199762D01*
X92342626Y-78106740D01*
X92340561Y-78105884D01*
X92846445Y-77600000D01*
X97694540Y-77600000D01*
X97714326Y-77788256D01*
X97714327Y-77788259D01*
X97772818Y-77968277D01*
X97772821Y-77968284D01*
X97867467Y-78132216D01*
X97932443Y-78204379D01*
X97994129Y-78272888D01*
X98147265Y-78384148D01*
X98147270Y-78384151D01*
X98320192Y-78461142D01*
X98320197Y-78461144D01*
X98505354Y-78500500D01*
X98505355Y-78500500D01*
X98694644Y-78500500D01*
X98694646Y-78500500D01*
X98879803Y-78461144D01*
X99052730Y-78384151D01*
X99205871Y-78272888D01*
X99332533Y-78132216D01*
X99427179Y-77968284D01*
X99485674Y-77788256D01*
X99505460Y-77600000D01*
X99485674Y-77411744D01*
X99427179Y-77231716D01*
X99332533Y-77067784D01*
X99205871Y-76927112D01*
X99205870Y-76927111D01*
X99052734Y-76815851D01*
X99052729Y-76815848D01*
X98879807Y-76738857D01*
X98879802Y-76738855D01*
X98734001Y-76707865D01*
X98694646Y-76699500D01*
X98505354Y-76699500D01*
X98472897Y-76706398D01*
X98320197Y-76738855D01*
X98320192Y-76738857D01*
X98147270Y-76815848D01*
X98147265Y-76815851D01*
X97994129Y-76927111D01*
X97867466Y-77067785D01*
X97772821Y-77231715D01*
X97772818Y-77231722D01*
X97714327Y-77411740D01*
X97714326Y-77411744D01*
X97694540Y-77600000D01*
X92846445Y-77600000D01*
X92901912Y-77544533D01*
X92898107Y-77541284D01*
X92898098Y-77541277D01*
X92680015Y-77407636D01*
X92680012Y-77407634D01*
X92443702Y-77309752D01*
X92194988Y-77250042D01*
X92194989Y-77250042D01*
X91940000Y-77229975D01*
X91685010Y-77250042D01*
X91436297Y-77309752D01*
X91199987Y-77407634D01*
X91199984Y-77407636D01*
X90981893Y-77541282D01*
X90978086Y-77544532D01*
X91539438Y-78105884D01*
X91537374Y-78106740D01*
X91398156Y-78199762D01*
X91279762Y-78318156D01*
X91186740Y-78457374D01*
X91185884Y-78459438D01*
X90624532Y-77898086D01*
X90621282Y-77901893D01*
X90487636Y-78119984D01*
X90487634Y-78119987D01*
X90389752Y-78356297D01*
X90330042Y-78605010D01*
X90309975Y-78860000D01*
X88490024Y-78860000D01*
X88469957Y-78605010D01*
X88410247Y-78356297D01*
X88312365Y-78119987D01*
X88312363Y-78119984D01*
X88178719Y-77901897D01*
X88175465Y-77898087D01*
X87614114Y-78459437D01*
X87613260Y-78457374D01*
X87520238Y-78318156D01*
X87401844Y-78199762D01*
X87262626Y-78106740D01*
X87260561Y-78105884D01*
X87821912Y-77544533D01*
X87818107Y-77541284D01*
X87818098Y-77541277D01*
X87600015Y-77407636D01*
X87600012Y-77407634D01*
X87363702Y-77309752D01*
X87114988Y-77250042D01*
X87114989Y-77250042D01*
X86860000Y-77229975D01*
X86605010Y-77250042D01*
X86356297Y-77309752D01*
X86119987Y-77407634D01*
X86119984Y-77407636D01*
X85901893Y-77541282D01*
X85898086Y-77544532D01*
X86459438Y-78105884D01*
X86457374Y-78106740D01*
X86318156Y-78199762D01*
X86199762Y-78318156D01*
X86106740Y-78457374D01*
X86105884Y-78459438D01*
X85544532Y-77898086D01*
X85541282Y-77901893D01*
X85407636Y-78119984D01*
X85407634Y-78119987D01*
X85309752Y-78356297D01*
X85250042Y-78605010D01*
X85229975Y-78860000D01*
X84836000Y-78860000D01*
X84836000Y-76300000D01*
X100794540Y-76300000D01*
X100814326Y-76488256D01*
X100814327Y-76488259D01*
X100872818Y-76668277D01*
X100872821Y-76668284D01*
X100967467Y-76832216D01*
X101028558Y-76900064D01*
X101094129Y-76972888D01*
X101247265Y-77084148D01*
X101247270Y-77084151D01*
X101420192Y-77161142D01*
X101420197Y-77161144D01*
X101605354Y-77200500D01*
X101605355Y-77200500D01*
X101794644Y-77200500D01*
X101794646Y-77200500D01*
X101979803Y-77161144D01*
X102152730Y-77084151D01*
X102305871Y-76972888D01*
X102432533Y-76832216D01*
X102527179Y-76668284D01*
X102585674Y-76488256D01*
X102605460Y-76300000D01*
X102585674Y-76111744D01*
X102527179Y-75931716D01*
X102432533Y-75767784D01*
X102305871Y-75627112D01*
X102305870Y-75627111D01*
X102152734Y-75515851D01*
X102152729Y-75515848D01*
X101979807Y-75438857D01*
X101979802Y-75438855D01*
X101834001Y-75407865D01*
X101796998Y-75400000D01*
X103800000Y-75400000D01*
X103800000Y-78200000D01*
X105173292Y-78200000D01*
X105240331Y-78219685D01*
X105265442Y-78241028D01*
X105294129Y-78272888D01*
X105294135Y-78272893D01*
X105447265Y-78384148D01*
X105447270Y-78384151D01*
X105620192Y-78461142D01*
X105620197Y-78461144D01*
X105805354Y-78500500D01*
X105805355Y-78500500D01*
X105994644Y-78500500D01*
X105994646Y-78500500D01*
X106179803Y-78461144D01*
X106352730Y-78384151D01*
X106505871Y-78272888D01*
X106534558Y-78241027D01*
X106594045Y-78204379D01*
X106626708Y-78200000D01*
X110500000Y-78200000D01*
X110500000Y-77500000D01*
X118194540Y-77500000D01*
X118214326Y-77688256D01*
X118214327Y-77688259D01*
X118272818Y-77868277D01*
X118272821Y-77868284D01*
X118367467Y-78032216D01*
X118433991Y-78106098D01*
X118494129Y-78172888D01*
X118647265Y-78284148D01*
X118647270Y-78284151D01*
X118820192Y-78361142D01*
X118820197Y-78361144D01*
X119005354Y-78400500D01*
X119005355Y-78400500D01*
X119194644Y-78400500D01*
X119194646Y-78400500D01*
X119379803Y-78361144D01*
X119552730Y-78284151D01*
X119705871Y-78172888D01*
X119832533Y-78032216D01*
X119927179Y-77868284D01*
X119985674Y-77688256D01*
X120005460Y-77500000D01*
X119985674Y-77311744D01*
X119927179Y-77131716D01*
X119832533Y-76967784D01*
X119705871Y-76827112D01*
X119690369Y-76815849D01*
X119552734Y-76715851D01*
X119552729Y-76715848D01*
X119379807Y-76638857D01*
X119379802Y-76638855D01*
X119225960Y-76606156D01*
X119194646Y-76599500D01*
X119005354Y-76599500D01*
X118974040Y-76606156D01*
X118820197Y-76638855D01*
X118820192Y-76638857D01*
X118647270Y-76715848D01*
X118647265Y-76715851D01*
X118494129Y-76827111D01*
X118367466Y-76967785D01*
X118272821Y-77131715D01*
X118272818Y-77131722D01*
X118234374Y-77250042D01*
X118214326Y-77311744D01*
X118194540Y-77500000D01*
X110500000Y-77500000D01*
X110500000Y-76800000D01*
X109200000Y-76800000D01*
X109157630Y-76927112D01*
X109128263Y-77015212D01*
X109088389Y-77072587D01*
X109023825Y-77099295D01*
X109010626Y-77100000D01*
X106716749Y-77100000D01*
X106649710Y-77080315D01*
X106624599Y-77058972D01*
X106505870Y-76927111D01*
X106352734Y-76815851D01*
X106352729Y-76815848D01*
X106179807Y-76738857D01*
X106179802Y-76738855D01*
X106034001Y-76707865D01*
X105994646Y-76699500D01*
X105994645Y-76699500D01*
X105918130Y-76699500D01*
X105851091Y-76679815D01*
X105805336Y-76627011D01*
X105803470Y-76622713D01*
X105681706Y-76327000D01*
X121031000Y-76327000D01*
X121031000Y-79375000D01*
X122650782Y-79375000D01*
X122717821Y-79394685D01*
X122742932Y-79416028D01*
X122794129Y-79472888D01*
X122947265Y-79584148D01*
X122947270Y-79584151D01*
X123120192Y-79661142D01*
X123120197Y-79661144D01*
X123305354Y-79700500D01*
X123305355Y-79700500D01*
X123494644Y-79700500D01*
X123494646Y-79700500D01*
X123679803Y-79661144D01*
X123852730Y-79584151D01*
X124005871Y-79472888D01*
X124057068Y-79416027D01*
X124116555Y-79379379D01*
X124149218Y-79375000D01*
X128524000Y-79375000D01*
X128524000Y-77597000D01*
X127254000Y-77597000D01*
X126783230Y-78185462D01*
X126725979Y-78225514D01*
X126686402Y-78232000D01*
X124155521Y-78232000D01*
X124088482Y-78212315D01*
X124063371Y-78190972D01*
X124005870Y-78127111D01*
X124005864Y-78127106D01*
X123852734Y-78015851D01*
X123852729Y-78015848D01*
X123679807Y-77938857D01*
X123679802Y-77938855D01*
X123608590Y-77923719D01*
X123547108Y-77890527D01*
X123522004Y-77854867D01*
X123490920Y-77788259D01*
X122809000Y-76327000D01*
X121031000Y-76327000D01*
X105681706Y-76327000D01*
X105670588Y-76300000D01*
X125594540Y-76300000D01*
X125614326Y-76488256D01*
X125614327Y-76488259D01*
X125672818Y-76668277D01*
X125672821Y-76668284D01*
X125767467Y-76832216D01*
X125828558Y-76900064D01*
X125894129Y-76972888D01*
X126047265Y-77084148D01*
X126047270Y-77084151D01*
X126220192Y-77161142D01*
X126220197Y-77161144D01*
X126405354Y-77200500D01*
X126405355Y-77200500D01*
X126594644Y-77200500D01*
X126594646Y-77200500D01*
X126779803Y-77161144D01*
X126809325Y-77148000D01*
X132397975Y-77148000D01*
X132418042Y-77402989D01*
X132477752Y-77651702D01*
X132575634Y-77888012D01*
X132575636Y-77888015D01*
X132709277Y-78106098D01*
X132709284Y-78106107D01*
X132712533Y-78109912D01*
X133273884Y-77548560D01*
X133274740Y-77550626D01*
X133367762Y-77689844D01*
X133486156Y-77808238D01*
X133625374Y-77901260D01*
X133627437Y-77902114D01*
X133066087Y-78463465D01*
X133069897Y-78466719D01*
X133287984Y-78600363D01*
X133287987Y-78600365D01*
X133524297Y-78698247D01*
X133773011Y-78757957D01*
X133773010Y-78757957D01*
X134028000Y-78778024D01*
X134282989Y-78757957D01*
X134531702Y-78698247D01*
X134768012Y-78600365D01*
X134768015Y-78600363D01*
X134986095Y-78466724D01*
X134986110Y-78466713D01*
X134989911Y-78463466D01*
X134989911Y-78463464D01*
X134976447Y-78450000D01*
X135594540Y-78450000D01*
X135614326Y-78638256D01*
X135614327Y-78638259D01*
X135672818Y-78818277D01*
X135672821Y-78818284D01*
X135767467Y-78982216D01*
X135880666Y-79107936D01*
X135894129Y-79122888D01*
X136047265Y-79234148D01*
X136047270Y-79234151D01*
X136220192Y-79311142D01*
X136220197Y-79311144D01*
X136405354Y-79350500D01*
X136405355Y-79350500D01*
X136594644Y-79350500D01*
X136594646Y-79350500D01*
X136779803Y-79311144D01*
X136952730Y-79234151D01*
X137105871Y-79122888D01*
X137232533Y-78982216D01*
X137327179Y-78818284D01*
X137385674Y-78638256D01*
X137405460Y-78450000D01*
X137385674Y-78261744D01*
X137327179Y-78081716D01*
X137232533Y-77917784D01*
X137105871Y-77777112D01*
X137105870Y-77777111D01*
X136952734Y-77665851D01*
X136952729Y-77665848D01*
X136779807Y-77588857D01*
X136779802Y-77588855D01*
X136599943Y-77550626D01*
X136594646Y-77549500D01*
X136405354Y-77549500D01*
X136400057Y-77550626D01*
X136220197Y-77588855D01*
X136220192Y-77588857D01*
X136047270Y-77665848D01*
X136047265Y-77665851D01*
X135894129Y-77777111D01*
X135767466Y-77917785D01*
X135672821Y-78081715D01*
X135672818Y-78081722D01*
X135623990Y-78232000D01*
X135614326Y-78261744D01*
X135594540Y-78450000D01*
X134976447Y-78450000D01*
X134428562Y-77902114D01*
X134430626Y-77901260D01*
X134569844Y-77808238D01*
X134688238Y-77689844D01*
X134781260Y-77550626D01*
X134782114Y-77548561D01*
X135343464Y-78109911D01*
X135343466Y-78109911D01*
X135346713Y-78106110D01*
X135346724Y-78106095D01*
X135480363Y-77888015D01*
X135480365Y-77888012D01*
X135578247Y-77651702D01*
X135637957Y-77402989D01*
X135658024Y-77148000D01*
X137477975Y-77148000D01*
X137498042Y-77402989D01*
X137557752Y-77651702D01*
X137655634Y-77888012D01*
X137655636Y-77888015D01*
X137789277Y-78106098D01*
X137789284Y-78106107D01*
X137792533Y-78109912D01*
X138353884Y-77548560D01*
X138354740Y-77550626D01*
X138447762Y-77689844D01*
X138566156Y-77808238D01*
X138705374Y-77901260D01*
X138707437Y-77902114D01*
X138146087Y-78463465D01*
X138149897Y-78466719D01*
X138367984Y-78600363D01*
X138367987Y-78600365D01*
X138604297Y-78698247D01*
X138853011Y-78757957D01*
X138853010Y-78757957D01*
X139108000Y-78778024D01*
X139362989Y-78757957D01*
X139611702Y-78698247D01*
X139848012Y-78600365D01*
X139848015Y-78600363D01*
X140066095Y-78466724D01*
X140066110Y-78466713D01*
X140069911Y-78463466D01*
X140069911Y-78463464D01*
X139508562Y-77902114D01*
X139510626Y-77901260D01*
X139649844Y-77808238D01*
X139768238Y-77689844D01*
X139861260Y-77550626D01*
X139862114Y-77548561D01*
X140423464Y-78109911D01*
X140423466Y-78109911D01*
X140426713Y-78106110D01*
X140426724Y-78106095D01*
X140560363Y-77888015D01*
X140560365Y-77888012D01*
X140658247Y-77651702D01*
X140717957Y-77402989D01*
X140738024Y-77148000D01*
X140717957Y-76893010D01*
X140658247Y-76644297D01*
X140560365Y-76407987D01*
X140560363Y-76407984D01*
X140426719Y-76189897D01*
X140423465Y-76186087D01*
X139862114Y-76747437D01*
X139861260Y-76745374D01*
X139768238Y-76606156D01*
X139649844Y-76487762D01*
X139510626Y-76394740D01*
X139508561Y-76393884D01*
X140069912Y-75832533D01*
X140066107Y-75829284D01*
X140066098Y-75829277D01*
X139848015Y-75695636D01*
X139848012Y-75695634D01*
X139611702Y-75597752D01*
X139362988Y-75538042D01*
X139362989Y-75538042D01*
X139108000Y-75517975D01*
X138853010Y-75538042D01*
X138604297Y-75597752D01*
X138367987Y-75695634D01*
X138367984Y-75695636D01*
X138149893Y-75829282D01*
X138146086Y-75832532D01*
X138707438Y-76393884D01*
X138705374Y-76394740D01*
X138566156Y-76487762D01*
X138447762Y-76606156D01*
X138354740Y-76745374D01*
X138353884Y-76747438D01*
X137792532Y-76186086D01*
X137789282Y-76189893D01*
X137655636Y-76407984D01*
X137655634Y-76407987D01*
X137557752Y-76644297D01*
X137498042Y-76893010D01*
X137477975Y-77148000D01*
X135658024Y-77148000D01*
X135637957Y-76893010D01*
X135578247Y-76644297D01*
X135480365Y-76407987D01*
X135480363Y-76407984D01*
X135346719Y-76189897D01*
X135343465Y-76186087D01*
X134782114Y-76747437D01*
X134781260Y-76745374D01*
X134688238Y-76606156D01*
X134569844Y-76487762D01*
X134430626Y-76394740D01*
X134428561Y-76393884D01*
X134989912Y-75832533D01*
X134986107Y-75829284D01*
X134986098Y-75829277D01*
X134768015Y-75695636D01*
X134768012Y-75695634D01*
X134531702Y-75597752D01*
X134282988Y-75538042D01*
X134282989Y-75538042D01*
X134028000Y-75517975D01*
X133773010Y-75538042D01*
X133524297Y-75597752D01*
X133287987Y-75695634D01*
X133287984Y-75695636D01*
X133069893Y-75829282D01*
X133066086Y-75832532D01*
X133627438Y-76393884D01*
X133625374Y-76394740D01*
X133486156Y-76487762D01*
X133367762Y-76606156D01*
X133274740Y-76745374D01*
X133273884Y-76747438D01*
X132712532Y-76186086D01*
X132709282Y-76189893D01*
X132575636Y-76407984D01*
X132575634Y-76407987D01*
X132477752Y-76644297D01*
X132418042Y-76893010D01*
X132397975Y-77148000D01*
X126809325Y-77148000D01*
X126952730Y-77084151D01*
X127105871Y-76972888D01*
X127232533Y-76832216D01*
X127327179Y-76668284D01*
X127385674Y-76488256D01*
X127405460Y-76300000D01*
X127385674Y-76111744D01*
X127327179Y-75931716D01*
X127232533Y-75767784D01*
X127105871Y-75627112D01*
X127105870Y-75627111D01*
X126952734Y-75515851D01*
X126952729Y-75515848D01*
X126779807Y-75438857D01*
X126779802Y-75438855D01*
X126634001Y-75407865D01*
X126594646Y-75399500D01*
X126405354Y-75399500D01*
X126372897Y-75406398D01*
X126220197Y-75438855D01*
X126220192Y-75438857D01*
X126047270Y-75515848D01*
X126047265Y-75515851D01*
X125894129Y-75627111D01*
X125767466Y-75767785D01*
X125672821Y-75931715D01*
X125672818Y-75931722D01*
X125630059Y-76063323D01*
X125614326Y-76111744D01*
X125594540Y-76300000D01*
X105670588Y-76300000D01*
X105300000Y-75400000D01*
X103800000Y-75400000D01*
X101796998Y-75400000D01*
X101794646Y-75399500D01*
X101605354Y-75399500D01*
X101572897Y-75406398D01*
X101420197Y-75438855D01*
X101420192Y-75438857D01*
X101247270Y-75515848D01*
X101247265Y-75515851D01*
X101094129Y-75627111D01*
X100967466Y-75767785D01*
X100872821Y-75931715D01*
X100872818Y-75931722D01*
X100830059Y-76063323D01*
X100814326Y-76111744D01*
X100794540Y-76300000D01*
X84836000Y-76300000D01*
X84836000Y-74500000D01*
X107994540Y-74500000D01*
X108014326Y-74688256D01*
X108014327Y-74688259D01*
X108072818Y-74868277D01*
X108072821Y-74868284D01*
X108167467Y-75032216D01*
X108211271Y-75080865D01*
X108294129Y-75172888D01*
X108447265Y-75284148D01*
X108447270Y-75284151D01*
X108620192Y-75361142D01*
X108620197Y-75361144D01*
X108805354Y-75400500D01*
X108805355Y-75400500D01*
X108994644Y-75400500D01*
X108994646Y-75400500D01*
X109179803Y-75361144D01*
X109352730Y-75284151D01*
X109505871Y-75172888D01*
X109632533Y-75032216D01*
X109727179Y-74868284D01*
X109785674Y-74688256D01*
X109805460Y-74500000D01*
X109785674Y-74311744D01*
X109781858Y-74300000D01*
X122394540Y-74300000D01*
X122414326Y-74488256D01*
X122414327Y-74488259D01*
X122472818Y-74668277D01*
X122472821Y-74668284D01*
X122567467Y-74832216D01*
X122581123Y-74847382D01*
X122694129Y-74972888D01*
X122847265Y-75084148D01*
X122847270Y-75084151D01*
X123020192Y-75161142D01*
X123020197Y-75161144D01*
X123205354Y-75200500D01*
X123205355Y-75200500D01*
X123394644Y-75200500D01*
X123394646Y-75200500D01*
X123579803Y-75161144D01*
X123752730Y-75084151D01*
X123905871Y-74972888D01*
X124032533Y-74832216D01*
X124127179Y-74668284D01*
X124146767Y-74608000D01*
X135037783Y-74608000D01*
X135056623Y-74847382D01*
X135112674Y-75080853D01*
X135112678Y-75080865D01*
X135204565Y-75302702D01*
X135288001Y-75438857D01*
X135330028Y-75507439D01*
X135485973Y-75690027D01*
X135668561Y-75845972D01*
X135668563Y-75845973D01*
X135873297Y-75971434D01*
X135970047Y-76011508D01*
X136095137Y-76063323D01*
X136328621Y-76119377D01*
X136568000Y-76138217D01*
X136807379Y-76119377D01*
X137040863Y-76063323D01*
X137262704Y-75971433D01*
X137467439Y-75845972D01*
X137650027Y-75690027D01*
X137805972Y-75507439D01*
X137931433Y-75302704D01*
X138023323Y-75080863D01*
X138079377Y-74847379D01*
X138098217Y-74608000D01*
X138079377Y-74368621D01*
X138023323Y-74135137D01*
X137954003Y-73967784D01*
X137931434Y-73913297D01*
X137805973Y-73708563D01*
X137805972Y-73708561D01*
X137650027Y-73525973D01*
X137467439Y-73370028D01*
X137467436Y-73370026D01*
X137262702Y-73244565D01*
X137040865Y-73152678D01*
X137040867Y-73152678D01*
X137040863Y-73152677D01*
X137040859Y-73152676D01*
X137040853Y-73152674D01*
X136807382Y-73096623D01*
X136568000Y-73077783D01*
X136328617Y-73096623D01*
X136095146Y-73152674D01*
X136095134Y-73152678D01*
X135873297Y-73244565D01*
X135668563Y-73370026D01*
X135485973Y-73525973D01*
X135330026Y-73708563D01*
X135204565Y-73913297D01*
X135112678Y-74135134D01*
X135112674Y-74135146D01*
X135056623Y-74368617D01*
X135037783Y-74608000D01*
X124146767Y-74608000D01*
X124185674Y-74488256D01*
X124205460Y-74300000D01*
X124185674Y-74111744D01*
X124127179Y-73931716D01*
X124032533Y-73767784D01*
X123905871Y-73627112D01*
X123905870Y-73627111D01*
X123752734Y-73515851D01*
X123752729Y-73515848D01*
X123579807Y-73438857D01*
X123579802Y-73438855D01*
X123434001Y-73407865D01*
X123394646Y-73399500D01*
X123205354Y-73399500D01*
X123172897Y-73406398D01*
X123020197Y-73438855D01*
X123020192Y-73438857D01*
X122847270Y-73515848D01*
X122847265Y-73515851D01*
X122694129Y-73627111D01*
X122567466Y-73767785D01*
X122472821Y-73931715D01*
X122472818Y-73931722D01*
X122414327Y-74111740D01*
X122414326Y-74111744D01*
X122394540Y-74300000D01*
X109781858Y-74300000D01*
X109731112Y-74143823D01*
X109727181Y-74131722D01*
X109727180Y-74131721D01*
X109727179Y-74131716D01*
X109632533Y-73967784D01*
X109505871Y-73827112D01*
X109505870Y-73827111D01*
X109352734Y-73715851D01*
X109352729Y-73715848D01*
X109179807Y-73638857D01*
X109179802Y-73638855D01*
X109034001Y-73607865D01*
X108994646Y-73599500D01*
X108805354Y-73599500D01*
X108772897Y-73606398D01*
X108620197Y-73638855D01*
X108620192Y-73638857D01*
X108447270Y-73715848D01*
X108447265Y-73715851D01*
X108294129Y-73827111D01*
X108167466Y-73967785D01*
X108072821Y-74131715D01*
X108072818Y-74131722D01*
X108018142Y-74300000D01*
X108014326Y-74311744D01*
X107994540Y-74500000D01*
X84836000Y-74500000D01*
X84836000Y-72068000D01*
X132397975Y-72068000D01*
X132418042Y-72322989D01*
X132477752Y-72571702D01*
X132575634Y-72808012D01*
X132575636Y-72808015D01*
X132709277Y-73026098D01*
X132709284Y-73026107D01*
X132712533Y-73029912D01*
X133273884Y-72468560D01*
X133274740Y-72470626D01*
X133367762Y-72609844D01*
X133486156Y-72728238D01*
X133625374Y-72821260D01*
X133627437Y-72822114D01*
X133066087Y-73383465D01*
X133069897Y-73386719D01*
X133287984Y-73520363D01*
X133287987Y-73520365D01*
X133524297Y-73618247D01*
X133773011Y-73677957D01*
X133773010Y-73677957D01*
X134028000Y-73698024D01*
X134282989Y-73677957D01*
X134531702Y-73618247D01*
X134768012Y-73520365D01*
X134768015Y-73520363D01*
X134986095Y-73386724D01*
X134986110Y-73386713D01*
X134989911Y-73383466D01*
X134989911Y-73383464D01*
X134428562Y-72822114D01*
X134430626Y-72821260D01*
X134569844Y-72728238D01*
X134688238Y-72609844D01*
X134781260Y-72470626D01*
X134782114Y-72468561D01*
X135343464Y-73029911D01*
X135343466Y-73029911D01*
X135346713Y-73026110D01*
X135346724Y-73026095D01*
X135480363Y-72808015D01*
X135480365Y-72808012D01*
X135578247Y-72571702D01*
X135637957Y-72322989D01*
X135658024Y-72068000D01*
X137477975Y-72068000D01*
X137498042Y-72322989D01*
X137557752Y-72571702D01*
X137655634Y-72808012D01*
X137655636Y-72808015D01*
X137789277Y-73026098D01*
X137789284Y-73026107D01*
X137792533Y-73029912D01*
X138353884Y-72468560D01*
X138354740Y-72470626D01*
X138447762Y-72609844D01*
X138566156Y-72728238D01*
X138705374Y-72821260D01*
X138707437Y-72822114D01*
X138146087Y-73383465D01*
X138149897Y-73386719D01*
X138367984Y-73520363D01*
X138367987Y-73520365D01*
X138604297Y-73618247D01*
X138853011Y-73677957D01*
X138853010Y-73677957D01*
X139108000Y-73698024D01*
X139362989Y-73677957D01*
X139611702Y-73618247D01*
X139848012Y-73520365D01*
X139848015Y-73520363D01*
X140066095Y-73386724D01*
X140066110Y-73386713D01*
X140069911Y-73383466D01*
X140069911Y-73383464D01*
X139508562Y-72822114D01*
X139510626Y-72821260D01*
X139649844Y-72728238D01*
X139768238Y-72609844D01*
X139861260Y-72470626D01*
X139862114Y-72468561D01*
X140423464Y-73029911D01*
X140423466Y-73029911D01*
X140426713Y-73026110D01*
X140426724Y-73026095D01*
X140560363Y-72808015D01*
X140560365Y-72808012D01*
X140658247Y-72571702D01*
X140717957Y-72322989D01*
X140738024Y-72068000D01*
X140717957Y-71813010D01*
X140658247Y-71564297D01*
X140560365Y-71327987D01*
X140560363Y-71327984D01*
X140426719Y-71109897D01*
X140423465Y-71106087D01*
X139862114Y-71667437D01*
X139861260Y-71665374D01*
X139768238Y-71526156D01*
X139649844Y-71407762D01*
X139510626Y-71314740D01*
X139508561Y-71313884D01*
X140069912Y-70752533D01*
X140066107Y-70749284D01*
X140066098Y-70749277D01*
X139848015Y-70615636D01*
X139848012Y-70615634D01*
X139611702Y-70517752D01*
X139362988Y-70458042D01*
X139362989Y-70458042D01*
X139108000Y-70437975D01*
X138853010Y-70458042D01*
X138604297Y-70517752D01*
X138367987Y-70615634D01*
X138367984Y-70615636D01*
X138149893Y-70749282D01*
X138146086Y-70752532D01*
X138707438Y-71313884D01*
X138705374Y-71314740D01*
X138566156Y-71407762D01*
X138447762Y-71526156D01*
X138354740Y-71665374D01*
X138353884Y-71667438D01*
X137792532Y-71106086D01*
X137789282Y-71109893D01*
X137655636Y-71327984D01*
X137655634Y-71327987D01*
X137557752Y-71564297D01*
X137498042Y-71813010D01*
X137477975Y-72068000D01*
X135658024Y-72068000D01*
X135637957Y-71813010D01*
X135578247Y-71564297D01*
X135480365Y-71327987D01*
X135480363Y-71327984D01*
X135346719Y-71109897D01*
X135343465Y-71106087D01*
X134782114Y-71667437D01*
X134781260Y-71665374D01*
X134688238Y-71526156D01*
X134569844Y-71407762D01*
X134430626Y-71314740D01*
X134428561Y-71313884D01*
X134989912Y-70752533D01*
X134986107Y-70749284D01*
X134986098Y-70749277D01*
X134768015Y-70615636D01*
X134768012Y-70615634D01*
X134531702Y-70517752D01*
X134282988Y-70458042D01*
X134282989Y-70458042D01*
X134028000Y-70437975D01*
X133773010Y-70458042D01*
X133524297Y-70517752D01*
X133287987Y-70615634D01*
X133287984Y-70615636D01*
X133069893Y-70749282D01*
X133066086Y-70752532D01*
X133627438Y-71313884D01*
X133625374Y-71314740D01*
X133486156Y-71407762D01*
X133367762Y-71526156D01*
X133274740Y-71665374D01*
X133273884Y-71667438D01*
X132712532Y-71106086D01*
X132709282Y-71109893D01*
X132575636Y-71327984D01*
X132575634Y-71327987D01*
X132477752Y-71564297D01*
X132418042Y-71813010D01*
X132397975Y-72068000D01*
X84836000Y-72068000D01*
X84836000Y-69598097D01*
X88799500Y-69598097D01*
X88836446Y-69831368D01*
X88909433Y-70055996D01*
X89016657Y-70266433D01*
X89155483Y-70457510D01*
X89322490Y-70624517D01*
X89513567Y-70763343D01*
X89612991Y-70814002D01*
X89724003Y-70870566D01*
X89724005Y-70870566D01*
X89724008Y-70870568D01*
X89844412Y-70909689D01*
X89948631Y-70943553D01*
X90181903Y-70980500D01*
X90181908Y-70980500D01*
X91418097Y-70980500D01*
X91651368Y-70943553D01*
X91875992Y-70870568D01*
X92086433Y-70763343D01*
X92277510Y-70624517D01*
X92444517Y-70457510D01*
X92583343Y-70266433D01*
X92690568Y-70055992D01*
X92763553Y-69831368D01*
X92800500Y-69598097D01*
X93799500Y-69598097D01*
X93836446Y-69831368D01*
X93909433Y-70055996D01*
X94016657Y-70266433D01*
X94155483Y-70457510D01*
X94322490Y-70624517D01*
X94513567Y-70763343D01*
X94612991Y-70814002D01*
X94724003Y-70870566D01*
X94724005Y-70870566D01*
X94724008Y-70870568D01*
X94844412Y-70909689D01*
X94948631Y-70943553D01*
X95181903Y-70980500D01*
X95181908Y-70980500D01*
X96418097Y-70980500D01*
X96651368Y-70943553D01*
X96875992Y-70870568D01*
X97086433Y-70763343D01*
X97277510Y-70624517D01*
X97444517Y-70457510D01*
X97583343Y-70266433D01*
X97690568Y-70055992D01*
X97763553Y-69831368D01*
X97800500Y-69598097D01*
X97800500Y-69361902D01*
X97763553Y-69128631D01*
X97690566Y-68904003D01*
X97583342Y-68693566D01*
X97444517Y-68502490D01*
X97277510Y-68335483D01*
X97242447Y-68310008D01*
X97199782Y-68254679D01*
X97193803Y-68185066D01*
X97226409Y-68123271D01*
X97242450Y-68109371D01*
X97277182Y-68084137D01*
X97444133Y-67917186D01*
X97582914Y-67726171D01*
X97690102Y-67515802D01*
X97763065Y-67291247D01*
X97779102Y-67190000D01*
X96348482Y-67190000D01*
X96359111Y-67171591D01*
X96400000Y-67018991D01*
X96400000Y-66861009D01*
X96359111Y-66708409D01*
X96348482Y-66690000D01*
X97779102Y-66690000D01*
X97763065Y-66588752D01*
X97701737Y-66400006D01*
X130694700Y-66400006D01*
X130713864Y-66631297D01*
X130713866Y-66631308D01*
X130770842Y-66856300D01*
X130864075Y-67068848D01*
X130991016Y-67263147D01*
X130991019Y-67263151D01*
X130991021Y-67263153D01*
X131148216Y-67433913D01*
X131148219Y-67433915D01*
X131148222Y-67433918D01*
X131331365Y-67576464D01*
X131331371Y-67576468D01*
X131331374Y-67576470D01*
X131535497Y-67686936D01*
X131649487Y-67726068D01*
X131755015Y-67762297D01*
X131755017Y-67762297D01*
X131755019Y-67762298D01*
X131983951Y-67800500D01*
X131983952Y-67800500D01*
X132216048Y-67800500D01*
X132216049Y-67800500D01*
X132444981Y-67762298D01*
X132664503Y-67686936D01*
X132868626Y-67576470D01*
X133051784Y-67433913D01*
X133208979Y-67263153D01*
X133335924Y-67068849D01*
X133429157Y-66856300D01*
X133486134Y-66631305D01*
X133491082Y-66571592D01*
X133505300Y-66400006D01*
X133505300Y-66399993D01*
X133486135Y-66168702D01*
X133486133Y-66168691D01*
X133429157Y-65943699D01*
X133335924Y-65731151D01*
X133208983Y-65536852D01*
X133208980Y-65536849D01*
X133208979Y-65536847D01*
X133051784Y-65366087D01*
X133051779Y-65366083D01*
X133051777Y-65366081D01*
X132868634Y-65223535D01*
X132868628Y-65223531D01*
X132664504Y-65113064D01*
X132664495Y-65113061D01*
X132444984Y-65037702D01*
X132273282Y-65009050D01*
X132216049Y-64999500D01*
X131983951Y-64999500D01*
X131938164Y-65007140D01*
X131755015Y-65037702D01*
X131535504Y-65113061D01*
X131535495Y-65113064D01*
X131331371Y-65223531D01*
X131331365Y-65223535D01*
X131148222Y-65366081D01*
X131148219Y-65366084D01*
X130991016Y-65536852D01*
X130864075Y-65731151D01*
X130770842Y-65943699D01*
X130713866Y-66168691D01*
X130713864Y-66168702D01*
X130694700Y-66399993D01*
X130694700Y-66400006D01*
X97701737Y-66400006D01*
X97690102Y-66364197D01*
X97582914Y-66153828D01*
X97492964Y-66030023D01*
X97469484Y-65964216D01*
X97485309Y-65896162D01*
X97534640Y-65848220D01*
X97534546Y-65848047D01*
X97535169Y-65847706D01*
X97535415Y-65847468D01*
X97536480Y-65846990D01*
X97542326Y-65843797D01*
X97542331Y-65843796D01*
X97657546Y-65757546D01*
X97743796Y-65642331D01*
X97794091Y-65507483D01*
X97800500Y-65447873D01*
X97800499Y-63500006D01*
X121494700Y-63500006D01*
X121513864Y-63731297D01*
X121513866Y-63731308D01*
X121570842Y-63956300D01*
X121664075Y-64168848D01*
X121791016Y-64363147D01*
X121791019Y-64363151D01*
X121791021Y-64363153D01*
X121948216Y-64533913D01*
X121948219Y-64533915D01*
X121948222Y-64533918D01*
X122131365Y-64676464D01*
X122131371Y-64676468D01*
X122131374Y-64676470D01*
X122335497Y-64786936D01*
X122449487Y-64826068D01*
X122555015Y-64862297D01*
X122555017Y-64862297D01*
X122555019Y-64862298D01*
X122783951Y-64900500D01*
X122783952Y-64900500D01*
X123016048Y-64900500D01*
X123016049Y-64900500D01*
X123244981Y-64862298D01*
X123464503Y-64786936D01*
X123668626Y-64676470D01*
X123851784Y-64533913D01*
X124008979Y-64363153D01*
X124135924Y-64168849D01*
X124229157Y-63956300D01*
X124286134Y-63731305D01*
X124286135Y-63731297D01*
X124305300Y-63500006D01*
X124305300Y-63499993D01*
X124286135Y-63268702D01*
X124286133Y-63268691D01*
X124229157Y-63043699D01*
X124209991Y-63000006D01*
X126894700Y-63000006D01*
X126913864Y-63231297D01*
X126913866Y-63231308D01*
X126970842Y-63456300D01*
X127064075Y-63668848D01*
X127191016Y-63863147D01*
X127191019Y-63863151D01*
X127191021Y-63863153D01*
X127348216Y-64033913D01*
X127348219Y-64033915D01*
X127348222Y-64033918D01*
X127531365Y-64176464D01*
X127531371Y-64176468D01*
X127531374Y-64176470D01*
X127735497Y-64286936D01*
X127849487Y-64326068D01*
X127955015Y-64362297D01*
X127955017Y-64362297D01*
X127955019Y-64362298D01*
X128183951Y-64400500D01*
X128183952Y-64400500D01*
X128416048Y-64400500D01*
X128416049Y-64400500D01*
X128644981Y-64362298D01*
X128864503Y-64286936D01*
X129068626Y-64176470D01*
X129251784Y-64033913D01*
X129384266Y-63889999D01*
X141649500Y-63889999D01*
X141649501Y-63890016D01*
X141660000Y-63992795D01*
X141660001Y-63992798D01*
X141715185Y-64159330D01*
X141715187Y-64159335D01*
X141725755Y-64176468D01*
X141807289Y-64308655D01*
X141931345Y-64432711D01*
X142080667Y-64524814D01*
X142247204Y-64579999D01*
X142349993Y-64590500D01*
X145850006Y-64590499D01*
X145952796Y-64579999D01*
X146119333Y-64524814D01*
X146268655Y-64432711D01*
X146392711Y-64308655D01*
X146484814Y-64159333D01*
X146539999Y-63992796D01*
X146550500Y-63890007D01*
X146550499Y-60389994D01*
X146539999Y-60287204D01*
X146484814Y-60120667D01*
X146392711Y-59971345D01*
X146268655Y-59847289D01*
X146119333Y-59755186D01*
X145952796Y-59700001D01*
X145952794Y-59700000D01*
X145850008Y-59689500D01*
X142350000Y-59689500D01*
X142349983Y-59689501D01*
X142247204Y-59700000D01*
X142247201Y-59700001D01*
X142080669Y-59755185D01*
X142080664Y-59755187D01*
X141931343Y-59847290D01*
X141807290Y-59971343D01*
X141715187Y-60120664D01*
X141715186Y-60120667D01*
X141660001Y-60287204D01*
X141660001Y-60287205D01*
X141660000Y-60287205D01*
X141649500Y-60389985D01*
X141649500Y-63889999D01*
X129384266Y-63889999D01*
X129408979Y-63863153D01*
X129535924Y-63668849D01*
X129629157Y-63456300D01*
X129686134Y-63231305D01*
X129686135Y-63231297D01*
X129705300Y-63000006D01*
X129705300Y-62999993D01*
X129686135Y-62768702D01*
X129686133Y-62768691D01*
X129629157Y-62543699D01*
X129535924Y-62331151D01*
X129408983Y-62136852D01*
X129408980Y-62136849D01*
X129408979Y-62136847D01*
X129251784Y-61966087D01*
X129251779Y-61966083D01*
X129251777Y-61966081D01*
X129068634Y-61823535D01*
X129068628Y-61823531D01*
X128864504Y-61713064D01*
X128864495Y-61713061D01*
X128644984Y-61637702D01*
X128473282Y-61609050D01*
X128416049Y-61599500D01*
X128183951Y-61599500D01*
X128138164Y-61607140D01*
X127955015Y-61637702D01*
X127735504Y-61713061D01*
X127735495Y-61713064D01*
X127531371Y-61823531D01*
X127531365Y-61823535D01*
X127348222Y-61966081D01*
X127348219Y-61966084D01*
X127191016Y-62136852D01*
X127064075Y-62331151D01*
X126970842Y-62543699D01*
X126913866Y-62768691D01*
X126913864Y-62768702D01*
X126894700Y-62999993D01*
X126894700Y-63000006D01*
X124209991Y-63000006D01*
X124135924Y-62831151D01*
X124008983Y-62636852D01*
X124008980Y-62636849D01*
X124008979Y-62636847D01*
X123851784Y-62466087D01*
X123851779Y-62466083D01*
X123851777Y-62466081D01*
X123668634Y-62323535D01*
X123668628Y-62323531D01*
X123464504Y-62213064D01*
X123464495Y-62213061D01*
X123244984Y-62137702D01*
X123073282Y-62109050D01*
X123016049Y-62099500D01*
X122783951Y-62099500D01*
X122738164Y-62107140D01*
X122555015Y-62137702D01*
X122335504Y-62213061D01*
X122335495Y-62213064D01*
X122131371Y-62323531D01*
X122131365Y-62323535D01*
X121948222Y-62466081D01*
X121948219Y-62466084D01*
X121791016Y-62636852D01*
X121664075Y-62831151D01*
X121570842Y-63043699D01*
X121513866Y-63268691D01*
X121513864Y-63268702D01*
X121494700Y-63499993D01*
X121494700Y-63500006D01*
X97800499Y-63500006D01*
X97800499Y-63352128D01*
X97794091Y-63292517D01*
X97785204Y-63268691D01*
X97743797Y-63157671D01*
X97743793Y-63157664D01*
X97657547Y-63042455D01*
X97657544Y-63042452D01*
X97542335Y-62956206D01*
X97542328Y-62956202D01*
X97407482Y-62905908D01*
X97407483Y-62905908D01*
X97347883Y-62899501D01*
X97347881Y-62899500D01*
X97347873Y-62899500D01*
X97347864Y-62899500D01*
X94252129Y-62899500D01*
X94252123Y-62899501D01*
X94192516Y-62905908D01*
X94057671Y-62956202D01*
X94057664Y-62956206D01*
X93942455Y-63042452D01*
X93942452Y-63042455D01*
X93856206Y-63157664D01*
X93856202Y-63157671D01*
X93805908Y-63292517D01*
X93799501Y-63352116D01*
X93799501Y-63352123D01*
X93799500Y-63352135D01*
X93799500Y-65447870D01*
X93799501Y-65447876D01*
X93805908Y-65507483D01*
X93856202Y-65642328D01*
X93856206Y-65642335D01*
X93942452Y-65757544D01*
X93942455Y-65757547D01*
X94057664Y-65843793D01*
X94065454Y-65848047D01*
X94063725Y-65851211D01*
X94105915Y-65882734D01*
X94130393Y-65948175D01*
X94115604Y-66016462D01*
X94107036Y-66030021D01*
X94017084Y-66153829D01*
X93909897Y-66364197D01*
X93836934Y-66588752D01*
X93820898Y-66690000D01*
X95251518Y-66690000D01*
X95240889Y-66708409D01*
X95200000Y-66861009D01*
X95200000Y-67018991D01*
X95240889Y-67171591D01*
X95251518Y-67190000D01*
X93820898Y-67190000D01*
X93836934Y-67291247D01*
X93909897Y-67515802D01*
X94017085Y-67726171D01*
X94155866Y-67917186D01*
X94322815Y-68084135D01*
X94357551Y-68109372D01*
X94400217Y-68164702D01*
X94406196Y-68234315D01*
X94373591Y-68296111D01*
X94357552Y-68310008D01*
X94322496Y-68335478D01*
X94322487Y-68335485D01*
X94155485Y-68502487D01*
X94155485Y-68502488D01*
X94155483Y-68502490D01*
X94095862Y-68584550D01*
X94016657Y-68693566D01*
X93909433Y-68904003D01*
X93836446Y-69128631D01*
X93799500Y-69361902D01*
X93799500Y-69598097D01*
X92800500Y-69598097D01*
X92800500Y-69361902D01*
X92763553Y-69128631D01*
X92690566Y-68904003D01*
X92583342Y-68693566D01*
X92444517Y-68502490D01*
X92277510Y-68335483D01*
X92242447Y-68310008D01*
X92199782Y-68254679D01*
X92193803Y-68185066D01*
X92226409Y-68123271D01*
X92242450Y-68109371D01*
X92277182Y-68084137D01*
X92444133Y-67917186D01*
X92582914Y-67726171D01*
X92690102Y-67515802D01*
X92763065Y-67291247D01*
X92779102Y-67190000D01*
X91348482Y-67190000D01*
X91359111Y-67171591D01*
X91400000Y-67018991D01*
X91400000Y-66861009D01*
X91359111Y-66708409D01*
X91348482Y-66690000D01*
X92779102Y-66690000D01*
X92763065Y-66588752D01*
X92690102Y-66364197D01*
X92582914Y-66153828D01*
X92492964Y-66030023D01*
X92469484Y-65964216D01*
X92485309Y-65896162D01*
X92534640Y-65848220D01*
X92534546Y-65848047D01*
X92535169Y-65847706D01*
X92535415Y-65847468D01*
X92536480Y-65846990D01*
X92542326Y-65843797D01*
X92542331Y-65843796D01*
X92657546Y-65757546D01*
X92743796Y-65642331D01*
X92794091Y-65507483D01*
X92800500Y-65447873D01*
X92800499Y-63352128D01*
X92794091Y-63292517D01*
X92785204Y-63268691D01*
X92743797Y-63157671D01*
X92743793Y-63157664D01*
X92657547Y-63042455D01*
X92657544Y-63042452D01*
X92542335Y-62956206D01*
X92542328Y-62956202D01*
X92407482Y-62905908D01*
X92407483Y-62905908D01*
X92347883Y-62899501D01*
X92347881Y-62899500D01*
X92347873Y-62899500D01*
X92347864Y-62899500D01*
X89252129Y-62899500D01*
X89252123Y-62899501D01*
X89192516Y-62905908D01*
X89057671Y-62956202D01*
X89057664Y-62956206D01*
X88942455Y-63042452D01*
X88942452Y-63042455D01*
X88856206Y-63157664D01*
X88856202Y-63157671D01*
X88805908Y-63292517D01*
X88799501Y-63352116D01*
X88799501Y-63352123D01*
X88799500Y-63352135D01*
X88799500Y-65447870D01*
X88799501Y-65447876D01*
X88805908Y-65507483D01*
X88856202Y-65642328D01*
X88856206Y-65642335D01*
X88942452Y-65757544D01*
X88942455Y-65757547D01*
X89057664Y-65843793D01*
X89065454Y-65848047D01*
X89063725Y-65851211D01*
X89105915Y-65882734D01*
X89130393Y-65948175D01*
X89115604Y-66016462D01*
X89107036Y-66030021D01*
X89017084Y-66153829D01*
X88909897Y-66364197D01*
X88836934Y-66588752D01*
X88820898Y-66690000D01*
X90251518Y-66690000D01*
X90240889Y-66708409D01*
X90200000Y-66861009D01*
X90200000Y-67018991D01*
X90240889Y-67171591D01*
X90251518Y-67190000D01*
X88820898Y-67190000D01*
X88836934Y-67291247D01*
X88909897Y-67515802D01*
X89017085Y-67726171D01*
X89155866Y-67917186D01*
X89322815Y-68084135D01*
X89357551Y-68109372D01*
X89400217Y-68164702D01*
X89406196Y-68234315D01*
X89373591Y-68296111D01*
X89357552Y-68310008D01*
X89322496Y-68335478D01*
X89322487Y-68335485D01*
X89155485Y-68502487D01*
X89155485Y-68502488D01*
X89155483Y-68502490D01*
X89095862Y-68584550D01*
X89016657Y-68693566D01*
X88909433Y-68904003D01*
X88836446Y-69128631D01*
X88799500Y-69361902D01*
X88799500Y-69598097D01*
X84836000Y-69598097D01*
X84836000Y-60200006D01*
X107194700Y-60200006D01*
X107213864Y-60431297D01*
X107213866Y-60431308D01*
X107270842Y-60656300D01*
X107364075Y-60868848D01*
X107491016Y-61063147D01*
X107491019Y-61063151D01*
X107491021Y-61063153D01*
X107648216Y-61233913D01*
X107648219Y-61233915D01*
X107648222Y-61233918D01*
X107831365Y-61376464D01*
X107831371Y-61376468D01*
X107831374Y-61376470D01*
X108035497Y-61486936D01*
X108149487Y-61526068D01*
X108255015Y-61562297D01*
X108255017Y-61562297D01*
X108255019Y-61562298D01*
X108483951Y-61600500D01*
X108483952Y-61600500D01*
X108716048Y-61600500D01*
X108716049Y-61600500D01*
X108944981Y-61562298D01*
X109164503Y-61486936D01*
X109368626Y-61376470D01*
X109551784Y-61233913D01*
X109708979Y-61063153D01*
X109835924Y-60868849D01*
X109929157Y-60656300D01*
X109986134Y-60431305D01*
X109989558Y-60389983D01*
X110005300Y-60200006D01*
X117494700Y-60200006D01*
X117513864Y-60431297D01*
X117513866Y-60431308D01*
X117570842Y-60656300D01*
X117664075Y-60868848D01*
X117791016Y-61063147D01*
X117791019Y-61063151D01*
X117791021Y-61063153D01*
X117948216Y-61233913D01*
X117948219Y-61233915D01*
X117948222Y-61233918D01*
X118131365Y-61376464D01*
X118131371Y-61376468D01*
X118131374Y-61376470D01*
X118335497Y-61486936D01*
X118449487Y-61526068D01*
X118555015Y-61562297D01*
X118555017Y-61562297D01*
X118555019Y-61562298D01*
X118783951Y-61600500D01*
X118783952Y-61600500D01*
X119016048Y-61600500D01*
X119016049Y-61600500D01*
X119244981Y-61562298D01*
X119464503Y-61486936D01*
X119668626Y-61376470D01*
X119851784Y-61233913D01*
X120008979Y-61063153D01*
X120135924Y-60868849D01*
X120229157Y-60656300D01*
X120286134Y-60431305D01*
X120289558Y-60389983D01*
X120305300Y-60200006D01*
X120305300Y-60199993D01*
X120286135Y-59968702D01*
X120286133Y-59968691D01*
X120229157Y-59743699D01*
X120135924Y-59531151D01*
X120008983Y-59336852D01*
X120008980Y-59336849D01*
X120008979Y-59336847D01*
X119851784Y-59166087D01*
X119851779Y-59166083D01*
X119851777Y-59166081D01*
X119668634Y-59023535D01*
X119668628Y-59023531D01*
X119464504Y-58913064D01*
X119464495Y-58913061D01*
X119244984Y-58837702D01*
X119073282Y-58809050D01*
X119016049Y-58799500D01*
X118783951Y-58799500D01*
X118738164Y-58807140D01*
X118555015Y-58837702D01*
X118335504Y-58913061D01*
X118335495Y-58913064D01*
X118131371Y-59023531D01*
X118131365Y-59023535D01*
X117948222Y-59166081D01*
X117948219Y-59166084D01*
X117948216Y-59166086D01*
X117948216Y-59166087D01*
X117909029Y-59208656D01*
X117791016Y-59336852D01*
X117664075Y-59531151D01*
X117570842Y-59743699D01*
X117513866Y-59968691D01*
X117513864Y-59968702D01*
X117494700Y-60199993D01*
X117494700Y-60200006D01*
X110005300Y-60200006D01*
X110005300Y-60199993D01*
X109986135Y-59968702D01*
X109986133Y-59968691D01*
X109929157Y-59743699D01*
X109835924Y-59531151D01*
X109708983Y-59336852D01*
X109708980Y-59336849D01*
X109708979Y-59336847D01*
X109551784Y-59166087D01*
X109551779Y-59166083D01*
X109551777Y-59166081D01*
X109368634Y-59023535D01*
X109368628Y-59023531D01*
X109164504Y-58913064D01*
X109164495Y-58913061D01*
X108944984Y-58837702D01*
X108773282Y-58809050D01*
X108716049Y-58799500D01*
X108483951Y-58799500D01*
X108438164Y-58807140D01*
X108255015Y-58837702D01*
X108035504Y-58913061D01*
X108035495Y-58913064D01*
X107831371Y-59023531D01*
X107831365Y-59023535D01*
X107648222Y-59166081D01*
X107648219Y-59166084D01*
X107648216Y-59166086D01*
X107648216Y-59166087D01*
X107609029Y-59208656D01*
X107491016Y-59336852D01*
X107364075Y-59531151D01*
X107270842Y-59743699D01*
X107213866Y-59968691D01*
X107213864Y-59968702D01*
X107194700Y-60199993D01*
X107194700Y-60200006D01*
X84836000Y-60200006D01*
X84836000Y-58291961D01*
X85521500Y-58291961D01*
X85560910Y-58540785D01*
X85638760Y-58780383D01*
X85753132Y-59004848D01*
X85901201Y-59208649D01*
X85901205Y-59208654D01*
X86079345Y-59386794D01*
X86079350Y-59386798D01*
X86257117Y-59515952D01*
X86283155Y-59534870D01*
X86426184Y-59607747D01*
X86507616Y-59649239D01*
X86507618Y-59649239D01*
X86507621Y-59649241D01*
X86747215Y-59727090D01*
X86996038Y-59766500D01*
X86996039Y-59766500D01*
X87247961Y-59766500D01*
X87247962Y-59766500D01*
X87496785Y-59727090D01*
X87736379Y-59649241D01*
X87960845Y-59534870D01*
X88164656Y-59386793D01*
X88342793Y-59208656D01*
X88490870Y-59004845D01*
X88605241Y-58780379D01*
X88683090Y-58540785D01*
X88722500Y-58291962D01*
X88722500Y-58040038D01*
X88684481Y-57800000D01*
X127694540Y-57800000D01*
X127714326Y-57988256D01*
X127714327Y-57988259D01*
X127772818Y-58168277D01*
X127772821Y-58168284D01*
X127867467Y-58332216D01*
X127994129Y-58472888D01*
X128147265Y-58584148D01*
X128147270Y-58584151D01*
X128320192Y-58661142D01*
X128320197Y-58661144D01*
X128505354Y-58700500D01*
X128505355Y-58700500D01*
X128694644Y-58700500D01*
X128694646Y-58700500D01*
X128879803Y-58661144D01*
X129052730Y-58584151D01*
X129205871Y-58472888D01*
X129332533Y-58332216D01*
X129427179Y-58168284D01*
X129485674Y-57988256D01*
X129505460Y-57800000D01*
X129485674Y-57611744D01*
X129427179Y-57431716D01*
X129332533Y-57267784D01*
X129205871Y-57127112D01*
X129200693Y-57123350D01*
X129052734Y-57015851D01*
X129052729Y-57015848D01*
X128879807Y-56938857D01*
X128879802Y-56938855D01*
X128734001Y-56907865D01*
X128694646Y-56899500D01*
X128505354Y-56899500D01*
X128472897Y-56906398D01*
X128320197Y-56938855D01*
X128320192Y-56938857D01*
X128147270Y-57015848D01*
X128147265Y-57015851D01*
X127994129Y-57127111D01*
X127867466Y-57267785D01*
X127772821Y-57431715D01*
X127772818Y-57431722D01*
X127733861Y-57551621D01*
X127714326Y-57611744D01*
X127694540Y-57800000D01*
X88684481Y-57800000D01*
X88683090Y-57791215D01*
X88605241Y-57551621D01*
X88605239Y-57551618D01*
X88605239Y-57551616D01*
X88544146Y-57431715D01*
X88490870Y-57327155D01*
X88345531Y-57127112D01*
X88342798Y-57123350D01*
X88342794Y-57123345D01*
X88164654Y-56945205D01*
X88164649Y-56945201D01*
X87960848Y-56797132D01*
X87960847Y-56797131D01*
X87960845Y-56797130D01*
X87890747Y-56761413D01*
X87736383Y-56682760D01*
X87496785Y-56604910D01*
X87247962Y-56565500D01*
X86996038Y-56565500D01*
X86871626Y-56585205D01*
X86747214Y-56604910D01*
X86507616Y-56682760D01*
X86283151Y-56797132D01*
X86079350Y-56945201D01*
X86079345Y-56945205D01*
X85901205Y-57123345D01*
X85901201Y-57123350D01*
X85753132Y-57327151D01*
X85638760Y-57551616D01*
X85560910Y-57791214D01*
X85521500Y-58040038D01*
X85521500Y-58291961D01*
X84836000Y-58291961D01*
X84836000Y-56004000D01*
X84855685Y-55936961D01*
X84908489Y-55891206D01*
X84960000Y-55880000D01*
X147944000Y-55880000D01*
X148011039Y-55899685D01*
G37*
%TD.AperFunction*%
%TD*%
M02*
