M48
; DRILL file {KiCad 8.0.1} date 2024-05-07T10:14:04+0100
; FORMAT={-:-/ absolute / metric / decimal}
; #@! TF.CreationDate,2024-05-07T10:14:04+01:00
; #@! TF.GenerationSoftware,Kicad,Pcbnew,8.0.1
; #@! TF.FileFunction,Plated,1,4,PTH
FMAT,2
METRIC
; #@! TA.AperFunction,Plated,PTH,ViaDrill
T1C0.400
; #@! TA.AperFunction,Plated,PTH,ViaDrill
T2C0.500
; #@! TA.AperFunction,Plated,PTH,ComponentDrill
T3C1.200
; #@! TA.AperFunction,Plated,PTH,ComponentDrill
T4C1.500
; #@! TA.AperFunction,Plated,PTH,ComponentDrill
T5C1.700
; #@! TA.AperFunction,Plated,PTH,ComponentDrill
T6C2.500
%
G90
G05
T1
X94.0Y-81.4
X101.7Y-76.3
X105.9Y-77.6
X119.1Y-77.5
X123.3Y-72.4
X123.3Y-74.3
X123.4Y-78.8
X128.6Y-57.8
X129.9Y-74.3
X132.0Y-83.0
X133.2Y-93.7
X136.5Y-78.45
T2
X96.0Y-81.2
X98.6Y-77.6
X99.7Y-81.1
X101.1Y-58.0
X102.3Y-61.2
X103.5Y-64.4
X108.6Y-60.2
X108.9Y-74.5
X109.2Y-71.0
X109.3Y-76.41
X110.02Y-80.81
X111.2Y-74.5
X112.5Y-91.9
X112.85Y-86.09
X113.83Y-83.2
X116.31Y-78.8
X117.8Y-91.3
X118.4Y-84.0
X118.9Y-60.2
X119.8Y-90.81
X122.0Y-82.4
X122.5Y-58.2
X122.6Y-66.8
X122.9Y-63.5
X123.1Y-92.9
X123.4Y-87.417
X123.5Y-60.8
X125.4Y-82.1
X125.8Y-66.5
X126.0Y-93.0
X126.5Y-76.3
X128.3Y-63.0
X130.85Y-93.49
X132.1Y-66.4
X135.88Y-88.01
X137.65Y-93.35
X139.2Y-68.9
X139.8Y-89.7
X143.4Y-68.8
X145.0Y-72.8
X145.0Y-82.4
T3
X90.8Y-64.4
X90.8Y-66.94
X90.8Y-69.48
X95.8Y-64.4
X95.8Y-66.94
X95.8Y-69.48
T4
X89.4Y-81.4
X136.568Y-74.608
T5
X86.86Y-78.86
X86.86Y-83.94
X91.94Y-78.86
X91.94Y-83.94
X134.028Y-72.068
X134.028Y-77.148
X139.108Y-72.068
X139.108Y-77.148
T6
X137.71Y-84.69
X144.1Y-62.14
X152.908Y-89.154
X157.59Y-66.06
M30
