M48
; DRILL file {KiCad 7.0.1} date Mon Feb 12 12:05:16 2024
; FORMAT={-:-/ absolute / inch / decimal}
; #@! TF.CreationDate,2024-02-12T12:05:16+00:00
; #@! TF.GenerationSoftware,Kicad,Pcbnew,7.0.1
; #@! TF.FileFunction,Plated,1,4,PTH
FMAT,2
INCH
; #@! TA.AperFunction,Plated,PTH,ComponentDrill
T1C0.0118
; #@! TA.AperFunction,Plated,PTH,ViaDrill
T2C0.0157
; #@! TA.AperFunction,Plated,PTH,ViaDrill
T3C0.0197
; #@! TA.AperFunction,Plated,PTH,ComponentDrill
T4C0.0197
; #@! TA.AperFunction,Plated,PTH,ComponentDrill
T5C0.0276
; #@! TA.AperFunction,Plated,PTH,ComponentDrill
T6C0.0335
; #@! TA.AperFunction,Plated,PTH,ComponentDrill
T7C0.0472
; #@! TA.AperFunction,Plated,PTH,ComponentDrill
T8C0.0591
; #@! TA.AperFunction,Plated,PTH,ComponentDrill
T9C0.0669
%
G90
G05
T1
X4.4219Y-2.9936
X4.4219Y-3.0444
X4.4601Y-2.9936
X4.4601Y-3.0444
T2
X4.265Y-2.761
X4.2849Y-2.933
X4.302Y-2.761
X4.3309Y-2.934
X4.4199Y-3.24
X4.4612Y-3.24
X4.5609Y-2.761
X4.598Y-2.761
X4.5989Y-2.933
X5.006Y-3.308
X5.006Y-3.353
X5.697Y-2.851
X5.9563Y-2.728
X5.9977Y-2.728
T3
X4.126Y-3.481
X4.542Y-2.244
X4.5991Y-3.5204
X4.601Y-3.379
X4.632Y-2.244
X4.895Y-3.48
X4.963Y-3.07
X5.123Y-3.071
X5.185Y-2.242
X5.273Y-2.242
T4
X4.0591Y-2.4005
X4.0791Y-2.4465
X4.0971Y-2.4935
T5
X4.384Y-3.658
X4.684Y-3.658
T6
X5.73Y-3.433
X5.83Y-3.063
X5.98Y-3.063
X6.13Y-3.063
X6.13Y-3.433
T7
X3.57Y-2.804
X3.57Y-2.904
X3.57Y-3.004
X3.7669Y-2.804
X3.7669Y-2.904
X3.7669Y-3.004
X5.627Y-2.4271
X5.627Y-2.624
X5.727Y-2.4271
X5.727Y-2.624
X5.827Y-2.4271
X5.827Y-2.624
X5.927Y-2.4271
X5.927Y-2.624
X6.027Y-2.4271
X6.027Y-2.624
X6.127Y-2.4271
X6.127Y-2.624
T8
X3.5378Y-3.348
T9
X3.4378Y-3.248
X3.4378Y-3.448
X3.6378Y-3.248
X3.6378Y-3.448
T0
M30
