%TF.GenerationSoftware,KiCad,Pcbnew,7.0.1*%
%TF.CreationDate,2024-02-12T12:04:44+00:00*%
%TF.ProjectId,UoB TICSP,556f4220-5449-4435-9350-2e6b69636164,1*%
%TF.SameCoordinates,Original*%
%TF.FileFunction,Legend,Bot*%
%TF.FilePolarity,Positive*%
%FSLAX46Y46*%
G04 Gerber Fmt 4.6, Leading zero omitted, Abs format (unit mm)*
G04 Created by KiCad (PCBNEW 7.0.1) date 2024-02-12 12:04:44*
%MOMM*%
%LPD*%
G01*
G04 APERTURE LIST*
%ADD10C,0.150000*%
%ADD11C,0.120000*%
G04 APERTURE END LIST*
D10*
%TO.C,C10*%
X106865657Y-76237180D02*
X106913276Y-76284800D01*
X106913276Y-76284800D02*
X107056133Y-76332419D01*
X107056133Y-76332419D02*
X107151371Y-76332419D01*
X107151371Y-76332419D02*
X107294228Y-76284800D01*
X107294228Y-76284800D02*
X107389466Y-76189561D01*
X107389466Y-76189561D02*
X107437085Y-76094323D01*
X107437085Y-76094323D02*
X107484704Y-75903847D01*
X107484704Y-75903847D02*
X107484704Y-75760990D01*
X107484704Y-75760990D02*
X107437085Y-75570514D01*
X107437085Y-75570514D02*
X107389466Y-75475276D01*
X107389466Y-75475276D02*
X107294228Y-75380038D01*
X107294228Y-75380038D02*
X107151371Y-75332419D01*
X107151371Y-75332419D02*
X107056133Y-75332419D01*
X107056133Y-75332419D02*
X106913276Y-75380038D01*
X106913276Y-75380038D02*
X106865657Y-75427657D01*
X105913276Y-76332419D02*
X106484704Y-76332419D01*
X106198990Y-76332419D02*
X106198990Y-75332419D01*
X106198990Y-75332419D02*
X106294228Y-75475276D01*
X106294228Y-75475276D02*
X106389466Y-75570514D01*
X106389466Y-75570514D02*
X106484704Y-75618133D01*
X105294228Y-75332419D02*
X105198990Y-75332419D01*
X105198990Y-75332419D02*
X105103752Y-75380038D01*
X105103752Y-75380038D02*
X105056133Y-75427657D01*
X105056133Y-75427657D02*
X105008514Y-75522895D01*
X105008514Y-75522895D02*
X104960895Y-75713371D01*
X104960895Y-75713371D02*
X104960895Y-75951466D01*
X104960895Y-75951466D02*
X105008514Y-76141942D01*
X105008514Y-76141942D02*
X105056133Y-76237180D01*
X105056133Y-76237180D02*
X105103752Y-76284800D01*
X105103752Y-76284800D02*
X105198990Y-76332419D01*
X105198990Y-76332419D02*
X105294228Y-76332419D01*
X105294228Y-76332419D02*
X105389466Y-76284800D01*
X105389466Y-76284800D02*
X105437085Y-76237180D01*
X105437085Y-76237180D02*
X105484704Y-76141942D01*
X105484704Y-76141942D02*
X105532323Y-75951466D01*
X105532323Y-75951466D02*
X105532323Y-75713371D01*
X105532323Y-75713371D02*
X105484704Y-75522895D01*
X105484704Y-75522895D02*
X105437085Y-75427657D01*
X105437085Y-75427657D02*
X105389466Y-75380038D01*
X105389466Y-75380038D02*
X105294228Y-75332419D01*
%TO.C,C7*%
X132068866Y-80580580D02*
X132116485Y-80628200D01*
X132116485Y-80628200D02*
X132259342Y-80675819D01*
X132259342Y-80675819D02*
X132354580Y-80675819D01*
X132354580Y-80675819D02*
X132497437Y-80628200D01*
X132497437Y-80628200D02*
X132592675Y-80532961D01*
X132592675Y-80532961D02*
X132640294Y-80437723D01*
X132640294Y-80437723D02*
X132687913Y-80247247D01*
X132687913Y-80247247D02*
X132687913Y-80104390D01*
X132687913Y-80104390D02*
X132640294Y-79913914D01*
X132640294Y-79913914D02*
X132592675Y-79818676D01*
X132592675Y-79818676D02*
X132497437Y-79723438D01*
X132497437Y-79723438D02*
X132354580Y-79675819D01*
X132354580Y-79675819D02*
X132259342Y-79675819D01*
X132259342Y-79675819D02*
X132116485Y-79723438D01*
X132116485Y-79723438D02*
X132068866Y-79771057D01*
X131735532Y-79675819D02*
X131068866Y-79675819D01*
X131068866Y-79675819D02*
X131497437Y-80675819D01*
%TO.C,C17*%
X122512057Y-80504380D02*
X122559676Y-80552000D01*
X122559676Y-80552000D02*
X122702533Y-80599619D01*
X122702533Y-80599619D02*
X122797771Y-80599619D01*
X122797771Y-80599619D02*
X122940628Y-80552000D01*
X122940628Y-80552000D02*
X123035866Y-80456761D01*
X123035866Y-80456761D02*
X123083485Y-80361523D01*
X123083485Y-80361523D02*
X123131104Y-80171047D01*
X123131104Y-80171047D02*
X123131104Y-80028190D01*
X123131104Y-80028190D02*
X123083485Y-79837714D01*
X123083485Y-79837714D02*
X123035866Y-79742476D01*
X123035866Y-79742476D02*
X122940628Y-79647238D01*
X122940628Y-79647238D02*
X122797771Y-79599619D01*
X122797771Y-79599619D02*
X122702533Y-79599619D01*
X122702533Y-79599619D02*
X122559676Y-79647238D01*
X122559676Y-79647238D02*
X122512057Y-79694857D01*
X121559676Y-80599619D02*
X122131104Y-80599619D01*
X121845390Y-80599619D02*
X121845390Y-79599619D01*
X121845390Y-79599619D02*
X121940628Y-79742476D01*
X121940628Y-79742476D02*
X122035866Y-79837714D01*
X122035866Y-79837714D02*
X122131104Y-79885333D01*
X121226342Y-79599619D02*
X120559676Y-79599619D01*
X120559676Y-79599619D02*
X120988247Y-80599619D01*
%TO.C,C9*%
X106414866Y-69807380D02*
X106462485Y-69855000D01*
X106462485Y-69855000D02*
X106605342Y-69902619D01*
X106605342Y-69902619D02*
X106700580Y-69902619D01*
X106700580Y-69902619D02*
X106843437Y-69855000D01*
X106843437Y-69855000D02*
X106938675Y-69759761D01*
X106938675Y-69759761D02*
X106986294Y-69664523D01*
X106986294Y-69664523D02*
X107033913Y-69474047D01*
X107033913Y-69474047D02*
X107033913Y-69331190D01*
X107033913Y-69331190D02*
X106986294Y-69140714D01*
X106986294Y-69140714D02*
X106938675Y-69045476D01*
X106938675Y-69045476D02*
X106843437Y-68950238D01*
X106843437Y-68950238D02*
X106700580Y-68902619D01*
X106700580Y-68902619D02*
X106605342Y-68902619D01*
X106605342Y-68902619D02*
X106462485Y-68950238D01*
X106462485Y-68950238D02*
X106414866Y-68997857D01*
X105938675Y-69902619D02*
X105748199Y-69902619D01*
X105748199Y-69902619D02*
X105652961Y-69855000D01*
X105652961Y-69855000D02*
X105605342Y-69807380D01*
X105605342Y-69807380D02*
X105510104Y-69664523D01*
X105510104Y-69664523D02*
X105462485Y-69474047D01*
X105462485Y-69474047D02*
X105462485Y-69093095D01*
X105462485Y-69093095D02*
X105510104Y-68997857D01*
X105510104Y-68997857D02*
X105557723Y-68950238D01*
X105557723Y-68950238D02*
X105652961Y-68902619D01*
X105652961Y-68902619D02*
X105843437Y-68902619D01*
X105843437Y-68902619D02*
X105938675Y-68950238D01*
X105938675Y-68950238D02*
X105986294Y-68997857D01*
X105986294Y-68997857D02*
X106033913Y-69093095D01*
X106033913Y-69093095D02*
X106033913Y-69331190D01*
X106033913Y-69331190D02*
X105986294Y-69426428D01*
X105986294Y-69426428D02*
X105938675Y-69474047D01*
X105938675Y-69474047D02*
X105843437Y-69521666D01*
X105843437Y-69521666D02*
X105652961Y-69521666D01*
X105652961Y-69521666D02*
X105557723Y-69474047D01*
X105557723Y-69474047D02*
X105510104Y-69426428D01*
X105510104Y-69426428D02*
X105462485Y-69331190D01*
%TO.C,C8*%
X129401866Y-85101780D02*
X129449485Y-85149400D01*
X129449485Y-85149400D02*
X129592342Y-85197019D01*
X129592342Y-85197019D02*
X129687580Y-85197019D01*
X129687580Y-85197019D02*
X129830437Y-85149400D01*
X129830437Y-85149400D02*
X129925675Y-85054161D01*
X129925675Y-85054161D02*
X129973294Y-84958923D01*
X129973294Y-84958923D02*
X130020913Y-84768447D01*
X130020913Y-84768447D02*
X130020913Y-84625590D01*
X130020913Y-84625590D02*
X129973294Y-84435114D01*
X129973294Y-84435114D02*
X129925675Y-84339876D01*
X129925675Y-84339876D02*
X129830437Y-84244638D01*
X129830437Y-84244638D02*
X129687580Y-84197019D01*
X129687580Y-84197019D02*
X129592342Y-84197019D01*
X129592342Y-84197019D02*
X129449485Y-84244638D01*
X129449485Y-84244638D02*
X129401866Y-84292257D01*
X128830437Y-84625590D02*
X128925675Y-84577971D01*
X128925675Y-84577971D02*
X128973294Y-84530352D01*
X128973294Y-84530352D02*
X129020913Y-84435114D01*
X129020913Y-84435114D02*
X129020913Y-84387495D01*
X129020913Y-84387495D02*
X128973294Y-84292257D01*
X128973294Y-84292257D02*
X128925675Y-84244638D01*
X128925675Y-84244638D02*
X128830437Y-84197019D01*
X128830437Y-84197019D02*
X128639961Y-84197019D01*
X128639961Y-84197019D02*
X128544723Y-84244638D01*
X128544723Y-84244638D02*
X128497104Y-84292257D01*
X128497104Y-84292257D02*
X128449485Y-84387495D01*
X128449485Y-84387495D02*
X128449485Y-84435114D01*
X128449485Y-84435114D02*
X128497104Y-84530352D01*
X128497104Y-84530352D02*
X128544723Y-84577971D01*
X128544723Y-84577971D02*
X128639961Y-84625590D01*
X128639961Y-84625590D02*
X128830437Y-84625590D01*
X128830437Y-84625590D02*
X128925675Y-84673209D01*
X128925675Y-84673209D02*
X128973294Y-84720828D01*
X128973294Y-84720828D02*
X129020913Y-84816066D01*
X129020913Y-84816066D02*
X129020913Y-85006542D01*
X129020913Y-85006542D02*
X128973294Y-85101780D01*
X128973294Y-85101780D02*
X128925675Y-85149400D01*
X128925675Y-85149400D02*
X128830437Y-85197019D01*
X128830437Y-85197019D02*
X128639961Y-85197019D01*
X128639961Y-85197019D02*
X128544723Y-85149400D01*
X128544723Y-85149400D02*
X128497104Y-85101780D01*
X128497104Y-85101780D02*
X128449485Y-85006542D01*
X128449485Y-85006542D02*
X128449485Y-84816066D01*
X128449485Y-84816066D02*
X128497104Y-84720828D01*
X128497104Y-84720828D02*
X128544723Y-84673209D01*
X128544723Y-84673209D02*
X128639961Y-84625590D01*
%TO.C,C16*%
X119540257Y-69480780D02*
X119587876Y-69528400D01*
X119587876Y-69528400D02*
X119730733Y-69576019D01*
X119730733Y-69576019D02*
X119825971Y-69576019D01*
X119825971Y-69576019D02*
X119968828Y-69528400D01*
X119968828Y-69528400D02*
X120064066Y-69433161D01*
X120064066Y-69433161D02*
X120111685Y-69337923D01*
X120111685Y-69337923D02*
X120159304Y-69147447D01*
X120159304Y-69147447D02*
X120159304Y-69004590D01*
X120159304Y-69004590D02*
X120111685Y-68814114D01*
X120111685Y-68814114D02*
X120064066Y-68718876D01*
X120064066Y-68718876D02*
X119968828Y-68623638D01*
X119968828Y-68623638D02*
X119825971Y-68576019D01*
X119825971Y-68576019D02*
X119730733Y-68576019D01*
X119730733Y-68576019D02*
X119587876Y-68623638D01*
X119587876Y-68623638D02*
X119540257Y-68671257D01*
X118587876Y-69576019D02*
X119159304Y-69576019D01*
X118873590Y-69576019D02*
X118873590Y-68576019D01*
X118873590Y-68576019D02*
X118968828Y-68718876D01*
X118968828Y-68718876D02*
X119064066Y-68814114D01*
X119064066Y-68814114D02*
X119159304Y-68861733D01*
X117730733Y-68576019D02*
X117921209Y-68576019D01*
X117921209Y-68576019D02*
X118016447Y-68623638D01*
X118016447Y-68623638D02*
X118064066Y-68671257D01*
X118064066Y-68671257D02*
X118159304Y-68814114D01*
X118159304Y-68814114D02*
X118206923Y-69004590D01*
X118206923Y-69004590D02*
X118206923Y-69385542D01*
X118206923Y-69385542D02*
X118159304Y-69480780D01*
X118159304Y-69480780D02*
X118111685Y-69528400D01*
X118111685Y-69528400D02*
X118016447Y-69576019D01*
X118016447Y-69576019D02*
X117825971Y-69576019D01*
X117825971Y-69576019D02*
X117730733Y-69528400D01*
X117730733Y-69528400D02*
X117683114Y-69480780D01*
X117683114Y-69480780D02*
X117635495Y-69385542D01*
X117635495Y-69385542D02*
X117635495Y-69147447D01*
X117635495Y-69147447D02*
X117683114Y-69052209D01*
X117683114Y-69052209D02*
X117730733Y-69004590D01*
X117730733Y-69004590D02*
X117825971Y-68956971D01*
X117825971Y-68956971D02*
X118016447Y-68956971D01*
X118016447Y-68956971D02*
X118111685Y-69004590D01*
X118111685Y-69004590D02*
X118159304Y-69052209D01*
X118159304Y-69052209D02*
X118206923Y-69147447D01*
%TO.C,C19*%
X125788657Y-85050980D02*
X125836276Y-85098600D01*
X125836276Y-85098600D02*
X125979133Y-85146219D01*
X125979133Y-85146219D02*
X126074371Y-85146219D01*
X126074371Y-85146219D02*
X126217228Y-85098600D01*
X126217228Y-85098600D02*
X126312466Y-85003361D01*
X126312466Y-85003361D02*
X126360085Y-84908123D01*
X126360085Y-84908123D02*
X126407704Y-84717647D01*
X126407704Y-84717647D02*
X126407704Y-84574790D01*
X126407704Y-84574790D02*
X126360085Y-84384314D01*
X126360085Y-84384314D02*
X126312466Y-84289076D01*
X126312466Y-84289076D02*
X126217228Y-84193838D01*
X126217228Y-84193838D02*
X126074371Y-84146219D01*
X126074371Y-84146219D02*
X125979133Y-84146219D01*
X125979133Y-84146219D02*
X125836276Y-84193838D01*
X125836276Y-84193838D02*
X125788657Y-84241457D01*
X124836276Y-85146219D02*
X125407704Y-85146219D01*
X125121990Y-85146219D02*
X125121990Y-84146219D01*
X125121990Y-84146219D02*
X125217228Y-84289076D01*
X125217228Y-84289076D02*
X125312466Y-84384314D01*
X125312466Y-84384314D02*
X125407704Y-84431933D01*
X124360085Y-85146219D02*
X124169609Y-85146219D01*
X124169609Y-85146219D02*
X124074371Y-85098600D01*
X124074371Y-85098600D02*
X124026752Y-85050980D01*
X124026752Y-85050980D02*
X123931514Y-84908123D01*
X123931514Y-84908123D02*
X123883895Y-84717647D01*
X123883895Y-84717647D02*
X123883895Y-84336695D01*
X123883895Y-84336695D02*
X123931514Y-84241457D01*
X123931514Y-84241457D02*
X123979133Y-84193838D01*
X123979133Y-84193838D02*
X124074371Y-84146219D01*
X124074371Y-84146219D02*
X124264847Y-84146219D01*
X124264847Y-84146219D02*
X124360085Y-84193838D01*
X124360085Y-84193838D02*
X124407704Y-84241457D01*
X124407704Y-84241457D02*
X124455323Y-84336695D01*
X124455323Y-84336695D02*
X124455323Y-84574790D01*
X124455323Y-84574790D02*
X124407704Y-84670028D01*
X124407704Y-84670028D02*
X124360085Y-84717647D01*
X124360085Y-84717647D02*
X124264847Y-84765266D01*
X124264847Y-84765266D02*
X124074371Y-84765266D01*
X124074371Y-84765266D02*
X123979133Y-84717647D01*
X123979133Y-84717647D02*
X123931514Y-84670028D01*
X123931514Y-84670028D02*
X123883895Y-84574790D01*
%TO.C,C13*%
X113520457Y-79208980D02*
X113568076Y-79256600D01*
X113568076Y-79256600D02*
X113710933Y-79304219D01*
X113710933Y-79304219D02*
X113806171Y-79304219D01*
X113806171Y-79304219D02*
X113949028Y-79256600D01*
X113949028Y-79256600D02*
X114044266Y-79161361D01*
X114044266Y-79161361D02*
X114091885Y-79066123D01*
X114091885Y-79066123D02*
X114139504Y-78875647D01*
X114139504Y-78875647D02*
X114139504Y-78732790D01*
X114139504Y-78732790D02*
X114091885Y-78542314D01*
X114091885Y-78542314D02*
X114044266Y-78447076D01*
X114044266Y-78447076D02*
X113949028Y-78351838D01*
X113949028Y-78351838D02*
X113806171Y-78304219D01*
X113806171Y-78304219D02*
X113710933Y-78304219D01*
X113710933Y-78304219D02*
X113568076Y-78351838D01*
X113568076Y-78351838D02*
X113520457Y-78399457D01*
X112568076Y-79304219D02*
X113139504Y-79304219D01*
X112853790Y-79304219D02*
X112853790Y-78304219D01*
X112853790Y-78304219D02*
X112949028Y-78447076D01*
X112949028Y-78447076D02*
X113044266Y-78542314D01*
X113044266Y-78542314D02*
X113139504Y-78589933D01*
X112234742Y-78304219D02*
X111615695Y-78304219D01*
X111615695Y-78304219D02*
X111949028Y-78685171D01*
X111949028Y-78685171D02*
X111806171Y-78685171D01*
X111806171Y-78685171D02*
X111710933Y-78732790D01*
X111710933Y-78732790D02*
X111663314Y-78780409D01*
X111663314Y-78780409D02*
X111615695Y-78875647D01*
X111615695Y-78875647D02*
X111615695Y-79113742D01*
X111615695Y-79113742D02*
X111663314Y-79208980D01*
X111663314Y-79208980D02*
X111710933Y-79256600D01*
X111710933Y-79256600D02*
X111806171Y-79304219D01*
X111806171Y-79304219D02*
X112091885Y-79304219D01*
X112091885Y-79304219D02*
X112187123Y-79256600D01*
X112187123Y-79256600D02*
X112234742Y-79208980D01*
%TO.C,C18*%
X119591057Y-76287980D02*
X119638676Y-76335600D01*
X119638676Y-76335600D02*
X119781533Y-76383219D01*
X119781533Y-76383219D02*
X119876771Y-76383219D01*
X119876771Y-76383219D02*
X120019628Y-76335600D01*
X120019628Y-76335600D02*
X120114866Y-76240361D01*
X120114866Y-76240361D02*
X120162485Y-76145123D01*
X120162485Y-76145123D02*
X120210104Y-75954647D01*
X120210104Y-75954647D02*
X120210104Y-75811790D01*
X120210104Y-75811790D02*
X120162485Y-75621314D01*
X120162485Y-75621314D02*
X120114866Y-75526076D01*
X120114866Y-75526076D02*
X120019628Y-75430838D01*
X120019628Y-75430838D02*
X119876771Y-75383219D01*
X119876771Y-75383219D02*
X119781533Y-75383219D01*
X119781533Y-75383219D02*
X119638676Y-75430838D01*
X119638676Y-75430838D02*
X119591057Y-75478457D01*
X118638676Y-76383219D02*
X119210104Y-76383219D01*
X118924390Y-76383219D02*
X118924390Y-75383219D01*
X118924390Y-75383219D02*
X119019628Y-75526076D01*
X119019628Y-75526076D02*
X119114866Y-75621314D01*
X119114866Y-75621314D02*
X119210104Y-75668933D01*
X118067247Y-75811790D02*
X118162485Y-75764171D01*
X118162485Y-75764171D02*
X118210104Y-75716552D01*
X118210104Y-75716552D02*
X118257723Y-75621314D01*
X118257723Y-75621314D02*
X118257723Y-75573695D01*
X118257723Y-75573695D02*
X118210104Y-75478457D01*
X118210104Y-75478457D02*
X118162485Y-75430838D01*
X118162485Y-75430838D02*
X118067247Y-75383219D01*
X118067247Y-75383219D02*
X117876771Y-75383219D01*
X117876771Y-75383219D02*
X117781533Y-75430838D01*
X117781533Y-75430838D02*
X117733914Y-75478457D01*
X117733914Y-75478457D02*
X117686295Y-75573695D01*
X117686295Y-75573695D02*
X117686295Y-75621314D01*
X117686295Y-75621314D02*
X117733914Y-75716552D01*
X117733914Y-75716552D02*
X117781533Y-75764171D01*
X117781533Y-75764171D02*
X117876771Y-75811790D01*
X117876771Y-75811790D02*
X118067247Y-75811790D01*
X118067247Y-75811790D02*
X118162485Y-75859409D01*
X118162485Y-75859409D02*
X118210104Y-75907028D01*
X118210104Y-75907028D02*
X118257723Y-76002266D01*
X118257723Y-76002266D02*
X118257723Y-76192742D01*
X118257723Y-76192742D02*
X118210104Y-76287980D01*
X118210104Y-76287980D02*
X118162485Y-76335600D01*
X118162485Y-76335600D02*
X118067247Y-76383219D01*
X118067247Y-76383219D02*
X117876771Y-76383219D01*
X117876771Y-76383219D02*
X117781533Y-76335600D01*
X117781533Y-76335600D02*
X117733914Y-76287980D01*
X117733914Y-76287980D02*
X117686295Y-76192742D01*
X117686295Y-76192742D02*
X117686295Y-76002266D01*
X117686295Y-76002266D02*
X117733914Y-75907028D01*
X117733914Y-75907028D02*
X117781533Y-75859409D01*
X117781533Y-75859409D02*
X117876771Y-75811790D01*
D11*
%TO.C,C10*%
X106499252Y-74649000D02*
X105976748Y-74649000D01*
X106499252Y-73179000D02*
X105976748Y-73179000D01*
%TO.C,C7*%
X129435452Y-80922800D02*
X128912948Y-80922800D01*
X129435452Y-79452800D02*
X128912948Y-79452800D01*
%TO.C,C17*%
X125371452Y-80922800D02*
X124848948Y-80922800D01*
X125371452Y-79452800D02*
X124848948Y-79452800D01*
%TO.C,C9*%
X106509452Y-71855000D02*
X105986948Y-71855000D01*
X106509452Y-70385000D02*
X105986948Y-70385000D01*
%TO.C,C8*%
X129435452Y-83716800D02*
X128912948Y-83716800D01*
X129435452Y-82246800D02*
X128912948Y-82246800D01*
%TO.C,C16*%
X118610748Y-70359600D02*
X119133252Y-70359600D01*
X118610748Y-71829600D02*
X119133252Y-71829600D01*
%TO.C,C19*%
X125371452Y-83716800D02*
X124848948Y-83716800D01*
X125371452Y-82246800D02*
X124848948Y-82246800D01*
%TO.C,C13*%
X113037252Y-81405400D02*
X112514748Y-81405400D01*
X113037252Y-79935400D02*
X112514748Y-79935400D01*
%TO.C,C18*%
X118625948Y-73179000D02*
X119148452Y-73179000D01*
X118625948Y-74649000D02*
X119148452Y-74649000D01*
%TD*%
M02*
