%TF.GenerationSoftware,KiCad,Pcbnew,7.0.1*%
%TF.CreationDate,2024-02-12T12:04:44+00:00*%
%TF.ProjectId,UoB TICSP,556f4220-5449-4435-9350-2e6b69636164,1*%
%TF.SameCoordinates,Original*%
%TF.FileFunction,Soldermask,Bot*%
%TF.FilePolarity,Negative*%
%FSLAX46Y46*%
G04 Gerber Fmt 4.6, Leading zero omitted, Abs format (unit mm)*
G04 Created by KiCad (PCBNEW 7.0.1) date 2024-02-12 12:04:44*
%MOMM*%
%LPD*%
G01*
G04 APERTURE LIST*
G04 Aperture macros list*
%AMRoundRect*
0 Rectangle with rounded corners*
0 $1 Rounding radius*
0 $2 $3 $4 $5 $6 $7 $8 $9 X,Y pos of 4 corners*
0 Add a 4 corners polygon primitive as box body*
4,1,4,$2,$3,$4,$5,$6,$7,$8,$9,$2,$3,0*
0 Add four circle primitives for the rounded corners*
1,1,$1+$1,$2,$3*
1,1,$1+$1,$4,$5*
1,1,$1+$1,$6,$7*
1,1,$1+$1,$8,$9*
0 Add four rect primitives between the rounded corners*
20,1,$1+$1,$2,$3,$4,$5,0*
20,1,$1+$1,$4,$5,$6,$7,0*
20,1,$1+$1,$6,$7,$8,$9,0*
20,1,$1+$1,$8,$9,$2,$3,0*%
G04 Aperture macros list end*
%ADD10R,3.000000X2.000000*%
%ADD11O,3.000000X2.000000*%
%ADD12C,2.200000*%
%ADD13RoundRect,0.200100X0.949900X-0.949900X0.949900X0.949900X-0.949900X0.949900X-0.949900X-0.949900X0*%
%ADD14C,2.500000*%
%ADD15C,1.400000*%
%ADD16O,1.400000X1.400000*%
%ADD17R,2.000000X3.000000*%
%ADD18O,2.000000X3.000000*%
%ADD19C,1.000000*%
%ADD20R,1.850000X1.850000*%
%ADD21C,1.850000*%
%ADD22RoundRect,0.250000X0.250000X0.475000X-0.250000X0.475000X-0.250000X-0.475000X0.250000X-0.475000X0*%
%ADD23RoundRect,0.250000X-0.250000X-0.475000X0.250000X-0.475000X0.250000X0.475000X-0.250000X0.475000X0*%
G04 APERTURE END LIST*
D10*
%TO.C,J1*%
X95678000Y-71221600D03*
X90678000Y-71221600D03*
D11*
X95678000Y-73761600D03*
X90678000Y-73761600D03*
X95678000Y-76301600D03*
X90678000Y-76301600D03*
%TD*%
D12*
%TO.C,H2*%
X87122000Y-91948000D03*
%TD*%
D13*
%TO.C,J2*%
X89860000Y-85040000D03*
D14*
X87320000Y-87580000D03*
X92400000Y-87580000D03*
X87320000Y-82500000D03*
X92400000Y-82500000D03*
%TD*%
D15*
%TO.C,R14*%
X118973600Y-92913200D03*
D16*
X111353600Y-92913200D03*
%TD*%
D17*
%TO.C,J4*%
X155625800Y-66649600D03*
X155625800Y-61649600D03*
D18*
X153085800Y-66649600D03*
X153085800Y-61649600D03*
X150545800Y-66649600D03*
X150545800Y-61649600D03*
X148005800Y-66649600D03*
X148005800Y-61649600D03*
X145465800Y-66649600D03*
X145465800Y-61649600D03*
X142925800Y-66649600D03*
X142925800Y-61649600D03*
%TD*%
D12*
%TO.C,H3*%
X161010600Y-57937400D03*
%TD*%
D19*
%TO.C,IAC*%
X103100604Y-60971500D03*
X103608604Y-62139900D03*
X104065804Y-63333700D03*
%TD*%
D12*
%TO.C,H4*%
X161036000Y-91948000D03*
%TD*%
%TO.C,H1*%
X87122000Y-58166000D03*
%TD*%
D20*
%TO.C,PS1*%
X155702000Y-77800000D03*
D21*
X151892000Y-77800000D03*
X155702000Y-87198000D03*
X145542000Y-87198000D03*
X148082000Y-77800000D03*
%TD*%
D22*
%TO.C,C10*%
X107188000Y-73914000D03*
X105288000Y-73914000D03*
%TD*%
%TO.C,C7*%
X130124200Y-80187800D03*
X128224200Y-80187800D03*
%TD*%
%TO.C,C17*%
X126060200Y-80187800D03*
X124160200Y-80187800D03*
%TD*%
%TO.C,C9*%
X107198200Y-71120000D03*
X105298200Y-71120000D03*
%TD*%
%TO.C,C8*%
X130124200Y-82981800D03*
X128224200Y-82981800D03*
%TD*%
D23*
%TO.C,C16*%
X117922000Y-71094600D03*
X119822000Y-71094600D03*
%TD*%
D22*
%TO.C,C19*%
X126060200Y-82981800D03*
X124160200Y-82981800D03*
%TD*%
%TO.C,C13*%
X113726000Y-80670400D03*
X111826000Y-80670400D03*
%TD*%
D23*
%TO.C,C18*%
X117937200Y-73914000D03*
X119837200Y-73914000D03*
%TD*%
M02*
